<?xml version="1.0" standalone="no"?>
<!DOCTYPE svg PUBLIC "-//W3C//DTD SVG 1.1//EN" "http://www.w3.org/Graphics/SVG/1.1/DTD/svg11.dtd" >
<svg xmlns="http://www.w3.org/2000/svg">
<metadata>
This is a custom SVG webfont generated by Font Squirrel.
Copyright   : Copyright c 2010 by Typemade All rights reserved
Designer    : Santiago Orozco
Foundry     : Typemade
</metadata>
<defs>
<font id="JosefinSlabItalic" horiz-adv-x="1101" >
<font-face units-per-em="2048" ascent="1536" descent="-512" />
<missing-glyph horiz-adv-x="614" />
<glyph unicode=" "  horiz-adv-x="614" />
<glyph unicode="&#x09;" horiz-adv-x="614" />
<glyph unicode="&#xa0;" horiz-adv-x="614" />
<glyph unicode="!" horiz-adv-x="411" d="M98 45q-25 0 -42 20q-14 16 -14 37q0 5 1 11q2 29 26.5 48t49.5 19t42 -19.5t13 -47.5q-4 -29 -26.5 -48.5t-49.5 -19.5zM266 1536h84l-168 -1196h-84z" />
<glyph unicode="&#x22;" horiz-adv-x="634" d="M365 967l71 508h90l-40 -254l-40 -254h-81zM92 967l72 508h90l-40 -254l-40 -254h-82z" />
<glyph unicode="#" horiz-adv-x="1169" d="M426 805l-37 -147q-18 -73 -39 -144h291l39 144l37 147h-291zM508 0l110 430h-290l-111 -430h-86l111 430h-219l11 42l11 42h219l39 144l37 147h-217q4 20 9 40.5t9 41.5h219l58 215l57 215h86l-57 -215l-58 -215h291l58 215l57 215h86l-57 -215l-58 -215h252 q-4 -20 -10 -41t-10 -41h-252l-37 -147q-18 -73 -39 -144h250q-4 -23 -10 -42t-11 -42h-251l-111 -430h-86z" />
<glyph unicode="$" horiz-adv-x="1161" d="M795 1118l26 180q-31 23 -81 39.5t-119 20.5l-78 -565q68 -23 134 -48.5t116.5 -70.5t75.5 -115q17 -47 18 -112q0 -31 -4 -66q-12 -86 -53.5 -157.5t-102.5 -123t-138 -81t-161 -33.5l-18 -125h-84l16 127q-72 4 -128 21.5t-100 42t-74 52t-44 52.5l29 217h81l-26 -185 q45 -47 110.5 -80.5t163.5 -37.5l95 661q-59 18 -113.5 42t-94.5 59.5t-61 90.5q-15 39 -14 91q0 21 2 45q6 63 32.5 127.5t74 118t116 90.5t158.5 43l16 127h84l-16 -125q66 -4 140.5 -24.5t133.5 -76.5l-30 -221h-82zM795 377q5 33 5 61q0 43 -12 76q-18 55 -57 91 t-91 58.5t-110 41.5l-92 -635q63 6 123 29.5t109 62.5t82 93t43 122zM256 1073q-3 -22 -3 -40q0 -33 9 -59q14 -40 43 -68.5t69 -48t87 -36.5l76 531q-61 -6 -110.5 -32t-84.5 -63.5t-57.5 -85t-28.5 -98.5z" />
<glyph unicode="%" horiz-adv-x="1486" d="M874 229q-2 -14 -2 -26q0 -48 31 -83q39 -44 105 -44t114.5 44t59.5 109q2 13 2 26q0 47 -31 83q-39 45 -104 45q-66 0 -115.5 -45.5t-59.5 -108.5zM995 -8q-49 0 -90 18.5t-69.5 50t-40.5 75.5q-8 29 -9 61q0 16 2 32q6 49 32 92.5t63 75t83 50t95 18.5t90 -18.5 t69.5 -50t42.5 -74.5q8 -27 8 -56q0 -18 -3 -37q-6 -49 -32 -93t-62.5 -75.5t-83 -50t-95.5 -18.5zM332 795q-2 -13 -2 -26q0 -47 30 -82q39 -44 105 -44t115 44t59 108q2 14 2 26q0 48 -31 83q-39 44 -104 44q-66 0 -115 -43.5t-59 -109.5zM453 559q-49 0 -90 18.5t-70 50 t-42 75.5q-8 27 -8 57q0 18 3 37q6 49 31.5 92t62.5 74.5t83 50t95 18.5t90 -18.5t69 -50t41 -74.5q9 -29 9 -62q0 -15 -2 -30q-6 -49 -31.5 -93.5t-62.5 -76t-83 -50t-95 -18.5zM324 0l377 512l378 512h95l-378 -512l-378 -512h-94z" />
<glyph unicode="&#x26;" horiz-adv-x="1433" d="M934 768h295l-12 -84h-207l-21 -139q-4 -37 -9 -78t-13.5 -83t-22.5 -83t-39 -80l103 -215l-72 -45l-86 178q-66 -72 -155 -113.5t-187 -41.5q-84 0 -153.5 31.5t-115.5 85t-68 125.5q-14 46 -14 97q0 29 5 60q10 74 44 140.5t86 118.5t117.5 87t139.5 47l-113 240 q-29 61 -35 127q-1 16 -1 31q0 49 15 98q19 63 64 118.5t119 96.5q63 35 124 42q25 3 49 3q34 0 67 -6q55 -10 103 -33t83 -47l-45 -70q-33 20 -73 40t-83 29q-30 6 -61 6q-14 0 -28 -1q-46 -4 -91 -31q-121 -70 -147 -174q-10 -38 -10 -75q0 -66 30 -130l330 -696 q37 53 45 113zM246 383q-4 -25 -4 -49q0 -38 10 -74q16 -57 53 -100t92.5 -67.5t122.5 -24.5q88 0 165 42t126 109l-225 479q-66 -6 -123 -31.5t-102.5 -66.5t-76 -97.5t-38.5 -119.5z" />
<glyph unicode="'" horiz-adv-x="313" d="M80 967l72 508h90l-40 -254l-40 -254h-82z" />
<glyph unicode="(" horiz-adv-x="831" d="M274 598q20 154 68.5 293t113 258t138.5 216t147 165l29 -24l29 -23q-68 -68 -137.5 -160t-130 -204.5t-105.5 -244t-66 -276.5q-15 -104 -14 -200q0 -39 2 -76q8 -131 37 -244t73 -205t93 -160q-16 -12 -34.5 -23.5t-35.5 -23.5q-55 68 -102 165t-78 216t-40 258 q-3 40 -3 82q0 102 16 211z" />
<glyph unicode=")" horiz-adv-x="819" d="M598 594q-23 -154 -71 -293t-112.5 -258t-138 -216t-147.5 -165l-29 24l-28 23q68 68 137.5 160t129.5 204.5t106.5 244t66.5 276.5q14 100 14 194q0 42 -3 82q-9 131 -37.5 244t-72.5 205t-94 160q16 12 35 23t35 24q55 -68 102.5 -165t78 -216t39.5 -258q3 -43 3 -88 q0 -99 -14 -205z" />
<glyph unicode="*" horiz-adv-x="686" d="M426 1178l88 -54l86 -55q-12 -18 -27 -38l-28 -40l-172 111q-10 -53 -17.5 -106.5t-17.5 -106.5h-82l31 213l-201 -107l-16 40l-17 40l100 52l101 53l-85 55l-85 55l26 37q13 18 23 35l88 -55l86 -56l33 224h90q-10 -55 -17 -110.5t-18 -113.5l105 56l102 53 q18 -33 31 -72l-103 -55z" />
<glyph unicode="+" horiz-adv-x="1112" d="M449 104l47 328h-326l12 84h326l45 326h86l-45 -326h326l-13 -84h-325l-47 -328h-86z" />
<glyph unicode="," horiz-adv-x="409" d="M317 176l-117 -211l-118 -211h-78l109 211l108 211h96z" />
<glyph unicode="-" horiz-adv-x="614" d="M102 346l11 84h376l-10 -84h-377z" />
<glyph unicode="." horiz-adv-x="333" d="M134 116q24 19 50 19q25 0 43 -19q15 -16 15 -38v-10q-4 -29 -28 -48.5t-48 -19.5q-27 0 -45 19q-15 16 -15 38q0 36 28 59z" />
<glyph unicode="/" horiz-adv-x="706" d="M-74 -39l393 773l394 773h86l-393 -773l-394 -773h-86z" />
<glyph unicode="0" horiz-adv-x="1261" d="M74 670q18 121 69.5 242.5t134 218t195.5 157t252 60.5q137 0 230.5 -61.5t147.5 -160t71 -220.5q8 -57 7 -114q0 -64 -10 -128q-23 -147 -85 -272.5t-151 -215.5t-196.5 -140t-216.5 -50t-201 52t-154.5 143t-88.5 216q-14 68 -15 142q1 63 11 131zM162 670 q-9 -61 -9 -118q0 -66 12 -126q22 -111 74 -189.5t129.5 -123.5t168.5 -45q88 0 178 43t165.5 120.5t131 187t73.5 243.5q10 64 10 124q0 54 -8 105q-16 109 -63 191.5t-126 132t-187 49.5q-109 0 -201 -47.5t-164 -129t-120 -190t-64 -227.5z" />
<glyph unicode="1" horiz-adv-x="542" d="M18 82h164l162 1165h-194l12 84h280l-174 -1249h162l-10 -82h-412z" />
<glyph unicode="2" horiz-adv-x="1034" d="M233 84h560l30 215h82l-43 -299h-850l287 249q139 122 249.5 237.5t183.5 223t87 203.5q6 41 6 77q0 51 -12 90q-20 67 -59 108t-89.5 58.5t-95.5 17.5q-92 0 -155.5 -33t-104.5 -80t-61.5 -102.5t-26.5 -100.5q-5 -31 -4 -60q0 -97 53 -165l-59 -51q-47 47 -67 122 q-13 49 -12 100q0 27 3 54q12 82 48 155t92.5 127t134 86t172.5 32q86 0 152.5 -32t108.5 -87t59 -130q10 -44 10 -92q0 -34 -5 -69q-16 -111 -81.5 -220.5t-160 -216t-207.5 -210.5z" />
<glyph unicode="3" horiz-adv-x="1054" d="M350 711l451 536h-426l-17 -123h-82l29 207h662l-435 -504q82 -6 150 -39.5t114 -89t67 -128.5q14 -46 14 -98q0 -30 -5 -60q-12 -88 -58 -166t-112.5 -136.5t-149.5 -92t-171 -33.5q-94 0 -169 37.5t-126 101.5l72 63q37 -53 96 -85.5t135 -32.5q72 0 139.5 27.5 t120.5 74.5t90 109.5t47 132.5q4 24 4 47q0 44 -13 85q-19 62 -60 109t-100.5 74t-131.5 27q-35 0 -68.5 -11.5t-66.5 -31.5z" />
<glyph unicode="4" horiz-adv-x="1054" d="M498 82h157l41 293h-663l887 973l-125 -889h198l-12 -84h-199l-41 -293h170l-12 -82h-412zM797 1096l-578 -637h490z" />
<glyph unicode="5" horiz-adv-x="1112" d="M975 1331l-29 -207h-82l17 123h-420l-62 -444q35 14 71 22.5t75 8.5q88 0 161.5 -33t125 -90.5t74.5 -133.5q15 -50 16 -106q0 -29 -4 -59q-12 -88 -58.5 -166t-114 -136.5t-150.5 -92t-171 -33.5q-86 0 -156.5 31.5t-120.5 86.5l72 58q37 -43 92.5 -67.5t122.5 -24.5 q72 0 139.5 27.5t121 74.5t90 109.5t46.5 132.5q3 21 3 42q0 46 -13 89q-18 61 -59 107t-100.5 73t-131.5 27t-135 -25t-104 -68l96 674h588z" />
<glyph unicode="6" horiz-adv-x="1064" d="M154 408q-4 -26 -4 -50q0 -44 12 -84q18 -61 58 -107t97.5 -72.5t128.5 -26.5q70 0 136.5 26.5t121 72.5t91 107.5t47.5 133.5q3 21 2 42q0 47 -13 90q-18 62 -59 109t-100.5 74t-128.5 27q-72 0 -137.5 -27t-117.5 -74t-88 -109t-46 -132zM66 399q20 147 101 275.5 t195.5 240t248.5 206.5l261 179l22 -34q11 -18 24 -35q-240 -143 -383.5 -273.5t-210.5 -224.5q45 45 105 73t126 28q88 0 162 -34t124 -91.5t73 -135.5q15 -51 16 -106q0 -29 -4 -59q-12 -88 -57.5 -165t-112 -134.5t-150.5 -91t-172 -33.5q-86 0 -158.5 32.5t-123 89 t-73.5 132.5q-16 53 -17 110q1 25 4 51z" />
<glyph unicode="7" horiz-adv-x="960" d="M952 1331l-784 -1331h-100l737 1247h-615l-16 -123h-82l29 207h831z" />
<glyph unicode="8" horiz-adv-x="1044" d="M348 1036q-2 -16 -2 -30q0 -68 46 -115q56 -57 151 -57q94 0 164.5 57t83.5 145q2 17 2 34q0 27 -7 52q-10 41 -34.5 73t-62.5 50.5t-85 18.5t-90 -18.5t-78 -50.5t-58.5 -73t-29.5 -86zM145 412q-4 -26 -3 -51q0 -42 11 -81q17 -62 56 -110.5t96 -76t129 -27.5 t139.5 27.5t121 75.5t89 110.5t45.5 132.5q4 25 4 48q0 43 -12 82q-18 60 -59 106t-100.5 74t-129.5 28q-72 0 -137 -27t-117.5 -73t-87.5 -107t-45 -131zM57 412q18 135 108.5 238.5t215.5 148.5q-63 33 -96 98q-24 48 -24 104q0 21 3 43q8 61 39 117t79 97.5t106.5 65.5 t121.5 24t116.5 -25t89.5 -67t52 -97q11 -37 11 -77q0 -20 -2 -42q-10 -80 -61.5 -143t-123.5 -98q117 -43 179 -148q48 -81 49 -179q0 -29 -5 -60q-12 -88 -58 -166t-112.5 -136.5t-149.5 -92t-171 -33.5t-161 33.5t-123 92t-72 136.5q-15 50 -15 105q0 30 4 61z" />
<glyph unicode="9" horiz-adv-x="1075" d="M893 874q4 25 4 49q0 43 -12 84q-18 62 -58.5 108t-98.5 72.5t-128 26.5q-72 0 -138.5 -26.5t-119.5 -72.5t-90 -108.5t-47 -132.5q-4 -25 -4 -48q0 -45 13 -85q19 -61 59 -108t99.5 -74t131.5 -27q70 0 136.5 27t118.5 74t88 108t46 133zM979 874q-20 -145 -101 -272 t-197 -237.5t-249 -204.5l-258 -176l-45 67q240 145 383 274.5t211 225.5q-47 -47 -106.5 -73.5t-124.5 -26.5q-90 0 -163 32.5t-124 90t-74 135.5q-15 50 -15 105q0 30 5 60q12 88 57 165t111.5 134.5t149.5 91t171 33.5t162 -33.5t124 -91t73 -134.5q15 -50 14 -104 q0 -30 -4 -61z" />
<glyph unicode=":" horiz-adv-x="358" d="M141 580q4 29 28 48t50 19q25 0 42 -19q14 -16 14 -38q0 -5 -1 -10q-4 -29 -26.5 -48.5t-48.5 -19.5q-27 0 -44.5 19.5t-13.5 48.5zM70 68q4 29 27.5 48t49.5 19q25 0 42 -19q14 -16 15 -38q0 -5 -1 -10q-4 -29 -26.5 -48.5t-49.5 -19.5t-44 19q-14 16 -14 38q0 6 1 11z " />
<glyph unicode=";" horiz-adv-x="411" d="M213 580q4 29 26.5 48t49.5 19t44 -19q14 -16 14 -38q0 -5 -1 -10q-4 -29 -26.5 -48.5t-49.5 -19.5t-44 19.5t-13 48.5zM256 176l-118 -211l-118 -211h-77l106 211l109 211h98z" />
<glyph unicode="&#x3c;" horiz-adv-x="1392" d="M1075 82l-16 -113l-412 259l-411 259l483 259l485 260l-16 -113l-379 -203l-381 -203l323 -202z" />
<glyph unicode="=" horiz-adv-x="1449" d="M1219 360l-13 -84h-1036l12 84h1037zM1274 758l-12 -84h-1037l13 84h1036z" />
<glyph unicode="&#x3e;" horiz-adv-x="1331" d="M162 -31l16 113l380 203l382 202l-324 203l-323 203l14 113l412 -260l414 -259l-486 -259z" />
<glyph unicode="?" horiz-adv-x="925" d="M205 1184q-16 8 -35.5 14t-36.5 12q25 53 66 104.5t95 92.5t121.5 66.5t149.5 25.5q84 0 153.5 -31.5t116 -86t67.5 -127.5q14 -46 14 -96q0 -29 -5 -58q-16 -111 -81.5 -196t-170.5 -150q-39 -27 -74.5 -47.5t-65.5 -46t-52.5 -64.5t-30.5 -100l-22 -160h-86l28 199 q8 63 37 103t69 70.5t90 58.5t105 69q76 55 116 121.5t50 142.5q3 24 3 46q0 42 -10 79q-15 57 -51 100t-90 66.5t-122 23.5q-119 0 -209 -61t-139 -170zM328 31q-25 0 -43 19q-15 16 -15 38q0 35 28 58q24 19 48 20q25 0 43 -20q15 -16 15 -38q0 -35 -28 -58 q-23 -19 -48 -19z" />
<glyph unicode="@" horiz-adv-x="2027" d="M680 385q-4 -25 -4 -49q0 -38 10 -74q16 -57 53 -100t92.5 -67.5t122.5 -24.5q68 0 128.5 24.5t109.5 67.5t81 100t42 123q4 25 4 49q0 39 -10 75q-16 58 -53 101t-91.5 67.5t-122.5 24.5t-128 -24.5t-109 -67.5t-82 -101t-43 -124zM1831 385q-23 -117 -64 -191.5 t-93 -117.5t-109.5 -59.5t-110.5 -16.5h-184l12 82q4 25 7 48.5t7 45.5q-18 -35 -53 -69.5t-81 -61.5t-102 -43t-118 -16q-84 0 -153.5 31.5t-116.5 85t-69 125.5q-14 46 -14 97q0 29 5 60q12 82 54 154.5t104.5 127t140.5 86t162 31.5q59 0 109 -17t89 -45t63.5 -62.5 t35.5 -71.5l16 90q8 45 18 90h70l-96 -686h113q100 0 171.5 71.5t100.5 231.5q8 57 8 112q0 94 -24 181q-39 137 -126 238.5t-215 160t-282 58.5q-156 0 -300 -58.5t-260 -160t-194 -238.5t-100 -293q-7 -53 -7 -103q0 -98 26 -188q40 -135 127 -236.5t215 -159.5t282 -58 q125 0 240.5 36.5t220.5 102.5l43 -62q-113 -78 -247 -119.5t-269 -41.5q-172 0 -314.5 65.5t-239 178t-141.5 263.5q-29 98 -29 205q0 58 9 119q25 172 111 323.5t215 264t290.5 178.5t333.5 66t314.5 -66t238.5 -178.5t140 -263.5q28 -97 29 -204q0 -60 -9 -122z" />
<glyph unicode="A" horiz-adv-x="1662" d="M82 82h158l401 709l399 708l202 -708l200 -709h160l-11 -82h-395l10 82h150l-76 265l-76 267h-575l-150 -267l-151 -265h149l-10 -82h-395zM1024 1251l-10 58q-2 -4 -7.5 -12.5t-9.5 -18.5q-6 -12 -12 -27l-64 -119l-78 -140l-85 -148l-82 -148h506z" />
<glyph unicode="B" horiz-adv-x="1077" d="M82 82h125l178 1270h-125l12 82h453q96 0 172 -20.5t126 -63.5t72 -112q13 -41 13 -92q0 -34 -6 -71q-16 -127 -92 -223t-211 -131q59 -12 110.5 -41t87 -74t53.5 -104q11 -37 11 -81q0 -25 -4 -52q-12 -92 -59.5 -161t-116 -115t-151.5 -69.5t-169 -23.5h-489zM375 680 l-84 -598h272q76 0 145.5 18.5t125 55.5t92.5 91t47 128q4 25 4 48q0 50 -19 89q-27 57 -77 95t-120.5 55.5t-148.5 17.5h-237zM471 1352l-84 -590h270q145 0 242.5 85t116.5 222q4 31 4 58q0 107 -64 159q-80 66 -223 66h-262z" />
<glyph unicode="C" horiz-adv-x="1249" d="M1253 1118l27 176q-61 35 -134 54.5t-151 19.5q-133 0 -258 -52t-224 -141.5t-166.5 -208t-86.5 -253.5q-7 -47 -6 -92q0 -83 21 -159q34 -118 109 -206t183.5 -139t241.5 -51q92 0 177 23.5t165 66.5l39 -70q-90 -47 -186.5 -74.5t-200.5 -27.5q-152 0 -277 57 t-211 156.5t-125 232.5q-25 84 -24 176q0 53 8 109q20 152 97 286t189.5 233t254 157.5t293.5 58.5q104 0 194 -26.5t166 -75.5l-33 -230h-82z" />
<glyph unicode="D" horiz-adv-x="1294" d="M82 82h129l178 1270h-129l12 82h430q147 0 271.5 -50.5t209.5 -143.5t124 -226q25 -84 24 -181q0 -56 -8 -116q-18 -121 -77.5 -248t-168 -231.5t-268.5 -171t-377 -66.5h-360zM475 1352l-180 -1270h178q170 0 305 54t231.5 143.5t155 203t74.5 234.5q8 55 8 106 q0 84 -21 157q-34 118 -110 201t-185.5 127t-240.5 44h-215z" />
<glyph unicode="E" horiz-adv-x="1169" d="M82 82h147l179 1270h-148l12 82h998l-45 -316h-82l33 234h-682l-84 -588h686l-13 -82h-686l-84 -600h713l33 233h82l-43 -315h-1026z" />
<glyph unicode="F" horiz-adv-x="1140" d="M82 82h147l179 1270h-148l12 82h998l-45 -316h-82l33 234h-682l-84 -588h686l-13 -82h-686l-84 -600h181l-11 -82h-411z" />
<glyph unicode="G" horiz-adv-x="1247" d="M1157 610l-74 -528q-88 -47 -184 -74.5t-201 -27.5q-152 0 -276.5 57t-210.5 156.5t-125 232.5q-25 87 -25 182q0 50 7 103q20 152 97 285.5t190.5 233t255 158t292.5 58.5q104 0 193.5 -26.5t167.5 -76.5l-58 -69q-66 43 -145.5 66.5t-169.5 23.5q-133 0 -258 -52 t-224.5 -141.5t-168 -208t-86.5 -253.5q-7 -47 -7 -92q0 -83 22 -159q34 -118 108.5 -206t184 -139.5t243.5 -51.5q156 0 301 70l55 397h-295l10 82h381z" />
<glyph unicode="H" horiz-adv-x="1511" d="M1229 1434h411l-10 -82h-160l-178 -1270h158l-10 -82h-412l10 82h168l84 600h-880l-84 -600h168l-11 -82h-411l10 82h160l178 1270h-160l12 82h412l-10 -82h-168l-84 -588h881l81 588h-165z" />
<glyph unicode="I" horiz-adv-x="555" d="M82 82h160l178 1270h-160l12 82h412l-10 -82h-168l-180 -1270h168l-11 -82h-411z" />
<glyph unicode="J" horiz-adv-x="567" d="M190 1434h424l-176 -1250q-16 -115 -61 -201.5t-110.5 -147t-146.5 -93.5t-169 -35l10 82q74 4 139.5 32.5t117.5 80t88 124t48 164.5l164 1162h-340z" />
<glyph unicode="K" horiz-adv-x="1404" d="M948 82h123l-233 361l-234 364l-203 -170l-36 -278q-18 -138 -39 -277h168l-11 -82h-411l10 82h158l178 1270h-158l12 82h396l-11 -82h-153l-80 -561q-2 -16 -5 -31t-7 -31l43 43l688 580h-109l13 82h395l-12 -82h-177l-583 -490l254 -391l252 -389h167l-10 -82h-395z " />
<glyph unicode="L" horiz-adv-x="1163" d="M82 82h141l178 1270h-141l12 82h396l-11 -82h-170l-180 -1270h713l33 233h82l-43 -315h-1020z" />
<glyph unicode="M" horiz-adv-x="1980" d="M1888 1434h215l-12 -82h-166l-178 -1270h172l-10 -82h-412l10 82h154l156 1096q0 2 2 14t5 25.5t5 25.5t2 17l-19 -24l-24 -30l-90 -100l-117 -129l-134 -148l-141 -155l-140 -153l-126 -138l-195 313l-140 225l-104 164l-85 136l-22 39q-2 -23 -3.5 -42.5t-3.5 -39.5 l-153 -1096h160l-11 -82h-411l10 82h166l178 1270h-166l12 82h215l95 -151l148 -237l170 -272l159 -252l415 456z" />
<glyph unicode="N" horiz-adv-x="1732" d="M92 82h166l176 1270h-166l13 82h221l903 -1254l31 -53l4 66l162 1159h-156l12 82h412l-12 -82h-172l-197 -1418l-950 1309l-31 45l-4 -57l-162 -1149h162l-12 -82h-412z" />
<glyph unicode="O" horiz-adv-x="1609" d="M174 715q20 152 97 286t189.5 233t254 157.5t293.5 58.5t277.5 -58.5t211.5 -157.5t125 -234q25 -88 26 -183q0 -50 -8 -102q-23 -152 -99.5 -285t-190 -232.5t-255 -156.5t-292.5 -57q-152 0 -277 57t-211 156.5t-125 232.5q-25 84 -24 176q0 53 8 109zM260 713 q-7 -48 -6 -94q0 -83 21 -159q34 -118 109 -205t184.5 -138t242.5 -51t259 51t227.5 139t170 206t86.5 253q6 47 7 91q0 85 -23 163q-35 119 -110.5 208t-186.5 140t-244 51t-258 -52t-225 -141.5t-168 -208t-86 -253.5z" />
<glyph unicode="P" horiz-adv-x="1013" d="M82 82h125l178 1270h-125l12 82h433q63 0 136.5 -20.5t133 -65.5t95.5 -117q26 -51 26 -117q0 -26 -4 -55q-27 -176 -154 -280.5t-338 -104.5h-225l-84 -592h203l-11 -82h-411zM387 758h211q106 0 181 28.5t123 73.5t72.5 97.5t31.5 101.5q2 16 2 32q0 40 -15 78 q-20 53 -63 94.5t-105.5 65t-140.5 23.5h-213z" />
<glyph unicode="Q" horiz-adv-x="1654" d="M260 713q-7 -47 -6 -92q0 -83 21 -159q34 -118 109 -206t183.5 -139t241.5 -51q135 0 261 51t227.5 139t170 206t86.5 253q6 47 7 91q0 85 -23 163q-35 119 -110.5 208t-187.5 140t-245 51t-258 -52t-224 -141.5t-167 -208t-86 -253.5zM174 715q20 152 97 286t189.5 233 t254 157.5t293.5 58.5t277.5 -58.5t211.5 -157.5t125 -234q25 -88 26 -183q0 -50 -8 -102q-16 -104 -58 -200.5t-104.5 -177.5t-143.5 -146.5t-173 -108.5h436l-12 -82h-629q-82 -16 -153 -16q-152 0 -277 57t-211 156.5t-125 232.5q-25 84 -24 176q0 53 8 109z" />
<glyph unicode="R" horiz-adv-x="1171" d="M82 82h125l178 1270h-125l12 82h433q63 0 136.5 -20.5t133 -65.5t95.5 -117q26 -51 26 -117q0 -26 -4 -55q-23 -147 -115 -244.5t-246 -128.5l199 -604h180l-10 -82h-234l-225 678q-23 -2 -47.5 -3t-46.5 -1h-172l-84 -592h203l-11 -82h-411zM387 758h211q106 0 181 28.5 t123 73.5t72.5 97.5t31.5 101.5q2 16 2 32q0 40 -15 78q-20 53 -63 94.5t-105.5 65t-140.5 23.5h-213z" />
<glyph unicode="S" horiz-adv-x="978" d="M98 156l29 217h82l-27 -185q51 -51 128 -86.5t190 -35.5q68 0 135 21.5t121.5 61t92.5 97t48 131.5q4 33 4 61q0 50 -13 86q-22 57 -67 94t-105.5 59.5t-124 42t-124.5 42t-108.5 59.5t-71.5 93q-18 42 -19 103q0 20 2 42q6 68 36 136.5t83 122.5t130 89t179 35 q70 0 156 -18.5t156 -84.5l-31 -221h-82l27 180q-37 25 -96.5 43.5t-143.5 18.5q-72 0 -128 -23.5t-98 -63.5t-66.5 -92.5t-33.5 -107.5q-3 -22 -3 -41q0 -47 18 -80q25 -47 70.5 -77.5t107.5 -51.5l126 -41q65 -20 125 -47.5t105 -72t68 -111.5q15 -44 14 -102 q0 -32 -4 -68q-12 -90 -56 -164t-110.5 -126t-149.5 -79.5t-171 -27.5q-80 0 -145.5 16t-117 42t-85.5 56.5t-52 57.5z" />
<glyph unicode="T" horiz-adv-x="1275" d="M438 82h168l178 1270h-442l-33 -234h-82l45 316h1133l-45 -316h-82l33 234h-441l-180 -1270h160l-10 -82h-412z" />
<glyph unicode="U" horiz-adv-x="1425" d="M274 1434h412l-10 -82h-170l-123 -883q-6 -43 -6 -82q0 -50 10 -91q18 -75 64.5 -126t115 -77.5t156.5 -26.5q86 0 163 26.5t137 77.5t100 126t55 173l125 883h-170l12 82h411l-12 -82h-158l-124 -889q-16 -117 -65.5 -207t-123.5 -150.5t-166 -91t-194 -30.5 q-104 0 -188.5 30.5t-140.5 91t-81 150.5q-15 54 -15 118q0 42 7 89l125 889h-158z" />
<glyph unicode="V" horiz-adv-x="1699" d="M281 1434h411l-10 -82h-154l166 -586l168 -584l8 -57l29 57l328 584l329 586h-141l10 82h412l-10 -82h-185l-398 -709l-398 -709l-203 709l-203 709h-172z" />
<glyph unicode="W" horiz-adv-x="2463" d="M281 1434h411l-10 -82h-154l165 -586l169 -584l8 -57q98 205 220 407l233 404l-58 208l-61 208h-172l12 82h412l-12 -82h-152l164 -586l168 -584l10 -57l27 57l329 584l328 586h-141l12 82h412l-10 -82h-185l-399 -709l-399 -709l-244 854l-10 56q-113 -227 -248 -457 l-260 -453l-203 709l-203 709h-172z" />
<glyph unicode="X" horiz-adv-x="1441" d="M272 1434h412l-10 -82h-119l133 -258l131 -258l15 -37l26 37l404 516h-117l10 82h414l-12 -82h-193l-245 -315l-244 -312l162 -322l165 -321h176l-10 -82h-414l11 82h131l-242 473l-24.5 53.5t-26.5 53.5l-25 -39l-212 -272l-212 -269h138l-11 -82h-411l10 82h170 l514 653l-313 617h-193z" />
<glyph unicode="Y" horiz-adv-x="1527" d="M573 82h152l63 461l-184 404l-184 405h-160l12 82h412l-10 -82h-150l156 -338l154 -338l16 -58h2l31 58l497 676h-145l10 82h412l-10 -82h-162l-298 -406l-298 -403l-64 -461h160l-10 -82h-412z" />
<glyph unicode="Z" horiz-adv-x="1288" d="M1274 412l-57 -412h-1145l10 82l1157 1270h-944l22 153h86l-10 -71h965l-12 -82l-1156 -1270h955l47 330h82z" />
<glyph unicode="[" horiz-adv-x="692" d="M41 -305l256 1833h358l-12 -84h-270l-234 -1665h271l-11 -84h-358z" />
<glyph unicode="\" horiz-adv-x="708" d="M223 1507l175 -773l175 -773h-94l-175 773l-175 773h94z" />
<glyph unicode="]" horiz-adv-x="700" d="M641 1528l-256 -1833h-356l10 84h270l234 1665h-271l11 84h358z" />
<glyph unicode="^" horiz-adv-x="962" d="M500 1352l97 -186l97 -185h-67l-73 124l-71 124l-106 -124l-107 -124h-67l148 185z" />
<glyph unicode="_" horiz-adv-x="1228" d="M1018 0h-819l10 84h819z" />
<glyph unicode="`" horiz-adv-x="409" d="M55 1253q35 -68 66 -136l63 -136h-67l-75 136l-73 136h86z" />
<glyph unicode="a" d="M127 385q12 82 53 154.5t103.5 127t140.5 86t162 31.5q59 0 110.5 -17t90 -45t64.5 -63.5t34 -70.5q6 45 15 90l18 90h69l-96 -686h151l-12 -82h-227l12 82q4 25 6 48.5t6 45.5q-18 -35 -52 -69.5t-80 -61.5t-102 -43t-118 -16q-84 0 -153.5 31.5t-116.5 85t-69 125.5 q-14 46 -13 97q0 29 4 60zM213 385q-4 -25 -4 -49q0 -38 10 -74q16 -57 53 -100t91.5 -67.5t121.5 -24.5q68 0 129.5 24.5t110.5 67.5t81 100t42 123q3 22 3 43q0 42 -11 81q-16 58 -53 101t-91.5 67.5t-122.5 24.5t-128 -24.5t-109 -67.5t-82 -101t-41 -124z" />
<glyph unicode="b" d="M84 82h152l194 1372h-145l12 82h229l-118 -846q-6 -25 -11.5 -50.5t-11.5 -49.5q18 37 54 71.5t82 62.5t102.5 44t115.5 16q84 0 154 -31.5t116 -86t67 -126.5q14 -46 14 -97q0 -29 -5 -58q-12 -84 -53 -156.5t-103.5 -126t-140 -85t-161.5 -31.5q-61 0 -113.5 16 t-91.5 43t-63.5 61.5t-32.5 69.5q-4 -23 -6.5 -46.5t-6.5 -47.5l-12 -82h-229zM999 385q3 23 3 45q0 41 -10 79q-15 58 -52 101t-91 67.5t-122 24.5t-129 -24.5t-110.5 -67.5t-82 -101t-40.5 -124q-4 -25 -4 -49q0 -38 10 -74q16 -57 53 -100t91 -67.5t122 -24.5t129 24.5 t110.5 67.5t81 100t41.5 123z" />
<glyph unicode="c" horiz-adv-x="800" d="M739 74q-59 -41 -125.5 -64.5t-140.5 -23.5q-84 0 -152.5 31.5t-115.5 85t-69 125.5q-14 46 -13 97q0 29 4 60q12 82 53 155.5t103.5 127t140.5 85t162 31.5q74 0 135 -23.5t106 -64.5l-28 -200h-78l22 151q-35 27 -77.5 41t-92.5 14q-68 0 -129 -24.5t-109 -67.5 t-81 -101t-41 -124q-4 -25 -4 -49q0 -38 10 -74q16 -57 53 -100t90.5 -67.5t120.5 -24.5q59 0 112.5 17t98.5 50z" />
<glyph unicode="d" d="M815 82q4 25 6 48.5t6 45.5q-18 -35 -52 -69.5t-80 -61.5t-102 -43t-118 -16q-84 0 -153.5 31.5t-116.5 85t-69 125.5q-14 46 -13 97q0 29 4 60q12 82 53 154.5t103.5 127t140.5 86t162 31.5q59 0 109 -16t89 -44t64.5 -62.5t36.5 -71.5l8 86l8 86l98 692h-145l12 82h230 l-205 -1454h151l-12 -82h-227zM213 385q-4 -25 -4 -49q0 -38 10 -74q16 -57 53 -100t91.5 -67.5t121.5 -24.5q68 0 129.5 24.5t110.5 67.5t81 100t42 123q3 22 3 43q0 42 -11 81q-16 58 -53 101t-91.5 67.5t-122.5 24.5t-128 -24.5t-109 -67.5t-82 -101t-41 -124z" />
<glyph unicode="e" horiz-adv-x="903" d="M573 702q-76 0 -143.5 -31.5t-117.5 -83.5t-78 -121q-24 -60 -24 -122q0 -9 1 -18l293 109l291 110q-27 70 -85.5 113.5t-136.5 43.5zM897 498l-336 -126l-336 -126q25 -78 93.5 -127t164.5 -49q63 0 122 22.5t106 63.5l23 -32q11 -15 22 -32q-59 -49 -131 -77.5 t-152 -28.5q-84 0 -152.5 31.5t-115.5 85t-69 125.5q-14 46 -13 97q0 29 4 60q12 82 53 155.5t103.5 127t140.5 85t162 31.5q61 0 113.5 -21.5t92 -59t67.5 -90t38 -115.5z" />
<glyph unicode="f" horiz-adv-x="620" d="M82 82h125l84 602h-125l12 84h125l41 293q16 113 61.5 201t112 147t147 91t171.5 36l-13 -82q-70 -2 -135 -28.5t-118.5 -78t-90.5 -123t-49 -161.5l-43 -295h256l-10 -84h-256l-86 -602h186l-10 -82h-395z" />
<glyph unicode="g" horiz-adv-x="1103" d="M987 768h223l-12 -82h-154l-106 -758q-14 -100 -56 -181t-102.5 -138.5t-135.5 -88t-157 -32.5q-86 2 -168.5 32.5t-130.5 90.5l70 63q39 -49 104.5 -73.5t135.5 -24.5q63 0 122.5 25.5t108.5 72.5t82 114t45 146l18 148q6 23 11.5 46.5t11.5 45.5q-23 -37 -57.5 -70.5 t-80.5 -59.5t-100.5 -42t-113.5 -16q-84 0 -153.5 31.5t-117 85t-68.5 125.5q-14 46 -14 97q0 29 5 60q12 82 53 154.5t103.5 127t140 86t161.5 31.5q59 0 110.5 -17t90.5 -45t64.5 -63.5t33.5 -70.5l17 90zM283 385q-4 -25 -4 -49q0 -38 10 -74q16 -57 53 -100t91 -67.5 t122 -24.5t129 24.5t110.5 67.5t81 100t42.5 123q3 22 2 43q0 42 -11 81q-16 58 -53 101t-91 67.5t-122 24.5t-128 -24.5t-109.5 -67.5t-82 -101t-40.5 -124z" />
<glyph unicode="h" horiz-adv-x="1116" d="M659 82h160l64 450q1 9 1 19q0 54 -32 96q-37 49 -123 53q-63 0 -122.5 -21.5t-108.5 -58t-83 -88t-42 -112.5l-47 -338h151l-10 -82h-395l10 82h160l192 1372h-151l12 82h235l-122 -874l-19 -93q57 98 153.5 154.5t213.5 60.5q113 0 170 -63q47 -52 47 -131 q0 -17 -2 -35l-66 -473h150l-11 -82h-395z" />
<glyph unicode="i" horiz-adv-x="538" d="M82 82h158l86 604h-160l12 82h244l-96 -686h151l-10 -82h-395zM352 1040q4 29 26.5 48.5t49.5 19.5t44 -19q14 -16 14 -38q0 -5 -1 -11q-4 -29 -27.5 -48t-47.5 -19q-27 0 -44 19q-14 16 -15 38q0 5 1 10z" />
<glyph unicode="j" horiz-adv-x="376" d="M125 768h233l-108 -776q-16 -121 -64.5 -211t-119.5 -150l-54 62q57 51 98.5 124.5t53.5 172.5l98 696h-149zM291 1040q4 29 26.5 48.5t49.5 19.5t44 -19q14 -16 14 -38q0 -5 -1 -11q-4 -29 -26.5 -48t-49.5 -19t-44 19q-14 16 -14 38q0 5 1 10z" />
<glyph unicode="k" horiz-adv-x="1030" d="M590 82h98l-97 163l-95 163l-150 -123l-29 -203h160l-10 -82h-395l10 82h151l193 1372h-143l10 82h229l-162 -1147l361 297h-125l12 82h379l-12 -82h-148l-131 -111l-131 -110l112 -193l114 -190h178l-11 -82h-378z" />
<glyph unicode="l" horiz-adv-x="538" d="M82 82h151l193 1372h-143l10 82h229l-205 -1454h160l-10 -82h-395z" />
<glyph unicode="m" horiz-adv-x="1695" d="M1239 82h160l61 450q1 9 1 19q0 54 -31 96q-37 49 -123 53q-61 0 -121 -20.5t-108 -57t-81.5 -87t-44.5 -109.5l-47 -344h152l-10 -82h-398l10 82h160l64 450q1 9 1 19q0 54 -32 96q-37 49 -123 53q-63 0 -122.5 -21.5t-108.5 -58t-83 -88t-42 -112.5l-47 -338h151 l-10 -82h-395l10 82h160l84 604h-146l10 82h218l-9 -72q-4 -35 -5 -63.5t-5 -63.5q55 98 152.5 155.5t214.5 59.5q104 0 161.5 -56t55.5 -148q57 92 152.5 147t207.5 57q113 0 170 -63q49 -54 49 -136q0 -15 -2 -30l-67 -473h151l-10 -82h-395z" />
<glyph unicode="n" horiz-adv-x="1116" d="M659 82h160l64 450q1 9 1 19q0 54 -32 96q-37 49 -123 53q-63 0 -122.5 -21.5t-108.5 -58t-83 -88t-42 -112.5l-47 -338h151l-10 -82h-395l10 82h160l84 604h-146l10 82h218l-9 -72q-4 -35 -5 -63.5t-5 -63.5q55 96 153.5 155.5t213.5 59.5q113 0 170 -63q47 -52 47 -131 q0 -17 -2 -35l-66 -473h150l-11 -82h-395z" />
<glyph unicode="o" horiz-adv-x="952" d="M129 385q12 82 53 155.5t102.5 128t139.5 86t162 31.5t153.5 -31.5t117.5 -86t70 -127.5q14 -47 13 -97q0 -29 -4 -59q-12 -84 -53 -156.5t-103.5 -126t-141.5 -85t-163 -31.5t-152.5 31.5t-115.5 85t-69 125.5q-14 46 -13 97q0 29 4 60zM213 385q-4 -24 -4 -47 q0 -39 11 -76q17 -57 54 -100t90.5 -67.5t118.5 -24.5q66 0 127.5 24.5t110.5 67.5t82 100t43 123q3 22 3 43q0 42 -11 80q-16 57 -53 100t-91.5 68.5t-120.5 25.5t-127 -25.5t-110 -68.5t-82 -100t-41 -123z" />
<glyph unicode="p" d="M6 -430h133l158 1116h-152l13 82h219q-4 -45 -9.5 -92t-9.5 -92q18 37 54.5 72.5t83.5 63.5t103 45t116 17q84 0 153.5 -31.5t115.5 -85t68 -126.5q15 -50 14 -104q0 -26 -3 -52q-12 -82 -54 -154.5t-104.5 -127t-140.5 -86t-162 -31.5q-61 0 -112.5 16t-89.5 42 t-63.5 59.5t-35.5 70.5v-82l-74 -520h172l-8 -82h-395zM977 383q3 23 3 44q0 43 -11 81q-16 57 -53 99t-91.5 66.5t-122.5 24.5t-129 -24.5t-110 -66.5t-82 -99t-41 -125q-4 -25 -4 -49q0 -39 10 -75q16 -58 53 -101t91.5 -67.5t121.5 -24.5q68 0 129.5 24.5t110.5 67.5 t82 101t43 124z" />
<glyph unicode="q" horiz-adv-x="1105" d="M631 -430h172l71 520q4 20 10.5 41t10.5 41q-20 -37 -55 -70.5t-81 -59.5t-100.5 -42t-115.5 -16q-84 0 -154 31.5t-116 86t-67 126.5q-14 46 -14 97q0 29 5 58q12 82 53 155.5t103.5 127t140 85t161.5 31.5q59 0 110.5 -17t90.5 -45t64.5 -63.5t35.5 -72.5q6 45 15.5 91 t15.5 93h225l-12 -82h-156l-155 -1116h139l-10 -82h-397zM283 383q-4 -25 -4 -49q0 -39 10 -75q16 -58 53 -101t91 -67.5t122 -24.5t129 24.5t110.5 67.5t81 101t42.5 124q3 23 2 44q0 43 -11 81q-16 57 -53 99t-91 66.5t-122 24.5t-128 -24.5t-109.5 -66.5t-82 -99 t-40.5 -125z" />
<glyph unicode="r" horiz-adv-x="704" d="M82 82h160l84 604h-146l10 82h218l-9 -72q-4 -35 -5 -63.5t-5 -63.5q29 49 70 89t88 68t97 43t97 15l-16 -84q-66 -2 -125 -23.5t-107.5 -58t-80 -88t-39.5 -110.5l-47 -338h151l-10 -82h-395z" />
<glyph unicode="s" horiz-adv-x="659" d="M213 211l-12 -105q35 -27 76.5 -32.5t84.5 -5.5q18 0 47 7t56 24.5t48.5 44t27.5 65.5q2 14 2 26q0 35 -18 56q-24 29 -62.5 46t-86.5 30.5t-87 36t-63 59.5q-16 26 -16 66q0 18 3 38q8 53 34.5 93t62.5 67t77 40t78 13q8 0 33.5 -2t56.5 -9t61.5 -21.5t49.5 -38.5 l-21 -152h-78l15 109q-12 12 -32 18t-38 9t-35 3h-22q-49 0 -97.5 -28.5t-58.5 -98.5q-1 -6 -1 -12q0 -36 21 -58q25 -26 65 -43.5t86 -32.5t84 -40t60 -64q15 -27 16 -66q0 -18 -3 -38q-4 -35 -22.5 -75t-52.5 -74.5t-85 -58t-119 -23.5q-20 0 -52 3t-65.5 11t-64.5 22.5 t-51 38.5l20 152h78z" />
<glyph unicode="t" horiz-adv-x="643" d="M426 1268h86l-70 -500h236l-12 -84h-236l-84 -602h168l-10 -82h-254l94 684h-178l12 84h178z" />
<glyph unicode="u" horiz-adv-x="1103" d="M180 768h236l-74 -532v-13q0 -58 33 -102q37 -49 121 -53q63 0 122.5 21.5t108.5 58t82 88t43 112.5l47 338h-151l10 82h237l-98 -694h145l-10 -74h-221l12 106l13 93q-55 -98 -153.5 -156.5t-211.5 -58.5t-170 63q-49 54 -49 136q0 15 2 30l65 473h-151z" />
<glyph unicode="v" horiz-adv-x="1204" d="M184 768h379l-10 -82h-133l106 -289l101 -288l176 282l192 295h-121l13 82h358l-12 -82h-150l-240 -368l-237 -365l-140 365l-136 368h-158z" />
<glyph unicode="w" horiz-adv-x="1736" d="M1432 768h346l-13 -82h-139l-235 -368l-234 -365l-201 557l-356 -557l-134 365l-132 368h-162l12 82h367l-10 -82h-121l104 -290l99 -287l130 212l132 211l-19 154h-133l12 82h379l-12 -82h-135l104 -290l99 -287l177 288l183 289h-121z" />
<glyph unicode="x" horiz-adv-x="1030" d="M178 768h395l-10 -82h-127l146 -248l213 248h-117l10 82h377l-10 -82h-158l-270 -315l84 -146l86 -143h172l-11 -82h-395l10 82h117l-72 122l-71 120l-103 -121l-104 -121h119l-10 -82h-377l10 82h151l136 157l137 156l-88 145l-86 146h-166z" />
<glyph unicode="y" horiz-adv-x="1230" d="M199 -430h174l135 214l137 212l-126 345l-124 345h-157l12 82h379l-11 -82h-131l112 -304q56 -151 103 -304q86 147 186 301l197 307h-118l12 82h358l-12 -82h-147l-358 -558l-357 -558h131l-10 -82h-396z" />
<glyph unicode="z" horiz-adv-x="882" d="M838 193l-27 -193h-739l10 84l170 150l164 150l164 150l170 152h-560l23 154h78l-10 -72h598l-13 -84l-170 -150l-162 -150l-163 -150l-170 -150h542l17 109h78z" />
<glyph unicode="{" horiz-adv-x="595" d="M182 563l17 94q49 2 84.5 30t59.5 69t37 89t19 89l47 352q12 94 37 143.5t55.5 71t67.5 24.5t78 3h96l-10 -84h-106q-63 0 -92 -48t-48 -173l-41 -291q-12 -84 -31.5 -138.5t-43 -90t-50 -56t-53.5 -35.5q23 -14 43.5 -35.5t34.5 -58.5t18 -91q1 -14 1 -29q0 -46 -9 -107 l-39 -289q-10 -71 -10 -118q0 -36 6 -57q14 -48 78 -48h107l-13 -82h-96q-43 0 -80 3t-60.5 28.5t-30.5 84.5q-2 18 -2 40q0 52 11 129l41 305q6 41 6 89t-12 89t-40 68.5t-77 29.5z" />
<glyph unicode="|" horiz-adv-x="491" d="M197 -475l266 1909h86l-266 -1909h-86z" />
<glyph unicode="}" horiz-adv-x="655" d="M731 657l-16 -94q-59 -4 -96 -40t-59.5 -86t-34 -104t-17.5 -91l-41 -303q-12 -96 -36.5 -145.5t-55.5 -71t-69 -23.5t-77 -2h-96l12 82h107q31 0 53.5 11t37.5 37t25.5 69t20.5 106l47 336q8 66 28.5 113t45.5 78.5t51.5 51t46.5 31.5q-23 14 -43 35t-34.5 56.5 t-18.5 90.5q-1 14 -1 29q0 46 9 109l39 291q10 71 10 117q0 36 -6 57q-14 47 -78 47h-106l12 84h96q39 0 75 -2t61.5 -23.5t34.5 -71.5q4 -22 4 -52q0 -39 -7 -93l-41 -307q-6 -37 -10 -91q-1 -18 -1 -36q0 -35 5 -69q8 -50 36 -87t87 -39z" />
<glyph unicode="~" horiz-adv-x="1001" d="M557 1006q-29 35 -50.5 46t-49.5 11q-16 0 -37 -4t-40.5 -15.5t-37.5 -32t-27 -53.5q-12 2 -25.5 2.5t-23.5 2.5q6 39 26.5 67.5t48.5 48t59.5 28.5t60.5 9q43 0 76.5 -19.5t62.5 -54.5q27 -35 49.5 -46t50.5 -11q14 0 35 4t41.5 15.5t37.5 32t26 53.5q12 -2 25.5 -2.5 t25.5 -2.5q-16 -78 -75.5 -115.5t-119.5 -37.5q-43 0 -76.5 19.5t-62.5 54.5z" />
<glyph unicode="&#x2013;" horiz-adv-x="1042" d="M205 362l10 84h616l-10 -84h-616z" />
<glyph unicode="&#x2014;" horiz-adv-x="1433" d="M203 362l10 84h1028l-10 -84h-1028z" />
<glyph unicode="&#x2018;" horiz-adv-x="335" d="M213 1208l-24 -20q-11 -10 -21 -21q-53 53 -68 129q-5 25 -4 52q0 52 19 108q16 -4 31.5 -7t31.5 -7q-15 -49 -15 -93q0 -20 3 -39q10 -61 47 -102z" />
<glyph unicode="&#x2019;" horiz-adv-x="335" d="M141 1167q-10 10 -17 20.5t-18 20.5q49 41 77 102q24 53 24 113v19q16 4 33.5 7t33.5 7q1 -12 1 -24q0 -71 -31 -136q-37 -76 -103 -129z" />
<glyph unicode="&#x201c;" horiz-adv-x="509" d="M416 1208l-25 -20q-12 -10 -22 -21q-53 53 -68 129q-5 25 -5 52q0 52 19 108q16 -4 33 -7t33 -7q-17 -49 -17 -93q0 -20 4 -39q11 -61 48 -102zM203 1208l-25 -20q-12 -10 -22 -21q-53 53 -68 129q-5 25 -5 52q0 52 19 108q16 -4 33 -7t33 -7q-17 -49 -17 -93 q0 -20 4 -39q11 -61 48 -102z" />
<glyph unicode="&#x201d;" horiz-adv-x="507" d="M104 1167q-10 10 -18 20.5t-18 20.5q49 41 76 102q24 53 24 113v19q16 4 33.5 7t34.5 7q1 -12 0 -24q0 -71 -30 -136q-36 -76 -102 -129zM317 1167q-10 10 -18 20.5t-18 20.5q49 41 76 102q24 53 24 113v19q16 4 33.5 7t34.5 7q1 -12 0 -24q0 -71 -30 -136 q-36 -76 -102 -129z" />
<glyph unicode="&#x2026;" horiz-adv-x="1001" d="M802 116q24 19 50 19q25 0 43 -19q15 -16 15 -38v-10q-4 -29 -28 -48.5t-48 -19.5q-27 0 -45 19q-15 16 -15 38q0 36 28 59zM468 116q24 19 50 19q25 0 43 -19q15 -16 15 -38v-10q-4 -29 -28 -48.5t-48 -19.5q-27 0 -45 19q-15 16 -15 38q0 36 28 59zM134 116 q24 19 50 19q25 0 43 -19q15 -16 15 -38v-10q-4 -29 -28 -48.5t-48 -19.5q-27 0 -45 19q-15 16 -15 38q0 36 28 59z" />
<glyph unicode="&#xe000;" horiz-adv-x="770" d="M0 770h770v-770h-770v770z" />
</font>
</defs>
</svg>
