<?xml version="1.0" standalone="no"?>
<!DOCTYPE svg PUBLIC "-//W3C//DTD SVG 1.1//EN" "http://www.w3.org/Graphics/SVG/1.1/DTD/svg11.dtd" >
<svg xmlns="http://www.w3.org/2000/svg">
<metadata>
This is a custom SVG webfont generated by Font Squirrel.
Copyright   : Copyright c 2010 by Typemade All rights reserved
Designer    : Santiago Orozco
Foundry     : Typemade
</metadata>
<defs>
<font id="JosefinSlabBoldItalic" horiz-adv-x="1120" >
<font-face units-per-em="2048" ascent="1536" descent="-512" />
<missing-glyph horiz-adv-x="614" />
<glyph unicode=" "  horiz-adv-x="614" />
<glyph unicode="&#x09;" horiz-adv-x="614" />
<glyph unicode="&#xa0;" horiz-adv-x="614" />
<glyph unicode="!" horiz-adv-x="411" d="M96 0q-41 0 -68 31q-24 27 -24 66v12q6 47 44 76.5t79 29.5q39 0 67 -30q23 -24 22 -60q0 -8 -1 -16q-6 -47 -43 -78t-76 -31zM225 1536h170l-168 -1196h-170z" />
<glyph unicode="&#x22;" horiz-adv-x="686" d="M365 967l71 508h170l-40 -254l-40 -254h-161zM92 967l72 508h170l-40 -254l-40 -254h-162z" />
<glyph unicode="#" horiz-adv-x="1169" d="M469 760q-12 -53 -26 -105l-27 -104h205l27 104l26 105h-205zM477 0l50 193l51 192h-205l-50 -192l-51 -193h-172l51 193l50 192h-189l43 166h189l27 104l26 105h-186l20 83l21 83h188l52 195l52 196h172l-52 -196l-52 -195h205l52 195l52 196h172l-52 -196l-52 -195h209 l-21 -83l-20 -83h-211q-12 -53 -26 -105l-27 -104h208l-43 -166h-208l-51 -192l-50 -193h-172z" />
<glyph unicode="$" horiz-adv-x="1161" d="M762 1118l18 121q-27 12 -57.5 22.5t-69.5 14.5l-63 -461q63 -23 123.5 -51.5t105.5 -75.5t67 -121q13 -44 13 -101q0 -38 -6 -83q-12 -84 -50 -152.5t-94.5 -120t-128 -83t-147.5 -39.5l-18 -127h-172l18 133q-121 18 -209 73.5t-121 122.5l31 238h162l-27 -182 q37 -31 82 -55.5t105 -36.5l77 548q-55 18 -106 43t-87 65t-53 99q-11 37 -11 87q0 29 3 63q6 57 31 117.5t68 112.5t107.5 90t150.5 55l18 131h172l-18 -127q66 -6 137.5 -31t138.5 -88l-28 -201h-162zM723 385q4 27 4 51q0 27 -5 48q-9 42 -30.5 73t-54.5 52.5t-72 37.5 l-69 -493q86 18 149.5 75.5t77.5 155.5zM317 1053q-2 -17 -2 -33q0 -47 24 -77q32 -40 87 -69l53 388q-72 -27 -112 -83t-50 -126z" />
<glyph unicode="%" horiz-adv-x="1486" d="M938 227q-1 -9 -1 -17q0 -29 16 -50q22 -27 63 -27t68.5 26.5t33.5 67.5l2 18q0 29 -17 49q-22 26 -63 25q-41 0 -68.5 -25.5t-33.5 -66.5zM991 -33q-53 0 -98 20.5t-76 55.5t-45 82q-9 30 -9 63q0 19 3 39q8 53 35.5 100.5t67.5 82t91.5 55t104.5 20.5t98 -20.5t76 -55 t45 -81.5q9 -30 9 -63q0 -19 -3 -38q-8 -55 -35.5 -102t-68.5 -82t-91.5 -55.5t-103.5 -20.5zM395 797q-1 -9 -1 -18q0 -29 17 -50q22 -27 62 -27q41 0 68.5 27t33.5 68q1 9 2 17q0 29 -17 49q-22 26 -62 26q-41 0 -69 -25.5t-34 -66.5zM449 537q-53 0 -98.5 20.5t-76 55 t-45.5 81.5q-9 30 -9 64q0 19 3 39q8 53 36 100t68 82t91 55.5t104 20.5t98.5 -20.5t76 -55.5t44.5 -82q9 -30 9 -62q0 -19 -2 -38q-8 -55 -36 -102.5t-69 -82t-91 -55t-103 -20.5zM283 0l377 512l378 512h187l-378 -512l-378 -512h-186z" />
<glyph unicode="&#x26;" horiz-adv-x="1433" d="M862 768h367l-23 -166h-194l-13 -82l-5 -42l-7 -57q-4 -32 -11 -64.5t-18 -59.5l119 -248l-145 -88l-80 168q-66 -68 -154 -107.5t-186 -39.5q-86 0 -155.5 31.5t-118 87t-69.5 127.5q-14 46 -14 97q0 29 5 60q10 74 44 139.5t86 117.5t117.5 88t137.5 48l-111 238 q-29 61 -34 127q-1 14 -1 28q0 51 15 100q18 62 64 118.5t120 97.5q63 35 124 42q23 3 46 3q36 0 70 -7q55 -11 103 -34t83 -47l-86 -133q-18 12 -48 27.5t-63.5 23.5t-68.5 8t-66 -18q-92 -53 -112 -135q-7 -28 -7 -57q0 -53 25 -105l236 -496v6zM330 385q-3 -20 -3 -39 q0 -75 46 -130q57 -69 164 -69q78 0 141 39t98 103l-155 332q-115 0 -195 -62.5t-96 -173.5z" />
<glyph unicode="'" horiz-adv-x="333" d="M49 967l72 508h172l-40 -254l-40 -254h-164z" />
<glyph unicode="(" horiz-adv-x="868" d="M236 596q20 154 68 293t112.5 258t138.5 216t147 165q35 -12 72 -23.5t72 -23.5q-68 -68 -137.5 -160t-130 -204.5t-105.5 -244t-65 -276.5q-15 -104 -15 -200q0 -39 2 -77q8 -131 37 -243.5t73 -204.5t93 -160l-78 -23l-78 -24q-55 68 -102 165t-78 216t-40 258 q-3 40 -2 82q0 102 16 211z" />
<glyph unicode=")" horiz-adv-x="819" d="M639 590q-23 -154 -71 -293t-112.5 -258t-138 -216t-147.5 -165l-72 21l-71 22q68 68 137 160t129.5 204.5t105.5 243.5t66 277q15 104 15 200q0 39 -3 76q-8 131 -36.5 244t-72.5 205t-94 159l78 26l78 26q55 -68 102.5 -165t78 -216t39.5 -258q3 -43 3 -88 q0 -99 -14 -205z" />
<glyph unicode="*" horiz-adv-x="686" d="M510 1178l60 -37l59 -37l-54 -75l-53 -75l-58 38l-58 38q-4 -35 -11 -71l-12 -70h-164l21 143l-67 -36l-69 -35l-31 74l-32 75q35 16 67.5 34.5t67.5 35.5l-56 38l-57 37l99 142l60 -38l59 -38l22 154h172l-24 -154l141 74l32 -71l29 -71l-70 -38z" />
<glyph unicode="+" horiz-adv-x="1112" d="M406 104l40 285h-282l22 166h283l41 287h172l-41 -287h283l-23 -166h-283l-40 -285h-172z" />
<glyph unicode="," horiz-adv-x="409" d="M362 176l-117 -211l-118 -211h-152l107 211l108 211h172z" />
<glyph unicode="-" horiz-adv-x="614" d="M96 301l23 166h377l-23 -166h-377z" />
<glyph unicode="." horiz-adv-x="333" d="M66 106q8 47 44.5 78t77.5 31q39 0 68 -31q22 -24 22 -57q0 -10 -2 -21q-6 -47 -42.5 -76.5t-75.5 -29.5q-41 0 -70 30q-24 24 -24 60z" />
<glyph unicode="/" horiz-adv-x="778" d="M-74 -39l393 773l394 773h172l-395 -773l-394 -773h-170z" />
<glyph unicode="0" horiz-adv-x="1261" d="M76 670q23 156 83 281.5t147 213.5t194.5 135.5t222.5 47.5t208 -49.5t154.5 -138.5t84.5 -216q12 -65 12 -137q0 -69 -11 -145q-23 -156 -87 -281t-154 -214t-195.5 -136t-210.5 -47q-104 0 -196 49t-155.5 139t-91.5 216q-15 69 -15 148q0 64 10 134zM248 668 q-8 -54 -8 -105t8 -98q16 -94 57 -164t102.5 -110.5t139.5 -40.5q76 0 150.5 38.5t137 108.5t105.5 164t59 203q8 49 9 105q0 28 -2 58q-6 90 -39 169t-97.5 132.5t-169.5 53.5q-104 0 -184 -52.5t-136 -130t-89 -167.5t-43 -164z" />
<glyph unicode="1" horiz-adv-x="593" d="M-23 162h160l142 1003h-140l23 166h311l-164 -1169h162l-22 -162h-494z" />
<glyph unicode="2" horiz-adv-x="1062" d="M446 166h336l27 190h162l-51 -356h-908l280 247q136 120 243.5 231.5t178 217t85.5 201.5q4 28 4 53q0 42 -11 76q-17 53 -50 88t-75 51.5t-79 16.5q-78 0 -131.5 -27t-87 -65.5t-51 -81.5t-21.5 -76q-4 -27 -4 -53q0 -96 55 -160l-119 -105q-31 23 -53 61t-35.5 82 t-17.5 90q-2 18 -2 36q0 26 4 49q12 82 50 157.5t101.5 133t147.5 91.5t188 34q94 0 167 -35t120 -93.5t68 -135.5q13 -48 12 -99q0 -31 -4 -63q-14 -102 -63.5 -197.5t-121 -190t-160.5 -185.5z" />
<glyph unicode="3" horiz-adv-x="1054" d="M315 668l355 495h-228l-12 -96h-162l37 264h674l-363 -487q63 -25 113.5 -65t84.5 -93t47 -119q8 -37 8 -76q0 -31 -5 -63q-12 -92 -60 -173t-118 -141.5t-156 -95t-178 -34.5q-98 0 -176 39.5t-131 105.5l141 117q31 -45 80 -70.5t111 -25.5q57 0 110.5 22.5t96.5 60 t72.5 88t37.5 107.5q3 20 3 39q0 36 -10 69q-15 50 -48 86.5t-80 58t-104 21.5q-74 1 -140 -34z" />
<glyph unicode="4" horiz-adv-x="1083" d="M426 162h154l30 213h-577l887 973l-115 -807h199l-23 -166h-199l-30 -213h170l-23 -162h-496zM676 846l-277 -305h234z" />
<glyph unicode="5" horiz-adv-x="1112" d="M975 1331l-37 -264h-162l12 98h-253l-41 -301q12 2 25 3t28 1q92 0 169 -33.5t129 -94t77 -140.5q16 -53 16 -112q0 -29 -4 -60q-12 -92 -60.5 -173t-118 -141.5t-155.5 -95t-178 -34.5q-90 0 -164 32.5t-125 92.5l141 114q31 -35 75 -54t97 -19q57 0 110.5 22.5t96.5 60 t73 88t38 107.5q3 20 3 39q0 36 -10 69q-15 50 -48 86.5t-80 58t-105 21.5q-72 0 -134 -23.5t-107 -80.5l104 733h588z" />
<glyph unicode="6" horiz-adv-x="1064" d="M244 428q-3 -22 -3 -43q0 -34 8 -64q13 -50 45 -88t78 -60.5t101 -22.5q57 0 110.5 22.5t96.5 60t72.5 88t38.5 107.5q3 20 2 39q0 36 -10 69q-15 50 -48 86.5t-80 58t-104 21.5q-55 0 -107.5 -21.5t-94.5 -58t-69.5 -87t-35.5 -107.5zM63 403q20 147 101.5 275.5 t195 239t247.5 206.5l261 181l44 -66l44 -65q-145 -88 -248.5 -165t-177.5 -143q10 0 21.5 1t21.5 1q92 0 169 -33.5t129.5 -94t76.5 -140.5q16 -53 17 -112q0 -29 -4 -60q-12 -92 -60.5 -173t-118 -141.5t-155.5 -95t-178 -34.5q-88 0 -163 32.5t-127.5 89t-77.5 133.5 q-19 58 -19 122q-1 21 1 42z" />
<glyph unicode="7" horiz-adv-x="960" d="M967 1331l-785 -1331h-192l688 1163h-418l-14 -96h-162l37 264h846z" />
<glyph unicode="8" horiz-adv-x="1044" d="M418 1020q-2 -14 -2 -26q0 -48 30 -83q39 -43 103 -43q66 0 116 43t60 109q2 14 2 27q0 49 -30 87q-38 48 -103 48q-31 0 -60.5 -13.5t-54 -36t-41 -51t-20.5 -61.5zM215 428q-3 -21 -3 -41q0 -35 9 -66q14 -50 45 -88t77 -60.5t101 -22.5q57 0 110.5 22.5t97.5 60t73 88 t37 107.5q3 20 3 39q0 34 -9 65q-14 49 -45 86t-77 59.5t-102 24.5q-59 0 -113 -21.5t-96 -58t-71 -87t-37 -107.5zM39 428q16 119 87 216t175 157q-35 41 -51 97q-10 35 -10 73q0 24 4 49q8 68 41.5 127t84 104t113 71t129.5 26q68 0 124.5 -26t94 -71t55.5 -104 q12 -40 12 -85q0 -21 -3 -42q-10 -66 -42 -122t-79 -97q86 -59 130 -157q32 -71 32 -153q0 -31 -4 -63q-12 -92 -59.5 -173t-117 -141.5t-155.5 -95t-178 -34.5t-168 34.5t-128 95t-76 141.5q-15 53 -15 111q0 30 4 62z" />
<glyph unicode="9" horiz-adv-x="1075" d="M799 858q3 22 3 43q0 34 -8 65q-13 50 -45 88t-78 60.5t-102 22.5q-57 0 -110 -22.5t-96.5 -60.5t-73 -88.5t-37.5 -107.5q-3 -20 -3 -39q0 -36 10 -68q15 -50 48 -87t80 -58.5t105 -21.5q55 0 107 21.5t94 58t70 87t36 107.5zM975 858q-18 -139 -100 -264t-198 -234.5 t-249 -203.5l-254 -174l-44 65l-44 66q145 88 248.5 164.5t177.5 142.5q-10 -2 -22 -2h-21q-92 0 -169 33.5t-129 94t-77 140.5q-16 53 -16 112q0 29 4 60q12 92 60 173t118 141.5t156 95.5t178 35t168 -36t127 -96.5t75 -141.5q15 -53 15 -110q0 -30 -4 -61z" />
<glyph unicode=":" horiz-adv-x="358" d="M102 618q6 47 43 78t78 31q39 0 68 -31q24 -25 23 -61q0 -8 -1 -17q-6 -47 -43 -76.5t-75 -29.5q-41 0 -70 30q-24 24 -24 60q0 8 1 16zM31 106q6 47 43 78t78 31q39 0 67 -31q24 -25 24 -61q0 -8 -1 -17q-6 -47 -43 -76.5t-76 -29.5q-41 0 -70 30q-24 24 -23 60 q0 8 1 16z" />
<glyph unicode=";" horiz-adv-x="411" d="M182 618q8 47 45 78t78 31q39 0 68 -31q22 -24 22 -57q0 -10 -2 -21q-6 -47 -43 -76.5t-76 -29.5q-41 0 -69 30q-24 24 -24 60q0 8 1 16zM295 176l-118 -211l-118 -211h-151l107 211l108 211h172z" />
<glyph unicode="&#x3c;" horiz-adv-x="1392" d="M1092 203l-33 -232l-411 258l-410 258l482 258l484 259l-33 -232l-266 -142l-266 -143l225 -142z" />
<glyph unicode="=" horiz-adv-x="1449" d="M1225 395l-25 -166h-1036l24 166h1037zM1280 793l-25 -166h-1036l25 166h1036z" />
<glyph unicode="&#x3e;" horiz-adv-x="1331" d="M164 -29l33 232l266 142l268 142l-227 143l-228 142l33 232l411 -259l413 -258l-485 -258z" />
<glyph unicode="?" horiz-adv-x="925" d="M287 1130l-72 27.5t-72 28.5q20 45 55 99t89.5 101.5t130.5 80t180 32.5q84 0 153.5 -31.5t115.5 -86t68 -127.5q14 -46 14 -96q0 -29 -5 -58q-16 -115 -81.5 -200t-170.5 -155l-66.5 -41.5t-68.5 -49t-56.5 -65.5t-31.5 -93l-23 -160h-172l29 199q8 66 36 106.5t65.5 72 t86 59.5t99.5 65q82 55 126 120.5t54 141.5q3 21 3 41q0 73 -42 126q-53 67 -156 66q-115 0 -179 -51.5t-109 -151.5zM311 0q-41 0 -69 30q-24 24 -24 60q0 8 1 16q8 47 45 78t78 31q39 0 68 -31q22 -24 22 -57q0 -10 -2 -21q-6 -47 -43 -76.5t-76 -29.5z" />
<glyph unicode="@" horiz-adv-x="2027" d="M752 385q-3 -20 -3 -39q0 -75 46 -130q57 -69 163 -69q53 0 99.5 18.5t83.5 50.5t60.5 76t29.5 93q4 23 3 44q0 73 -44 125q-57 67 -164 67q-53 0 -99 -17.5t-83 -49.5t-60.5 -75t-31.5 -94zM1862 385q-23 -109 -75 -181.5t-115.5 -118.5t-132.5 -65.5t-124 -19.5h-217 l6 41q2 10 3 20.5t3 20.5q-4 -6 -24.5 -22.5t-56 -33t-85 -30.5t-108.5 -14q-86 0 -157.5 31.5t-119 87t-69.5 127.5q-15 47 -15 98q0 28 5 57q12 80 54 152.5t105.5 128t143.5 87t166 31.5q53 0 97 -14t75.5 -33.5t50 -38t20.5 -24.5q4 23 11.5 47t11.5 49h141l-86 -602h68 q41 0 82 11t74.5 37t58 68t37.5 103q7 53 7 103q0 88 -23 169q-36 127 -116.5 222.5t-198.5 149.5t-261 54q-145 0 -279.5 -54t-242 -149.5t-180 -222.5t-93.5 -272q-7 -52 -7 -101q0 -89 23 -170q37 -126 119 -220.5t201 -148.5t264 -54q121 0 233.5 35.5t213.5 99.5 l43 -60l43 -61q-57 -45 -126 -79t-142.5 -56.5t-147.5 -33.5t-141 -11q-180 0 -329 67.5t-250 184.5t-146 274q-29 102 -30 213q0 60 9 123q25 178 115 336t224 274.5t302 184t348 67.5q178 0 325.5 -67.5t248 -184t145.5 -274.5q29 -102 29 -214q1 -60 -8 -124z" />
<glyph unicode="A" horiz-adv-x="1613" d="M94 162h168l377 668l377 669l190 -669l191 -668h168l-23 -162h-455l23 162h115l-58 203l-57 202h-451l-227 -405h117l-23 -162h-454zM973 1055l-10 67l-8 -14q-5 -10 -9 -23q-8 -14 -14 -30l-66 -117q-29 -49 -58 -107l-54 -102h311z" />
<glyph unicode="B" horiz-adv-x="1110" d="M94 162h92l156 1110h-92l22 162h467q100 0 180 -20.5t133.5 -63.5t75.5 -112q14 -42 14 -93q0 -33 -5 -70q-16 -127 -90 -223t-203 -131q57 -12 106 -41t83 -74t50 -104q10 -37 10 -79q0 -26 -3 -54q-12 -92 -61.5 -161t-120 -115t-157.5 -69.5t-176 -23.5h-503zM422 641 l-66 -479h228q63 0 120.5 14t103.5 44t76.5 73t39.5 102q2 18 2 34q0 43 -16 77q-22 47 -64.5 76.5t-102 44t-122.5 14.5h-199zM512 1272l-66 -469h222q121 0 199.5 67.5t95.5 178.5q3 24 3 45q0 86 -53 127q-66 51 -184 51h-217z" />
<glyph unicode="C" horiz-adv-x="1249" d="M1174 1118l18 125q-96 45 -207 45q-117 0 -225.5 -45t-195.5 -124t-145.5 -183.5t-74.5 -220.5q-6 -42 -6 -82q0 -72 19 -139q30 -104 95.5 -181t161 -122.5t211.5 -45.5q150 0 291 76l74 -135q-90 -47 -186.5 -74.5t-200.5 -27.5q-152 0 -277 57t-211 156.5t-125 232.5 q-25 84 -24 176q0 53 8 109q20 152 97 286t189.5 233t254 157.5t293.5 58.5q104 0 194 -26.5t166 -75.5l-33 -230h-161z" />
<glyph unicode="D" horiz-adv-x="1294" d="M94 164h96l156 1108h-96l22 162h430q147 0 271.5 -50.5t209.5 -144.5t124 -226q25 -84 24 -181q0 -56 -8 -117q-18 -121 -77.5 -248t-168 -230.5t-268.5 -170t-377 -66.5h-360zM516 1272l-156 -1108h144q121 0 230.5 39t196.5 111.5t145.5 174t76.5 228.5q7 49 7 93 q0 73 -18 136q-30 102 -97.5 175t-166 112t-219.5 39h-143z" />
<glyph unicode="E" horiz-adv-x="1169" d="M94 162h115l156 1110h-115l22 162h998l-45 -316h-162l22 154h-550l-66 -469h633l-25 -162h-633l-65 -479h579l21 153h162l-43 -315h-1026z" />
<glyph unicode="F" horiz-adv-x="1140" d="M94 162h115l156 1110h-115l22 162h998l-45 -316h-162l22 154h-550l-66 -469h633l-25 -162h-633l-65 -479h211l-23 -162h-495z" />
<glyph unicode="G" horiz-adv-x="1247" d="M1157 610l-74 -528q-88 -47 -184 -74.5t-201 -27.5q-152 0 -276.5 57t-210.5 156.5t-125 232.5q-25 87 -25 182q0 50 7 103q20 152 97 285.5t190.5 233t255 158t292.5 58.5q104 0 193.5 -26.5t167.5 -76.5l-115 -137q-57 37 -124 57.5t-144 20.5q-117 0 -225.5 -45 t-195.5 -124t-146.5 -183.5t-75.5 -220.5q-6 -42 -6 -82q0 -72 19 -140q30 -104 95.5 -181t160.5 -122t212 -45q106 0 209 37l37 271h-211l22 161h381z" />
<glyph unicode="H" horiz-adv-x="1581" d="M1214 1434h496l-22 -162h-162l-156 -1110h162l-23 -162h-495l22 162h164l66 479h-774l-66 -479h164l-23 -162h-495l22 162h162l156 1110h-162l22 162h496l-23 -162h-163l-66 -469h774l66 469h-164z" />
<glyph unicode="I" horiz-adv-x="638" d="M94 162h162l156 1110h-162l22 162h496l-23 -162h-163l-156 -1110h164l-23 -162h-495z" />
<glyph unicode="J" horiz-adv-x="636" d="M190 1434h494l-176 -1250q-16 -115 -66.5 -202.5t-124 -148t-168 -93.5t-198.5 -35l20 162q70 4 132.5 26.5t111.5 63.5t81 99.5t42 133.5l154 1082h-324z" />
<glyph unicode="K" horiz-adv-x="1404" d="M901 162h107l-191 290l-186 291l-146 -120l-31 -231l-32 -230h168l-23 -162h-495l22 162h158l156 1110h-158l22 162h455l-22 -162h-127l-58 -400q-4 -16 -7 -32.5t-7 -32.5l45 47l498 418h-76l22 162h455l-23 -162h-170l-499 -420l224 -345l226 -345h148l-23 -162h-454z " />
<glyph unicode="L" horiz-adv-x="1169" d="M94 162h115l156 1110h-115l22 162h455l-22 -162h-170l-156 -1110h579l21 153h162l-43 -315h-1026z" />
<glyph unicode="M" horiz-adv-x="1998" d="M1898 1434h230l-23 -162h-178l-155 -1110h178l-23 -162h-495l22 162h148l112 801q4 16 7 32.5t8 32.5l-38 -47q-19 -25 -40 -47q-147 -174 -305 -341l-312 -337l-448 717l-29 55q0 -16 -1 -32.5t-1 -32.5l-113 -801h148l-23 -162h-495l22 162h178l156 1110h-178l22 162 h230l284 -454l287 -454l412 454z" />
<glyph unicode="N" horiz-adv-x="1751" d="M102 162h179l155 1110h-178l23 162h237l840 -1072l31 -53l4 66l125 897h-148l23 162h495l-22 -162h-178l-187 -1338l-893 1115l-30 53l-5 -66l-122 -874h147l-23 -162h-495z" />
<glyph unicode="O" horiz-adv-x="1609" d="M174 715q20 150 96 284t189.5 234t255 158.5t293.5 58.5q150 0 275.5 -58.5t211.5 -158.5t126 -235q26 -89 26 -184q0 -49 -7 -99q-23 -152 -99.5 -285t-190 -232.5t-256 -156.5t-291.5 -57q-152 0 -277 57t-211 156.5t-125 232.5q-25 84 -24 176q0 53 8 109zM344 715 q-6 -42 -6 -83q0 -73 19 -139q30 -103 95.5 -180t162 -122.5t212.5 -45.5q117 0 225.5 45.5t195.5 122t146.5 180t75.5 222.5q6 42 6 82q0 73 -19 140q-30 103 -96.5 181t-161.5 123t-212 45t-225.5 -45t-196.5 -123t-146.5 -181t-74.5 -222z" />
<glyph unicode="P" horiz-adv-x="1058" d="M94 162h92l156 1110h-92l22 162h430q70 0 152 -21.5t148.5 -69t105.5 -120.5q28 -54 28 -125q0 -26 -3 -54q-27 -186 -153 -295.5t-335 -109.5h-223l-66 -477h234l-23 -162h-495zM446 803h179q90 0 151.5 23.5t101.5 58.5t59 78t26 81q2 12 1 24q0 33 -13 62 q-17 41 -53 73t-89 50.5t-117 18.5h-180z" />
<glyph unicode="Q" horiz-adv-x="1654" d="M344 715q-6 -42 -6 -82q0 -72 19 -139q30 -104 95.5 -181t161 -122.5t211.5 -45.5q117 0 225.5 45.5t196.5 122t147.5 181t75.5 221.5q6 41 6 79q0 73 -20 142q-31 104 -96.5 183t-161.5 124t-213 45t-225.5 -45t-195.5 -124t-145.5 -183t-74.5 -221zM174 715 q20 152 97 286t189.5 233t254 157.5t293.5 58.5t277.5 -58.5t211.5 -157.5t125 -234q25 -88 26 -183q0 -50 -8 -102q-25 -166 -113.5 -309.5t-219.5 -243.5h301l-23 -162h-629q-82 -16 -153 -16q-152 0 -277 57t-211 156.5t-125 232.5q-25 84 -24 176q0 53 8 109z" />
<glyph unicode="R" horiz-adv-x="1179" d="M94 162h92l156 1110h-92l22 162h430q70 0 152 -21.5t148.5 -69t105.5 -120.5q28 -54 28 -125q0 -26 -3 -54q-23 -154 -114 -257t-243 -136l162 -489h192l-22 -162h-299l-213 639h-88h-86l-66 -477h234l-23 -162h-495zM446 803h179q90 0 151.5 23.5t101.5 58.5t59 78 t26 81q2 12 1 24q0 33 -13 62q-17 41 -53 73t-89 50.5t-117 18.5h-180z" />
<glyph unicode="S" horiz-adv-x="978" d="M72 190l32 238h162l-26 -182q49 -41 118.5 -71t161.5 -30q53 0 104.5 15.5t93.5 45.5t70.5 75t36.5 104q4 29 5 54q0 44 -14 77q-22 51 -63.5 84t-99.5 53l-116 40q-59 19 -117 43t-98.5 64t-62.5 101q-14 39 -14 92q0 30 5 66q8 68 37.5 135.5t85 122.5t138.5 90t196 35 q37 0 78.5 -4t87 -16.5t92.5 -37t90 -65.5l-29 -201h-162l19 121q-37 16 -87.5 28.5t-111.5 12.5q-119 0 -185.5 -67.5t-78.5 -159.5q-2 -16 -2 -30q0 -41 17 -70q24 -38 67 -63.5t100 -44l117.5 -40t116 -51t96.5 -77.5t59 -119q10 -40 11 -90q0 -39 -7 -85 q-12 -92 -57 -166t-109.5 -126t-146.5 -79.5t-168 -27.5q-78 0 -148.5 17t-129 46t-101.5 65.5t-63 77.5z" />
<glyph unicode="T" horiz-adv-x="1275" d="M401 162h177l155 1110h-321l-23 -154h-162l45 316h1133l-45 -316h-162l23 154h-318l-155 -1110h149l-23 -162h-495z" />
<glyph unicode="U" horiz-adv-x="1492" d="M274 1434h496l-22 -162h-168l-113 -803q-5 -33 -5 -63q0 -112 67 -178q85 -83 239 -83q76 0 142.5 21.5t118.5 62.5t86 101.5t46 138.5l113 803h-168l22 162h496l-22 -162h-158l-115 -809q-16 -117 -68.5 -207t-130 -150.5t-176 -91t-209.5 -30.5t-200.5 30.5t-151 91 t-88.5 150.5q-16 56 -16 122q0 41 6 85l115 809h-158z" />
<glyph unicode="V" horiz-adv-x="1658" d="M281 1434h495l-22 -162h-148l127 -447l127 -446l8 -68l29 68l252 445l250 448h-121l22 162h496l-22 -162h-203l-377 -669l-377 -669l-190 669l-191 669h-178z" />
<glyph unicode="W" horiz-adv-x="2412" d="M281 1434h495l-22 -162h-148l127 -447l127 -446l8 -68q37 92 86 184l103 182l107 181l104 178l-34 118l-34 118h-188l22 162h496l-23 -162h-137l127 -447l127 -446l8 -68l29 68l252 445l250 448h-131l22 162h496l-23 -162h-192l-377 -669l-377 -669l-244 854l-10 72 q-45 -115 -106.5 -232.5t-130.5 -234.5l-141 -232q-71 -116 -132 -227l-190 669l-191 669h-178z" />
<glyph unicode="X" horiz-adv-x="1421" d="M272 1434h496l-23 -162h-112l90 -177l90 -175l18 -56l35 56l279 352h-113l23 162h495l-22 -162h-176l-218 -278l-219 -275l144 -279l143 -278h170l-22 -162h-496l23 162h112l-186 366q-6 14 -11.5 28.5t-9.5 29.5l-34 -58l-146 -183l-143 -183h131l-23 -162h-495l22 162 h154l452 569l-276 541h-174z" />
<glyph unicode="Y" horiz-adv-x="1615" d="M590 162h137l53 391l-163 359l-160 360h-207l22 162h496l-23 -162h-81l113 -250l114 -250l14 -63h2l33 63l367 500h-80l22 162h496l-23 -162h-206l-264 -361l-263 -360l-53 -389h149l-22 -162h-496z" />
<glyph unicode="Z" horiz-adv-x="1288" d="M1286 496l-69 -496h-1145l22 164l1032 1108h-843l32 233h170l-10 -71h883l-23 -162l-1032 -1108h774l47 332h162z" />
<glyph unicode="[" horiz-adv-x="692" d="M41 -305l256 1833h393l-22 -166h-224l-211 -1501h224l-23 -166h-393z" />
<glyph unicode="\" horiz-adv-x="788" d="M301 1507l175 -773l175 -773h-192l-175 773l-175 773h192z" />
<glyph unicode="]" horiz-adv-x="700" d="M641 1528l-256 -1833h-391l20 166h224l211 1501h-224l23 166h393z" />
<glyph unicode="^" horiz-adv-x="962" d="M500 1352l97 -186l97 -185h-121l-104 147l-73 -73l-72 -74h-121l148 185z" />
<glyph unicode="_" horiz-adv-x="1228" d="M1012 0h-819l22 166h819z" />
<glyph unicode="`" horiz-adv-x="409" d="M104 1253q29 -68 53.5 -136t53.5 -136h-121q-41 68 -77 136.5t-76 135.5h167z" />
<glyph unicode="a" d="M127 383q12 80 54 153.5t105.5 129t143.5 88t166 32.5q55 0 99 -16t77 -35.5t50.5 -38t17.5 -24.5q4 23 10 47t10 49h141l-83 -606h155l-22 -162h-306l7 41q2 10 2 20.5t2 20.5q-4 -6 -24.5 -22.5t-55.5 -34t-84 -30.5t-109 -13q-86 0 -157.5 31.5t-118.5 87t-70 127.5 q-15 47 -14 98q0 28 4 57zM299 385q-3 -20 -3 -39q0 -75 46 -130q57 -69 164 -69q53 0 99 18.5t83 50.5t60.5 76t29.5 93q3 20 3 40q0 76 -46 129q-57 67 -164 67q-53 0 -99 -17.5t-83 -49.5t-60.5 -75t-29.5 -94z" />
<glyph unicode="b" d="M96 162h156l170 1212h-135l22 162h305l-110 -795l-16 -31l-15 -32q4 6 28.5 24.5t61.5 37t85 32.5t102 14q86 0 156.5 -31.5t118.5 -87t70 -127.5q14 -46 13 -97q0 -29 -4 -58q-12 -82 -54 -155.5t-104.5 -129t-142.5 -87t-166 -31.5q-59 0 -105.5 13t-77 30.5t-47 34 t-18.5 22.5q-2 -10 -2 -20.5t-2 -20.5l-6 -41h-305zM932 385q3 20 3 40q0 76 -46 129q-57 67 -164 67q-53 0 -99 -17.5t-83 -49.5t-60.5 -75t-29.5 -94q-3 -20 -3 -39q0 -75 46 -130q57 -69 163 -69q53 0 99.5 18.5t83.5 50.5t60.5 76t29.5 93z" />
<glyph unicode="c" horiz-adv-x="813" d="M750 70q-59 -41 -127 -64.5t-142 -23.5q-86 0 -155.5 31.5t-117.5 87t-71 127.5q-15 47 -14 99q0 28 4 58q12 82 54 155.5t105.5 128t142.5 86t165 31.5q76 0 138.5 -23.5t109.5 -64.5l-35 -237h-152l21 137q-49 23 -107 23q-53 0 -99 -17.5t-83 -49.5t-60.5 -75 t-29.5 -94q-3 -20 -3 -39q0 -75 46 -130q57 -69 164 -69q90 0 160 52z" />
<glyph unicode="d" d="M752 41q2 10 2 20.5t2 20.5q-4 -6 -24.5 -22.5t-55.5 -34t-84 -30.5t-109 -13q-86 0 -157.5 31.5t-118.5 87t-70 128.5q-15 48 -14 99q0 28 4 57q12 82 54 154.5t105.5 128t143.5 87t166 31.5q51 0 95 -14t77 -32.5t51.5 -37t20.5 -24.5q-2 16 -5.5 31.5t-5.5 31.5 l89 633h-136l23 162h305l-192 -1374h155l-22 -162h-306zM299 385q-3 -20 -3 -39q0 -75 46 -130q57 -69 164 -69q53 0 99 18.5t83 50.5t60.5 76t29.5 93q3 20 3 40q0 76 -46 129q-57 67 -164 67q-53 0 -99 -17.5t-83 -49.5t-60.5 -75t-29.5 -94z" />
<glyph unicode="e" horiz-adv-x="921" d="M569 621q-104 0 -178 -62.5t-92 -157.5l203 71l200 71q-23 35 -56.5 56.5t-76.5 21.5zM905 446l-291 -102l-292 -102q25 -43 71.5 -69t110.5 -26q47 0 89 17.5t75 48.5l44 -61l44 -62q-59 -51 -128 -79.5t-147 -28.5q-86 0 -155.5 31.5t-117.5 87t-71 127.5 q-15 47 -14 99q0 28 4 58q12 82 54 155.5t105.5 128t142.5 86t165 31.5q63 0 117.5 -25.5t94.5 -70.5t65.5 -107.5t33.5 -136.5z" />
<glyph unicode="f" horiz-adv-x="688" d="M94 162h125l62 440h-125l22 166h123l41 291q16 115 66.5 203t125 148t169 92t200.5 36l-22 -162q-143 -8 -244.5 -90t-124.5 -233l-41 -285h242l-23 -166h-241l-62 -440h162l-23 -162h-454z" />
<glyph unicode="g" d="M930 768h297l-23 -162h-155l-103 -729q-12 -82 -53 -152.5t-103.5 -123t-140.5 -83t-164 -30.5q-92 0 -173 40t-136 83l131 139q37 -31 88 -58.5t111 -27.5q53 0 100 18.5t83 50t60.5 76t30.5 95.5l19 137q6 8 11 17l11 20q-8 -10 -30.5 -25.5t-57.5 -31t-80 -26.5 t-100 -11q-86 0 -157.5 31.5t-119 86t-69.5 126.5q-15 47 -15 98q0 28 5 57q12 80 54 153.5t105.5 129t143.5 88t166 32.5q55 0 99 -16t76.5 -35.5t50 -38t17.5 -24.5q4 23 10.5 47t10.5 49zM369 385q-3 -20 -3 -39q0 -75 46 -130q57 -69 163 -69q53 0 99.5 18.5t83.5 50.5 t60.5 76t29.5 93q3 20 3 40q0 76 -46 129q-57 67 -164 67q-53 0 -99 -17.5t-83 -49.5t-60.5 -75t-29.5 -94z" />
<glyph unicode="h" horiz-adv-x="1187" d="M684 162h158l43 317v13q0 47 -26 82q-30 40 -107 44q-53 0 -104.5 -18t-92.5 -51t-69.5 -78t-36.5 -98l-29 -211h129l-23 -162h-454l22 162h156l170 1212h-156l23 162h325l-123 -872l-18 -93q59 100 152.5 154.5t210.5 60.5q121 0 182 -63q53 -54 52 -137q0 -14 -1 -29 l-55 -395h127l-23 -162h-454z" />
<glyph unicode="i" horiz-adv-x="598" d="M94 162h144l61 444h-143l22 162h314l-84 -606h141l-23 -162h-454zM346 1065q6 47 43 78t78 31q39 0 68 -31q24 -25 23 -62q0 -8 -1 -16q-8 -47 -45 -77t-76 -30q-41 0 -69 30q-22 23 -23 57q0 10 2 20z" />
<glyph unicode="j" horiz-adv-x="434" d="M121 768h291l-109 -768q-16 -125 -72.5 -218t-140.5 -153l-100 127q57 41 95 102.5t48 147.5l86 600h-121zM268 1065q6 47 43 78t78 31q39 0 68 -31q24 -25 23 -62q0 -8 -1 -16q-6 -47 -43 -77t-76 -30q-41 0 -69 30q-24 24 -24 61q0 8 1 16z" />
<glyph unicode="k" horiz-adv-x="1079" d="M618 162h23q-53 82 -98 166l-113 -95l-10 -71h129l-23 -162h-454l22 162h156l170 1212h-135l22 162h305l-155 -1104l211 174h-76l22 162h412l-22 -162h-127l-101 -84l-98 -84l80 -138l82 -138h190l-22 -162h-412z" />
<glyph unicode="l" horiz-adv-x="598" d="M94 162h156l170 1212h-135l22 162h305l-192 -1374h129l-23 -162h-454z" />
<glyph unicode="m" horiz-adv-x="1781" d="M1278 162h156l43 317v13q0 47 -26 82q-30 40 -108 44q-53 0 -104 -18t-92 -51t-69.5 -78t-37.5 -98l-28 -211h129l-23 -162h-454l22 162h156l43 317v13q0 47 -26 82q-30 40 -107 44q-53 0 -104.5 -18t-92.5 -51t-69.5 -78t-36.5 -98l-29 -211h129l-23 -162h-454l22 162 h156l61 444h-135l23 162h284l-2 -18q-4 -49 -5 -89t-5 -90q57 98 151.5 154.5t211.5 60.5q113 0 174 -56t59 -148q59 94 152.5 147t205.5 57q121 0 183 -63q53 -54 52 -137q0 -14 -1 -29l-55 -395h129l-23 -162h-455z" />
<glyph unicode="n" horiz-adv-x="1187" d="M684 162h158l43 317v13q0 47 -26 82q-30 40 -107 44q-53 0 -104.5 -18t-92.5 -51t-69.5 -78t-36.5 -98l-29 -211h129l-23 -162h-454l22 162h156l61 444h-135l23 162h284l-2 -18q-4 -49 -5 -89t-5 -90q55 98 153.5 156.5t209.5 58.5q121 0 182 -63q53 -54 52 -137 q0 -14 -1 -29l-55 -395h127l-23 -162h-454z" />
<glyph unicode="o" horiz-adv-x="964" d="M127 385q12 82 54 155.5t105.5 128t142.5 86t165 31.5t156.5 -31.5t119 -86t69.5 -127.5q14 -47 14 -97q0 -29 -5 -59q-12 -84 -54 -156.5t-104.5 -128t-142.5 -87t-166 -31.5t-155.5 31.5t-117.5 87t-71 127.5q-15 47 -14 99q0 28 4 58zM297 383q-2 -16 -2 -32 q0 -31 8 -60q12 -43 40 -75t68 -50.5t89 -18.5t95 18.5t83 50.5t61.5 75t30.5 92q2 16 2 32q0 31 -8 60q-12 43 -40 76t-69 51.5t-90 18.5t-94 -18.5t-82 -51.5t-61.5 -76t-30.5 -92z" />
<glyph unicode="p" horiz-adv-x="1122" d="M16 -350h138l135 956h-156l27 162h293q-6 -47 -7 -96q2 6 27 25.5t62.5 39t86 34.5t101.5 15q86 0 156.5 -31.5t119 -87t69.5 -127.5q15 -49 15 -103q0 -25 -4 -52q-12 -82 -54 -155.5t-105.5 -129t-143.5 -87t-166 -31.5q-57 0 -101 12t-75 28.5t-48 32t-21 23.5 q4 -10 7 -19.5t7 -19.5l-55 -389h147l-20 -162h-453zM907 385q3 20 3 40q0 76 -46 129q-57 67 -164 67q-53 0 -99 -17.5t-83 -49.5t-60.5 -75t-29.5 -94q-3 -21 -3 -40q0 -27 6 -53q11 -44 39 -76t69 -50.5t94 -18.5t99 18.5t83 50.5t60.5 76t31.5 93z" />
<glyph unicode="q" horiz-adv-x="1128" d="M590 -350h155l54 389q4 10 11 19.5t13 19.5q-6 -8 -29.5 -23.5t-58.5 -32t-82 -28.5t-102 -12q-86 0 -156.5 31.5t-119 87t-69.5 128.5q-14 47 -14 98q0 29 5 58q12 82 54 154.5t105.5 128t143.5 87t166 31.5q53 0 97 -15t75.5 -34.5t50 -39t20.5 -25.5q4 23 10.5 47 t10.5 49h305l-23 -162h-163l-134 -956h129l-22 -162h-455zM369 385q-3 -20 -3 -39q0 -75 46 -130q57 -69 163 -69q53 0 99.5 18.5t83.5 50.5t60.5 76t29.5 93q3 20 3 40q0 76 -46 129q-57 67 -164 67q-53 0 -99 -17.5t-83 -49.5t-60.5 -75t-29.5 -94z" />
<glyph unicode="r" horiz-adv-x="757" d="M94 162h156l61 444h-135l23 162h284l-2 -18q-4 -49 -5 -89t-5 -90q31 51 75 91t89 68t87 42t73 14l-35 -168q-61 0 -115.5 -18t-95.5 -51t-66.5 -78t-33.5 -98l-29 -211h129l-23 -162h-454z" />
<glyph unicode="s" horiz-adv-x="679" d="M283 246l-11 -80q23 -10 46.5 -13t58.5 -3q2 0 15.5 1t30.5 8t32.5 21.5t21.5 42.5q8 37 -12.5 56.5t-54 33t-75.5 26.5t-76 36.5t-52 66.5q-12 28 -12 68q0 22 4 47q8 63 38.5 106.5t71.5 71t86 39.5t80 12q20 0 49 -4t58.5 -14t57.5 -26.5t46 -41.5l-27 -178h-151 l14 88q-31 10 -61 11q-45 0 -68.5 -19.5t-23.5 -52.5q2 -25 25.5 -40t58 -29.5t72.5 -33t69 -46t47 -69.5q11 -28 11 -66q0 -19 -3 -40q-4 -29 -20.5 -69.5t-50 -79.5t-89 -65.5t-137.5 -26.5q-76 0 -143.5 19.5t-102.5 64.5l25 178h152z" />
<glyph unicode="t" horiz-adv-x="686" d="M420 1268h170l-70 -500h201l-23 -166h-200l-62 -440h154l-23 -162h-323l84 602h-172l22 166h172z" />
<glyph unicode="u" horiz-adv-x="1167" d="M180 768h305l-65 -479q0 -7 -1 -13q0 -47 26 -82q30 -40 108 -44q53 0 104.5 18t92.5 51t69.5 78t36.5 98l29 211h-135l22 162h305l-86 -625h127l-20 -143h-297l14 104l19 93q-55 -98 -153.5 -156.5t-209.5 -58.5q-121 0 -182 63q-53 54 -53 137q0 14 2 29l55 395h-135z " />
<glyph unicode="v" horiz-adv-x="1196" d="M184 768h455l-23 -162h-106q41 -90 78 -180t53 -180q41 90 101 180l126 180h-123l23 162h469l-23 -162h-170l-222 -327l-222 -326l-134 327l-132 326h-172z" />
<glyph unicode="w" horiz-adv-x="1699" d="M1303 768h438l-23 -162h-155l-210 -327l-210 -326l-203 551l-354 -551l-122 327l-120 326h-182l22 162h424l-22 -162h-72l64 -179q31 -89 49 -181q33 70 73 136l82 134l28 45l28 45h-105l23 162h454l-22 -162h-117l64 -179q31 -89 49 -181q43 92 97 181l114 179h-115z " />
<glyph unicode="x" horiz-adv-x="1077" d="M178 768h455l-23 -162h-47l72 -121l102 121h-55l23 162h407l-22 -162h-150l-217 -252l57 -97l60 -95h188l-22 -162h-455l22 162h52l-35 55l-33 55q-23 -29 -48.5 -55.5t-47.5 -54.5h41l-23 -162h-407l22 162h158l109 126l112 126l-57 96l-58 96h-202z" />
<glyph unicode="y" horiz-adv-x="1263" d="M211 -350h184l112 176l114 174l-111 303l-111 303h-172l23 162h455l-23 -162h-109l89 -226q43 -114 65 -228q53 115 128 228l151 226h-127l22 162h469l-22 -162h-168l-308 -478l-307 -478h101l-23 -162h-455z" />
<glyph unicode="z" horiz-adv-x="890" d="M858 283l-39 -283h-747l22 166l135 112l126 107l126 109l135 112h-436l33 234h152l-11 -72h525l-23 -166q-74 -57 -137 -112l-125 -107l-125 -107l-135 -110h356l17 117h151z" />
<glyph unicode="{" horiz-adv-x="655" d="M178 524l25 166q49 2 85 30t59.5 68.5t36.5 89t19 89.5l46 319q12 94 38.5 144.5t62.5 72t80 23.5t93 2h129l-23 -166h-90q-31 0 -53 -8t-37.5 -32t-27 -64.5t-19.5 -106.5l-37 -264q-8 -63 -27.5 -109.5t-44 -79t-51 -54t-49.5 -34.5q18 -12 39 -33.5t36 -55.5t21 -79 q3 -19 3 -41q0 -30 -5 -65l-36 -264q-10 -66 -10.5 -108t9 -64.5t29 -30.5t49.5 -8h90l-24 -166h-129q-47 0 -90 2t-74 23.5t-43 70.5q-6 25 -6 61t6 85l43 311q6 41 6 89t-12 89t-40 68.5t-77 29.5z" />
<glyph unicode="|" horiz-adv-x="555" d="M186 -475l267 1909h172l-267 -1909h-172z" />
<glyph unicode="}" horiz-adv-x="655" d="M735 690l-24 -166q-49 -2 -84 -29.5t-59.5 -68.5t-38 -89t-19.5 -89l-43 -311q-12 -96 -39 -145.5t-63.5 -71t-80.5 -23.5t-94 -2h-129l25 166h90q31 0 52.5 8t37 30.5t25.5 64.5t20 108l37 264q8 61 28.5 107t45 79t51.5 54.5t47 33.5q-18 12 -37.5 34t-35 54.5 t-22.5 78.5q-3 22 -3 47q0 29 4 63l37 264q8 66 10 106v15q0 31 -7 50q-9 24 -28.5 32t-50.5 8h-90l22 166h130q47 0 91 -2t74.5 -23.5t42.5 -70.5q6 -25 6.5 -61.5t-6.5 -84.5l-45 -319q-6 -41 -6 -89.5t12.5 -89t40 -68.5t76.5 -30z" />
<glyph unicode="~" horiz-adv-x="1001" d="M563 985q-27 33 -48 43t-50 10t-68 -17t-55 -77q-23 2 -45.5 3t-44.5 3q8 41 30.5 75t52.5 57.5t63.5 35.5t64.5 12q47 0 83 -18t64 -49q27 -33 49.5 -43t51.5 -10q14 0 31.5 4t35 14t32.5 28.5t21 47.5l93 -6q-8 -41 -31 -75t-52.5 -56.5t-63.5 -34.5t-64 -12 q-47 0 -84 18t-66 47z" />
<glyph unicode="&#x2013;" horiz-adv-x="1042" d="M205 356l22 166h617l-23 -166h-616z" />
<glyph unicode="&#x2014;" horiz-adv-x="1433" d="M203 356l22 166h1028l-22 -166h-1028z" />
<glyph unicode="&#x2018;" horiz-adv-x="335" d="M244 1208l-45 -24l-45 -25q-49 57 -64 134q-5 26 -5 53q0 53 19 110q27 -4 52.5 -7t52.5 -7q-17 -49 -17 -93q0 -20 4 -39q11 -61 48 -102z" />
<glyph unicode="&#x2019;" horiz-adv-x="335" d="M156 1159l-39 24.5l-39 24.5q49 41 77 102q24 53 24 113q0 9 -1 19q27 4 54.5 7t54.5 7v-18q0 -76 -31 -145q-34 -77 -100 -134z" />
<glyph unicode="&#x201c;" horiz-adv-x="509" d="M457 1208l-45 -24l-45 -25q-49 57 -64 134q-5 26 -5 53q0 53 19 110q27 -4 52.5 -7t52.5 -7q-17 -49 -17 -93q0 -20 4 -39q11 -61 48 -102zM244 1208l-45 -24l-45 -25q-49 57 -64 134q-5 26 -5 53q0 53 19 110q27 -4 52.5 -7t52.5 -7q-17 -49 -17 -93q0 -20 4 -39 q11 -61 48 -102z" />
<glyph unicode="&#x201d;" horiz-adv-x="507" d="M106 1159q-20 12 -38.5 24.5t-38.5 24.5q49 41 76 102q24 53 25 113q0 9 -1 19q27 4 54.5 7t54.5 7v-18q0 -76 -31 -145q-35 -77 -101 -134zM319 1159q-20 12 -38.5 24.5t-38.5 24.5q49 41 76 102q24 53 25 113q0 9 -1 19q27 4 54.5 7t54.5 7v-18q0 -76 -31 -145 q-35 -77 -101 -134z" />
<glyph unicode="&#x2026;" horiz-adv-x="1001" d="M734 106q8 47 44.5 78t77.5 31q39 0 68 -31q22 -24 22 -57q0 -10 -2 -21q-6 -47 -42.5 -76.5t-75.5 -29.5q-41 0 -70 30q-24 24 -24 60zM400 106q8 47 44.5 78t77.5 31q39 0 68 -31q22 -24 22 -57q0 -10 -2 -21q-6 -47 -42.5 -76.5t-75.5 -29.5q-41 0 -70 30 q-24 24 -24 60zM66 106q8 47 44.5 78t77.5 31q39 0 68 -31q22 -24 22 -57q0 -10 -2 -21q-6 -47 -42.5 -76.5t-75.5 -29.5q-41 0 -70 30q-24 24 -24 60z" />
<glyph unicode="&#xe000;" horiz-adv-x="770" d="M0 770h770v-770h-770v770z" />
</font>
</defs>
</svg>
