<?xml version="1.0" standalone="no"?>
<!DOCTYPE svg PUBLIC "-//W3C//DTD SVG 1.1//EN" "http://www.w3.org/Graphics/SVG/1.1/DTD/svg11.dtd" >
<svg xmlns="http://www.w3.org/2000/svg">
<metadata>
This is a custom SVG webfont generated by Font Squirrel.
Copyright   : Copyright c 2010 by Typemade All rights reserved
Designer    : Santiago Orozco
Foundry     : Typemade
</metadata>
<defs>
<font id="JosefinSlabLightItalic" horiz-adv-x="1095" >
<font-face units-per-em="2048" ascent="1536" descent="-512" />
<missing-glyph horiz-adv-x="614" />
<glyph unicode=" "  horiz-adv-x="614" />
<glyph unicode="&#x09;" horiz-adv-x="614" />
<glyph unicode="&#xa0;" horiz-adv-x="614" />
<glyph unicode="!" horiz-adv-x="411" d="M100.5 59q-20.5 0 -33.5 16q-12 13 -12 32q0 29 22 46q19 15 38 15q23 0 36 -15.5t11 -39.5q-4 -23 -22.5 -38.5t-39 -15.5zM279 1536h57l-168 -1196h-57z" />
<glyph unicode="&#x22;" horiz-adv-x="616" d="M365 967l71 508h64l-40 -254l-40 -254h-55zM92 967l72 508h63l-40 -254l-40 -254h-55z" />
<glyph unicode="#" horiz-adv-x="1169" d="M412 819q-23 -80 -42 -159l-40 -158h319l40 158q19 79 42 159h-319zM518 0l57 223l58 223h-320l-57 -223l-57 -223h-58l58 223l57 223h-229q4 14 7 27.5t7 28.5h231l40 158q19 79 42 159h-227q2 14 5 27.5t7 27.5h230l116 443h58l-117 -443h319l117 443h58l-117 -443h264 l-12 -55h-267q-23 -80 -42 -159l-39 -158h262q-4 -14 -7.5 -27.5l-7.5 -28.5h-264l-57 -223l-58 -223h-57z" />
<glyph unicode="$" horiz-adv-x="1161" d="M807 1118l27 199q-33 27 -88.5 46t-135.5 23l-84 -600q70 -23 138.5 -48t121 -68t78.5 -113q18 -48 18 -112q0 -30 -3 -64q-10 -88 -52.5 -159.5t-106 -123t-143 -81t-165.5 -33.5l-17 -123h-55l16 125q-74 2 -133 19.5t-102 41t-73 50t-44 46.5l29 211h55l-27 -184 q47 -53 120 -89t184 -40l98 700q-59 18 -114.5 41t-96.5 57.5t-63 87.5q-16 38 -15 90q0 20 2 42q6 66 33 131t75 119.5t117.5 90.5t161.5 40l17 125h55l-17 -123q66 -4 142 -23.5t133 -72.5l-31 -228h-55zM819 375q4 33 5 61q0 50 -14 88q-22 59 -66 97t-103 62t-123 42 l-98 -684q70 4 137.5 28.5t122.5 67.5t92 103.5t47 134.5zM236 1079q-4 -25 -4 -47q0 -35 10 -63q16 -45 50 -77t80 -52.5t99 -36.5l84 579q-70 -4 -126 -30.5t-96 -67.5t-64.5 -94.5t-32.5 -110.5z" />
<glyph unicode="%" horiz-adv-x="1486" d="M852 229q-1 -11 -1 -22q0 -24 6 -46q9 -32 29.5 -55.5t50.5 -37t67 -13.5t70.5 13.5t61 37t45 55.5t23.5 68l2 22q0 58 -38 101q-44 51 -115 51q-37 0 -71 -13t-61.5 -36.5t-45 -55.5t-23.5 -69zM995 0q-47 0 -87 18.5t-67.5 49t-39.5 72.5q-8 28 -8 59q0 16 2 32 q8 47 32.5 89t60.5 73t81 48.5t92 17.5t87 -17.5t67.5 -48.5t39.5 -72q8 -28 9 -59q0 -15 -2 -31q-6 -49 -32 -91t-61.5 -72.5t-81 -49t-92.5 -18.5zM309 795q-1 -11 -1 -22q0 -24 6 -46q9 -31 30 -54.5t50.5 -36.5t66.5 -13t70.5 13t61.5 36.5t45 54.5t24 68q1 11 1 22 q0 58 -37 101q-44 51 -116 51q-37 0 -70.5 -13.5t-61.5 -37t-45.5 -55t-23.5 -68.5zM453 565q-47 0 -87 18.5t-68 49.5t-40 73q-8 28 -8 59q0 16 2 32q6 47 30.5 89t61.5 72.5t82 49t92 18.5t86 -18.5t66.5 -49t41.5 -72.5q9 -29 9 -60q0 -14 -2 -29q-8 -49 -32.5 -91 t-61.5 -73t-81 -49.5t-91 -18.5zM338 0l378 512l378 512h63l-378 -512l-378 -512h-63z" />
<glyph unicode="&#x26;" horiz-adv-x="1433" d="M958 768h271l-8 -55h-213l-21 -160q-12 -88 -27.5 -181t-72.5 -175l98 -205l-49 -31l-88 182q-66 -72 -155 -114.5t-187 -42.5q-84 0 -152.5 30.5t-114.5 85t-68 125.5q-14 46 -14 97q0 29 5 59q10 74 45 140.5t87 118.5t117.5 87t137.5 47l-113 240q-29 61 -34 127 q-1 14 -1 28q0 51 15 101q18 63 63 118.5t119 96.5q63 35 124 42q25 3 49 3q34 0 67 -6q55 -10 103 -33t83 -47l-31 -49q-39 25 -82 46t-89 31q-28 6 -56 5q-19 0 -39 -2q-49 -6 -100 -35q-129 -76 -159 -188q-11 -42 -11 -83q0 -68 30 -135l363 -764q23 33 39 70t22 78z M219 383q-4 -27 -4 -52q0 -43 11 -82q17 -62 57.5 -108.5t99.5 -73t131 -26.5q92 0 174 42t135 114l-248 526q-68 -6 -128 -35t-108 -74t-80 -104t-40 -127z" />
<glyph unicode="'" horiz-adv-x="307" d="M90 967l72 508h63l-40 -254l-40 -254h-55z" />
<glyph unicode="(" horiz-adv-x="819" d="M289 598q20 154 68.5 293t113 258t138 216t147.5 165q6 -12 13 -24l15 -23q-68 -68 -137 -160t-129.5 -204.5t-105.5 -244t-66 -276.5q-15 -104 -15 -200q0 -39 3 -76q8 -131 36.5 -244t72.5 -205t94 -160l-21 -23l-20 -24q-55 68 -102.5 165t-78 216t-40.5 258 q-3 40 -2 82q0 102 16 211z" />
<glyph unicode=")" horiz-adv-x="819" d="M586 596q-23 -154 -71 -293t-112.5 -258t-138.5 -216t-147 -165l-16 24q-7 11 -13 23q68 68 137.5 160t130 204.5t105.5 244t65 276.5q15 104 15 200q0 39 -2 76q-8 131 -37 244t-73 205t-93 160l20 23l21 24q55 -68 102 -165t78 -216t40 -258q3 -43 3 -88 q0 -99 -14 -205z" />
<glyph unicode="*" horiz-adv-x="686" d="M399 1178l97 -60l96 -59l-21 -28l-20 -27l-191 122q-10 -59 -18 -118.5t-18 -118.5h-56l33 237l-111 -60l-110 -58l-11.5 27.5l-11.5 27.5l222 117l-94 61l-93 62q6 12 15.5 24t17.5 25l96 -62l96 -61l35 246h64l-19.5 -123l-19.5 -123l229 121q6 -12 11.5 -24.5 t9.5 -25.5z" />
<glyph unicode="+" horiz-adv-x="1112" d="M463 104l49 342h-340l8 56h340l47 340h58l-47 -340h340l-9 -56h-340l-49 -342h-57z" />
<glyph unicode="," horiz-adv-x="409" d="M303 176l-118 -211l-117 -211h-54l109 211l108 211h72z" />
<glyph unicode="-" horiz-adv-x="614" d="M104 362l7 56h376l-6 -56h-377z" />
<glyph unicode="." horiz-adv-x="333" d="M142 92q17 16 40 17q23 0 37 -17q11 -13 11 -29q0 -5 -1 -10q-4 -23 -21.5 -38t-39.5 -15q-23 0 -37 15q-11 12 -11 29q0 27 22 48z" />
<glyph unicode="/" horiz-adv-x="684" d="M-74 -39l393 773l394 773h57l-393 -773l-393 -773h-58z" />
<glyph unicode="0" horiz-adv-x="1261" d="M74 670q16 109 64 228.5t130 220t196 165t261 64.5q143 0 237.5 -67t146.5 -167t66 -220q6 -54 5 -106q0 -64 -9 -124q-20 -145 -82.5 -269.5t-151.5 -215.5t-197.5 -142t-219.5 -51t-202 53t-152.5 144t-86.5 216q-14 69 -14 145q0 61 9 126zM133 672q-9 -64 -9 -123 q0 -71 13 -134q25 -116 81 -199t138 -129t176 -46t189.5 44t175.5 126t138.5 196.5t78.5 254.5q11 69 11 133q0 61 -10 116q-19 115 -71.5 200t-136.5 133t-192 48q-109 0 -206 -46t-174 -129t-130.5 -196.5t-71.5 -248.5z" />
<glyph unicode="1" horiz-adv-x="526" d="M33 55h164l170 1221h-213l8 55h270l-178 -1276h164l-8 -55h-385z" />
<glyph unicode="2" horiz-adv-x="1024" d="M162 55h633l32 224h56l-41 -279h-830l290 250q140 123 252 239.5t184.5 225t86.5 205.5q6 44 6 81q0 54 -12 97q-20 72 -61 114.5t-93.5 61t-101.5 18.5q-96 0 -163.5 -34.5t-110.5 -85t-64.5 -109.5t-29.5 -109q-4 -30 -4 -56q0 -103 55 -173l-41 -33q-41 47 -60 114 q-12 43 -11 92q0 27 3 56q12 82 47 154t90.5 125t130 84t166.5 31q82 0 146.5 -31t105.5 -85t58 -128q9 -42 9 -88q0 -35 -5 -72q-16 -115 -87 -228.5t-173.5 -224t-224.5 -220.5z" />
<glyph unicode="3" horiz-adv-x="1054" d="M362 725l484 549h-494l-18 -129h-55l26 186h658l-457 -510q88 -2 160.5 -33.5t123 -87t73.5 -131.5q15 -50 16 -105q0 -29 -5 -58q-12 -88 -57 -165t-110.5 -134.5t-147.5 -90t-170 -32.5q-92 0 -165.5 36.5t-123.5 100.5l47 45q39 -55 102.5 -91t143.5 -36 q76 0 147.5 29.5t130 80t97.5 117t49 140.5q3 25 4 49q0 48 -14 93q-20 67 -64.5 116t-108 77.5t-138.5 28.5q-35 0 -69 -12.5t-65 -32.5z" />
<glyph unicode="4" horiz-adv-x="1044" d="M522 55h158l45 320h-692l887 973l-129 -918h198l-8 -55h-199l-45 -320h170l-8 -55h-385zM838 1180l-680 -750h575z" />
<glyph unicode="5" horiz-adv-x="1112" d="M975 1331l-27 -186h-55l18 131h-475l-69 -494q43 16 87 27.5t89 11.5q88 0 160.5 -32.5t123 -89t73.5 -132.5q15 -50 16 -104q0 -28 -5 -57q-12 -88 -57 -165t-110.5 -134.5t-148.5 -90t-169 -32.5t-155.5 30.5t-118.5 85.5l49 39q41 -47 99 -73.5t130 -26.5 q76 0 148.5 29.5t130 80t96.5 117t49 140.5q3 25 3 48q0 47 -13 91q-20 66 -63.5 115t-108 76.5t-140.5 27.5q-72 0 -134 -23.5t-103 -62.5l92 653h588z" />
<glyph unicode="6" horiz-adv-x="1064" d="M125 401q-5 -29 -5 -57q0 -44 12 -84q19 -66 61.5 -115t104.5 -77.5t138 -28.5t147.5 28.5t129 78t96.5 115t49 140.5q3 25 4 50q0 48 -14 92q-20 66 -63.5 115t-107 77.5t-138.5 28.5q-76 0 -145.5 -28.5t-126 -78t-94.5 -115t-48 -141.5zM68 397q20 147 101 275.5 t194.5 240t247.5 206.5l261 179l15.5 -24t15.5 -23q-268 -164 -424.5 -311t-222.5 -252q55 59 131 96t162 37q88 0 160.5 -32.5t122 -90t72.5 -134.5q15 -50 16 -105q0 -28 -5 -58q-12 -86 -57 -161.5t-110.5 -133t-147.5 -90t-170 -32.5q-86 0 -158.5 32.5t-122 88 t-71.5 131.5q-15 49 -15 102q1 29 5 59z" />
<glyph unicode="7" horiz-adv-x="960" d="M946 1331l-784 -1331h-68l754 1274h-680l-16 -129h-56l25 186h825z" />
<glyph unicode="8" horiz-adv-x="1044" d="M326 1040q-2 -15 -2 -29q0 -31 9 -58q13 -40 41.5 -68.5t71.5 -45t95 -16.5q104 0 181 61.5t91 155.5q2 17 2 34q0 33 -8 63q-12 45 -40 79.5t-69 55t-92 20.5t-99 -20.5t-86 -55t-63.5 -80t-31.5 -96.5zM121 406q-4 -25 -4 -50q0 -47 13 -91q19 -67 60 -117t102.5 -79.5 t137.5 -29.5t147.5 29.5t129 80t96.5 117t49 140.5q4 25 3 49q0 46 -12 90q-19 66 -63.5 115t-108 76.5t-139.5 27.5t-145.5 -27.5t-124.5 -77t-92 -114.5t-49 -139zM63 406q10 70 41 132t76 113t103.5 89t124.5 57q-72 31 -112 99q-29 50 -29 112q0 22 3 45q8 61 39 114.5 t77 93t104.5 63.5t119.5 24q63 0 114.5 -24t87.5 -64.5t51 -96.5q10 -36 10 -74q0 -21 -3 -42q-12 -86 -68.5 -152t-135.5 -98q61 -18 111 -55t83 -88.5t46 -114.5q8 -36 8 -74q0 -29 -5 -59q-12 -88 -56 -165t-110.5 -134.5t-148.5 -90t-168 -32.5t-158.5 32.5t-122 90 t-71.5 134.5q-15 50 -15 104q0 30 4 61z" />
<glyph unicode="9" horiz-adv-x="1075" d="M924 879q4 27 3 52q0 46 -12 89q-18 66 -61 115t-105.5 77.5t-138.5 28.5t-147.5 -28.5t-127.5 -78t-95 -115t-50 -140.5q-4 -26 -3 -51q0 -47 13 -91q19 -66 62 -115t106.5 -77.5t139.5 -28.5t146.5 28.5t127 78t94.5 115t48 141.5zM979 879q-20 -147 -101 -274.5 t-196 -238t-249 -205.5l-259 -177l-14 23q-8 13 -17 24q270 164 427 311t223 252q-57 -61 -133 -97t-162 -36q-88 0 -161 32.5t-122 90t-72 133.5q-15 49 -14 102q0 29 4 60q12 86 56 162.5t110 134t147.5 90t169.5 32.5t161 -32.5t122 -90t71 -134.5q14 -49 13 -101 q0 -30 -4 -61z" />
<glyph unicode=":" horiz-adv-x="358" d="M156 565q4 23 21.5 39.5t39.5 16.5q23 0 36 -17q10 -13 10 -28q0 -5 -1 -11q-2 -23 -20.5 -38t-40.5 -15q-23 0 -36 15t-9 38zM104 92q18 16 41 17q23 0 36 -17q10 -13 10 -28q0 -5 -1 -11q-4 -23 -21 -38t-40 -15t-36 15q-10 12 -10 28q0 30 21 49z" />
<glyph unicode=";" horiz-adv-x="411" d="M223 565q4 23 21.5 39.5t40.5 16.5q20 0 34 -17q13 -14 13 -33q0 -24 -23 -44q-18 -15 -39 -15q-23 0 -37 15t-10 38zM242 176l-117 -211l-117 -211h-53l106 211l109 211h72z" />
<glyph unicode="&#x3c;" horiz-adv-x="1392" d="M1069 43l-10 -74l-412 259l-411 259l483 259l485 260l-10 -74l-417 -222l-419 -223l355 -222z" />
<glyph unicode="=" horiz-adv-x="1449" d="M1217 348l-9 -57h-1036l8 57h1037zM1272 745l-8 -57h-1037l9 57h1036z" />
<glyph unicode="&#x3e;" horiz-adv-x="1331" d="M162 -31l10 74l419 222l419 222l-357 223l-356 222l10 74l412 -260l414 -259l-486 -259z" />
<glyph unicode="?" horiz-adv-x="925" d="M178 1202l-24 8l-25 9q27 55 69 106t96 90t119.5 61.5t139.5 22.5q84 0 153.5 -31.5t115.5 -86t68 -127.5q14 -46 14 -96q0 -29 -5 -58q-16 -111 -81.5 -195t-168.5 -149q-41 -29 -77.5 -48.5t-66.5 -45t-50.5 -63.5t-30.5 -103l-23 -160h-57l29 199q8 63 36.5 102 t70.5 69.5t93.5 58.5t106.5 71q72 55 111.5 121.5t50.5 142.5q4 27 4 53q0 44 -11 83q-17 62 -57.5 108.5t-100 73t-130.5 26.5q-121 0 -220.5 -65.5t-148.5 -176.5zM332 41q-18 0 -32.5 15.5t-10.5 37.5q2 25 20.5 40.5t36.5 15.5q20 0 36 -16q12 -12 12 -30q0 -28 -23 -48 q-19 -15 -39 -15z" />
<glyph unicode="@" horiz-adv-x="2027" d="M657 385q-4 -27 -3 -52q0 -43 11 -82q17 -62 57 -108.5t99.5 -73t130.5 -26.5q72 0 138.5 26.5t120 72.5t88 108.5t44.5 134.5q4 27 4 52q0 43 -11 82q-17 62 -57 109.5t-99.5 74t-130.5 26.5q-72 0 -138.5 -26.5t-120 -73.5t-88.5 -109.5t-45 -134.5zM1821 385 q-23 -119 -61 -193.5t-86 -117.5t-102 -58.5t-106 -15.5h-172l15 96l8 57l8 56q-25 -47 -63.5 -87t-88 -69.5t-107.5 -48t-122 -18.5q-84 0 -152.5 31.5t-114.5 85t-68 125.5q-14 46 -13 97q0 29 4 60q12 82 53 154.5t102.5 127t139.5 86t162 31.5q61 0 113.5 -17t93.5 -48 t68.5 -72t39.5 -86q8 51 19 103l20 104h45l-100 -713h129q104 0 177 78t101 252q8 58 8 113q0 97 -25 186q-40 139 -129 243.5t-220 165t-289 60.5q-160 0 -307.5 -60.5t-265 -165t-197.5 -243.5t-102 -299q-8 -56 -8 -110q0 -98 26 -187q41 -139 130 -242.5t220 -164 t289 -60.5q125 0 242.5 39t222.5 104q6 -12 14 -22t14 -21q-111 -74 -238.5 -114.5t-262.5 -40.5q-170 0 -310.5 64.5t-235.5 176t-139 261.5q-28 96 -29 200q0 58 9 119q25 170 110 319.5t212 261t285.5 176t328.5 64.5t310.5 -64.5t235.5 -176t139 -260.5q28 -96 28 -202 q1 -58 -8 -120z" />
<glyph unicode="A" horiz-adv-x="1679" d="M78 55h155l408 721l408 723l205 -723l204 -721h156l-6 -55h-377l6 55h162l-81 287l-81 289h-619l-161 -289l-164 -287h162l-6 -55h-377zM1042 1317l-10 55q-2 -4 -7 -12t-9 -19l-12 -24l-169 -307l-184 -324h570z" />
<glyph unicode="B" horiz-adv-x="1067" d="M78 55h135l186 1323h-135l8 56h447q94 0 170 -20.5t125 -63.5t70 -112q13 -41 13 -92q0 -34 -5 -71q-16 -127 -94 -223t-214 -131q59 -12 111.5 -41t89.5 -74t54 -104q11 -37 11 -81q0 -25 -3 -52q-12 -92 -59.5 -161t-115 -115t-149.5 -69.5t-168 -23.5h-483zM360 692 l-90 -637h287q80 0 152.5 19.5t131 58.5t98.5 98.5t50 137.5q4 26 4 49q0 53 -19 96q-28 61 -81 101t-127 58.5t-156 18.5h-250zM457 1378l-88 -630h284q76 0 141.5 23.5t116 66.5t82 103t41.5 134q5 34 5 64q0 42 -10 75q-17 57 -57 94.5t-101.5 53.5t-137.5 16h-276z" />
<glyph unicode="C" horiz-adv-x="1249" d="M1280 1118l29 195q-135 82 -310 82q-139 0 -269 -54.5t-234.5 -146.5t-175 -216t-89.5 -265q-7 -51 -7 -99q0 -85 23 -163q36 -123 113.5 -214.5t191.5 -144.5t253 -53q94 0 184 24.5t172 69.5l29 -47q-90 -47 -186.5 -74.5t-200.5 -27.5q-152 0 -277 57t-211 156.5 t-125 232.5q-25 84 -24 176q0 53 8 109q20 152 97 286t189.5 233t254 157.5t293.5 58.5q104 0 194 -26.5t166 -75.5l-33 -230h-55z" />
<glyph unicode="D" horiz-adv-x="1294" d="M78 55h139l186 1323h-139l8 56h430q147 0 271.5 -50.5t209.5 -143.5t124 -226q25 -84 24 -181q0 -56 -8 -116q-18 -121 -77.5 -248t-168 -231.5t-268.5 -171t-377 -66.5h-360zM461 1378l-187 -1323h189q186 0 329.5 59.5t243 153.5t157.5 212t75 237q8 56 7 108 q0 89 -22 166q-35 123 -113.5 209t-191 132t-248.5 46h-239z" />
<glyph unicode="E" horiz-adv-x="1169" d="M78 55h158l186 1323h-158l8 56h998l-45 -316h-56l37 260h-727l-88 -628h703l-9 -56h-702l-90 -639h756l36 260h56l-43 -315h-1026z" />
<glyph unicode="F" horiz-adv-x="1140" d="M78 55h158l186 1323h-158l8 56h998l-45 -316h-56l37 260h-727l-88 -628h703l-9 -56h-702l-90 -639h170l-6 -55h-385z" />
<glyph unicode="G" horiz-adv-x="1247" d="M1157 610l-74 -528q-88 -47 -184 -74.5t-201 -27.5q-152 0 -276.5 57t-210.5 156.5t-125 232.5q-25 87 -25 182q0 50 7 103q20 152 97 285.5t190.5 233t255 158t292.5 58.5q104 0 193.5 -26.5t167.5 -76.5l-39 -47q-141 94 -330 95q-139 0 -269 -54.5t-234.5 -146.5 t-175.5 -216t-91 -265q-6 -48 -6 -95q0 -87 22 -168q35 -123 114 -214t192.5 -144t250.5 -53q174 0 332 82l64 438h-324l6 55h381z" />
<glyph unicode="H" horiz-adv-x="1488" d="M1235 1434h383l-8 -56h-158l-186 -1323h157l-6 -55h-383l6 55h168l90 639h-915l-90 -639h170l-6 -55h-385l6 55h158l188 1323h-160l8 56h385l-8 -56h-170l-88 -628h916l88 628h-168z" />
<glyph unicode="I" horiz-adv-x="528" d="M78 55h158l188 1323h-160l8 56h385l-8 -56h-170l-186 -1323h170l-6 -55h-385z" />
<glyph unicode="J" horiz-adv-x="544" d="M190 1434h402l-176 -1250q-16 -115 -60.5 -201.5t-107 -146t-139 -92.5t-158.5 -35l6 55q74 4 141.5 34t120.5 84.5t90 132t49 175.5l170 1188h-346z" />
<glyph unicode="K" horiz-adv-x="1404" d="M963 55h131l-249 385l-249 387l-221 -184q-23 -147 -41.5 -293.5t-40.5 -294.5h170l-6 -55h-385l6 55h158l186 1323h-158l8 56h377l-8 -56h-162l-86 -614l-7 -30q-3 -13 -5 -29l43 40l752 633h-121l8 56h375l-6 -56h-179l-612 -514l263 -405l261 -404h174l-6 -55h-377z " />
<glyph unicode="L" horiz-adv-x="1161" d="M78 55h149l187 1323h-150l8 56h377l-8 -56h-170l-186 -1323h755l37 260h56l-43 -315h-1018z" />
<glyph unicode="M" horiz-adv-x="1974" d="M1886 1434h209l-8 -56h-162l-186 -1323h170l-6 -55h-385l6 55h157l168 1194q0 2 3 14.5t5.5 28l4.5 28.5t2 15q-6 -10 -31 -37l-87 -96l-122 -134l-144 -160l-154 -170l-150 -166l-134 -148l-174 279l-143 229l-122 194l-111 179l-19 30q-2 -23 -3 -43t-5 -43l-168 -1194 h166l-6 -55h-385l6 55h162l186 1323h-162l8 56h209q10 -14 43 -68l81 -129l107 -169l118 -190l119 -190l106 -168l415 457z" />
<glyph unicode="N" horiz-adv-x="1726" d="M88 55h162l184 1323h-162l9 56h217l921 -1315l31 -53l4 65l174 1247h-155l6 56h385l-9 -56h-169l-201 -1444l-971 1373l-31 45l-4 -58l-172 -1239h164l-6 -55h-385z" />
<glyph unicode="O" horiz-adv-x="1609" d="M174 715q20 152 97 286t189.5 233t254 157.5t293.5 58.5t277.5 -58.5t211.5 -157.5t125 -234q25 -88 26 -183q0 -50 -8 -102q-23 -152 -98.5 -285t-189 -232.5t-256 -156.5t-293.5 -57q-152 0 -277 57t-211 156.5t-125 232.5q-25 84 -24 176q0 53 8 109zM231 713 q-7 -51 -7 -99q0 -85 23 -163q36 -123 113.5 -214.5t191.5 -144.5t253 -53t271 53t237.5 145.5t177.5 215t92 262.5q6 47 6 93q0 89 -23 170q-36 124 -116 216t-195.5 146.5t-255.5 54.5q-139 0 -269 -54.5t-234.5 -146.5t-175.5 -216t-89 -265z" />
<glyph unicode="P" horiz-adv-x="999" d="M78 55h135l186 1323h-135l8 56h433q61 0 131.5 -20.5t129 -64.5t92.5 -115q24 -50 24 -113q0 -27 -5 -56q-25 -174 -152.5 -276.5t-338.5 -102.5h-228l-88 -631h193l-6 -55h-385zM367 741h223q113 0 191.5 31t130 79t77 104.5t31.5 109.5q2 17 2 34q0 44 -15 85 q-22 57 -67 100t-110.5 68.5t-147.5 25.5h-225z" />
<glyph unicode="Q" horiz-adv-x="1654" d="M231 713q-7 -51 -7 -99q0 -85 23 -163q36 -123 113.5 -214.5t191.5 -144.5t253 -53t271 53t237.5 145.5t177.5 215t92 262.5q6 47 6 93q0 89 -23 170q-36 124 -116 216t-195.5 146.5t-255.5 54.5q-139 0 -269 -54.5t-234.5 -146.5t-175.5 -216t-89 -265zM174 715 q20 152 97 286t189.5 233t254 157.5t293.5 58.5t277.5 -58.5t211.5 -157.5t125 -234q25 -88 26 -183q0 -50 -8 -102q-16 -111 -62 -213.5t-115.5 -187.5t-160 -151.5t-190.5 -107.5h481l-8 -55h-629q-82 -16 -153 -16q-152 0 -277 57t-211 156.5t-125 232.5q-25 84 -24 176 q0 53 8 109z" />
<glyph unicode="R" horiz-adv-x="1167" d="M78 55h135l186 1323h-135l8 56h433q61 0 131.5 -20.5t129 -64.5t92.5 -115q24 -50 24 -113q0 -27 -5 -56q-20 -145 -113.5 -241.5t-248.5 -127.5l211 -641h176l-6 -55h-209l-232 692q-47 -6 -96 -6h-201l-88 -631h193l-6 -55h-385zM367 741h223q113 0 191.5 31t130 79 t77 104.5t31.5 109.5q2 17 2 34q0 44 -15 85q-22 57 -67 100t-110.5 68.5t-147.5 25.5h-225z" />
<glyph unicode="S" horiz-adv-x="978" d="M106 143l29 211h55l-26 -184q51 -55 130 -93t198 -38q74 0 146.5 23.5t131.5 66.5t100 105.5t52 140.5q4 34 4 63q0 51 -14 89q-22 60 -67.5 98.5t-107 62t-127 43t-128 41t-110.5 56t-75 90.5q-20 42 -20 102q0 19 2 39q6 68 34.5 136.5t80.5 123.5t127 89t173 34 q70 0 154 -18.5t147 -77.5l-30 -228h-56l27 199q-35 29 -97.5 49t-154.5 20q-76 0 -136.5 -25.5t-104.5 -68.5t-70.5 -98t-34.5 -115q-3 -23 -3 -43q0 -49 17 -85q25 -50 72 -81.5t110 -52.5l129 -41q67 -20 129 -47t108 -70t70 -110q15 -44 15 -103q0 -31 -4 -65 q-12 -90 -56 -164t-109.5 -126t-149.5 -79.5t-172 -27.5q-82 0 -146.5 16t-112 41t-80.5 52t-49 50z" />
<glyph unicode="T" horiz-adv-x="1275" d="M451 55h163l189 1323h-484l-36 -260h-56l45 316h1133l-45 -316h-55l36 260h-483l-186 -1323h164l-7 -55h-385z" />
<glyph unicode="U" horiz-adv-x="1402" d="M274 1434h385l-8 -56h-170l-127 -909q-6 -47 -6 -89q0 -145 77 -230q99 -111 282 -111q90 0 169.5 28.5t143 83t106.5 134.5t58 184l127 909h-168l6 56h385l-8 -56h-158l-129 -915q-16 -117 -64.5 -207t-120 -150.5t-162.5 -91t-192 -30.5q-102 0 -184 30.5t-136 91 t-78 150.5q-14 53 -14 116q0 43 7 91l129 915h-158z" />
<glyph unicode="V" horiz-adv-x="1714" d="M281 1434h385l-9 -56h-153l178 -630l180 -631l10 -56l27 56l354 631l355 630h-148l8 56h383l-8 -56h-176l-405 -723l-408 -721l-205 721l-207 723h-170z" />
<glyph unicode="W" horiz-adv-x="2482" d="M281 1434h385l-9 -56h-153l176 -632l182 -629l10 -56q104 215 229 423l240 419l-66 237l-69 238h-166l7 56h385l-9 -56h-157l176 -632l182 -629l10 -56l27 56l354 631l357 630h-146l8 56h385l-8 -56h-182l-406 -723l-405 -721l-244 854l-12 52l-251 -454l-257 -452 l-205 721l-207 723h-170z" />
<glyph unicode="X" horiz-adv-x="1447" d="M272 1434h385l-8 -56h-119l147 -285l144 -284l15 -33l22 33l447 569h-121l8 56h385l-8 -56h-197l-255 -326l-255 -325l172 -337l172 -335h176l-6 -55h-385l6 55h138l-261 508q-16 29 -30.5 62.5t-30.5 62.5l-20 -33l-237 -302l-234 -298h141l-6 -55h-385l6 55h176 l532 680l-325 643h-197z" />
<glyph unicode="Y" horiz-adv-x="1499" d="M567 55h156l70 486l-194 418l-191 419h-144l8 56h385l-8 -56h-172l170 -367l166 -368l18 -55h3l28 55l543 735h-168l8 56h383l-8 -56h-145l-309 -420l-310 -419l-68 -484h162l-6 -55h-383z" />
<glyph unicode="Z" horiz-adv-x="1288" d="M1270 385l-53 -385h-1145l6 55l1198 1323h-977l18 127h60l-10 -71h991l-8 -56l-1198 -1323h1015l47 330h56z" />
<glyph unicode="[" horiz-adv-x="692" d="M41 -305l256 1833h346l-8 -55h-285l-241 -1723h286l-8 -55h-346z" />
<glyph unicode="\" horiz-adv-x="681" d="M199 1507l175 -773l175 -773h-62l-175 773l-175 773h62z" />
<glyph unicode="]" horiz-adv-x="700" d="M641 1528l-256 -1833h-346l8 55h285l241 1723h-286l8 55h346z" />
<glyph unicode="^" horiz-adv-x="962" d="M500 1352l97 -186l97 -185h-51l-77 141l-79 142l-233 -283h-51l148 185z" />
<glyph unicode="_" horiz-adv-x="1228" d="M1020 0h-819l6 55h819z" />
<glyph unicode="`" horiz-adv-x="409" d="M39 1253l69 -136l68 -136h-49l-75 136l-70 136h57z" />
<glyph unicode="a" d="M127 385q12 82 53 154.5t102.5 127t139.5 86t162 31.5q61 0 113.5 -17t93 -48t69.5 -72t41 -86q6 51 17 103l20 104h43l-100 -713h151l-8 -55h-203l15 96l8 57l8 56q-25 -45 -63.5 -86t-88 -72t-107.5 -48t-122 -17q-84 0 -152.5 31.5t-114.5 85t-68 125.5q-14 46 -13 97 q0 29 4 60zM184 385q-4 -27 -3 -52q0 -43 10 -82q17 -62 57.5 -108.5t99 -73t129.5 -26.5q72 0 139.5 26.5t121 72.5t89 108.5t45.5 134.5q4 26 4 50q0 44 -12 84q-18 62 -58 109.5t-99.5 74t-131.5 26.5t-138 -26.5t-119.5 -73.5t-88.5 -109.5t-45 -134.5z" />
<glyph unicode="b" d="M80 55h151l201 1426h-147l8 55h203l-121 -862q-4 -29 -9.5 -56.5l-11.5 -56.5q25 45 65 86t89 72t107.5 48t119.5 17q84 0 152.5 -31.5t115 -85t67.5 -126.5q14 -47 14 -97q0 -29 -5 -59q-12 -84 -53 -156.5t-102.5 -126t-138 -85t-160.5 -31.5q-63 0 -116.5 17t-95.5 48 t-70 72t-40 86q-4 -29 -6 -56.5t-6 -56.5l-15 -96h-204zM1022 385q4 27 4 52q0 43 -11 82q-17 62 -57 109.5t-99.5 74t-131.5 26.5t-138.5 -26.5t-119.5 -73.5t-89 -109.5t-46 -134.5q-4 -26 -4 -50q0 -44 12 -84q18 -62 58 -108.5t99.5 -73t131.5 -26.5t138.5 26.5 t118.5 72.5t88 108.5t46 134.5z" />
<glyph unicode="c" horiz-adv-x="796" d="M737 74q-59 -41 -126.5 -64.5t-139.5 -23.5q-84 0 -151.5 31.5t-114.5 85t-69 125.5q-14 46 -13 97q0 29 4 60q12 82 53 155.5t102.5 127t138.5 85t161 31.5q74 0 135 -23.5t106 -64.5l-26 -190h-54l23 158q-39 31 -87 48t-106 17q-72 0 -137 -26.5t-118.5 -73.5 t-88 -109.5t-45.5 -134.5q-4 -27 -3 -52q0 -43 10 -82q17 -62 57.5 -108.5t99 -73t129.5 -26.5q63 0 120.5 19.5t107.5 54.5z" />
<glyph unicode="d" d="M836 96l8 57l8 56q-25 -45 -63.5 -86t-88 -72t-107.5 -48t-122 -17q-84 0 -152.5 31.5t-114.5 85t-68 125.5q-14 46 -13 97q0 29 4 60q12 82 53 155.5t102.5 127t139.5 85t162 31.5q61 0 114.5 -17t94.5 -48t68.5 -72t39.5 -86l12 105l13 104l100 711h-147l8 55h203 l-209 -1481h151l-8 -55h-203zM184 385q-4 -27 -3 -52q0 -43 10 -82q17 -62 57.5 -108.5t99 -73t129.5 -26.5q72 0 139.5 26.5t121 72.5t89 108.5t45.5 134.5q4 26 4 50q0 44 -12 84q-18 62 -58 109.5t-99.5 74t-131.5 26.5t-138 -26.5t-119.5 -73.5t-88.5 -109.5t-45 -134.5 z" />
<glyph unicode="e" horiz-adv-x="897" d="M573 729q-84 0 -158.5 -37t-129 -96t-82.5 -137q-22 -61 -23 -123q0 -18 2 -35l323 122l320 122q-29 82 -94.5 133t-157.5 51zM893 514l-350 -133l-350 -133q27 -92 101.5 -148.5t182.5 -56.5q70 0 133.5 24.5t114.5 67.5q8 -10 15.5 -20.5t15.5 -20.5 q-61 -51 -133 -79.5t-152 -28.5q-84 0 -151.5 31.5t-114.5 85t-69 125.5q-14 46 -13 97q0 29 4 60q12 82 53 155.5t102.5 127t138.5 85t161 31.5q123 0 205.5 -75.5t105.5 -194.5z" />
<glyph unicode="f" horiz-adv-x="598" d="M78 55h125l92 658h-125l8 55h125l41 293q16 113 60.5 201t106.5 147t140 91t162 36l-8 -55q-70 0 -136.5 -30t-121.5 -83t-93 -130t-53 -173l-41 -297h261l-9 -55h-260l-92 -658h195l-6 -55h-377z" />
<glyph unicode="g" horiz-adv-x="1097" d="M1008 768h196l-8 -55h-152l-108 -766q-16 -109 -58 -193t-101.5 -142t-133.5 -90t-154 -34q-86 4 -167.5 31.5t-128.5 91.5l49 39q41 -55 110.5 -80t141.5 -25q68 0 132 29t116.5 81t89 126t49.5 164l20 151q4 29 10.5 55.5t10.5 55.5q-51 -92 -153.5 -155.5 t-227.5 -63.5q-84 0 -153 30.5t-115 85t-67 125.5q-14 46 -14 97q0 29 5 59q12 82 53 154.5t102.5 127t139 86t161.5 31.5q61 0 113.5 -17t93.5 -48t69.5 -72t41.5 -86q8 51 17 103zM254 385q-4 -27 -4 -52q0 -43 11 -82q17 -62 57 -108.5t99.5 -73t131.5 -26.5t138.5 26.5 t119.5 72.5t89 108.5t46 134.5q4 26 4 50q0 44 -12 84q-18 62 -58 109.5t-99.5 74t-131.5 26.5t-138.5 -26.5t-119.5 -73.5t-88 -109.5t-45 -134.5z" />
<glyph unicode="h" horiz-adv-x="1093" d="M651 55h162l68 494q1 12 1 23q0 57 -34 100q-41 51 -127 55q-66 0 -129.5 -21.5t-113.5 -60.5t-85 -93t-45 -118l-53 -379h160l-6 -55h-377l6 55h160l202 1426h-151l8 55h207l-123 -877l-21 -92q57 98 154.5 156.5t214.5 58.5q111 0 166 -63q47 -54 47 -135q0 -15 -2 -31 l-72 -498h160l-6 -55h-377z" />
<glyph unicode="i" horiz-adv-x="520" d="M78 55h164l92 658h-164l8 55h219l-100 -713h158l-6 -55h-377zM376 1071q17 16 40 16t36 -16q12 -14 11 -33v-6q-4 -23 -22.5 -38t-41.5 -15t-35 15q-10 12 -11 28q1 28 23 49z" />
<glyph unicode="j" horiz-adv-x="358" d="M125 768h217l-109 -780q-16 -119 -63 -208t-113 -149l-39 39q59 53 100.5 132t55.5 182l102 729h-157zM319 1071q18 16 41 16q20 0 35 -16q11 -13 11 -29v-10q-4 -23 -21.5 -38t-40.5 -15t-37 15q-11 12 -11 29q0 27 23 48z" />
<glyph unicode="k" horiz-adv-x="1013" d="M582 55h123l-114 189l-112 190l-160 -133l-34 -246h170l-6 -55h-377l6 55h149l201 1426h-147l8 55h205l-164 -1161l407 338h-139l8 55h367l-6 -55h-156l-141 -120l-142 -120l122 -209l124 -209h174l-6 -55h-367z" />
<glyph unicode="l" horiz-adv-x="520" d="M78 55h149l201 1426h-147l8 55h205l-209 -1481h170l-6 -55h-377z" />
<glyph unicode="m" horiz-adv-x="1667" d="M1225 55h161l70 494q1 10 1 19q0 60 -35 104q-40 51 -128 55q-66 0 -127 -21.5t-111 -58.5t-85 -89t-47 -114l-56 -389h160l-6 -55h-377l6 55h162l68 494q1 12 1 23q0 57 -34 100q-41 51 -127 55q-66 0 -129.5 -21.5t-113.5 -60.5t-85 -93t-45 -118l-53 -379h160l-6 -55 h-377l6 55h160l94 658h-152l8 55h193l-8 -90q-4 -31 -6 -55.5t-7 -55.5q57 98 154.5 156.5t214.5 58.5q102 0 157.5 -56t53.5 -148q57 92 153.5 148t209.5 56q111 0 166 -63q46 -52 47 -131q0 -17 -3 -35l-69 -498h158l-7 -55h-376z" />
<glyph unicode="n" horiz-adv-x="1093" d="M651 55h162l68 494q1 12 1 23q0 57 -34 100q-41 51 -127 55q-66 0 -129.5 -21.5t-113.5 -60.5t-85 -93t-45 -118l-53 -379h160l-6 -55h-377l6 55h160l94 658h-152l8 55h193l-8 -90q-4 -31 -6 -55.5t-7 -55.5q55 98 153.5 156.5t215.5 58.5q111 0 166 -63q47 -54 47 -135 q0 -15 -2 -31l-72 -498h160l-6 -55h-377z" />
<glyph unicode="o" horiz-adv-x="948" d="M129 385q12 82 53 155.5t102.5 128t138.5 86t161 31.5t152.5 -31.5t116.5 -86t70 -127.5q14 -47 13 -97q0 -29 -4 -59q-12 -84 -53 -156.5t-103.5 -126t-140.5 -85t-162 -31.5t-152.5 31.5t-114.5 85t-68 125.5q-14 46 -13 97q0 29 4 60zM186 385q-4 -27 -3 -52 q0 -43 11 -82q17 -62 57 -108.5t98.5 -73t129.5 -26.5q70 0 136.5 26.5t121 72.5t90 108.5t45.5 134.5q4 26 4 50q0 44 -12 84q-18 62 -58 109.5t-99.5 74t-131.5 26.5t-137 -26.5t-118.5 -73.5t-88.5 -109.5t-45 -134.5z" />
<glyph unicode="p" d="M2 -457h133l166 1170h-151l8 55h194q-6 -53 -11 -106.5t-13 -106.5q25 45 64.5 87t89.5 72.5t108.5 49t120.5 18.5q84 0 152.5 -31.5t115.5 -85t69 -126.5q14 -47 13 -98q0 -29 -4 -58q-12 -84 -54 -156.5t-103.5 -126t-139.5 -85t-162 -31.5q-125 0 -209 64.5 t-108 156.5q-2 -25 -3.5 -49.5t-3.5 -46.5l-79 -566h182l-6 -55h-375zM999 383q4 26 4 50q0 44 -12 84q-18 62 -58 108.5t-98.5 73t-129.5 26.5q-72 0 -138.5 -26.5t-120 -72.5t-89 -108.5t-46.5 -134.5q-4 -27 -3 -52q0 -43 10 -82q17 -62 57.5 -109.5t100 -74t130.5 -26.5 q72 0 138.5 26.5t120 73.5t89 109.5t45.5 134.5z" />
<glyph unicode="q" horiz-adv-x="1097" d="M645 -457h176l80 566q4 23 9 47l10 49q-25 -47 -64 -87t-88 -70t-107.5 -47t-119.5 -17q-84 0 -153 31.5t-115 85t-67 125.5q-14 46 -14 97q0 29 5 60q12 82 53 155.5t102.5 127t139 85t161.5 31.5q61 0 114.5 -18.5t94.5 -49t68.5 -72.5t40.5 -87q8 53 18 106.5 t19 106.5h196l-8 -55h-152l-165 -1170h143l-6 -55h-377zM254 383q-4 -27 -4 -52q0 -43 11 -82q17 -62 57 -109.5t98.5 -74t130.5 -26.5t139.5 26.5t120.5 73.5t89 109.5t46 134.5q4 26 4 50q0 44 -12 84q-18 62 -58 108.5t-99.5 73t-131.5 26.5t-138.5 -26.5t-119.5 -72.5 t-88 -108.5t-45 -134.5z" />
<glyph unicode="r" horiz-adv-x="686" d="M78 55h160l94 658h-152l8 55h193l-8 -90q-4 -31 -6 -55.5t-7 -55.5q59 100 158.5 156.5t204.5 58.5l-10 -55q-66 -2 -128.5 -24.5t-111.5 -61.5t-83 -92t-42 -115l-53 -379h160l-6 -55h-377z" />
<glyph unicode="s" horiz-adv-x="651" d="M190 199l-14 -113q37 -31 86 -39t96 -8q25 0 58 10t62.5 30.5t53 51.5t29.5 74q2 14 2 27q0 38 -18 62q-25 32 -66 51.5t-90 32.5t-90 33.5t-66 56.5q-17 25 -17 65q0 17 3 36q6 51 30.5 90t59.5 66t75 40t79 13q4 0 28.5 -1t55.5 -7t62.5 -19.5t49.5 -37.5l-20 -144h-53 l16 115q-14 14 -37.5 22.5t-46 11.5t-41 4t-24.5 1q-25 0 -53.5 -8t-54.5 -24.5t-44 -45.5t-25 -67q-1 -11 -1 -21q0 -39 20 -61q25 -29 66.5 -47.5t90 -33t89.5 -38t64 -61.5q17 -28 18 -72q0 -15 -2 -33q-6 -37 -26 -77t-53.5 -73.5t-82.5 -55t-113 -21.5q-16 0 -45 2 t-62.5 10t-66.5 21.5t-53 37.5l18 144h53z" />
<glyph unicode="t" horiz-adv-x="628" d="M428 1268h57l-69 -500h248l-9 -55h-247l-93 -658h172l-6 -55h-229l98 713h-180l8 55h180z" />
<glyph unicode="u" horiz-adv-x="1081" d="M180 768h213l-76 -549q-1 -10 0 -19q0 -60 34 -104q40 -51 126 -55q66 0 129.5 21.5t114.5 60.5t85 93t44 118l53 379h-158l9 55h213l-101 -717h152l-6 -51h-197l12 109l11 92q-55 -98 -153.5 -156.5t-213.5 -58.5q-111 0 -167 63q-48 54 -48 135q0 15 2 31l72 498h-158z " />
<glyph unicode="v" horiz-adv-x="1206" d="M184 768h355l-9 -55h-141l119 -325l115 -327l200 320l213 332h-118l8 55h321l-8 -55h-141l-246 -380l-244 -380l-141 380l-137 380h-154z" />
<glyph unicode="w" horiz-adv-x="1748" d="M1475 768h315l-8 -55h-135l-244 -380l-240 -380l-202 559l-355 -559l-140 380l-134 380h-156l8 55h348l-8 -55h-135l117 -327l115 -325l148 240l151 238l-24 86l-22 88h-141l8 55h355l-9 -55h-141l117 -327l115 -325l202 327l207 325h-121z" />
<glyph unicode="x" horiz-adv-x="1015" d="M178 768h377l-8 -55h-154l172 -291l250 291h-139l8 55h367l-9 -55h-159l-289 -338l94 -159l94 -161h168l-6 -55h-377l6 55h140l-85 145l-83 142l-123 -143l-123 -144h145l-6 -55h-366l6 55h149l145 166l144 168l-98 162l-96 162h-152z" />
<glyph unicode="y" horiz-adv-x="1218" d="M195 -457h170l144 227l144 224l-130 359l-128 360h-153l8 55h354l-8 -55h-137l119 -330l116 -330l205 327l213 333h-115l7 55h321l-6 -55h-143l-374 -585l-372 -585h141l-6 -55h-377z" />
<glyph unicode="z" horiz-adv-x="880" d="M831 164l-22 -164h-737l6 55l358 329l357 329h-598l18 127h53l-10 -72h623l-9 -55l-356 -329l-358 -329h606l16 109h53z" />
<glyph unicode="{" horiz-adv-x="577" d="M184 575l13 72q49 2 84.5 30t59.5 68.5t37 89t19 89.5l49 362q12 94 36 143.5t53.5 71t63.5 24.5t71 3h88l-8 -55h-113q-63 0 -92 -50.5t-45 -177.5l-43 -297q-12 -90 -31.5 -148.5t-43.5 -95t-51.5 -57t-56.5 -35.5q25 -14 45.5 -35.5t35 -59.5t17.5 -95q1 -11 0 -24 q0 -51 -10 -122l-40 -299q-9 -69 -10 -115q0 -38 6 -60q13 -50 77 -50h113l-8 -55h-88q-41 0 -75 3t-55.5 30.5t-26.5 89.5q-1 15 -1 32q0 57 12 146l41 301q6 41 6 89t-12 89t-40 68.5t-77 29.5z" />
<glyph unicode="|" horiz-adv-x="468" d="M199 -475l266 1909h57l-266 -1909h-57z" />
<glyph unicode="}" horiz-adv-x="655" d="M729 647l-12 -72q-61 -4 -99 -42.5t-60.5 -92t-33 -109t-16.5 -91.5l-41 -301q-12 -94 -35.5 -144.5t-53.5 -72t-63.5 -23.5t-70.5 -2h-88l8 55h112q63 0 92 50.5t46 174.5l51 361q10 68 30.5 115t45 78.5t51 50t47.5 30.5q-25 14 -46.5 35t-34.5 57.5t-16 95.5 q-1 12 -1 24q0 52 10 124l41 297q9 70 9 117q0 38 -6 60q-13 50 -77 51h-110l6 55h88q37 0 69.5 -2t56 -23.5t31.5 -71.5q3 -20 4 -48q0 -41 -8 -97l-41 -303q-6 -37 -11 -93q-2 -23 -2 -46q0 -32 4 -63q7 -52 35 -92t89 -42z" />
<glyph unicode="~" horiz-adv-x="1001" d="M555 1012q-29 35 -51.5 47t-50.5 12q-16 0 -37 -4t-42.5 -16.5t-40 -34t-26.5 -53.5q-10 2 -19 2t-18 2q6 39 26.5 66.5t47.5 45t57.5 25.5t59.5 8q41 0 73.5 -20.5t61.5 -55.5q27 -35 49.5 -47t50.5 -12q14 0 36 4t43.5 16.5t40 34t26.5 53.5q10 -2 19 -2t20 -2 q-16 -78 -74.5 -111.5t-116.5 -33.5q-41 0 -73.5 20.5t-61.5 55.5z" />
<glyph unicode="&#x2013;" horiz-adv-x="1042" d="M205 365l6 55h616l-6 -55h-616z" />
<glyph unicode="&#x2014;" horiz-adv-x="1433" d="M203 365l6 55h1028l-6 -55h-1028z" />
<glyph unicode="&#x2018;" horiz-adv-x="335" d="M203 1208q-8 -10 -16.5 -19t-14.5 -20q-53 53 -69 129q-5 26 -5 54q0 51 19 104q14 -4 26.5 -7t24.5 -7q-15 -49 -16 -93q0 -20 4 -39q10 -61 47 -102z" />
<glyph unicode="&#x2019;" horiz-adv-x="335" d="M137 1169l-11 20l-11 19q49 41 76 102q24 53 25 113q0 9 -1 19q14 4 28.5 7t26.5 7q1 -12 1 -23q0 -69 -31 -135q-37 -76 -103 -129z" />
<glyph unicode="&#x201c;" horiz-adv-x="509" d="M401 1208q-10 -10 -17 -19t-13 -20q-53 53 -69 129q-5 26 -5 54q0 51 18 104q12 -4 25.5 -7t26.5 -7q-15 -49 -16 -93q0 -20 3 -39q10 -61 47 -102zM188 1208q-10 -10 -17 -19t-13 -20q-53 53 -69 129q-5 26 -5 54q0 51 18 104q12 -4 25.5 -7t26.5 -7q-15 -49 -16 -93 q0 -20 3 -39q10 -61 47 -102z" />
<glyph unicode="&#x201d;" horiz-adv-x="507" d="M102 1169l-11 20q-5 9 -9 19q49 41 77 102q24 53 24 113q0 9 -1 19q12 4 26.5 7t27.5 7q1 -12 0 -23q0 -69 -31 -135q-37 -76 -103 -129zM315 1169l-11 20q-5 9 -9 19q49 41 77 102q24 53 24 113q0 9 -1 19q12 4 26.5 7t27.5 7q1 -12 0 -23q0 -69 -31 -135 q-37 -76 -103 -129z" />
<glyph unicode="&#x2026;" horiz-adv-x="1001" d="M810 92q17 16 40 17q23 0 37 -17q11 -13 11 -29q0 -5 -1 -10q-4 -23 -21.5 -38t-39.5 -15q-23 0 -37 15q-11 12 -11 29q0 27 22 48zM476 92q17 16 40 17q23 0 37 -17q11 -13 11 -29q0 -5 -1 -10q-4 -23 -21.5 -38t-39.5 -15q-23 0 -37 15q-11 12 -11 29q0 27 22 48z M142 92q17 16 40 17q23 0 37 -17q11 -13 11 -29q0 -5 -1 -10q-4 -23 -21.5 -38t-39.5 -15q-23 0 -37 15q-11 12 -11 29q0 27 22 48z" />
<glyph unicode="&#xe000;" horiz-adv-x="770" d="M0 770h770v-770h-770v770z" />
</font>
</defs>
</svg>
