<?xml version="1.0" standalone="no"?>
<!DOCTYPE svg PUBLIC "-//W3C//DTD SVG 1.1//EN" "http://www.w3.org/Graphics/SVG/1.1/DTD/svg11.dtd" >
<svg xmlns="http://www.w3.org/2000/svg">
<metadata>
This is a custom SVG webfont generated by Font Squirrel.
Copyright   : Rapscallion is a FREE piratestyle font inspired by Melbourne Australia folkpunk band MUTINY httpwwwmutinycomau  Details show best at 48pt or higher prints cleaner than appears on screen  QuestionsComments ryansplintyahoocom
</metadata>
<defs>
<font id="webfontyUUfaPCV" horiz-adv-x="500" >
<font-face units-per-em="1000" ascent="800" descent="-200" />
<missing-glyph horiz-adv-x="500" />
<glyph unicode=" " />
<glyph unicode="!" horiz-adv-x="206" d="M10 585l1 5q33 27 57 70l5 1q7 -3 12 -7l4 2v3q0 3 -4 8v5q0 9 12.5 21.5t14.5 16.5q28 -27 73 -63q7 -4 8 -16l-15 -13q-2 7 -11 17l-9 -4v-69v-9v-78q-1 -3 -8.5 -11.5t-7.5 -13.5q15 -1 16 -3v-51q0 -7 -9.5 -10l-18.5 -6q1 -2 8 -22l11 7h9v-58q0 -21 16 -32 q0 6 7 15h1l8 -5q3 -5 6 -8q-2 -9 -9.5 -18t-9.5 -12l-10 -15l-23 14l-9 -14q16 -8 20 -20l-4 -9q-10 -12 -21 -24q-14 -14 -27 -17l1 2q-29 23 -29 32q0 5 2 10l-8 -1q-10 0 -50 33v3q1 2 3 5l-2 2q4 3 10 10q3 0 3 -3l10 2v7v11v7q9 1 23 9l-1 2q-22 0 -22 7v26l31 26 l-8 -3q-17 2 -23 2v79q-2 1 0 2q13 11 13 15q0 5 -2 16q-7 2 -11 5v12v64v33v5l-11 -3q-3 -7 -10 -7q-12 5 -12 13zM30 66q13 19 50 58q3 -8 12 -18l3 -3q1 11 5 32q3 1 7 1l8 -2v-1l13 -13q5 -7 3 -30l13 17q19 -13 48 -41q-22 -19 -32 -19q-5 0 -11 2q2 -10 4 -16 q-13 -15 -46 -42l-64 58q0 -5 10 12z" />
<glyph unicode="&#x22;" horiz-adv-x="332" d="M20 708q7 3 50 17q26 -19 23 -19q2 0 6 25l23 8q17 -13 43 -44l-11 -11l-10 6l-9 -25q-9 -2 -9 -13q0 -4 6 -12q-11 -24 -25 -64q-8 -25 -12 -25q-6 0 -25 58l22 15q-17 9 -29 13q-3 12 -8 25l-7 26l-19 3q-4 8 -9 17zM185 711q28 6 56 15l36 15l43 -54q-1 -1 -3 -6 t-5 -4l-8 4l-24 -44l-21 -4l11 -19q-21 -68 -29 -68q-6 0 -17 34l11 27l-17 -8l-6 44q17 -4 17 15q0 15 -13 15q-4 0 -10 -3q-1 5 -4 22l-14 -3z" />
<glyph unicode="#" horiz-adv-x="444" d="M28 72v249q-1 48 32 80q2 2 56 39q9 31 17 101q-28 12 -25 41l8 59q14 3 39 3h131q23 0 33 -4q2 -19 8 -58q5 -33 -21 -42q5 -36 18 -93q55 -35 68 -47q32 -31 32 -76v-256q0 -24 -15 -44q-16 -24 -42 -24h-237q-67 0 -76 4q-26 11 -26 68zM65 293l1 -12v-43v-140 q-2 -53 24 -55h86q73 -2 182 0q20 9 24 36q3 15 3 85q0 133 -3 157q-6 53 -35 63l-49 28q-16 12 -24 48l-12 106l24 2q4 8 4 16q0 26 -8 26h-128q-6 0 -6 -25q0 -13 6 -19q2 0 22 -1q-3 -34 -5 -68q-3 -42 -10 -67q-5 -16 -28 -29q-34 -18 -42 -25q-22 -19 -26 -52v-31z M86 255q7 8 22 22l37 -47q20 23 38 47q8 -6 24 -20l-40 -54l40 -50l-24 -23l-38 50q-12 -15 -35 -47l-22 20q6 7 39 50zM237 253q7 8 22 22l37 -47q20 22 38 47q8 -6 24 -20q-14 -17 -41 -54l41 -50l-24 -23l-38 50q-12 -15 -35 -47l-22 20q6 6 38 50z" />
<glyph unicode="$" horiz-adv-x="460" d="M10 122q0 15 11 39.5t23 37.5q20 22 28 22q6 0 7 -10.5t2 -9.5q6 4 8 20t6 16q2 6 24.5 12t43.5 6q23 0 41 -6q7 1 37 -9l50 -25q23 -13 20 -13q5 0 5 17q-1 5 0 13v72v23q-9 3 -25 14l-1 10q-4 -3 -9 -3l-26 11l-7 8l-68 -53q-43 -33 -78 -33h-5q-15 10 -15 20q0 7 7 15 q3 3 12 3q10 0 11 -21q17 2 19 2q10 3 14 11l-2 -4h2q4 0 7 4q-5 -2 -6 7q-27 20 -57 27q-6 6 -34 9v3q0 9 2 18q15 -3 16 0q-1 2 -1 20v81q0 24 20 25l15 15q-14 1 -35 8v26q-5 9 -18 8q-12 -3 -20 -4q-16 -3 -16 14l8 9q12 2 14 -10q44 8 82 19q20 5 127 61q4 2 17.5 15 t15.5 13q4 0 7 -3q7 -9 8 -12q-3 1 -9 -7q17 -32 46 -61q-2 -3 -4 -11v-11l3 -9l1 -1q4 0 7 4q7 11 10 11q2 0 7.5 -5.5t10.5 -8.5q12 -8 22 -8q20 0 46 26l1 3q10 15 10 23q-1 2 -1 4h-6q-10 -1 -15 8q0 10 4 15l6 1q9 0 22 -18q3 -5 3 -16v-2l-12 -23q-14 -23 -46 -41 q-5 -4 -25 -13q-12 -6 -27 -12q-11 -1 -35 -3q-5 3 -12 1q-3 2 -12 6q0 -8 -1 -7q0 1 -2 6.5t-3 5.5q-13 0 -29 8q-6 6 -17 14l-17 12q-10 4 -34 26q-7 -3 -9.5 -7t-3.5 -18q2 31 2 -56v-3q-1 3 -1 2q0 -3 1 -13h-32q18 -13 29 -27q3 -3 3 -16v-1v-2q0 -23 6 -28l49 -33 q7 3 47 44q2 0 10 7q3 2 42 32q29 23 53 23q15 0 14 1q0 -1 8 -1t15.5 -9l7.5 -9l-9 -13q-5 -7 -13 -7q-8 3 -18 13l2 7q-4 1 -9 1q-20 0 -41 -21q27 -41 76 -45q21 -3 35 -3l-2 -1q6 -3 6 -6v-3q-5 -4 -21 -8q-11 -2 -11 -19v-8q0 -6 -9 -8q-22 -3 -22 -5q1 -15 3 -19 l26 -10v-78q0 -6 6 -9t13 -7q4 -3 9.5 -4t5.5 -2q0 -3 -4 -9l1 -8q-2 -2 -8 -1q-6 2 -9 2q-32 0 -63 -16q-2 -1 -3 -1v1l-4 -2q-19 3 -21 3q-4 0 -4 -4v-4v-5q-2 -1 -24 -35q-16 -26 -31 -26q-11 0 -23 13q2 2 2 13q0 10 -2 14l-13 -13q-5 0 -8 4.5t-5 3.5l-24 18 q-4 3 -21 8q-29 15 -61 15q-44 0 -83 -36q-10 -19 -10 -32q0 -9 3.5 -13t4.5 -7q3 0 8 7q8 14 25 16q7 1 11 1q9 0 16 -6v-19q-1 0 -4.5 5t-6.5 5l-3 1q-6 0 -11 -13q-5 1 -8 -7v-6q0 -16 -13 -16q-15 0 -30 16q-21 8 -21 47zM153 691q1 13 4 19q3 3 8.5 7t22.5 4 q20 -5 30 -18v-17q0 -7 -14 -7l14 -11q0 -25 0 -22q0 -27 -2 -32q1 -4 1 -9q0 -258 -1 -274v-23v-22q0 -4 -5.5 -10.5t-5.5 -12.5q5 1 10 1q3 -1 3 -8q0 -19 1.5 -62t1.5 -62q0 -1 1 -5v-8v-73q5 -3 10 -7q11 -8 10 -12l-11 -3q-1 -4 4.5 -7t5.5 -4q-7 -18 -22 -18 q-13 0 -19.5 7t-6.5 16q7 4 14 9q-8 1 -16 4v66q3 2 9 3q10 1 10 12q0 1 -1 2h-9q-9 0 -9 -3v1v70q-1 42 -1 69q0 239 -2 247q5 2 7 2q8 6 8 11q0 1 -2 6.5t-3 8.5q-5 0 -11 5v38q1 19 0 58l-3 5q-2 27 -2 26q3 13 3 17q0 3 -1 3t-5.5 -5.5t-5.5 -5.5q-7 0 -12 5q-8 1 -8 19 zM251 710q7 12 19 12q5 2 24 0q4 -2 4 -4t-4 -6.5t-4 -7.5l16 -6v-38v-26v-12q0 -297 1 -274q-1 -15 -1 -23q0 -13 1 -22q-1 -4 -6.5 -10.5t-5.5 -12.5q5 1 11 1q3 -1 3 -8v-58q2 -13 18.5 -32t16.5 -31q0 -8 -12 -21q-9 -8 -17 -16v-8v0v-23l1 -39l12 -5q10 -14 10 -16 q0 -4 -5 -15.5t-14 -11.5q-12 0 -30 21q-9 9 -9 27v27q9 -5 18 -8q0 8 -7 13t-9 17q-1 5 -1 7v3q0 3 -1 7.5t-1 6.5v1l1 196q0 1 4 2.5t5 6.5q0 4 -4.5 7t-4.5 4q0 177 -1 180q5 2 7 2q5 4 5 13q0 4 -2 13q-5 0 -12 6q3 16 3 36v87h-12q-1 0 -14 8q-3 4 -3 30zM316 254v30 v-30z" />
<glyph unicode="&#x26;" horiz-adv-x="683" d="M19 225q4 40 5 47q6 26 23 39q9 9 20 22q7 0 10 -9t5 -16q2 1 19 24q-6 5 -6 9q0 6 17 21q11 10 54 37q-4 4 -4 8q0 6 9.5 16t6.5 13q-4 -5 -15 -5q-7 0 -16 2l-9.5 9.5t-8.5 11.5t7 7q0 1 8 6.5t6 9.5q-5 6 -11 6q-1 0 -13 -4q-9 -2 -15 1q-41 38 -71 33q-7 14 -7 15 q0 5 7 6q30 1 58 39q4 2 20 -1q11 -4 21 -6q-2 5 -15.5 16t-13.5 17q0 2 1 3q2 5 5 16q2 11 -5 40q1 2 5 2q7 0 38 -8.5t49 -8.5q10 0 19 1q19 -19 14 -23q2 -4 12 -6q10 -1 13.5 2t2.5 13q-3 17 -3 19q35 9 49 14q28 11 42 28q3 -6 8 -22q5 -7 16 -26l20 -21q12 -8 28 -8 q19 -11 14 -21q-7 -5 -7 -9q-5 -1 -9.5 3.5t-6.5 4.5q-4 0 -6 -3q-29 -16 -36 -23q-18 -16 -21 -38q-10 -2 -20 -15q8 1 16 -4q4 -23 18 -37q15 -4 35 -1q19 11 20 12q2 2 -3 10q-7 2 -7 7q0 7 7 12t13 2q10 4 10 -11q3 -20 -20 -46q-28 -19 -58 -19q-17 0 -31 7 q-48 33 -46 75q5 24 -11 24q6 0 -37 -10q4 -19 27.5 -56.5t26.5 -56.5q-6 -11 -6 -22q0 -5 2 -11q2 -2 4 -2t7.5 4.5t7.5 4.5q4 0 6 -4q28 -33 75 -103q-6 -10 -5 -21q4 -4 7 -2q5 4 9 3q10 -8 10 -25q0 -29 -1 -27q6 3 7 11q0 4 1 13q14 -3 27 -20q15 -21 20 -23l1 -3 q12 6 36 26q3 -2 12 -11q2 2 2 4t-4 7t-4 8q0 -2 18 16q8 8 15 19.5t7 25.5q0 17 -10 33l-24 -3q-4 10 13 19q6 -1 11 5q30 -7 38 -48q-2 -6 -1 -29q1 -19 -7 -26q-10 -45 -51 -88q37 -21 93 -21q38 0 50 16q-13 9 -4 28q17 8 27 2q10 -4 12 -16t-3 -21q-13 -11 -58 -28 q-41 -15 -53 -30q-26 2 -29 2q-11 -2 -8 -21q9 -7 21 -18q0 -9 -3 -28q0 -10 3 -33q-43 2 -93 33q7 32 -1 38q-22 -26 -24 -26q-11 9 -32 28q-5 -1 -16.5 -8t-16.5 -7t-9 4q-5 -1 -9 -22q-44 -26 -100 -26q-29 0 -62 7q-9 9 -8 12q-15 29 -17 30q-8 -19 -36 -30 q-40 14 -72 46q-3 3 -3 7q0 6 7 20t7 21q-18 0 -44 5q-18 47 -13 76q2 6 13.5 12t13.5 12q-3 2 -17 2q-10 -1 -12 7zM168 264q9 5 28 -6q-1 -10 7 -59q0 -2 -14.5 -14t-14.5 -17q0 -4 22 -4q19 0 21 1q14 -8 33 -25q30 -21 59 -21q16 0 38 5q-1 -1 14 8q-12 10 -41 51l31 27 q9 6 8 12q-2 14 -15 14l-17 -6q-11 -3 -25 -17q-5 0 -8 5q-11 19 -11 21q0 5 18 23q12 10 12 14q0 3 -4 7q-18 -17 -43 -17q-7 8 -34 47q-1 3 -16 -10q-1 -17 -17 -26q-4 -2 -31 -13z" />
<glyph unicode="'" horiz-adv-x="161" d="M21 699l40 18l44 20l11 -12l-5 -13q4 3 8 3q6 0 29 -28q-4 -7 -7 -7q-2 0 -6 2t-5 2l-19 -40l-20 -14q7 -1 17 -5l-22 -67q-12 0 -38 88q6 7 19 17l-7 10q-6 2 -8 0q-3 -3 -7 -4q-4 22 -16 18z" />
<glyph unicode="*" horiz-adv-x="788" d="M13 209l4 26q24 13 52 22q0 6 -1 18t-1 18q0 5 1 14q13 13 48 13q17 0 25 -5q13 -20 19 -48q3 -18 20 -27q36 -20 150 -79q8 -5 20 -11l31 -17l142 66q112 52 117 62q6 19 14 58q33 10 41 10q23 0 27 -14l8 -29l-7 -21q47 -20 47 -35q0 -12 -12 -27t-24 -21q-14 6 -35 10 l-26 4l-214 -95l107 -48q87 -37 92 -37q6 0 30.5 12t45.5 13q41 -33 41 -67v-4q0 -15 -21 -22.5t-23 -10.5t-5 -26q-1 -14 -15 -18q-27 -7 -45 -3l-25 15q-5 5 -5 33q0 5 -10 10.5t-12 7.5q-49 30 -199 99l-28 13q-14 -6 -57 -27l-55 -26l-66 -33q-11 -6 -39 -28 q-7 -5 -11 -25.5t-13 -24.5q-4 -9 -35 -15q-32 4 -36 12q-2 3 -4 45q-8 4 -39 11q-18 5 -18 25q16 41 47 52q11 0 29 -7.5t26 -8.5q20 -7 100 32l96 51q-30 17 -126 68q-18 10 -50 10q-13 0 -38 -6t-34 -6q-7 0 -12 2q-39 17 -39 40zM31 201q1 -2 21 -16q1 -1 7 -1q7 0 18 3 q30 9 58 9q32 0 21 1q9 -1 28.5 -10t50.5 -25l-2 17q-3 14 -17 24l-68 34q-5 6 -10.5 30.5t-17.5 32.5q-11 -3 -16 -1q-18 -2 -18 -16q0 -6 3 -18t3 -18l-2 -8q-17 -28 -27 -28q-2 0 -4 6t-3 7q3 16 4 11l-21 -6l-8 -7v-21zM32 -20q5 -4 46 -17q33 -11 41 -27q-2 -5 -8 -5 q-2 0 -6 4t-7 4q-9 0 -10.5 -1.5t-1.5 -11.5v-10q15 -10 20 -10q14 0 29 14q10 38 46 62l77 39l57 27q21 10 21 14q0 1 -2 2q-24 -4 -123 -53q-38 -20 -43 -23q-21 -15 -31 -39q-2 -6 -17 -7v4q0 3 3 11t3 13q0 6 -5 11v3q3 2 6 5q34 5 77 28q24 14 72 39l107 47q2 0 6.5 1 t6.5 1q3 0 5 -4q-24 -9 -53 -25l3 -10q48 24 173 80q145 65 154 65q10 0 30 -4.5t30 -4.5l12 22q0 8 -11 15q-16 7 -18 9l-6 -4q2 -5 4 -15q-2 -2 -7 -2q3 0 -12 12q-5 7 -5 13q0 7 6.5 21t6.5 24q0 12 -20 12q-16 0 -24 -27q-20 -72 -58 -87q-7 -3 -42 -19q-24 -12 -32 -12 q-1 0 -9 -4t-12 -4t-6 3q12 8 105 53q11 6 21 23q-42 -17 -109 -49q-86 -43 -108 -53l-61 -28l-199 -99q-1 -8 -20 -8q-6 0 -22 4t-22 4l-26 8q-22 -16 -32 -34zM42 191h2l3 -1zM86 217q1 4 13 6q8 1 6 10q3 4 7 4t13.5 -8.5t16.5 -6.5q2 -5 6 -14q-3 -1 -7 -1t-13 2t-13 2 q-8 0 -13 -5q-7 1 -16 11zM195 443q0 10 11 26q9 13 9 20q0 12 -14 24l-4 33l3 48q9 135 175 135q32 0 58 -3q19 -2 61 -16q43 -27 44 -65q9 -37 14 -67q6 -46 6 -48q0 -28 -19 -45q-2 -2 -2 -5q0 -4 3.5 -11.5t3.5 -10.5q10 -27 -8 -48q-17 -16 -41 -18q5 -4 3 -27 q-17 -33 -19 -76q-16 -11 -42 -38q-13 -22 -31 -22q-11 4 -28 2l-29 -3q-14 5 -21 15q-15 24 -51 36q-7 46 -22 71q0 3 -1.5 11t-1.5 12q1 5 8 18q-13 1 -31 10q-34 30 -34 42zM213 546q0 -18 15 -33q5 11 3 23q-3 16 -1 24q0 7 4 29q4 3 7 7q3 -6 4 -23t0 -18q2 -16 2 -29 q0 -36 -16 -54.5t-17 -28.5q-2 -9 33 -30q13 13 38 21q9 -1 28 -10q8 -5 8 -16q0 -4 -2 -12.5t-2 -12.5l12 -7q12 5 20 -5q4 5 11 3q6 -1 7 -1q7 4 12 4t7 -4q6 -3 12 3q8 0 13 -4q11 7 19 5q3 3 3 9q0 4 -2.5 13t-1.5 14q1 8 24 18q17 -2 23 -5q13 -4 20 -15q22 5 32 24 q2 2 1 5q-3 5 -3 8q-5 15 -19 43q-3 -26 -17 -37q-8 -6 -40 -15q-40 2 -58 48q-8 32 0 49l-80 58q-49 34 -78 63v-2q-11 -12 -13 -32l-4 -37q0 -7 -2 -20.5t-2 -19.5zM249 485q0 19 11 35q7 7 46 14q6 -3 23 -5q14 0 18 -12q5 -8 5 -16q0 -7 -3.5 -20.5t-3.5 -21.5 q-12 -11 -35 -12q9 1 -42 2q-2 0 -17 20q-2 8 -2 16zM249 671q6 -8 56 -48q48 -36 99 -70q26 -12 108 -31q2 6 1 20.5t1 22.5q4 4 6 4q8 -4 9 -35q1 -2 1 -4q0 -3 -2 -8.5t-2 -8.5q0 -5 8 -8l3 5q6 9 6 25q0 15 -15 76q-4 58 -44 79q-27 15 -95 19q-80 5 -140 -38zM250 152 q77 -42 79 -42q4 0 18.5 7.5t19.5 7.5q-11 5 -117 59q0 -16 46 -33q14 -7 2 -14zM271 358q0 -14 9.5 -34t9.5 -28q10 -6 30 -17l-1 -1q10 -13 33 -29q8 3 30 2.5t31 5.5q6 10 51 42q3 3 12 44q7 34 7 38q-3 3 -6 3q-11 0 -12 -16q-2 -24 -4 -29q-5 -12 -4.5 -15t-0.5 -9 t-1 -9q-3 -7 -12.5 -8.5t-10.5 -6.5q-3 -2 -17 1q-5 -5 -10 -5q-4 0 -9 5q-4 3 -8 -1t-10 -4q-5 0 -11 3l-6 -2q-7 -6 -18 2q-6 -4 -10 -4q-2 0 -11 6t-16 4q-7 4 -11 19q2 8 -2.5 23.5t-4.5 19.5q-2 14 -10 14q-2 0 -5 -1q-2 -7 -2 -13zM278 399q4 -7 16 -16q11 9 11 19 q-4 11 -17 9q-4 -3 -10 -12zM301 325l2 -16l9 -4q3 7 3 13t-6 7h-8zM309 346l10 1q3 9 3 16q0 6 -2 11q-15 -3 -11 -28zM320 311q2 -16 13 -16q2 0 4 3l-2 18l-14 4zM328 339q5 -1 12 2q2 26 -6 30q-13 -20 -6 -32zM341 406q-1 48 27 77q8 -3 15 -16t10 -16q3 -8 4 -23 q10 -10 5 -29q-6 -2 -17 8.5t-17 11.5q0 -1 -5.5 -9t-5.5 -13q-8 -1 -11 0q-6 3 -5 9zM345 315q-2 -5 7 -21l8 4q2 6 2 9q0 2 -2 8q-5 3 -9 3q-3 0 -6 -3zM347 339q12 -4 17 1q1 15 -5 24l-8 -3q-5 -15 -4 -22zM369 318q-1 -5 1.5 -13.5t6.5 -9.5q6 1 8 6.5t2 9.5q0 7 -18 7 zM369 350q0 -6 1 -12l15 -1q2 6 2 12t-2 11q-10 9 -15 1q-1 -5 -1 -11zM394 354q-1 -6 6 -17q11 -1 11 11q0 16 -10 21q-5 -5 -7 -15zM395 308q0 -3 7 -12q9 2 9 17q0 3 -1 6l-14 -1q-1 -2 -1 -10zM405 74l139 -63l6 8q7 8 8 9q24 -6 28 -9l44 -26q13 -14 28 -42 q-6 -3 -6 -14q0 -2 3 -8.5t3 -8.5l18 -14h6q7 0 26 8l2 28q-10 3 -15.5 -7.5t-7.5 -10.5q-4 2 -4 13q0 4 5 9t5 10q7 2 37 9q26 6 26 11v17q-13 21 -29 29q-13 1 -33 -11.5t-30 -13.5q-52 20 -156 69q-18 8 -61 30q-7 -3 -20 -10q-8 -5 -22 -12zM416 355q0 -18 6 -15 q9 3 9 14q0 15 -8 19q-6 -11 -7 -18zM421 308q0 -10 3 -8q6 -3 8.5 4t1.5 14t-5 5l-8 -3v-12zM437 346q11 0 11 13q0 8 -5 15q-6 -3 -6 -28zM440 323l1 -16l6 1q4 8 4 13q0 4 -5 3q-2 0 -6 -1zM444 407q0 -2 1 -14l8 -8q16 13 14 20l-8 10q-13 0 -15 -8zM508 616q3 0 15 -16 q1 -7 -5 -15q-13 7 -10 31zM559 3q5 -2 81 -44q-11 12 -20 24q-19 19 -61 20z" />
<glyph unicode="," horiz-adv-x="233" d="M28 -74q-1 6 5 11q2 -2 13 -5q7 -5 12 -4q4 2 8.5 10.5t7.5 8.5t8 -5h2q-4 13 -4 21t4 12l20 27q-2 2 -6 1q-5 -3 -7 -3q-13 14 -44 35q-1 2 2 8q-6 0 -9 3q-4 4 0 7q16 18 36 14q-1 2 -5 7q-2 4 0 6q25 8 40 40q2 3 7 3q4 0 11 -2v-1q2 -3 3 -4l2 2q2 -3 20 -21 q14 -14 13 -26q4 1 7 1q6 0 17 -8q8 -7 16 -13q3 -2 3 -5q0 -2 -5.5 -5t-5.5 -6q-3 -4 -13 -11t-10 -12q0 -2 2 -5q-7 -3 -14.5 -20t-17.5 -18q-35 -45 -55 -51h-8q0 -4 -7 -6t-8 -6q-20 4 -22 5q-10 3 -18 15z" />
<glyph unicode="." horiz-adv-x="212" d="M29 38l36 36q14 12 39 37q4 7 13 4l2 -5q1 -2 13 -14.5t10 -12.5q-17 -2 -17 -7q0 -13 35 -8q4 -6 27 -23q3 -2 3 -9l-24 -22q-5 -5 -10 -2l-7 5q-1 0 0 -14q-1 -1 -35 -32q-4 4 -21 17q-11 8 -11 14t8 13l-3.5 7t-4.5 7l-18 -21q-1 2 -22 17z" />
<glyph unicode="/" horiz-adv-x="342" />
<glyph unicode="0" horiz-adv-x="684" d="M20 321q0 69 18 101q6 4 15 13l-8 5q9 9 9 8q0 4 -8 13q35 105 115 143q4 1 6 -7t5 -9q7 4 7 27v7q67 57 169 57q114 0 232 -105q13 10 33 33q-2 -1 -7 -1q-7 0 -20 5q-1 14 -1 13q0 16 37 31q10 0 26 -27v-4q0 -21 -15 -38l-30 -33q60 -63 67 -229q-2 -6 -13 -15l-25 4 v-2q0 -13 10 -17l5 1q8 0 19 -15q-24 -102 -63 -146h-18q-10 0 -12 -9q5 -4 5 -11l-3 -10q-68 -58 -86 -70q-52 -35 -103 -40q-6 -5 -17 -5q-17 0 -35 12t-23 12t-12 -5q-6 -13 -13 -13q-5 0 -7 2q-73 6 -165 82q-11 -8 -31 -25q12 -6 12 -15q0 -6 -24 -30q-5 -1 -11 -1 q-29 0 -29 26l1 12q7 14 26 30q26 22 31 28q-1 2 -27 43q-17 25 -17 46q0 7 2 16h7q8 0 9 4q0 11 -10 29q-1 0 -7 -6t-11 -6q-2 0 -6 2q-9 42 -9 89zM65 428l4 -2l1 2h-5zM73 425h4l-4 2v-2zM94 57v3h2v-3h-2zM141 333l11 6q6 -20 10 -78q4 -52 16 -74q18 13 57 58 q36 41 56 53q23 21 47 52q16 12 90.5 85.5t74.5 76.5q0 20 -34 48q-17 12 -50 38q-21 16 -55 21q-47 7 -58 12q-2 -13 -27 -26q-34 -17 -37 -20q-14 -18 -46 -54q-4 -2 -7 -2q-5 0 -12.5 2.5t-10.5 2.5l-6 -1q-4 -4 -4 -8q0 -2 13 -5t15 -9q-17 -39 -28 -146q-14 -8 -15 -32 zM193 149l36 -46q0 -7 -7 -17q3 -8 7 -8q2 0 7.5 6.5t10.5 6.5l8 -2q23 -23 58 -32q12 -10 27 -10q11 0 31 7l30 11q20 8 39 21q16 11 64 75h4q-7 1 14 5v3q0 2 -5.5 5t-5.5 6l2 4q21 64 21 106q0 35 -10 90l11 4q2 2 19 4q14 3 13 7q-9 19 -27 15q-7 4 -5 12q-16 33 -16 52 q-5 -9 -19 -20l-11 7q-7 -1 -8.5 -7.5t-2.5 -12.5q-14 -12 -70 -64q-38 -35 -106.5 -113.5t-108.5 -114.5z" />
<glyph unicode="1" horiz-adv-x="364" d="M18 10q0 20 7 23q36 0 47 -13l4 3q-7 4 -4 13h37v54q0 33 10 50q4 6 11 4h13q-1 7 -16.5 18.5t-17.5 18.5v171q2 23 35 41q1 3 7 8t6 8t-1 4q-7 1 -20 -12t-19 -13q-4 0 -8 3q5 21 5 48q0 16 -2.5 49t-2.5 49q-1 1 -9 -3q-2 1 -6 1q-8 0 -21 -5q-5 -9 -13 -8q-8 22 -7 32 q15 0 89 30q-3 0 0 -4q11 13 34.5 30.5t32.5 27.5q8 -5 22 -3q-4 8 -4 15q0 14 18 31q22 21 25 26q7 2 13 -6l6 -8q-12 -11 -30 -37q-1 -25 0 -72q-9 -4 -15 -16q-7 -15 -10 -18q3 -15 5 -23q8 1 14 1q5 0 7 -1q-3 -18 -3 -43q0 -19 2.5 -57t2.5 -57q0 -18 -2 -37 q0 -2 -3 -9.5t-1 -11.5q-3 -1 -5 -1q-3 0 -8 2t-7 2q-4 0 -8 -7l4 -2l2 1q23 -32 23 -47q0 -6 -1 -12q-6 -3 -16 -11q12 -5 15 -18q2 -9 1 -23q-2 -22 -5 -106q-6 5 -14 0l-13 -8q12 -3 22 -6q13 -7 10 -40q9 -5 25 -4q18 2 25 0q3 -1 13 3q7 3 8 -3q5 3 10 3t10 -3 q5 -12 2 -22l-4 -16q-18 -1 -119 -3l-206 -1q-2 12 -2 20zM222 615l4 5l5 -2z" />
<glyph unicode="2" horiz-adv-x="559" d="M10 456q4 20 16.5 24.5t22.5 4.5q5 0 9 -2q4 -7 20 -12t20 -9q0 12 4 36q5 0 7 3q1 8 -12 18q2 9 2 16q0 19 -18 20q-2 0 -7 2q0 5 4 12q20 2 60 12q5 -1 16 5.5t15 6.5q9 0 11 -15q2 7 15 19l-2 2q14 11 53 32q34 18 50 34q-1 2 -1 3q0 3 6 6.5t7 7.5q14 10 39 36l18 -6 q2 -1 2 -4q0 -2 -2 -5q-3 -8 -4 -10q-9 -2 -9 -8q0 -3 8 -14.5t49 -58.5l-11 -28h26q16 1 18 -14q17 -24 14 -34q-4 1 -11 -5q3 -4 16.5 -5t17.5 -7q17 -28 7 -72q-2 -8 -14 -29l-38 18q-8 -2 -8 -8q0 -2 2.5 -8.5t2.5 -8.5t10 -15t9 -14l-60 -75q-47 -56 -72 -73v2 q1 3 -1 20t-4 18q-2 0 -10.5 -5.5t-12.5 -4.5l-2 -10q1 -15 0 -17q-1 -12 -2.5 -14.5t-26 -18t-31.5 -18.5q-7 -7 -34 -28l-20 -14q29 3 37 3q0 -6 6 -18q9 -5 26 19q0 6 34 13q30 6 43 6q14 0 30 -1q-2 -12 3 -29q3 2 23 25q18 2 37 0l29 -3q21 -3 35.5 -10l29.5 -14 q14 20 24 27q1 -2 7.5 -7t6.5 -8q-1 -4 -1 -5q-23 -24 -35 -60q-4 -34 -7 -91l-62 16q-26 2 -84 12q2 6 -4 16q-5 1 -10 1q-6 0 -19.5 -8t-20.5 -8q-5 0 -9 2q-11 1 -69 3l-32 -4q-3 6 -12 15q-13 -11 -24 -16q-20 -3 -71 -12q-15 -3 -62 -14q-3 63 38 123q38 56 98 86 l19 -13q4 4 7 19q-2 8 1 19q52 33 98 85l56 66q2 1 5 1t8 -1q8 -1 8 6q-14 8 -10 21q14 18 10 49q3 1 10 1q2 4 2 18q-10 -6 -27 -4q-2 5 -38 53l13 14q-3 6 -13 6q-7 0 -18 -3q-16 21 -54 50q-7 -39 -7 -103q0 -106 1 -99q4 -4 21 -3.5t18 -10.5q-12 -8 -27 -8 q-16 0 -47 15q-4 1 -7 17q-1 6 -10 5q-4 -9 -9 -10q-18 5 -49 27.5t-47 28.5q-5 2 -14 9q-6 -3 -5 -3l-4 3q-1 -1 -1 -8q6 -7 6 -8q1 -1 -5 -10q-4 -2 -9 -2q-17 0 -31 26z" />
<glyph unicode="3" horiz-adv-x="546" d="M19 103q4 47 55 72q41 20 93 20q82 0 120 -63q-6 -7 -29 -23q5 -3 14 -3q4 0 12 1t12 1q7 12 7 13h3q17 -25 27 -43q5 -6 10 -28q60 -7 78 63q22 0 25 6t10 28l-32 -5q-4 0 -6 14q-3 20 -7 26.5l-19 29.5l32 4q2 8 4 17q-4 5 -14 5q-5 0 -15 -3q-22 -6 -35 6q-3 5 -12 10 q-12 7 -12 11q11 14 16 12q-13 19 -31 19h-2q-2 -6 -8 -16q-15 15 -46 30.5t-48 18.5t-42 5l-48 5q4 5 24 28l34 38q13 13 25 13q11 0 33 -11q0 1 -12 14t-11 14q10 11 48 50q52 52 61 65q-13 -3 -36 -1q1 12 -11 12q-5 0 -8 -5l-7 -9l1 -1q-6 -3 -58 -6q-25 1 -59 2 q0 -5 2 -16.5t2 -16.5q0 -22 -8 -35q-7 -3 -22 -8q-16 6 -16 14l2 13q10 12 12 12q6 0 12 -10q6 -2 6 15q0 10 -8 30t-8 28q0 4 7 10l8 8q-11 -4 -15 -4q-9 0 -16 31q-17 26 -39 80q4 6 10 6q4 0 44.5 -15.5t59.5 -15.5q3 -24 11 -24q3 1 7 13q4 9 11 9q6 0 41 -5 q5 -11 21 -30q4 3 9 16t12 14q28 3 71 10v-3q0 -7 10 -7l11 1q4 9 25 22q20 3 64 24l9 -1q5 -6 5 -9q0 -4 -2 -6q-16 -16 -40 -49.5t-38 -50.5q-11 -10 -122 -138q21 -7 42 -15q32 -13 62 -36l28 -24q-3 -1 -8 -9.5t-4 -8.5q-5 -4 -18 -24l52 20q30 -27 58 -68q6 -8 10 -22 q4 -17 7 -23q-9 -7 -20 -17q-4 -5 -3 -6q4 -2 4 -3.5t5.5 -4.5t5.5 -4l18 -3v-7q0 -86 -61 -147t-147 -61q-31 0 -49 2q-4 8 -14 23q-19 -19 -26 -19h-4q-11 1 -32 14l2 20q-4 28 -23 57q0 5 6.5 10t6.5 9q0 19 -9 21q-10 -9 -8 -18l-8 -6q-15 16 -35 26l-10 15l-11 -7 q-8 11 -27 10q-21 -2 -37 -22.5t-27 -19.5z" />
<glyph unicode="4" horiz-adv-x="603" d="M18 364v7q4 -1 9 10q30 18 53 48q34 42 45 53q3 4 7 4q3 0 7 -1t5 -1q6 0 5 11q5 3 5 7q0 2 -3 6q11 23 73 97q57 68 60 87l7 7q13 2 35 2t53 -2q13 -8 35 -25q2 8 4.5 16.5t9.5 11.5q6 -2 22 3q27 -3 74 -17q2 -12 -9 -23l-43 -2v-97q2 -7 2 -15t-2 -16q-10 4 -29 1 q-1 -8 -6 -22q4 -3 12 0q12 3 13 3q7 0 7 -12l3 -2v-89q-19 -39 -19 -49h100q4 9 10 18.5t13 10.5q9 0 18 -8q-15 -30 -40 -95q-7 -15 -19 -17q2 -5 9 -17q-7 -25 -16 -74q-13 -4 -21 -3q-4 3 -4 13v16q-3 7 -11 7h-11v-39q1 -43 -8 -56q-30 -11 -34 -26q3 -1 33 8 q6 -7 6 -17q0 -9 -5 -21q10 -6 13 -13q0 -5 -2 -16q3 -3 8 -3q3 0 9.5 2.5t8.5 2.5q7 0 9 -11q6 0 16.5 6.5t15.5 6.5q12 0 16 -12q-1 -9 1 -28q-24 -6 -123 -6q-21 0 -46 20q-13 -8 -20 -20h-120q-1 -1 -5 -1q-4 1 -6 1h-16q-1 -1 -3 5l-10 -1q-5 7 -5 17q0 7 3 16 q5 3 10 3q9 0 15 -8q1 -1 2.5 -7.5t6.5 -6.5q2 7 11 21q4 0 13.5 -1.5t13.5 -1.5q11 0 12 9v138l2 1q-5 5 -1.5 17.5t-1.5 17.5q-22 -1 -55 3q-6 16 -18 40q-4 -7 -16 -39l-55 -1q-51 -1 -51 6q-7 1 -19 -4q0 -8 -8 -21q-6 -3 -10 -3q-7 0 -10 8q0 97 -40 162zM86 363h48 q4 -2 13 -23l13 -1v16q1 8 10 8h76q0 -1 4 -8t2 -9q15 11 13 15q-3 2 -4 3q6 1 43 1q2 6 0 18q-2 20 -2 23q0 28 19 34q2 8 -5 10q-10 2 -12 3q-2 5 0 35q4 2 24 8l12 32q-4 0 -10.5 -7.5t-8.5 -9.5q-15 -9 -21 0q2 112 1 120l-57 -75q-11 6 -15 6q-11 0 -8 -29l-72 -99z " />
<glyph unicode="5" horiz-adv-x="625" d="M18 40q16 28 36 90q6 38 6 86l-5 51q1 2 9 3q7 1 8 0q4 -3 11.5 -35.5t20.5 -39.5v-4q0 -3 8 -8q3 -9 22 -27q16 -16 19 -29q-6 0 -6 -8q0 -18 10 -15v4q0 4 9 4l8 -1q69 -61 133 -61q14 0 34 13q24 15 33 17q36 36 43 79q-2 3 -2 6q0 2 3 4l10 -1l9 3v3q0 6 -11 12 q-9 0 -10 3v10l-4 27q-2 16 -24 57q2 3 7 3q4 0 17 -4v2q0 17 -17 27l-30 -2q-32 56 -134 74q-3 1 -7 12q-3 8 -12 8q-8 0 -20 -9l-3 -8q-21 0 -82 -9l-42 -10q-5 4 -5 29q29 6 36.5 28t10.5 22q4 0 10 -2q1 5 2 15l-2 5h-14q0 47 2 84l53 47q0 3 -2 5q-22 -22 -43 -22 q6 0 -8 3q1 4 0 12q-2 9 -2 12q0 34 -16 70q-1 4 -11.5 10t-10.5 11q0 10 10 16q25 -8 72 -20q40 -12 143 -19q7 -1 84 4q20 2 61 10h10v-4q0 -8 5 -15q9 19 31 27l45 17q6 -5 6 -9q0 -1 -10 -12.5t-10 -28.5q0 -42 27 -78h3q4 0 11.5 4.5t9.5 5.5l-2 3q7 2 18 10l-13 3l1 2 q-3 1 -3 5q0 2 2.5 6t2.5 7q18 6 24 6q9 0 15 -6l-1 -4q0 -2 2.5 -6.5t2.5 -6.5q0 -13 -41 -40q-36 -23 -55 -29q-7 3 -33 3q-1 0 -10 -12t-13 -13q-28 -7 -94 -20q-10 41 -10 44q0 2 19.5 7.5t19.5 7.5l-18 32l-26 -18q-8 0 -13 29l-6 35q-5 0 -23 -3q-12 -3 -25 0l-4 -5 q-3 4 -5 4q-13 0 -10 -2l-1 -7q0 -6 3.5 -19.5t3.5 -20.5q0 -12 -8 -20l-2 1q-10 0 -15 -21h15q10 0 10 -27q0 -47 -1 -61t-4 -30q55 -4 63 -6q43 -7 48 -28q14 17 20 17q3 0 6 -1q130 -53 160 -140q-10 -6 -21 -25q2 -10 8 -10q4 0 10.5 4.5t9.5 4.5q9 -5 9 -48 q0 -71 -53 -124q-4 0 -11.5 3t-10.5 3v-16q0 -10 -29 -26q-25 -15 -38 -19l-20 -7q-40 -14 -114 -14q-25 0 -111 6q-26 14 -28 30l-13 -11q-20 10 -15 10q-3 0 -6.5 -6t-6.5 -6t-34.5 15t-35.5 19q-3 -2 -10.5 -14t-11.5 -12t-8 2z" />
<glyph unicode="6" horiz-adv-x="627" d="M23 308q-5 90 9 129q25 74 60 122q26 35 68.5 75.5t54.5 40.5q5 0 22 -21q11 -13 15 -13q3 0 5 12l-5 21q0 17 31 28q27 6 58 6q25 1 58 2q18 -2 50 -13q4 -4 6.5 -15.5t7.5 -13.5q0 3 5.5 9t4.5 10q4 5 11 5h12q9 -6 31 -11t31 -12q2 3 12 16q11 0 11 -4q0 -15 -8 -43 t-8 -42q0 -13 5 -28q0 -7 -5 -8h-12q-6 -1 -7 -7q12 3 19 -5.5t5.5 -21t9 -41.5t10.5 -40q0 -21 -20 -36q-21 -8 -26 10q-7 23 7 31q7 1 11 -3q3 6 3 12q0 8 -8.5 24t-9.5 22q-13 18 -69 51q-29 19 -83 23q-15 1 -15 11q0 4 6.5 10.5t4.5 11.5q-5 -1 -20.5 -15.5 t-23.5 -11.5q-1 0 -2 11q-2 8 -9 8q-3 -2 -4.5 -12t-7.5 -12q-1 1 -21 -8q-18 -5 -85 -40q-6 -1 -21 11q-9 7 -11 7q-4 0 -5 -7l17 -38q-34 -52 -34 -77q0 -8 7 -8q4 0 9 3t6 3q5 0 8 -3l8 -16q5 2 16 7q-3 3 -3 8t3 12t12 5.5t12 0.5q28 3 84 12q15 -13 16 -35l6 3 q6 10 34 26q3 3 20 0q79 -15 114 -58q-4 -8 -4 -21q0 -7 3 -10q3 1 21 3q11 2 20 -3q4 -6 24 -24q8 -8 11 -27q-8 0 -21 -9v-6q4 -1 17 2q11 2 14 -7q-1 -9 4.5 -23t5.5 -19q0 -7 -15 -18q-20 -14 -22 -16q12 1 33 -2l-2 -29q-24 -55 -27 -60q-14 -29 -42 -52 q-11 -13 -45 -37q-3 -4 -9 -4q-4 0 -10 2.5t-9 2.5q-8 0 -12 -10q3 -7 -14 -16q-45 -15 -104 -15q-107 0 -183 44q0 5 1 14q1 10 -7 12q-3 0 -10.5 -4t-9.5 -4q-3 0 -5 1q-42 38 -73 104q-1 17 20 22q6 0 7 6l2 12q-9 3 -20 2q-14 -2 -19 -1q-9 50 -13 110zM131 254 q1 0 1 -13q0 -6 1 -11q9 6 30 -2q6 -11 6 -30q0 -10 18 -54q9 -22 30 -34l28.5 -14.5t37.5 -11.5q14 -2 30 -4v-13q3 -5 3.5 -8t8.5 -4.5t10 -0.5q8 13 22 32q47 12 68 50q-1 10 3 13q9 1 17 -8q13 -14 14 -14q-3 9 -4 23q0 7 -6.5 23t-6.5 24q0 7 5 11q3 0 9.5 -6.5 t8.5 -6.5q3 10 -18 28q11 22 11 32q0 7 -11 20t-20 31q0 15 12 21l-2 2q-5 2 -14.5 -3t-14.5 -5q-8 5 -35 24h-14q-36 9 -62 9q-63 0 -101 -39q-3 -13 -19 -20q-5 -9 -18 -27q-11 -3 -20.5 -5t-7.5 -9z" />
<glyph unicode="7" horiz-adv-x="563" d="M15 707q0 6 6 9q11 1 20 -15.5t21 -15.5q11 -2 36.5 -9t39.5 -7q13 -8 45.5 -12t45.5 -10q0 -3 -6 -11t-6 -11t2 -5q15 0 37 27q72 -1 120 11q7 -18 16 -20q-5 1 11 1l8 12q-4 2 -4 11q32 7 104 36q8 -1 17.5 10t12.5 11q4 0 8 -6q3 -10 -9.5 -24t-13.5 -20 q-37 -42 -86 -105q-4 4 -12 4q-5 0 -11 -1q-2 -4 1 -11.5t3 -10.5q0 -5 -4 -8v-4q-64 -67 -103 -174l-4 -13q27 -33 33 -39q22 -22 43 -25q0 12 13 21q22 2 38 -9q2 -8 -12 -24q-8 -10 -26 -8q-38 2 -30 2q-16 4 -34 24q-24 24 -31 29q-1 -2 -6 -17q1 -5 -5.5 -13t-6.5 -14 q0 -3 2 -7q-8 1 -20 -6q-2 -7 6.5 -14.5t6.5 -14.5q5 -7 1 -18q-3 -14 -1 -20q-2 -23 7 -76q-9 -7 -26 -25q6 -4 13 -1q4 2 7.5 7.5t9.5 5.5q2 -7 15 -18q16 5 18 3q4 -1 12 -15q-50 -15 -138 -51q0 -4 2 -5q2 2 2 4h1l-40 16q-4 -19 -10 -34q-3 -1 -19 -9q-11 -6 -20 -6 q-8 24 -8 55q0 56 21 96q-1 2 -1 3q0 2 3 5q5 1 19 -10q6 8 5 18q-10 7 -8 24q9 36 51 93q8 -7 20 -23q3 11 0 22q-8 36 -8 31q0 4 2 8l6 3q-2 6 7 16.5t9 16.5l4 4q-15 9 -35 9t-45 -11l-8 -19q-22 -11 -33 -11q-9 0 -18 4q-1 20 4 26q13 18 68 30q60 0 83 -8q4 12 23 26 l10 -10q5 4 5 9q-1 3 -4 10q-2 6 8 21q14 21 33 42q34 41 41 52q-11 -3 -19 -3q-12 0 -20 7q-8 -10 -55 -18l-28 -5q-18 -1 -26 9q1 6 -4 10q-9 0 -12.5 -10t-7.5 -10q-15 -2 -40 1q-32 4 -41 4q-3 4 -6 4q-15 -40 -18 -44q-14 -24 -35 -25q-4 0 -6.5 5.5t-6.5 3.5 q-1 23 18 37q15 0 15 -8q8 14 8 31q0 14 -5 35q-9 34 -9 35q0 4 3.5 9.5t8.5 3.5q2 3 -12 17q-9 0 -12 -2q-12 25 -38 74q1 4 -2.5 13t-3.5 12zM113 -13l1 -2v-1z" />
<glyph unicode="8" horiz-adv-x="599" d="M17 225q0 20 10 20q1 0 2 -2l5 2q3 0 8.5 -5t7.5 -5q1 0 3 1q1 8 -3.5 20.5t-4.5 16.5q0 1 -6 7t-5 7q33 67 111 111q-37 28 -60 57q2 12 10 32l-15 -2q-10 -2 -12 7q1 5 -2 15t-3 14q0 8 10 13q20 7 22 25q-4 4 -15 1t-17 1q1 27 38 78q57 50 96 68l3 -1l3 3q4 4 7 3 l24 -17q7 5 10 21q20 12 50 12q13 0 38.5 -3.5t38.5 -3.5q21 -7 26 -10q16 -7 22 -16q-6 -11 -4 -21q6 -6 27 -6q1 4 7 6q5 1 8 -3q66 -68 66 -123q0 -12 -6 -28q-6 -20 -7 -27q-5 -2 -9 -2q-5 0 -14.5 5.5t-12.5 5.5q1 -4 10 -18.5t7 -23.5q-12 -18 -41 -47q-4 -4 -3 -4 l3 -2l-2 -4q-1 2 -4 6l-9 -8q7 -9 13 -6v-3q16 -7 43 -28l6 1q2 -1 2 -6q-1 -6 0 -7q0 -2 5 -1q1 -8 7 -8q1 0 4.5 1t5.5 1q5 0 8 -4q16 -18 31.5 -37.5t24.5 -69.5q-2 -8 -15 -16t-15 -12q13 -6 32 -24q-5 -64 -72 -122q-9 1 -14 13q-6 16 -9 18q-2 -18 -16 -47 q-17 -17 -48 -31q-55 -17 -92 -20q-21 -2 -42 -2q-67 0 -125 21v3q-4 1 -10.5 9t-10.5 9l-13 -6l-45 23q-26 16 -31 38q5 5 5 12q0 4 -1 8q-17 -10 -19 -10q-23 37 -27 127zM158 194l7 -44q8 -25 16 -34l28 -23l1 -7v-11q-2 1 -2 6q0 -6 2 -7l20 7q30 -17 75 -17q20 0 36 5 l5 -6q8 -7 10 -7t4 10t8 12q43 11 64 51q1 1 10 48q2 5 16 14q0 2 4.5 9t4.5 10t-3 7q-6 0 -11 -10q-4 -2 -8 -2q-6 0 -10 7q-2 26 -3 31q-4 17 -16 25q-1 3 -1 7q0 10 8 26q-24 -8 -26 -8l-4 5q-37 29 -83 29q-40 0 -90 -28q-36 27 -42 24q-6 -12 -20 -32q16 5 24 -18 q0 -4 -12 -24q-17 -28 -12 -55zM184 523l12 6q9 -4 14 -14l10 -21q3 -6 -1.5 -16t-4.5 -12q2 1 8 7q10 0 18 -12q10 -15 13 -16q17 -11 38 -11q19 0 38 8q5 10 13 12q6 2 16 0q15 -2 16 -2q-1 5 -7.5 10.5t-6.5 10.5q21 23 21 57q0 19 -8 35q-6 3 -6 7q0 3 4 8.5t4 7.5 q0 3 -3 5q-5 -4 -8 -4q-5 0 -12 10t-11 11q-8 13 -33 17q-17 3 -21 5t-15 13q4 -12 -9 -22q-7 -6 -7 -11q-28 -6 -42 -51q2 -13 -8 -21z" />
<glyph unicode="9" horiz-adv-x="618" d="M19 468q0 15 8 21q14 1 38 12q4 6 9 12q14 15 14 19q0 3 -3 3l-62 2q2 33 14 52q12 46 48 76q5 4 12 4q6 0 19.5 -6t20.5 -6q6 0 12 4q-2 6 -2 12q0 17 22 29q15 5 30 11q35 12 86 12q117 0 172 -36q17 -11 28 -22l26 -26q32 -28 65 -100q0 -4 -8 -4q-6 0 -26.5 3.5 t-26.5 2.5q-2 0 7 -13t8.5 -16t6.5 -3q4 0 11 1q3 0 7 1q2 -1 4.5 -7.5t6.5 -5.5q15 2 19 1q13 -68 13 -110q0 -83 -23 -148q-21 -58 -60 -112q-26 -34 -66 -71t-52 -37q-15 0 -32 21q-4 5 -11 5q-4 0 -5 -12q3 -13 6 -30q0 -6 -10 -7q-17 0 -26 -4q-13 -2 -35 -3t-26 1.5 t-29 36.5q-5 -6 -14 -20q-1 -3 -12 -16q-13 0 -25 3q-21 6 -41 9q-6 4 -36 11q-22 4 -31 12q-2 -4 -12 -16q-11 0 -11 4q0 17 8 44q4 15 4 23v18q0 3 19.5 -3.5t20.5 -6.5q2 0 -5 15t-5 15l-26 12q-10 10 -6 37q2 13 -9 41.5t-11 40.5q0 21 21 35q21 9 26 -9q6 -23 -7 -31 q-7 -1 -11 2q-4 -5 -4 -11q0 -8 8.5 -24t9.5 -23q15 -18 51 -40q19 -12 62 -24q35 -10 51 -10q15 0 33 8q9 -3 18 -3q13 0 14.5 -0.5t21.5 -14.5q3 13 16 30q24 10 30 13q12 7 23.5 21.5t28.5 45.5q13 35 13 38q0 1 -6 2t-9 4q-16 16 -21 13q3 -3 3 -8q0 -6 -3.5 -12.5 t-11.5 -5.5t-11 -1q-8 -6 -34 -7q-41 -2 -51 -4q-16 13 -17 34q-1 -1 -6 -2q-6 -11 -33 -26q-3 -3 -20 0q-56 10 -123 67q10 21 10 20q0 7 -2 11q-4 -1 -21 -4q-12 -1 -21 4q-4 6 -23 24q-9 8 -11 27q6 0 13.5 4.5t7.5 7.5t-6 3q-4 0 -11 -2q-5 -1 -12 19q1 6 -1.5 21.5 t-2.5 21.5zM139 585q2 -7 4 -44q0 -1 16.5 -5t13.5 -10q-6 -9 -7 -26q-1 -12 0 -32q1 -28 1 -31q0 -10 16 -34q9 -14 20.5 -21t15.5 -11l50 -26q16 -4 46 -4q71 0 108 38q1 1 3 1q5 0 29 -7q21 -6 22 -4q2 4 2 8q0 10 -16.5 24.5t-15.5 17.5q10 20 -2 80q-8 39 -18 52 q-18 23 -48 48q-23 12 -64 18l-58 -4q-4 -3 -35 -15q-19 -8 -31 -29q1 -6 -7 -12q-6 -1 -14 8z" />
<glyph unicode=":" horiz-adv-x="215" d="M29 38l36 36l17 20q3 4 6 4q2 0 6 -7t7 -7q4 0 8 5l1 16q1 12 7 10l29 -32q8 -8 18 -21q5 -6 23 -17q3 -2 3 -9q-10 -7 -25 -20q-4 -4 -16 -13q-1 -1 -35 -32q-6 6 -16 14q-6 3 -6 8q0 3 2 9q-1 1 -5 15.5t-5 14.5l-9 -32q-9 7 -18.5 15.5t-6.5 14.5q-7 1 -21 8zM29 278 l36 36q24 -8 23 -7q-11 14 -6 19q2 3 22 25q4 7 13 4l13 -18l7.5 -7.5t5.5 -7.5q0 -3 -1.5 -8t-1.5 -7q0 -6 20 -3q1 -2 24 -25q2 -2 0 -3q-21 -12 -39 -32q-28 -30 -31 -33l-50 37q-1 2 -22 17z" />
<glyph unicode=";" horiz-adv-x="239" d="M38 -74q-1 6 5 11q2 -2 13 -5q7 -5 12 -4q4 2 8.5 10.5t7.5 8.5l14 25q10 13 4 24q-1 1 2 11q0 4 1 9l-14 -10q2 1 -14 13l5.5 7.5t5.5 12.5t-3 8q-2 0 -14 -7t-13 -6q-15 12 -8 19q15 11 55 47q21 -1 21 4q0 2 -2 7t-3 9q2 3 7 3q4 0 11 -2v-1q2 -3 3 -4l2 2 q1 -1 -1.5 -7.5t-2.5 -10.5q0 -9 9 -6q6 3 12 5q0 1 6 -7q16 -15 50 -41q3 -2 3 -5q0 -2 -5.5 -5t-5.5 -6q-8 -13 -13 -11q-22 5 -22 -3q0 -4 4.5 -11t4.5 -8t1 -5q-3 0 -11 -10q-6 -17 -17 -18q-4 -4 -17 -18q-4 -4 -8 -4q-2 0 -8.5 3t-10.5 2q-2 0 -2 -3q0 -10 7 -17 q0 -2 -13.5 -10.5t-17.5 -9.5q-7 -1 -8 -6q-20 4 -22 5q-10 3 -18 15zM39 278l36 36q12 13 35 40q10 3 17 1l5 -30q1 -1 2 -1q3 0 8 3.5t6 2.5q1 -2 21 -23l23 -22q7 -6 2 -9q-21 -12 -39 -32q-28 -30 -31 -33l-57 42q9 15 9 21q0 4 -3 4q-7 0 -21 -13z" />
<glyph unicode="?" horiz-adv-x="421" d="M21 479q9 13 17 13q11 0 18 -20l-8 -6q3 -5 17 -12q0 14 10 35q0 2 4 7t4 6q0 4 -3 5h-10l-3 55q-4 2 -12 -2t-10 -4q-4 0 -5 11q-3 -1 -9 5q3 9 37 22q11 4 38 17q6 -11 5 -12l11 -23q4 -1 5.5 12.5t7.5 20.5q-2 3 -2 5q0 3 7.5 8t7.5 6q5 0 58 31q23 13 83 50 q7 -2 7 -6q0 -2 -2 -6l-3 -2l54 -71q0 -7 -7 -22l2 -1q3 0 7.5 6t9.5 5q18 -15 44 -48q-14 -5 -37 -22q2 -26 -1 -74q-4 -3 -14 -12q-1 -3 2 -19q9 8 14 7v-58q5 -7 18.5 -11t18.5 -8l-12 -21q-11 0 -34 7q1 2 -3.5 10t-4.5 9l-17 5q-5 -2 -9 -24q-15 -3 -49 -16 q-11 -2 -39 -18v-45q-3 -10 -19 -19q-3 -10 -3 -9q5 3 10 5q8 3 12 -1q-1 -17 0 -41q0 -11 21 -9q8 -2 16 -2q6 0 15 12q17 1 19 -17v-25q-4 -6 -10 -6t-16 4.5t-14 4.5q-7 2 -17 2q-32 0 -99 -19q-59 -17 -62 -15q-1 6 -1 17l14 14q5 5 5 18v13v54q-12 0 -35 10q0 3 -3 11 q2 5 7 5q3 0 7 -2q12 -7 37 8l127 75q-1 3 -1 74q2 2 4 2t6 -2t5 -2q3 0 3 7q1 11 -3 29l-6 -2q-5 -2 -7 2v67q0 17 -15 30q6 7 13 32q-6 0 -15.5 -5t-11.5 -5t-43 31v-88q-1 -2 -14.5 -4t-13.5 -10q0 -4 2 -10q22 2 25 -8q1 -3 1 -55q-1 -2 -6 -4.5t-5 -6.5q13 -7 13 -22 q0 -3 -1 -9v-11q0 -11 5 -17q3 -9 -4 -17q-7 1 -21 18q-20 23 -59 34q-2 2 -1 5q3 3 3 4q-1 2 -50 21q-29 12 -27 39zM111 76q1 1 15 5q5 1 13 8.5t14 7.5q4 0 10 -3q-2 13 5 19t9 10q3 16 17 16t14 -14q8 -9 35 -36q22 -23 21 -28q-8 -4 -27 -25h-23q4 -9 4 -16 q0 -6 -10 -18t-12 -17q-25 38 -59 70q-13 13 -21 8q-5 5 -5 13z" />
<glyph unicode="A" horiz-adv-x="766" d="M16 16q0 29 14 55t33 33q3 -1 7.5 -7t5.5 -6q8 0 12 8q-2 3 -2 7q0 11 38.5 19.5t35.5 27.5q19 4 27 25l69 187l32 85q4 10 4 9v0q3 0 25 56q8 2 12 21q-30 21 -39 21q-48 0 -51 -24q-12 -7 -12 -13q0 -22 12 -31l-3 -7q-8 0 -25 25v9q0 32 18 46q3 11 18.5 23.5 t19.5 19.5l9 -2l7 8l12 2q20 2 51 -8q13 11 15 20q1 1 9 1q3 0 4 5q-4 5 -4 10q0 4 13 24.5t15 28.5q1 1 4 1q1 0 3.5 -5.5t4.5 -5.5q6 -29 29 -84t29 -85l-22 -5l13 -16l15 4q12 -25 31 -58q15 -27 32 -64q-5 -4 -6 -12q8 0 32.5 -38t22.5 -45q6 -2 12 -7v-3 q-1 -9 7.5 -26.5t10.5 -27.5q7 -5 7 -20q0 -3 12 -6q17 -38 29 -48q33 -29 37 -31q31 33 53 33l13 -2q-1 -9 4 -11q-31 -13 -43 -21q-21 -14 -35 -35h-5q-6 0 -7 -12.5t-11 -12.5q-7 -7 -17 -26q-6 -13 -19 -31q-1 0 -85 60q-5 4 -8 19q-4 10 -14 8q-14 15 -20 39 q15 4 15 14q-5 11 -5 13q0 3 4 13t4 15q0 9 -18 5q-6 9 -12 16.5t-20 9.5q-5 5 -12 6l-4 -10h-128q-3 -2 -8 -22q-5 -16 -13 -16q-4 0 -7 1q-5 -2 -9 -12q5 -2 6.5 -12t5.5 -13q-5 -6 -8 -21q10 -3 28 -12q22 22 33 22l10 -4q5 -3 5 -6t-10 -5.5t-12 -5.5q-33 -29 -46 -44 q-22 -27 -29 -59h-5q-2 0 -25 23q-4 5 -18 18q8 6 8 9q0 2 -3 4l-4 5q-21 -6 -19 -6q-10 5 -25 11t-18 17q-7 -5 -54 -5q-55 0 -68 -57q0 -14 2 -17.5t14 -9.5q20 15 56 16q15 -7 15 -11v-6h-9l-4 6q-18 -2 -36 -20q2 -1 2 -5q-1 -2 -4 -9q-1 -7 2 -10q-1 -5 -8.5 -6.5 t-8.5 -4.5q-8 4 -24 15q-21 19 -26 50q-1 8 -1 16zM338 388l11 -12q2 -6 2 -11q0 -8 -4 -17q3 -3 22 -3q16 -1 19 -10q31 11 66 5l2 9h-5q-7 0 -29 47l-29 60l-17.5 -42.5t-37.5 -25.5z" />
<glyph unicode="B" horiz-adv-x="588" d="M13 33q1 11 16 37q13 16 43 43q11 -1 27 3q4 23 20 34q25 18 27 20v27q0 57 -1 65q-2 0 -5.5 -1t-5.5 -1q-6 3 -14 8q-3 -2 -1.5 -9.5t-1.5 -9.5l-3 -2l-2 -3q12 -4 25 -24q0 -18 -16.5 -26.5t-33.5 -5.5q-22 12 -25 27q-4 26 30 48q43 29 52 40q0 32 -1 52v26t-1 1 q2 18 13 38q0 9 -2 10q-2 -4 -5 -4q-4 0 -8 4q0 59 -8 79q-6 -2 -24.5 -16t-20.5 -20q1 -1 1 -4q0 -2 -1 -6q0 -4 8 -5q7 14 5 15q13 10 20 -9q4 -14 -13 -27q-28 -5 -31 13q-1 1 -13 18q9 31 40 58l58 42l34 27q71 56 115 105q16 3 17 -11q-7 -3 -7 -10q0 -10 10 -19 l66 -55q-5 -6 -8 -21q24 4 38 -6q1 -4 33 -40q21 -23 30 -48q-3 -21 -3 -52q-6 -18 -53 -54q15 -10 36 -39q-12 -13 -12 -17t6 -4q8 0 29 7q38 -38 52 -57q6 -8 24 -44q-8 -5 -20 -15q1 -3 8.5 -8t8.5 -4q2 0 6 3.5t8 2.5q2 -2 2 -6q0 -5 -4 -14t-4 -13q-14 -39 -58 -73 l-81 -53q-24 -21 -55 -59q-12 5 -35 21q-30 22 -30 36q0 5 3 8l-14 25q-1 -3 -10 -10.5t-9 -12.5q-85 30 -110 30q-27 0 -60 -9q-27 -14 -37 -21q-15 -12 -26 -34v-21q1 -11 12 -23q7 5 19 15q10 6 20 6q12 0 30 -12q9 -9 7 -19q-23 11 -27 11q-3 0 -25 -22q1 -5 -9 -16 q-10 1 -32 15q-32 20 -33 75zM251 462l15 -10q1 -10 -2 -50q1 -6 9 -7.5t11 -3.5l19 14q3 2 67 40v11q-3 4 7.5 7.5t13.5 2.5l-29 15q-11 27 -51 51q0 13 -18 19q-24 7 -26 10l-3 -85zM259 268l14 -13q-1 -57 -1 -79q12 -1 24 -1q15 -4 19 -21l18 17q48 -10 60 -13 q40 -12 54 -23q21 19 16 37q-5 5 -12 22q-6 13 -19 19q-2 2 -2 6q1 3 11 26q-7 -1 -13 -1q-21 0 -63 33q-21 17 -93 49v-45q0 -4 -13 -13z" />
<glyph unicode="C" horiz-adv-x="596" d="M15 302q0 11 23 15q27 4 33 11q-2 5 -28.5 11.5t-26.5 13.5q0 16 9.5 63.5t15.5 60.5q44 92 116 138q5 -7 21 -18q1 1 1 17q0 13 6 21q44 22 59 28q36 14 69 16q40 2 92 -11q72 -18 122 -61l7 -9q-3 -7 -8 -7q-3 0 -8 3t-7 1q-25 -19 -33 -35q-3 -9 -5 -17q-1 -2 0 -13 t2 -12l8 -15q12 26 34 36q22 6 37 -0.5t26 -24.5q-5 -8 -10 -7q-3 10 -11 10h-21q-18 -14 -15 -35q1 -8 6 -8q4 0 11 1q3 0 3 -2q0 -11 -14 -11q-31 0 -57 11q-20 9 -37 31q-26 36 -26 66q0 9 1 19l-1 4q-5 1 -17 6t-28 5q-21 0 -42 -9q-10 -5 -22 -10l-15 13q-5 -5 -5 -32 q-13 -6 -29.5 -26t-29.5 -32q-2 11 -29 11q-9 0 -9 -5q6 -13 25 -27q-21 -22 -39 -79q-15 -52 -15 -87q0 -73 43 -143q-10 -31 -27 -47q6 -3 11 -3t16 4t17 4l49 -26q12 -6 47 -9q33 -3 38 0q10 5 54 18q34 9 52 26l33 -6q-2 17 -2 14q0 14 8 19q14 8 29 26q25 15 39 37 q8 17 17 34q5 -2 9 -6q-1 -27 -15 -62q-31 -77 -108 -139q-69 -55 -186 -55q-28 0 -49 7l-3 1q-7 2 -20 8v18q0 15 -3 15q-1 0 -15 -17q-4 -5 -6 -5q-3 0 -3 1q-49 22 -93 76q-47 58 -52 107l8 4l2 -1q8 13 8 36q-27 -9 -24 -9q-4 0 -9 26q-4 20 -4 28z" />
<glyph unicode="D" horiz-adv-x="647" d="M13 4q-5 35 15 80.5t50 65.5q6 9 28 20t26 16v44q2 24 18 26q1 8 4 20q-6 4 -20 10q0 16 -2 39q-2 20 17 36q-15 4 -17 24q-1 10 -1 104v124q-24 17 -44 25q3 -6 -11 -17q-13 -4 -24 11.5t-7 31.5q3 6 10 9q4 2 13 5q19 -11 58 -26q66 -17 109 -17q14 0 128 15 q33 4 45 14q32 8 94 35l4 -8q-2 -3 -2 -7t10 -11.5t10 -11.5q5 -11 32 -47q21 -29 18 -52l-5 -2q1 -1 20 -14q12 -8 14 -18q31 -43 31 -142q0 -21 -2 -46q-22 -7 -47 -20q-1 -21 20 -25q9 -2 26 -5q1 -9 1 -19q0 -26 -12 -65q-16 -52 -19 -64q8 0 19 -4q2 -6 -3.5 -14.5 t-11.5 -8.5q-29 6 -58 -3q-8 3 -61 -25q-17 -6 -62 -41q-1 1 -11.5 -10.5t-10.5 -12.5q-8 -17 -26 -28l-57 46q1 9 -5 29q-12 -15 -21 -15q-5 0 -8 3q-10 3 -26 20q-15 14 -30 14q-35 21 -73 16q-19 -2 -46.5 -19t-34.5 -34q-7 2 -20 -5q3 -2 3 -4t-5.5 -11.5t-3.5 -14.5 q-2 -11 -2 -19q0 -7 2 -10l-2 -5l2 -3q3 2 19 19q9 12 19 8l39 -6q16 -19 17 -30q-9 -5 -10 -4l-12 13q-7 6 -15 6q-1 -7 -8.5 -9.5t-9.5 -8.5t-2 -31q-8 -4 -20 0l-23 8q-10 13 -21 25q-12 17 -9 31zM224 298q22 -6 45 -22q-4 -15 -4 -44v-50q29 -7 48 -13q35 -12 49 -38 l29 11q22 -10 58 -40q1 6 8 20q-1 10 10 25q9 19 21 72q15 13 33 34q-26 -3 -29 3q6 14 10 45q2 19 3 37q4 10 29 18q2 4 -9 29q-6 -3 -16 -13q-4 2 -4 9q-2 56 -54 135q0 14 5 19q-5 -4 -10 -4q-8 0 -21 16.5t-18 19.5q7 6 3 18q-7 -3 -23 2q-15 23 -38 23q-11 0 -40 -7 q-25 -6 -40 -4v-91q3 -10 -10 -19t-11 -13q7 0 19 -9v-59q0 -5 2 -1v-13q0 -65 -5 -74q-1 -3 -22 -10t-18 -12z" />
<glyph unicode="E" horiz-adv-x="717" d="M17 -4q0 13 3 36l24 56q40 60 82 84q0 23 4.5 25.5t11.5 4.5l3 2q16 10 17 8q5 0 -2 3.5t-13 2.5q-18 -2 -21 5q0 23 1 37v31l22 4q21 4 21 7q-21 5 -43 18v73q9 9 30 23q2 16 -2 20q-4 0 -11.5 -6t-9.5 -6q-5 0 -8 6v137q-3 2 -5 2q-4 0 -30 -15q-1 -4 6.5 -12t7.5 -12 q0 -3 -1 -5q-25 -19 -29 -17q-2 4 -10.5 6t-10.5 6q-7 26 10 42q7 11 29.5 21.5t29.5 18.5q6 -1 14.5 6t12.5 7t9 -4q4 12 12 10q32 18 94 69q2 2 9 12t10 10q7 0 28 -32q19 -7 37 -12q11 0 27 -5q2 -2 7 -38q7 11 20 26q8 2 24.5 -20t17.5 -31q4 2 8 33.5t12 31.5 q78 8 123 25l21 -81q23 -68 51 -68q8 0 18 7q2 1 6 10t11 9q8 0 8 -9q-1 -12 -2 -13l-21 -28q-8 -1 -17 -1q-31 0 -53 21q-6 -6 -31 -8q5 4 -6 16q-8 -5 -18 -19q-5 -2 -45 -5q-5 6 4 16h-16q-3 0 -12.5 -10t-52.5 -10q-37 0 -67 10q-2 13 -6 32q-10 5 -35 -19q-8 -2 -17 -2 q-17 0 -32 9l-16 9q-5 0 -5 -100q-1 -2 -20 -20q-15 -14 -14 -21q12 5 20 5q7 0 11 -4q43 -12 77 -12q41 0 99 21q7 4 49 23q9 7 25 18q-1 -5 4.5 -11.5t5.5 -8.5q0 -1 -29 -35q-19 -17 -56 -53q-34 -31 -37 -65q17 -10 16 -18q-9 -11 -20 -9q-20 16 -9 54q0 9 -4 15.5 t-4 8.5q-5 2 -29 16q-15 10 -35 11q24 -1 -45 -1l1 -90q-11 -20 -29 -44q7 -3 23 -6q7 -2 6 -6v-30t0 -15q2 1 30 1q77 0 95 -4q24 -2 68 -15q2 -2 3 -29q0 -17 7 -15l19 19q8 18 31 15q20 -3 40 -5q28 -5 43 -13q6 2 35 11q-3 0 34 13q3 3 8 14q1 10 12 14q12 -3 26 -14 q6 -38 -34 -47q-35 -8 -67 -32q-14 -10 -25 -10q-7 0 -13 1l-28 -4q-3 -1 -1 -11q2 -6 14 -11t12 -6q-7 -8 -34 -51q-18 8 -71.5 16t-78.5 22q-2 2 -4 23t-6 21q-12 -13 -35 -32q-45 5 -133 17q10 16 10 24q0 5 -13 7q-16 2 -19 8q-5 -18 -22 -35q-70 7 -100 -60 q-1 3 -4 -15q-1 -9 3 -15q0 -3 9 -12l7 -2q-3 7 -3 19q10 13 25 13q10 0 24 -7q4 -12 3 -14h-8l-4 5q-10 1 -20 -19q-4 -11 -6 -38q-5 -4 -10 -4q-8 0 -31 16q-21 21 -24 26q-8 12 -8 32z" />
<glyph unicode="F" horiz-adv-x="616" d="M12 25q0 23 17 46.5t34 27.5q9 2 19 0q10 -4 16 -1q-4 12 -4 22q0 18 39 33v120q1 1 54 43q-27 -1 -54 5v99q12 1 33 7q2 11 2 18q0 6 -2 8q-12 1 -35 17v75q-5 4 -25 -7q-1 -5 5.5 -14.5t6.5 -13.5t-1 -7q-25 -18 -28 -17q-3 5 -11 6.5t-10 5.5q-8 26 10 42 q7 11 33 23.5t33 21.5q32 -3 54 -25q2 3 -5.5 21t-7.5 22t2 3q37 23 103 77q19 -23 41 -34q40 -13 88 -11q8 0 73 12q17 -34 24 -34q8 0 5 39q20 4 57 15q46 -142 75 -142q12 0 20 20q4 10 13 8q10 -1 10 -9q0 -3 -3 -12t-2 -11q0 -10 -10 -17t-11 -9q-33 -6 -60 20 q-13 -6 -58 -15q-36 -6 -54 -3q-15 18 -9 26q-13 14 -26 14q-19 0 -27 -32q-3 -12 -10 -13h-16q-27 1 -61 11q-7 2 -42 17t-36 15q-5 0 -6 -36q-2 -4 -31 -6q-8 -1 -7 -6q2 1 39 -32q4 -2 4 -25q-1 -27 0 -29q1 -5 5 -5q19 -8 42 -3l18 -24q17 17 46 22q56 9 96 23 q25 10 27 9l-1 -1q8 -10 7 -21q-2 -12 -13 -14l-57 -53q-33 -32 -37 -65q4 3 10 3q11 0 11 -9t-8 -16t-17 -5q-19 16 -8 54q1 2 1 5q0 2 -7 8.5t-7 9.5q3 9 3 15q0 10 -6 10q-7 0 -21 -8q-19 9 -46 9q-30 0 -33 -11l-3 -75q-3 -6 -32 -21q1 -5 1 -10q5 -12 4 -14 q0 -2 13.5 2t13.5 3v-69q8 -3 14 -6v0h2q-3 0 3 -4q-4 -11 -4 -16q0 -10 11 -3q5 3 15 10q6 -3 18 -5q4 1 13 8.5t16 7.5q8 0 18 -8q-21 -22 -60 -69l-26 11l16 -37q-3 -4 -21 -45q-1 -2 -22 9.5l-21 11.5q-11 8 -68 27q3 9 3 16q0 15 -13 15q-17 0 -29 -20q-17 2 -33 -1 q-19 -4 -25 -4q-10 -7 -26 -31q0 -38 18 -43q0 7 4 22q10 14 25 14q10 0 23 -8q5 -12 5 -14h-13q-7 0 -8 1q-7 1 -10 -5q-2 -10 -3 -11q-2 -6 1 -16t3 -15q-19 -1 -50 15q-36 39 -36 65z" />
<glyph unicode="G" horiz-adv-x="656" d="M19 337q0 18 11 64.5t19 62.5q3 7 16.5 12.5t13.5 7.5q-3 6 -16 13q51 80 99 100q4 -5 21 -7q4 4 3 11q-3 10 0 13q73 56 176 56q40 0 74 -12q52 -12 103 -52h3q4 0 4 -9q-5 -11 -15 -11q8 0 -21 6q-23 -8 -30.5 -16.5t-14.5 -33.5l-2 -21l14 -26q10 22 31 39q11 2 34 5 q14 -5 25 -23q-2 -11 -7 -10q-4 11 -13 11q-13 0 -26 -11t-13 -23q0 -15 22 -9q2 -1 2 -5t-2 -7q-22 -9 -43 -9q-42 0 -71 39q5 13 8 28l-14 10q-5 8 -5 39q0 13 2 24l5 5q-7 2 -15 2q-25 0 -37 -6.5t-30 -13.5l-18 21q-8 -3 -16 -7q-14 -6 -14 -11t11.5 -14t10.5 -10 q-89 -47 -113 -114l-53 -3q4 -4 21 -25.5t17 -24.5q0 -2 -4.5 -15t-4.5 -18q0 -16 -3 -25.5t-3 -8.5q0 -2 -9.5 -14t-9.5 -17q0 -2 2 -3q-1 -6 13 -8t14 -7q0 -105 114 -176q19 -11 60 -33q6 -6 3 -20q2 -1 6 -1q3 0 10 5l14 14q87 13 153 110q-1 -1 -15 -3l-23 -3 q-13 23 -31 23h-4v-26q-23 -6 -39 -2l-27 3q1 -2 1 -27q0 -10 -14 -21t-27 -11q-12 0 -24 7q-5 9 -5 17q0 13 9 26q9 5 14 5q10 0 12 -5.5t6 -15.5q5 3 5 16q0 7 -19 47q0 4 3.5 9t3.5 8t-1 4q-8 -4 -10 -4q-1 0 -18 36.5t-17 46.5q0 6 2 14q14 0 19 -7l-2 -8l3 -9 q15 -16 34 -18l40 -5q0 -16 7 -16l9 1q2 5 5 15h7q21 -3 51 16q2 -1 5 -1q4 0 12.5 7.5t10.5 8.5q4 17 14 21q7 -9 11 -26q4 -22 7 -27q26 -55 99 -94l-9 -16q-5 3 -21 8l-50 -64q-30 -37 -60 -55q-2 5 -7 4l-15 -2l-17 -24q-6 -9 -82 -28q-32 -8 -88 -8q-38 0 -66 16h-6 q-8 0 -14 5q0 23 -11 23q-5 0 -15 -8q-60 28 -88 72v24q-2 1 -4 1t-7 -3t-7 -3q-9 0 -24 40q-14 37 -15 52l8 4l2 -1q14 23 14 41q-1 -1 -11 -13t-18 -12h-3q-11 33 -11 47q0 7 11 16l15 13q-5 11 -16 21.5t-11 9.5z" />
<glyph unicode="H" horiz-adv-x="791" d="M10 -15v34q10 48 39 79q11 8 38 26q8 3 28 14q15 10 64 29v93l-49 -9q-17 0 -32 9q-18 25 -12 45q8 32 30 42q9 3 22 -4q2 -2 -1 -6.5t-3 -5.5q8 -8 7 -16q-4 0 -3 -4.5t-2 -5.5q-8 -3 -23 -10q0 -1 6 -15q5 -4 8 -4q5 0 12 4.5t11 4.5q3 0 8 -4q4 1 8 13q4 9 13 7v86 q0 19 33 37q0 3 -6 5l-26 18q2 40 -1 119q-13 3 -35 -8q-26 -12 -34 -13q-12 -22 -7 -34h2q1 3 5 19q11 6 17 3q6 -1 5.5 -8t3.5 -9q-11 -28 -27 -29q-12 3 -35 17q-2 28 7 30q2 7 11 22q14 17 51.5 36.5t51.5 33.5q4 -2 6 -2q5 0 8.5 10t5.5 11l29 28q18 19 23 32 q9 -3 21.5 -19.5t18.5 -20.5q23 -14 45 -34q-2 -6 -11 -5.5t-11 -5.5q-3 0 -7 3l-7 -4v-139q-1 -3 -4 -3t-11 9.5t-11 9.5q-11 -6 -9 -14q2 -4 11 -9.5t10 -8.5q14 -21 14 -35v-56q5 1 18 9.5t21 8.5q7 0 14 -4l5 7q0 13 51 26q48 13 65 9l4 -18q4 0 13 7q0 9 11.5 14.5 t11.5 22.5q2 4 12.5 6t11.5 8q-10 1 -24 2v147q-7 1 -18 -12t-16 -13t-11 8q-3 13 7 24q2 2 22 17q10 8 33 29q4 -1 12 4.5t11 5.5q2 0 5 -2q-1 3 -1 5q0 6 12 13.5t14 10.5q-2 1 13 6q-1 -4 12 -7q20 -24 51 -51l2 -13q10 -2 18 -10l15 -18q27 -31 25 -43q-8 -21 -35 -13 q-8 12 -7 19q7 -1 15 5q-2 7 -13 14t-13 10l-2 -4v-70q-5 -3 -11 -8l-3 3l-3 -4q-2 1 -5 1l-2 -1q14 -11 15 -34l3 -43q2 -5 10 -14q14 -10 38 -23q4 -3 8 -14t12 -11q13 -26 17 -48q1 -7 -5.5 -20t-5.5 -20q-6 0 -11 -6t-10 -5q-1 5 -11.5 7.5t-9.5 11.5q-1 2 -10 9t-9 13 q0 9 12 16q8 5 9 11q6 0 14 -7q2 5 2 10q0 9 -13 18l-23 14q-3 2 -8 1t-5 -6v-79q-3 0 -6 -4q1 -9 -6 -12q17 -13 8 -46q-2 -6 -13 -18q3 -5 12 -5.5t12 -3.5q3 -4 -1 -11.5t-4 -10.5q-11 2 -14 -6q-2 -6 6 -8.5l8 -2.5q0 -28 3 -32q1 0 11 -2q7 -1 11 6q5 0 18.5 4t19.5 4 q8 0 14.5 -5t10.5 -3t7 -8q2 -8 -5 -15q-19 1 -30 1t-14 -1q-3 -7 -19 -18t-20 -19l-10 3q-2 -7 -2 -10t2 -4l-52 -83q-11 0 -16 5q-16 16 -21.5 33.5t-9.5 22.5q-1 3 4 8l5 5q0 3 -5 5q-2 -5 -8 -5t-14 4q-8 10 -28 24t-28 24q0 21 10 24q4 -3 7 -3q11 0 11 27v51 q4 1 9.5 7t11.5 5q2 7 -5.5 14.5t-15.5 8.5v108q2 11 -9 11q-7 0 -22 -4.5t-21.5 -4t-18 -4t-15.5 -4.5q-6 0 -12 3l-9 8q-11 -15 -33 -24q-17 -6 -38 -16q-13 -6 -36 -22q0 -63 -11 -79q-9 -6 -9 -13q0 -13 20 -13v-52q12 0 30 -13l3 -12q13 14 21 18q5 2 6.5 -4t3.5 -6 q3 0 4.5 1.5t3.5 1.5q3 0 6 -4q-3 -22 -25 -47q-25 -28 -28 -38q-2 -3 -13 -26q-1 -9 -8 -20q-9 0 -18 -1q-1 6 -19.5 21.5t-18.5 24.5q0 6 6 13q-1 2 -4 2t-7 -2q-7 -5 -11 -3q-29 22 -65 22q-25 0 -52 -11l-12 25q-3 -1 -6.5 -15.5t-11 -18.5t-33.5 -23q-22 -18 -22 -32 q2 -14 4 -14q-1 0 9 13t24 15h15q11 1 19 -7t13 -30q1 -6 -4 -16q-5 0 -9 10q-2 3 -10 5q-3 6 -15 4q-2 0 -20 -21q0 1 -1 -15q-1 -13 0 -20q-4 -1 -8 -1q-25 0 -38 20t-15 40zM226 653l3 -1v-4z" />
<glyph unicode="I" horiz-adv-x="445" d="M18 0q0 -2 8 31q8 30 19 32q-3 1 -4 4q0 3 8 11l8 10l26 37q33 29 52 29q10 0 18 -5q10 24 43 24q10 0 21 -4v51q3 19 19 30q2 3 2 5q0 5 -6 8q-4 -3 -7 -3q-4 0 -8 3v53q-1 5 6.5 15.5t7.5 15.5q0 7 -14 13v208q-14 -1 -33 -13l-31 -19q-7 -6 -8 -13l1 -3q3 6 20 6 q1 -4 7 -8q1 -17 -20 -26q-10 -1 -35 10q-1 2 -4 11q-1 2 -1 6q0 6 5 15q13 17 48 48q3 2 61 54q22 -13 30 -13q5 0 5 8q0 5 -2 14t-2 14q0 7 5 10t19 19q8 12 18 12q6 0 14 -3q21 -20 51 -61q3 3 6 3q2 0 25 -15q1 -1 3 -4q3 3 3 0l-3 -2q7 -6 7 -13q0 -4 -4 -10 q-3 -2 -19 3q-14 2 -15 -3q-5 -6 -17 -16q0 -41 1 -123.5t1 -123.5q0 -5 -10 -11t-10 -7q0 -4 21 -9v-78q-3 -1 -10 -7q0 -4 5.5 -10t5.5 -15v-25q0 -6 13 -26l16 -8q8 -4 8 -13q10 16 34 25q5 1 6 -2t0 -8q0 -16 -29 -32q-23 -13 -28 -27q-11 -2 -13 -1l-2 1q3 -4 3 -7 q0 -7 -11 -19t-13 -18l-21 -36q-1 -3 -12 -3q-5 8 -22.5 14.5t-24.5 15.5q11 10 23 28q-5 1 -18.5 -8t-17.5 -9q-5 0 -6 9q3 5 1 17q-3 0 -7.5 -5.5t-7.5 -5.5q-2 0 -4 2q-6 12 -28 17q-25 6 -31 12q-2 -1 -4 -1q-5 0 -13 8t-9 8q-3 0 -3 -15q-3 -5 -9 -3l-9 3 q-65 -62 -63 -88q-3 -5 0 -10q7 -8 8 -10t4 -2q6 0 14.5 6l17.5 12q6 -1 17.5 3.5t16.5 4.5q8 0 12 -5l4 -11h-22q-14 0 -15 -15q-17 -4 -21 -30q-1 0 -3 -1l4 -5q-6 -10 -12 -10q-4 0 -7 4q-18 9 -30 30z" />
<glyph unicode="J" horiz-adv-x="557" d="M13 176q0 22 16 35q-2 10 -3 11h-4q-2 20 32 80q2 7 19 11.5t18 18.5q22 2 64 18q1 0 27 -4q15 -1 15 -14q-3 1 -11 1q-14 -14 -31 -47q-5 -5 -2 -7q11 -8 25 -29q8 -2 16 10l3 12q9 -3 11 -8q0 -3 -7 -22l-20 -11q-25 6 -27 7q-16 6 -21 16q0 6 -12 16.5t-12 17.5 q0 4 2 8q-17 -5 -32 -47q-2 -4 -4 -31q-2 -18 -14 -26q16 -7 25 -20l17 -23q27 -27 32 -29q-5 -2 -10 -9q6 -3 14 0q12 4 14 4q4 0 8 -5q31 -10 54 -10q19 0 35 7q9 4 9 1q10 -11 24 -25q12 1 11.5 21t2.5 21q32 8 65 54v149q10 5 21 21l-21 1v69q5 0 32 14q3 3 -2.5 15 t-5.5 13q-4 0 -11.5 -11t-12.5 -10v127q-7 10 -16 10q-6 0 -21 -8.5t-22 -8.5l-30 -23q9 -2 19 -17q0 -6 -8 -17q-6 1 -19 -7q-9 3 -19 20q1 28 24 50q2 1 45 33q38 21 100 86q15 0 20 -5q11 -13 12 -14q-8 -25 -8 -32q0 -13 8 -15q31 15 32 22q16 -11 48 -30l-1 -13 q-1 -8 -9 -10q-2 2 -14 6v-137q-37 -24 -37 -30q24 -5 37 -42v-98q-1 -3 -10 -5t-8 -8t9.5 -11t8.5 -16v-13q2 1 11.5 10t14.5 9q7 0 13 -13t-31 -35q-40 -44 -51 -77q-9 -24 -13 -89q-15 -1 -18 9l-4 10q-2 0 -6 -4q-40 -53 -136 -53q-29 0 -52.5 5t-22.5 9l-11 13 q-2 -1 -7.5 -8.5t-8.5 -7.5t-5 3q-36 10 -48 16q-25 11 -38 29q-3 4 1 15q3 10 -4 14q-2 -2 -8 -13q-4 -6 -14 -5q-10 15 -33 36q-19 64 -19 69zM270 532h2v3h-2v-3z" />
<glyph unicode="K" horiz-adv-x="728" d="M15 33l1 13q14 2 23 7l1 5q0 7 -17 10q6 24 24 41q10 22 36.5 37t50.5 14l10 -1q7 -12 25 -33q7 15 15 30q5 5 33 5q-1 2 -1 16q9 15 27 25v5l-8 13l-18 3v82q-22 0 -42 -36q12 -1 21 -6l2 -13q0 -24 -21 -24q-4 0 -15 5t-15 6q-6 10 -9 41l22 22q14 12 26 15l23 20 q8 8 8 40l18 3q16 0 18 18q1 12 -10 14q-10 3 -32 -2q0 42 1 87v46l-10 4q-33 -8 -47 -42l3 -4l8 13q25 0 25 -22q-12 -13 -40 -13q-12 6 -14 16q-1 7 -2 15q7 21 44 57t56 36q9 0 11 -9l1 20l25.5 20.5t15.5 22.5l15 4q15 -7 67 -62q11 -5 27 -14q0 -19 -14 -19 q-2 0 -11.5 6.5t-12.5 7.5q-8 -5 -18 -16v-85q-18 -6 -27 -16l27 -11v-54q12 7 36 17q32 -11 34 -10q2 2 -9 14.5t-8 14.5q10 7 62 54l13 -4l5 10v7v7l42 60q16 28 16 74q0 10 2 16q2 2 9 4l12 -29q12 -31 38 -51l-4 -13l3 -2q5 4 8 10l75 -26l11 1q4 15 7 15q-6 10 -18 15 l-3 -9h-3q-7 3 -10 9q4 13 21 13q34 0 36 -42q-15 -38 -54 -62.5t-82 -24.5q-7 0 -18 5l-6 11q-9 -11 -21 -11q-6 0 -33 12q-27 -10 -36 -38q15 -22 53 -54v-2l-6 -11l6 -2l17 6q23 -19 70 -47l18 3q12 0 12 -23l-11 -6q-2 1 -13 5q-7 2 -12 1v-54q-1 -3 -18 -22l1 -5 q9 0 17 -6q0 -37 4.5 -48.5t28.5 -35.5q5 -1 12 -1l13 6t22 6t27 -4l8 -17q0 -16 -9 -24q-8 2 -21 11l9 14l-8 3q-18 0 -61 -47l-31 20l17 -36l-18 -48q-12 -28 -30 -30q-11 0 -20 11l9 19q-24 15 -49 54t-25 65q0 13 7 20h2l10 5l-5 12q-4 -4 -9 -8q-15 0 -15 68 q0 17 -8 26t-18 18q3 8 7 26l-3 9q0 2 -1 11q-13 -21 -21 -32q-32 20 -83 61q1 -81 1 -84q-2 -36 -17 -35q6 -11 16 -24v-86l10 -5l15 -16h1q4 0 13.5 8t12.5 9q14 0 16 -13q-19 -20 -53 -53l-11 5l-4 -4l4 -14q-10 -23 -31 -50q-14 4 -32 20q-22 19 -31 24l-5 13l3 12l-4 2 l-20 -11q-80 20 -108 20q-55 0 -69 -65l7 -15l15 11q17 4 40 4q19 0 19 -15q0 -9 -6 -11l-7 11q-3 -1 -12 -5.5t-15 -4.5q-4 -5 -9 -32q8 -5 14 -10l-12 -4q-69 18 -67 91z" />
<glyph unicode="L" horiz-adv-x="675" d="M13 20q2 14 21 17q2 5 -4.5 11t-6.5 9t2 6q44 64 81 80q3 -1 5.5 -6.5t7.5 -4.5q1 22 15 24q6 1 12 2.5t12 2.5v97q5 0 5 11q0 5 7.5 6t8.5 1q10 5 21 19q-28 3 -43 14v85q2 0 11 4q0 6 -5.5 9.5t-5.5 11.5q0 90 -3 136q-46 -24 -59 -54q4 -1 11 1.5t9 2.5q5 0 9 -8 q1 -4 -2 -12t-3 -11q-5 -4 -11 -4l-31 15q-4 38 18 49q15 18 50 47l3 -3q6 9 6 14q0 3 -1 4q25 22 78 113q23 -24 77 -61q9 -1 19 -14q-1 -5 -10 -12q-22 0 -33 11l-4 -4l-1 -107q1 -9 -11.5 -16t-10.5 -16q10 10 15 7l3 -3q3 -79 -5 -96q3 -4 3 -7q0 -4 -5 -11.5t-6 -10.5 q7 -1 17 -17l-3 -100q0 -6 -12 -8q12 -10 15 -28v-63q10 -7 35.5 -9t35.5 -7q0 -11 5 -16l30 15q16 0 17 -2q17 -1 49 -4q9 -2 13.5 -10t7.5 -15v-1q3 -1 11 11t11 14q13 3 29 6q6 2 84 36q10 0 21 14t19 15q5 3 5 5q0 3 -3.5 8.5t-3.5 7.5q0 4 4 8q12 7 18 7q2 0 3 -1 q5 -1 5.5 -9.5t4.5 -10.5q-6 -12 -25 -29t-25 -28q-10 -19 -35 -59q-3 -4 -6 -4t-10 5.5t-11 4.5q3 -40 -4 -54q-12 -20 -28 -59q-9 -2 -22 4q-17 9 -25 10q-3 3 -9 15q-2 -6 -9 -10q-7 1 -14 0t-10 10.5t-5 23.5l-13 -27l-106 29q-5 0 -14.5 5t-12.5 6q-1 6 -7 17 q-5 -11 -14 -16q-3 1 -46 8q-29 5 -47 4q-10 6 -48 5q-2 -1 -34 -7l-22 13q0 -25 -4.5 -31.5t-13 -15t-8.5 -11.5q0 -4 1 -8q-4 -9 -4 -18q0 -13 10 -24l7 -5q7 9 26 18l-4 -2q0 8 10.5 14.5t11.5 11.5q14 -1 27 -1q15 -4 16 -18q3 -7 3 -11q0 -5 -4 -7h-9q3 9 -11 15 q-9 -1 -16 -18t-15 -20q3 -4 3 -6l-17 -15q-48 7 -72 59z" />
<glyph unicode="M" horiz-adv-x="878" d="M19 24q0 43 24 83q3 1 9.5 -2t8.5 -3q3 0 5 5q-8 11 1 19q29 26 74 34l1 45q11 3 24 16q-3 -1 -7 -1q-14 0 -17 22q0 13 1.5 38.5t1.5 38.5q21 9 17 20v5l-17 3v94q16 4 16 12q0 2 -2 3q-14 5 -14 11q0 92 -3 110h-9q-19 -14 -53 -44q4 1 10 1q5 0 13 -1q8 -4 12 -26 q-2 -6 -13 -6.5t-13 -4.5q-22 3 -31 19q-1 7 -1 13q0 21 57 59q70 47 145 121q10 0 15 -5q-1 -6 -9 -16q12 -13 42 -35.5t42 -37.5q-1 -3 -1 -8t1 -12q9 14 22 14q18 -14 48 -45l-2 -1q5 -10 33 -13l62 -53q15 16 45 43q2 12 18 29q22 22 25 27q18 30 33 30q3 0 7 -1 q-2 8 4 26q4 9 23 25t22 28q8 7 16 5t8 -15q-4 -3 -11 -9q19 -22 55 -60l-2 -10q5 1 8 1q11 0 24 -15q15 -18 21 -21q0 -2 13 -14q10 -10 9 -21q-3 -3 -8 -3q-6 0 -14 3v-110q-1 -3 -8.5 -6.5t-7.5 -7.5q0 -1 1 -3q11 -8 14 -25q1 -10 0 -31q-2 -14 -2 -31l-12 -8 q14 -24 14 -59q-1 -27 -1.5 -46.5t-0.5 -15.5q-5 0 -10 -14q14 2 16 -2v-7q0 -8 8 -14q2 -11 20 -17q0 13 16 17q9 0 12 -6q-4 -11 -16 -27q-15 -18 -19 -26q-8 -6 -27 -17q2 1 6 1q3 0 8 -1v-8q-22 -28 -62 -84h-11q0 9 3 10q-13 6 -32 26l-29 29t-3 6q0 7 7 18 q-4 1 -8 15.5t-18 15.5q-2 15 -2 86q8 4 17 14q1 5 -3 8q-5 -1 -14 8v91q13 11 40 25q1 1 -2 8q-7 -5 -17 -5q-9 0 -21 4q0 79 -3 110q1 1 1 16q0 12 10 15q-2 5 -8 2q-7 -2 -9 -1q-22 32 -47 38q-41 -10 -62 -66q-2 -18 -2 -88q0 -3 -7.5 -5.5t-7.5 -5.5q0 -1 10.5 -17.5 t6.5 -25.5q16 2 20 3q13 4 17 14q-5 4 -13 16q0 16 23 33l13 -5q-2 10 8 13q9 2 17 0q14 -6 14 -18q0 -5 -2 -11q-23 -40 -97 -74q-1 -23 0 -33q2 -11 2 -32q-6 -3 -13 -7t-6 -10q15 -6 17 -20q0 -27 7 -80q7 2 15.5 5.5t6.5 11.5q7 6 19 6q6 -7 6 -12q0 -3 -2 -6 q-9 -2 -19 -16.5t-18 -16.5q0 -8 -10 -14.5t-10 -10.5q0 -2 3 -7q-5 -7 -28 -35l-26 -2q0 -1 6 -7.5t6 -10.5q0 -3 -6 -7q-20 -4 -31 17q-15 29 -20 32l4 11q-2 2 -4 2q-3 0 -6 -2q-7 -3 -11 0q-24 23 -28 28q-16 18 -18 34q7 6 10 5q15 8 16 37.5t13 36.5q-2 2 -15 6 q2 16 -3 43q-17 -5 -41 -28q6 -3 16 -12q1 -9 -19 -31q-8 -5 -18 -5q-7 0 -14 2q-9 6 -9 19q0 10 7 26q33 38 43 38q3 0 7 -1q0 -3 5 -3q1 12 22.5 22.5t23.5 25.5l-2 1q-6 -6 -13 -6q-4 0 -8 3q0 24 -1 90q-8 4 -19.5 16.5t-18.5 16.5q-2 4 -15 15q-8 7 -5 17q3 3 9 6 q-3 5 -5 5t-10.5 -6t-12.5 -4l-25 22v-81q-5 -5 -12 -5q-10 1 -12 1q18 -10 22 -33q2 -9 2 -42q-2 0 -9 2.5t-11 2.5q-13 0 -16 -23l36 -18v-93q-27 0 -27 -5q0 -2 14 -10t14 -10q0 -20 -1 -22q12 -14 29 -21q4 9 15 21q8 -1 19 -11q2 -6 -5 -12l-9 2q-2 -19 -19.5 -55 t-22.5 -51.5t-10 -15.5q-3 0 -6 2q-12 18 -44 50l6 11q5 8 2 12q-2 -1 -6.5 -8.5t-7.5 -7.5t-6 3l-3 2q-4 -2 -7 -2q-6 0 -16.5 6.5t-19.5 11.5q-11 0 -32.5 7.5t-34.5 6.5l-19 12q2 -1 1 -7q3 -7 -14 -17t-18 -13q-27 -33 -22 -74l7 -9q3 1 6 9.5t9 6.5q29 3 53 -13 q7 -8 6 -22q-12 -3 -12 -2q-3 8 -16 18q-9 -3 -21 -14q1 -6 -2 -17t-3 -15q-2 1 -24 4q-14 2 -18 13q-13 30 -14 32q0 7 4 13q-6 12 -6 31z" />
<glyph unicode="N" horiz-adv-x="876" d="M15 10q1 0 3.5 14t5 13.5t4.5 10.5q2 10 0 11q8 5 15 11q0 7 -2 7q-2 -2 -4 -3v5q16 26 28 41q6 -4 9 -4q2 0 12 17t24 21q38 13 63 13q12 7 27 21l-20 6q-1 60 0 98q9 6 25 18q0 2 3 8q2 2 2 4t-4 5q-2 -2 -10 -2q-11 0 -16 3v88q0 4 27 16q15 6 12 18q-2 0 -12 -2 q-3 -1 -7.5 3.5t-5.5 4.5q-6 -1 -14 4v65q-3 41 -36 54q-22 0 -54 -23q12 0 28 -11q4 -12 -17 -28q-5 -3 -9 -3q-6 0 -14 6q-11 7 -14 8q-6 7 -6 14q0 11 16 25t20 20l21 2q-4 10 -2 11q13 6 31 23.5t27 22.5q10 -1 18 22q22 15 65 52q17 -4 21 -23q3 -6 21 -21 q15 -13 15 -23q0 -3 -4 -8q2 -5 9 -3q6 3 9 4q30 -30 46 -30q2 -3 2 -6q0 -5 -3 -10h-19q0 -7 -8 -18l29 -32q19 -21 15 -38q4 -8 9 -6q7 3 11 0l56 -63q0 -3 -11 -19h16q-2 -5 2 -6h7q5 0 6 -2q3 -6 25 -24q17 -14 17 -26q0 -5 -2 -10q3 -3 10 -3t18 3q14 -6 29 -27 q8 -12 23 -27q-1 21 0 75l19 8q5 5 4 12q-16 0 -23 10v57q0 22 29 49q-5 5 -8 4q-3 -4 -7 -8.5t-14 -2.5q-1 1 0 53q0 31 -13 49q-6 1 -17 -2t-16 -3q-10 0 -15 12q7 16 37 34q29 25 45 25q5 0 10 -1q2 18 26 27q29 10 34 16q16 -7 40 -34.5t39 -35.5q-5 -9 -4 -11 q11 0 26 -14q20 -18 25 -21q0 3 6 3q12 -11 13 -25q-5 -10 -11 -10q-4 0 -15 7.5t-15 7.5t-8 -4q-3 0 -8 5t-7 5q-7 -5 -23 -23q2 -3 1 -4t-1 -116q-10 -3 -35 -30q9 -3 15 6q2 2 10.5 5t9.5 2v-84q-2 -12 -20 -22q20 -20 20 -32v-73q3 -5 -11 -27q-5 -5 -4 -6q8 -2 11 -16 q3 -17 21 -17q4 0 4 4q0 2 -2 5.5t-2 5.5q0 3 1 4q26 14 74 45q-7 29 -7 34q7 9 15 9q5 0 10 -2q6 -12 6 -26q0 -24 -16 -45q-5 -1 -14 -9.5t-15 -8.5q-3 0 -7 2q-5 0 -5 -8l4 -4q-46 -47 -45 -77l-14 -11q15 -12 8 -21q-4 -9 -8 -29q-2 -24 -6 -28q-21 5 -50 25 q-25 16 -32 25q-5 6 -5 22v24q-1 9 -4 14q0 3 -13 -4t-16 -7q-13 0 -15 2q-11 12 -36 34.5t-34 41.5q-14 11 -14 26q7 7 7 17q0 8 -4 19q-2 -12 -19 -29q-23 6 -60 46l-56 59q5 5 5 15q0 6 -2 15l-4 3q-2 -1 -7 -7t-9 -6q-2 0 -5 1l-36 36l-3 -4v-60q-11 -2 -31 -6 q4 -3 10 -11q10 -11 21 -8v-3v-62q-5 -6 -14 -14l14 -12v-1q3 -2 2 -9q-1 -11 -1 -17q1 -21 17 -25q4 -7 19 -11q10 13 12 28q3 3 6 3q4 0 11 -4.5t9 -4.5q5 0 9 6q4 2 13 -8q-15 -24 -50 -60q-29 -43 -29 -55q-3 -2 -7.5 -13.5t-19.5 -12.5q-7 4 -23 12q-11 8 -14 19 q-23 2 -64 38q-15 12 -22 31q-12 -12 -32 -12q-8 0 -13 5q-7 1 -13 9l-6 8q-5 0 -18 -20q-2 2 -19.5 -15t-19.5 -14q-2 -7 -21 -26q-16 -15 -12 -26q-4 -6 -4 -14q0 -7 4 -12l8 -4q7 -1 9 4q-2 8 6 11l12 6q14 1 31 -20q-2 0 -3 -4.5t-5 -3.5q-3 6 -10 6q-3 0 -8 -1 q-8 -6 -11 -20q-3 -20 -5 -22q-12 -1 -30 3q-34 46 -31 72z" />
<glyph unicode="O" horiz-adv-x="752" d="M25 366q-1 50 35 133q7 16 35 61q11 18 28 18q7 0 41 -12q0 6 -2.5 19t-2.5 19q0 19 93 59q18 5 99 18q43 -6 52 -8q42 -7 43 -18q13 -3 15 -9q0 -7 -5 -7l-10 1q-19 9 -41 9q-27 0 -53 -12v-2q-5 4 -16 0q-14 -5 -18 -5q-40 -22 -61 -42q-4 -1 -15.5 13t-15.5 12 q3 -14 3 -24q0 -11 -6 -24.5t-6 -17.5q-26 -28 -31 -35q-11 -15 -18 -42q-1 -6 -21 -14q-23 -9 -25 -12l29 -27q-3 -32 -3 -63q0 -96 35 -159q0 -5 -3.5 -12t-3.5 -10q21 -2 30 -14q1 -2 17 -31q16 -11 21 -23q55 -58 129 -58q88 0 179 71q39 39 53 67q24 49 24 127 q0 21 -1 43q-12 46 -48 111q37 9 37 23q0 7 -9 19t-9 14q0 1 2 2q-15 -14 -39 -32q-52 43 -94 63q-28 -14 -80 -53q0 -59 -1 -187q22 6 46 6q13 0 21 -11q-3 -6 -16 -13q-17 0 -43 -11t-40 -12l-24 39q-10 -8 -10 -26q0 -5 3 -22q1 -11 0 -12q-16 -21 -53 -58q-5 -1 -15 -1 q-5 2 -5 7t5 12q13 12 15 48v111q-1 5 6 16.5t7 15.5q-1 3 -2 4q-4 -1 -6 -1q-7 0 -6.5 12t-0.5 34q-1 26 -1 34q-8 1 -17 1q-13 1 -16 8q-1 6 4 17l64 1q10 1 27 11l65 22q35 17 76 52l68 63q12 6 24 21q4 -2 23 -15q2 -2 2 -5t-7 -8t-8 -9q6 -4 34 -27q12 -10 26 -25 q27 -29 43 -63q-5 -2 -9 -17t-2 -21q4 -5 8 -5q3 0 11 9t10 9q1 -1 1 -2q39 -60 39 -149q3 -11 0 -13q-6 -106 -49 -169l-11 14q-11 14 -19 14q-3 0 -6 -4q2 -9 8 -28q9 -30 6 -30q-5 -11 -31 -44q-52 -38 -95 -60q-20 -13 -38 -20l-41 -16l-25 -5q-12 -1 -32 1 q-23 -1 -37 -1t-19 1q-36 1 -114 16l-69 31q-21 14 -50 44q-34 34 -37 52l-19 32q-1 1 -1 3q0 1 23.5 15.5t18.5 28.5q-1 6 -22 6h-27q-8 1 -8 5q-6 4 -10 35q-6 50 2 71q7 1 15 12t11 12.5t3 8.5q-5 2 -13.5 -2.5t-10.5 -4.5q-7 0 -12 6z" />
<glyph unicode="P" horiz-adv-x="624" d="M18 26q5 31 12 38q4 11 24 36q8 4 51 22q7 -1 18 -7q5 14 30 16.5t30 10.5q1 1 11.5 7t10.5 14q0 2 -1 7l-2 1q-14 -16 -26 -12v30q5 0 19 15q0 2 -19 12v41q-5 2 -19 0q-12 -3 -20 2q-11 -6 -30 -26l2 -1q5 10 14 10q4 0 10 -3q13 -13 3 -24q-16 -18 -35 -14 q-2 3 -11 12q-7 6 -7 13q0 32 31 48q10 0 30.5 8t31.5 7q3 3 2 25q0 18 6 18q4 0 8 -2q13 7 13 14q0 -2 -8 12l-21 -5v93l16 8q8 4 7 9q-11 3 -23 16v69l-16 5q-9 -7 -35 -23q-12 -6 -32 -32q1 -2 3 -2q2 1 4.5 3t4.5 1q12 -11 9 -21q-9 -14 -22 -14q-7 0 -14 3 q-17 20 -17 25t3 8q0 14 17 19.5t17 16.5l65 44l11 -1q3 12 19 29q13 12 37 39q9 12 16 15q-3 7 4 11q2 -1 13 2q10 2 10 -8q-5 -6 -5 -13q0 -9 14 -18q19 -13 19 -15q40 -1 58 9l10 -10q9 1 9 7v13q1 6 10 5q14 2 37.5 15t36.5 15q0 10 11 10h17q6 2 6 -8q3 -6 -8 -16 q-2 -2 -9 3l-6 -3l28 -36q17 -24 12 -40q4 -3 5 -3q4 6 13 3q22 -16 40 -49l31 -56q1 -1 4 -12q2 -7 0 -11q-16 -18 -15 -23q8 -1 15.5 -2.5t8.5 -8.5q1 -51 -21 -80q-1 0 -10 2q-5 0 -5 -7q1 -3 1 -6q0 -2 -1 -5q-4 -5 -6 -10q-5 -2 -16 -11.5t-16 -9.5t-10 5q1 6 -4 17 q-7 -3 -6 -12v-19q-37 -26 -118 -33l-9 8q-6 -12 -24 -12t-38 5q-5 1 -28 4q1 -6 -2.5 -14.5t-3.5 -11.5q0 -4 1 -6q-25 -16 -22 -35q12 13 13 13q2 0 5 -3l9 -7q-1 -23 -1 -69q12 -2 32 -14.5t17 -12.5q0 7 13 20t15 19q1 1 3 1q7 0 16 -8q4 -4 4 -8q0 -3 -9 -9.5t-9 -10.5 q-8 -9 -34 -50q-13 -25 -37 -64l-26 26q-16 13 -30 14q-11 10 -36 19q-28 9 -38 15q-5 -1 -7 0q1 -3 1 12q-2 2 -4 2q-7 0 -14 -14q-8 6 -16 6q-4 0 -11 -2t-10 -2q-11 0 -18 16q-6 -1 -4 -7q1 -4 1 -6q0 -3 -1 -4q-46 -38 -46 -51q0 -3 2.5 -6t23.5 -26q-3 9 5 18q7 1 13 1 q14 0 24 -8q6 -11 6 -27l-9 -5q-8 20 -12 20q-3 0 -6 -2q-4 -8 -15.5 -21t-8.5 -26l-6 -6q-8 11 -28 33q6 12 6 20q-23 0 -26 8q-8 28 -6 41zM278 494q10 -8 27 -25v-109q-2 -4 -15 -7q-1 -6 9 -16q9 -4 9 -19v-23q8 -6 21 -5q12 1 23 1q3 -3 6 -3q4 0 9 6q18 -3 48.5 12.5 t43.5 20.5q15 24 26 23q-7 8 -7 19q0 5 3 18.5t2 20.5q-2 1 -8 9q3 1 4 1l-11 18q4 0 2 4l-3 -4l-23 33q-7 4 -7 11q0 4 9 15t8 15l-18 -12q-11 -4 -31 21q-3 11 -3 19q0 11 7 14q-10 -7 -19 -7q-11 0 -29 21q-21 26 -26 29q-5 -4 -13 -4q-6 0 -13 2v-94q-4 -5 -15 -5h-16z " />
<glyph unicode="Q" horiz-adv-x="793" d="M20 368q-1 58 43 130q4 0 9 -6q8 7 9 21v23q28 51 101 86q7 18 29 26l37 14q11 1 35 8.5t37 7.5q9 0 19 -4q17 -11 13 -11q4 0 7 4q11 13 54 7q2 -3 15.5 -4.5t14.5 -11.5q14 -3 15 -9q0 -7 -5 -7l-10 1q-19 9 -41 9q-27 0 -53 -11v-3q-5 4 -16 0q-15 -5 -19 -5 q-40 -22 -61 -42q-4 1 -10 1t-13 -1q1 -4 1 -6q0 -7 -9.5 -17.5t-9.5 -17.5q-40 -44 -58 -109q-2 -6 -10 -9.5t-10 -5.5l13 -7q-4 -33 -4 -64q0 -96 36 -160q0 -4 -4 -11.5t-4 -10.5q21 -2 31 -14l16 -31q17 -11 22 -23q62 -65 145 -65q19 0 38 4q32 6 37 5q11 2 38 17 l-2 -1q1 1 14 6q-4 3 -10 10q5 8 1 23q-5 -3 -9 -9.5t-7 -7.5q-9 0 -30 5t-33 4q-13 -31 -53 -31q-33 6 -36 22q-1 9 19 34q25 2 31 -9l3 -17q8 0 19.5 9t17.5 9q3 0 6 -1q-2 4 -2 9q0 6 2 9q10 5 31 29q18 20 33 20q5 0 9 -1q8 -11 -8 -16l-3 -13q4 -3 27 -7q19 -3 19 -12 q0 -4 -2 -10q1 -2 6 -2l5 7l-3 2q13 5 25 -2q19 29 37 33q2 1 2 4q0 2 -2.5 8.5t-2.5 8.5q0 6 7 10q22 45 22 106q0 29 -6 57q9 3 9 22q-2 2 -4 2l-5 -4t-8 -2l-41 103q0 11 1.5 22.5t10.5 16.5q-9 -7 -28 -18q-48 39 -100 64q-8 -9 -39 -24q-27 -13 -38 -30q0 -72 3 -95 v-28q-1 -18 -16 -21l-3 -6q8 -2 19 -15q-3 -20 6 -28q45 11 39 11q12 0 21 -11q-4 -6 -17 -13q-19 0 -53 -17t-52 -17l-4 7q-3 -1 -3.5 -8t-2.5 -9q-16 -21 -53 -59q-5 -1 -15 -1q-5 3 -5 8t5 12q19 15 17 47q-2 43 2 53q-2 3 0.5 10t2.5 9q0 4 -6 5q1 6 -2 18.5t-3 17.5 q0 11 10 17q-2 4 2.5 9.5l4.5 5.5q0 3 -2 4q-16 -2 -16 38q0 28 -6 43h-13q-10 1 -12 7q-1 6 4 17l64 2q11 1 27 11l66 22q39 17 158 113q-5 5 7 15q15 1 27 -6q2 -3 2 -5q0 -4 -7 -8.5t-8 -9.5q12 -4 22 -14.5l20 -21.5q0 -5 5 -17q33 -11 57 -62q-11 -5 -6 -22q10 2 24 -5 q40 -61 40 -150q3 -11 0 -14q-21 -11 -18 -19l14 -6q-5 -85 -45 -145q-4 -4 -13 -5q-2 1 -1.5 6t-3.5 5q3 -7 3 -15q0 -28 -39 -69q0 -2 5 -8t3 -9q-4 1 -10 -4q6 2 12 2q11 0 22 -8q20 -15 22 -15q3 3 9 3t15 -3q3 8 23 14.5t20 17.5q0 4 -2 9q3 7 11 10q10 3 17 -2t7 -16 q0 -10 -1 -15q0 -5 0 -2q-34 -27 -75 -37q-11 -3 -28 -21q-9 -1 -25 3q-3 -5 6 -15l-64 -70q-8 -2 -15 6q-1 4 10 21q-1 10 -8 26q1 2 3 7q1 5 -3 7q-8 -4 -10 -4l-31 36l-1 -3q3 7 -7 9q-14 -11 -40 -21l-43 -16q-15 -5 -38 -5q-18 0 -27 14q-9 -3 -20 -15q-64 3 -129 15 q-18 6 -36 13q-21 10 -27 25l7 9l-2 1q-2 -6 -22 -10q-71 46 -88 93l2 4q-19 17 -37 77q5 10 9 34q-7 -3 -15 3q-16 45 -3 81q7 1 15 11.5t11.5 12.5t3.5 9q-5 1 -13.5 -3t-11.5 -4q-6 0 -11 6z" />
<glyph unicode="R" horiz-adv-x="740" d="M20 27q2 0 10 6t8 8t-2 4l-13 7q5 25 24.5 55t40.5 42q13 10 49 17q8 -1 13.5 2.5t8.5 3.5q0 33 1 39q3 12 16 16q2 5 -6.5 7t-8.5 8l-2 61q-3 -3 -26 -3q-19 0 -25 -13q18 -4 26 -20q-6 -20 -20 -19q-11 0 -34 24q6 38 57 56l23 7v24q7 -2 37 -2q-3 9 -20 17.5t-17 24.5 v44q0 13 21 27l-4 4l-17 18v87q-5 3 -10 3q-7 0 -23 -8t-21 -8q-9 -7 -9 -16q11 0 28 -10q0 -22 -14 -25q-29 -7 -39 16q1 5 -3.5 12.5t-4.5 9.5q0 4 3 6q23 41 51 36q1 10 16 19l23 14q4 9 22.5 15.5t18.5 16.5q19 17 55 45q12 -2 26 -26q0 11 -3 -16t-2 -28q2 5 14 19.5 t16 12.5q17 -22 58 -18q38 8 28 8q9 0 14 -6l9 18q7 0 20.5 5t18.5 5q22 12 62 39q13 -5 17 -7q7 -6 8 -15q0 -5 -7 -10q-13 7 -20 5l-6 -6q15 -20 37 -62q-2 -3 -7 -3v0q-7 0 -9 -3q15 -22 35 -23q0 -2 31 -51q18 -29 22 -54q-2 -2 -9 -4.5t-7 -5.5q0 -2 1 -4 q1 -6 9.5 -7.5t9.5 -4.5q6 -49 -36 -88q-2 1 -4 1t-5 -1q-6 -2 -7 3q-9 -18 -53 -50q18 -7 92 -9q4 -1 3 -6q-2 -10 -4 -12t-12 -1q-13 0 -13 -10v-22q0 -12 9 -17q0 -7 -4 -9q5 -9 6 -21l-11 -13h20q19 -36 19 -49q43 -24 58 -24q11 9 25 33q3 6 21 8q1 -7 2 -22 q-11 -9 -30.5 -26.5t-23.5 -36.5l-9 -3q3 -5 3 -11t-5 -17t-5 -14q-6 -17 -18 -54q-2 0 -67 22q-7 5 -20 17l3 17q-4 2 -10.5 -1.5t-8.5 -3.5q-48 28 -48 95q0 2 4.5 8t4.5 8t-4 5q-6 -4 -19 -5q-6 16 -11 41l6 7q-9 5 -16.5 26t-15.5 26q0 4 2.5 9.5t2.5 8.5t-6 6 q-6 -3 -14 -8q-8 -4 -16 0q-35 22 -76 22q-14 0 -29 -3v-35q-2 -1 -9 -5q-2 2 -7 -7l-4 -9q14 -6 17 -9t3 -18q0 -62 8 -67q2 0 3 1q4 -5 17 -5q5 2 14 12t16 9q6 0 12 -7v-5q-29 -41 -31 -44q-20 -30 -22 -48q-7 0 -15 -23q-1 -1 -11 -19q-7 -12 -14 -10q-24 19 -24 29 q0 7 6 14q0 1 -9 3q-6 1 -8 -1l-7 -6q-16 11 -38 35q6 11 6 13l-9 15q-10 -24 -20 -19q-5 4 -12 4q-6 0 -19 -3t-18 -3q-6 0 -10 2q1 4 -5 9.5t-10 5.5q-9 -1 -9 -26q-23 -5 -38 -50q-3 -7 0 -26q4 -11 12 -26q4 8 16 26q5 4 29 12q6 -7 21 -18q1 -7 -5 -17q-3 0 -5.5 5.5 t-6.5 5.5l-12 -3l-7 -16q-6 -6 -6 -15q0 -2 1 -7t1 -7q0 -5 -6 -5q-5 0 -14 2q-58 42 -50 94zM275 393q22 -3 24 -30t5 -28l60 4q63 3 88 48q8 0 19 9q-12 16 -12 20q10 27 -4 57q-11 5 -11 16q0 34 2 26q-8 5 -12 2q-10 -3 -21 6q-2 8 -12.5 24.5t-10.5 26.5q0 7 3 11 q-3 -3 -6 -2q-2 1 -4 1q-1 0 -2 -1q-8 7 -10 12q-6 17 -33 17q-24 0 -34 -13q0 -31 -5 -95q-8 -12 -24 -5l24 -20v-58q-4 -19 -24 -28z" />
<glyph unicode="S" horiz-adv-x="608" d="M19 20q0 19 14.5 51t29.5 48q40 43 65 49q37 22 88 23q52 0 71 -6q15 -4 61 -30l-8 -46q17 11 40 23q8 -5 32 -23v69q0 21 5 21q3 0 10.5 -1.5t12.5 -1.5l3 27q-3 4 -17 2t-14 5v54q-11 3 -31 17l-1 14q-6 -4 -12 -4l-34 14l-8 10l-89 -69q-54 -42 -99 -42h-7 q-19 14 -19 26l13 16q7 8 12 8q12 0 14 -27q21 2 24 2q13 4 18 14l-3 -5h3q5 0 9 5q1 3 -8 10q-6 2 -12 6l-7 13q-4 -2 -11 -2q-9 0 -23 8t-20 9q-7 7 -44 11v4q0 10 14 20q8 -1 9 4q-1 -1 -1 25q0 14 22 21l1 5l-20 10q-3 2 -3 26t19 26l4 6q-9 2 -23 15v90q-7 11 -23 10 q-15 -3 -26 -5q-7 -1 -14 5t-7 14l11 11q15 2 18 -12q56 10 105 23q27 7 164 80q5 2 22.5 19t19.5 17q12 0 12 -12q-1 -3 -7 -17q11 -21 41 -56q0 -2 -5 -9.5t-5 -11.5l1 -4l1 -1q4 0 8.5 5.5t6.5 5.5q6 0 24 -26q15 -21 32 -21q4 0 9 1q5 -12 22 -12q26 0 60 33v5 q0 4 5.5 7t5.5 6q0 2 -3 6q5 4 5 10q0 2 -1 5h-7q-13 -1 -19 11q0 12 5 19l7 1q12 0 29 -22q4 -18 4 -21v-3q-6 -10 -16 -30q-18 -30 -59 -53q-4 0 -11.5 -7.5t-11.5 -7.5l-8 5q-9 -17 -36 -21l-44 -5q-8 5 -17 2q-1 7 7 23l-10 5l-1 -8l-10 -5q-4 -1 -9 -1q-14 0 -34 9 q-23 11 -23 23q0 7 9 15v1l-4 -1h-10q-2 0 -9 -2t-10 -2q-17 15 -43 49q-15 -6 -17 -47q0 11 1 11q1 -10 1 -68v-4q-1 3 -1 2q0 -3 1 -17l-25 -2q19 -14 20 -16q5 -6 5 -23v-1v-2v-28q0 -31 9 -37l62 -42q11 4 28.5 22.5t31.5 19.5q2 10 14 24q4 1 53 40q38 30 69 30 q10 0 20 -5q3 5 8 5q11 0 20.5 -11.5l9.5 -11.5l-12 -18q-7 -8 -17 -8q-9 3 -23 17l2 9q-5 1 -11 1q-26 0 -53 -27q14 -20 46 -39q0 -7 6 -10l2 4q16 -11 44 -14q9 -1 27 4l19 5q5 -2 5 -21v-4q-8 -6 -28 -10q-13 -3 -13 -25v-68q0 -7 -12 -9.5t-12 -5.5q0 -2 4 -10l4 2 q16 0 16 -34v-9q-18 -6 -29 -18q4 -6 29 -6q0 -25 22 -28q19 -2 19 -7q0 -4 -5 -11l1 -10q-3 -4 -11 -1q-8 2 -11 2q-8 0 -22 -3.5t-22 -3.5q-18 0 -31 11v-5q0 -13 -26 -29l-35 -20q-21 4 -24 4q-5 0 -5 -5v-20q-14 -12 -40 -43q-2 -1 -6 -1q-3 0 -13 11q3 2 3 6q0 8 -4 14 q-4 -4 -7 -4q-5 0 -13 8.5t-11 10.5q-12 11 -12 13t5 6.5t7 4.5l-31 -1q-6 4 -28 10q-5 3 -21 8l2 11q-4 3 -6 3q-3 0 -7 -4t-7 -5q-18 6 -38 6q-57 0 -107 -46q-14 -25 -14 -41q0 -11 4.5 -17t5.5 -9q4 0 10.5 9t13.5 6q0 10 6 13q5 0 14 1.5t13 1.5q13 0 21 -8v-24 q-2 0 -6 6t-8 6l-4 1q-8 0 -14 -16q-6 1 -10 -9v-8q0 -20 -17 -20q-19 0 -39 21q-27 10 -27 60z" />
<glyph unicode="T" horiz-adv-x="918" d="M16 536q0 20 13 45l10 16q4 15 28 29q11 7 75 28q49 16 115 18l27 -37q13 25 26 36q27 -6 88 -15q14 -18 25 -41q3 0 5 14t5 17q13 2 35 -2q17 -3 37 -6q90 -15 179 -3q3 -10 12 -23q21 0 19 12q-3 16 0 17q26 6 32 9q20 7 21 21q6 10 19 10q16 0 14 -17q-5 1 -13 -9 q-5 -36 16 -61q-22 -7 -22 -18q0 -5 11 -5q7 0 17 2q18 -5 47 -37q57 -46 56 -61q17 -19 -11 -31q-22 -8 -42 -7q-11 14 -10 18q-1 8 4.5 14.5t12.5 3.5q17 -2 19 -18q3 3 2 6q-1 6 0 7q-6 13 -24 26l-34 23q-21 0 -71 -14q-45 -13 -74 -9q0 11 -11 11q-9 -8 -13 -17 q-22 -7 -48 -7t-56 7l-5 -3v-88q-14 -6 -28 -20l14 -11l-5 -6q-6 -6 -4 -9q10 4 16.5 -5.5t6.5 -20.5v-81q-1 -3 -18.5 -13t-13.5 -20q2 -4 32 -4v-39q0 -56 -1 -28q1 -21 11 -20q9 15 16 15q2 0 11.5 -6.5l12.5 -8.5q-20 -19 -40 -58.5l-39 -78.5q-36 30 -73 48 q-1 1 -51 17q-33 11 -43 27l-4 3l-5 -12.5t-11 -12.5q-6 -3 -24.5 -4.5t-29.5 -10.5q-28 -21 -28 -38q0 -22 -1 -20q-2 -5 9 -20q2 -1 5 -1t7 1q-1 4 6 24q16 17 28 16q6 -4 18.5 -6.5t9.5 -11.5l-18 -6q-16 -5 -18 -22q-2 9 -2 -32q-1 -5 -11 -4t-13 1q-13 3 -44 28 q-16 22 -16 49q0 15 6 31q21 65 99 105q41 21 84 22v118q15 0 33 7q-23 4 -33 47l26 2q3 8 -11.5 16t-14.5 16v51q3 16 25 17l3 32q-3 1 -11.5 -3t-11.5 -4q-5 0 -5 7v66q-5 -1 -12 3.5l-13 8.5l-2 12q-2 2 -9 -2.5t-8 -4.5q-50 19 -152 46q-2 6 -12 14q-14 -12 -56 -14 t-59 -17q-17 -9 -28 -37q0 -19 16 -36l14 13q1 -1 5 -1q0 14 15 22q3 1 28 8q23 0 36 -15q0 -10 -3 -10q-19 15 -35 7l-16 -12q4 -3 4 -7q0 -3 -2 -5q-3 -10 -3 -14v-25q-62 9 -82 42q-13 14 -13 34z" />
<glyph unicode="U" horiz-adv-x="784" d="M11 12q0 33 24 86q26 60 54 60q7 0 12.5 -6.5t8.5 -6.5q5 0 11 45q5 5 23 10q7 2 13 13v49q1 49 0 53v50v50q17 -4 18.5 3t4.5 16l-9 6q-1 0 -6.5 4t-7.5 4v33v42q2 41 0 82q-26 -16 -66 -54l1 -1q13 -14 13 -19q0 -4 -2 -9q-15 -18 -36 -10q-16 18 -16 26q0 4 1 8 q5 9 14 21t43 42l59 52q18 16 50 51q2 2 11 -5q8 -13 30 -36q-1 -7 -7.5 -26l-6.5 -19q12 6 41 19l9 -8q20 -10 56 -32q-2 -4 -13 -23q-7 1 -20 6t-14 5q-5 0 -7 -5v-122q-6 1 -29 -5v-3q17 1 24 -13q2 -15 -5 -19q2 0 -13 -5q0 -7 23 -11v-132l-21 -21q21 1 21 -17v-13 q0 -3 1 -8l1 -5q0 -8 12 -10q5 -1 22 -10q14 -4 19 -14q-2 -7 2 -25q18 15 20 16q10 0 9 1q32 -8 48 -19l14.5 -11t14.5 -10q4 -2 13 -12q3 -3 6 -3q2 0 6 4q7 0 28.5 12t20.5 14q-1 8 -5 26v24q6 -3 24 10q-1 5 -9 6q-15 3 -15 6v64q0 3 19 5q10 1 10 5q0 3 -4 7l-5 6 q-5 -1 -20 3v104l19 13l-1 14q-7 1 -18 12v129q-5 7 -6 7q-5 -3 -12 -11q-3 -8 -7 -9q-22 11 -22 21q3 6 43 39q22 24 74 88q5 2 11 -5l14.5 -19.5t32 -40.5t26.5 -31q16 -16 35 -26q10 -13 9 -17q-3 -1 -9 -7t-10 -6q-3 0 -5 2q1 7 -6 8q-11 3 -14 5q-11 -1 -9 -35v-27v-11 q-15 -10 -30 -25q8 -1 30 -1q1 0 0 -1t0 -1v-154q-1 0 -12 -18q3 -2 12 -7v-7v-46l-1 -44l4 -19q6 -12 21.5 -30t17.5 -18q1 0 5 3.5t5 3.5q8 9 27 21q18 -19 18 -21t-4 -5l-34 -33t-26 -38l-26 13q-8 -8 -8 -10q0 -3 1.5 -5.5t9.5 -9t8 -7.5q0 -2 -3 -5q-8 -16 -29 -48 q-34 4 -50 22q1 5 -4 14q-13 -3 -22 8l-16 21q-6 7 -24 43q-55 -22 -77 -44q-2 0 -14 -10q-4 0 -15.5 9t-16.5 9q-7 0 -10 -13l23 -22q-9 -10 -39 -39q-11 3 -14 5l-26 27l-22 17q0 1 4 24q-5 2 -12 -4q-10 -8 -9 -8q-8 0 -14 6l-25 14q5 12 17 24q-11 11 -21 0 q-23 -25 -39 -22q-8 3 -40 1q-24 -2 -31 13q-6 0 -9 -11t-12 -8q-36 -2 -53 -15q-13 -10 -32 -46q0 -1 -8 -17q-3 -7 0 -13q2 -5 7 -13q2 -4 9 -2q3 5 16 24q17 13 26 13q10 0 19.5 -9t7.5 -9q-1 0 -1 -27q-4 6 -13 8q-7 6 -21 -4q-8 -6 -8 -19q-2 -21 -3 -25q-44 8 -56 32 q-3 0 -9 11.5t-6 15.5q1 2 11 13l-13 6q-4 7 -4 18z" />
<glyph unicode="V" horiz-adv-x="712" d="M21 -6q0 19 8 36l14 3q-5 8 -5 22q0 16 6 22q59 92 102 105q-4 8 4 31q6 -2 14 2q0 5 -10 8.5t-10 10.5q-4 15 15 33.5t21 28.5v2q-3 0 -12.5 -6t-14.5 -6t-9 6q0 3 -3 27q-1 13 0 25q2 15 9 26q13 7 8 12l-13 4.5t-6 8.5q-1 51 -13 148q-7 1 -19 -5t-19 -5l-29 -31 q6 -5 5 -6q3 12 17 17q3 1 7.5 -2t4.5 -7q6 -30 -12 -31q-3 0 -9 -3.5t-9 -1.5q-24 7 -24 17q-13 22 7 45q10 11 39.5 31t41.5 33q4 4 11 3l12 -3q-3 4 -3 8q0 6 14.5 15t16.5 13q5 10 18.5 20.5t17.5 16.5q12 -1 22 -20q13 -22 19 -26q-6 -22 -5 -23q4 11 19 6 q18 -17 12 -30q12 3 32 -14t31 -14q2 -2 2 -4t-2 -5q-6 -10 -7.5 -11t-14.5 -3q-2 5 -8 12q-3 -3 -7 -3q-3 0 -9 4t-8 4q-5 0 -9 -12l-5 -83q-7 -2 -20 -13q26 -21 24 -53q1 -6 -5.5 -9t-7.5 -4q8 -9 10 -29q1 -23 3 -27l1 -121q6 1 16.5 -4.5t12.5 -5.5q18 -25 16 -38 q3 2 7.5 11.5t9.5 9.5q-1 4 5 4q2 0 9 -1q18 -6 51 -27q0 -7 -6 -20q1 -2 3 -2q3 0 8 2q3 11 27 2q7 -1 20 -15.5t22 -14.5q4 0 10 3l10 3q3 4 23 12q16 6 16 17q0 4 -1 9q15 15 10 20v5q-4 -3 -13 3q0 13 3 43q2 28 0 42l16 8q-16 18 -19 56q2 -16 3 59q0 12 21 16 q0 12 -12 25q-16 -5 -20 11l4 114q-6 0 -18 4q-1 -5 -7 -12q-6 -1 -13 7q-3 4 -3 8q0 8 28 23q20 20 29 19q3 -4 9 -4q3 4 3 6t-4 6.5t-4 5.5q5 13 26 31t27 30q1 3 9 7q0 -7 13 -12l28 -45l2 -16q0 -1 -2 -2.5t-2 -3.5q14 5 38 -30q0 -5 5 -6.5t4 -3.5l-14 -18q-3 -6 -20 4 q1 -9 1 -17q0 -7 -1 -14v-17q-1 -7 -1 -11q0 -6 2.5 -15t2.5 -13q0 -8 -13 -21q-6 -5 -4 -12q19 -12 19 -37q0 -6 -3 -29q-2 -19 0 -30q-12 0 -6 -2l-8 7q-8 -12 -4 -14q6 0 10 -9t5 -10q-1 -52 1 -152q1 -7 16 -8.5t15 -7.5q0 -3 -4 -9l-6 -10q-23 3 -66 -6q-23 -4 -24 17 l-12 -2q0 -13 -12.5 -15t-15.5 -4q-17 -9 -54 -20q-26 -15 -32 -20q-18 -13 -26 -28q-27 -35 -31 -35q-8 2 -84 55q-8 2 -37 12q-20 7 -29 6q-14 20 -33 56q-5 0 -15 -22q-10 -25 -13 -27q-23 1 -58.5 -10t-45.5 -11q-6 1 -13 6q1 -5 -2 -18q-42 -37 -41 -57q1 -10 9 -28 q7 13 23 8q-3 5 -2 13l12.5 7t18.5 5q16 -7 16 -18q-3 -6 -9 -2l-12 6q-4 0 -7 -8q1 -4 -4 -11q-12 -22 -8 -36q-28 -4 -49 23q-12 29 -12 55z" />
<glyph unicode="W" horiz-adv-x="920" d="M22 15q0 80 82 129q18 11 33 14v42q10 3 13 5q10 6 12 13q-10 -6 -25 4v64q4 1 15 4q5 3 5 11v8q-3 -2 -7 -2q-8 0 -13 29v195v21q-6 1 -16 6q-2 -8 -19.5 -16.5t-19.5 -20.5q8 -3 19 -17q1 -8 -7 -14.5t-16 -6.5q-15 0 -26 21q0 17 15 34q2 2 30 25q11 9 40 24 q3 1 12.5 9t15.5 8q2 0 4 -1q9 13 34 33q2 1 12 11.5t17 10.5q3 0 6 -1q12 -22 44 -62q2 2 2 3l-2 -3q13 -14 42 -40q-10 -16 -19 -21q-19 20 -33 18v0v-77q-4 -1 -10 -7.5t-6 -8.5q7 -2 16 -7q2 -4 0 -9v-68q-1 -3 -13 -7q-8 -2 -7 -9q19 -3 20 -25v-36v-32q-2 -3 -13 -6 q-7 -2 -7 -4l3 -5q2 1 6 2q7 3 11 -2q3 -4 0 -80q-1 -23 18 -27q29 -6 35 -27q4 1 9 1q6 0 36 -19q20 9 53 29v73l18 25v10q-6 -4 -11 2q-3 -1 -7 12q2 8 0 51q-1 -1 -3 -1q-3 0 -8 1l-2 6q-4 -7 -20 -16t-19 -19q15 -7 11 -38q-7 -15 -30 -27q-20 -2 -26.5 8t-4.5 30 q4 2 8 23q25 31 94 66v26q0 12 17 21q1 6 1 19q-12 -5 -18 3v14v103q-5 8 -16 12q-14 -14 -16 -14q9 0 -20 3q0 17 19 30q27 19 30 24q0 5 7.5 4t8.5 4q-2 13 12 30q19 22 21 27q7 1 14 13t13 12q3 0 7 -3l40 -53q20 -20 51 -60q-1 -3 -2 -7q3 1 10 1q3 -3 3 -5 q0 -7 -17 -23q-1 2 -5 2q1 4 -4 6.5l-5 2.5v-100q-18 10 -25 -14q0 -6 13 -11.5t9 -14.5q22 0 36 14q-6 3 -14 12q1 14 14 33l9 6q6 3 10 -2q-2 12 8 15q1 0 16 2q12 1 18.5 -9t6.5 -23q-11 -30 -43 -50q-8 -5 -58 -31q1 -17 1 -30q0 -14 -1 -25q-3 -3 -9 -2t-7 0 q-3 0 -1 -7q16 -9 16.5 -11.5t0.5 -59.5q-2 1 -19 -7l18 -16q0 -29 12 -45q3 -6 18 -19q1 -4 4 -9l-2 -9q2 2 6 2q5 0 22 -10q9 -5 21 -1q8 0 23 7q21 9 24 8v33q0 3 8.5 5.5t7.5 4.5q-14 5 -14 20q1 25 0 27q0 2 -1 5q-2 2 1 2q7 0 21 3l-3 24q-12 -3 -15 -2q-2 1 -3 4v116 q0 8 18 17q0 12 -4 14q-4 -8 -14 -4v119q-5 7 -33 11q-18 2 -18 19q22 15 61 47q7 -2 16 7q-1 5 -2 17q19 14 47 51q12 -1 26 -19q17 -22 23 -25q19 -17 19 -25q0 -5 -4 -8q0 -10 3 -11l9 8q5 5 10 3q14 -19 48 -52q3 -11 -2 -18h-18q1 7 -7 18q-4 -4 -15 -1.5t-13 -3.5 v-198q-13 -1 -25 -30l2 -2q9 6 23 9v-92q-10 -9 -9 -12q9 -9 9 -10v-28q0 -9 4 -16t7 -13q11 -6 15 -6q1 0 4 -2q2 -2 3 0q4 5 6 5q5 0 10 -7q7 -8 -1 -14q-10 -11 -40 -11q-26 0 -46 -1q-2 1 -16 1q-8 0 -8 11q0 6 -5 8q-2 -7 -12 -17q-74 -14 -116 -35q-6 1 -19 -4.5 t-15 -5.5q-3 -5 -6 -5q-2 0 -10 12q-6 9 -6 3l-5 -7t-4 -9q3 -6 6 -13l-7 -6q-3 -2 -19 -19q-8 -11 -17 -21q-1 0 -20.5 11.5t-50.5 38.5v20q-4 -5 -10 -5q-5 0 -12 5q-21 19 -27 30q-37 -16 -53 -30q-5 2 -11 -2.5t-7 -4.5q-4 0 -7 6q2 1 2 2h-7l-1 -25q-13 -6 -41 -43 q-5 4 -18 17q-6 7 -14.5 15t-27.5 21q-2 1 -11 9q-7 5 -13 5q-1 3 3.5 8t4.5 7q0 3 -4 5q-26 -12 -34 -7q-10 10 -25 12q-22 3 -26 3q-3 0 -12 -4q-12 -5 -11 -5q-2 0 -8 8t-9 9q-3 -12 -9 -27q-11 -5 -25 -21l-14 -35q-1 2 -3 3v0q3 -5 7 -11t10 -16h4q17 24 42 28 q9 -8 19 -28q-9 2 -16 2q-13 0 -18 -8t-9 -16q-3 -12 -1 -36q-1 -1 -7 0l-6 2q-13 0 -25 14q-5 8 -14 16q-3 5 -12 16q-3 3 -2 14l15 13q-7 1 -20 9z" />
<glyph unicode="X" horiz-adv-x="756" d="M11 505q0 1 1 1q6 7 24 18q13 8 10 16q16 16 17 21q3 16 5 34q-8 24 -8 51q8 3 12 3q3 0 11 -5.5t11 -6.5l26 -8q16 -5 53 -11q41 -7 55 0q11 0 29 -8q1 -3 1 -5q0 -5 -6 -8l-12 -8l-31 -8q-10 -18 -9 -20l54 -57q23 -22 45 -50q-1 -6 12 -43q8 0 10 6.5t8 8.5 q4 -3 16 -15q9 -9 15 -9q2 0 5 1l35 33q4 0 11 -3.5t11 -3.5t12 12q-1 0 -6.5 3.5t-5.5 8.5l57 58l9 -2q1 0 4 -5q4 5 4 8q0 2 -1.5 6t-1.5 6q0 4 2 7q14 12 36 42q0 6 -11.5 17t-11.5 15q0 7 10 13l34 2q21 2 32 10q4 0 8.5 -7t9.5 -5q0 8 5 16q33 6 60 24q14 1 14 -8 q-4 -42 2 -61l23 -27q5 -5 9 -18q3 -9 11 -13t18 -42q-9 -14 -10 -16q-7 -8 -15 -9q-7 1 -15 10v12l11 6q4 8 1 12q-19 19 -33 26q-5 2 -23 0q-50 -65 -56 -65q-2 0 -15 7t-17 8q11 -11 19 -23l6 -3l-56 -54q-9 -10 -26 -32q-7 -11 -14 -11q-5 0 -13 3q-2 -3 0 -13 q2 -8 -5 -15.5t-14 -13.5q-11 -12 -8 -18q4 -6 33 -31q20 -18 19 -28q1 -1 4 -7t5 -6q3 0 4 2q12 -10 58 -56q11 -7 30 -27q3 0 26 -1q17 -1 27 8q1 -3 11 -6q11 -3 16 1q6 1 6 8.5t4.5 10.5t20.5 15q6 -14 12 -20l5 -7q-4 -2 -24 -21l-26 -25q-8 -9 -21 -34q-7 1 -20 -8 q2 -4 13 -6q7 -3 7 -6t-1 -5q-5 -5 -5 -13q0 -7 5 -20q1 -5 0 -8q-2 -3 -2 -2q-11 -12 -12 -11q-25 3 -51 14l3 6q-10 -4 -21 -4q-13 0 -38 3.5t-37 3.5q-10 0 -19 -1h-12q-4 1 -8 11q1 9 12.5 11t15.5 6q6 15 12 21q-1 2 -4 7q-33 38 -33 45t7 16q0 10 -2 11 q-12 -8 -25 -11l-30 32q5 3 4 7q-1 5 -5 8q-5 2 -9 0q-5 -4 -7 -3l-42 39q-25 -23 -72 -74q-6 -1 -10.5 6t-6.5 8q-8 -6 -6 -14q3 -15 3 -17q-8 -9 -38 -34q-24 -20 -26 -40q42 -27 42 -33q0 -8 -18 -8q-5 0 -26 4q-17 3 -23 2q-35 3 -93 -20q-6 -6 -7 -5q-7 13 -17 43 q0 3 5.5 8t5.5 8t-5 7l-17 16q0 20 -17 49t-17 39q0 14 11 29q17 13 28 9q1 -3 6.5 -7t5.5 -6q0 -4 -1 -6q-5 0 -21 -11q7 -21 37 -21q19 0 29 11q3 -2 12.5 6.5t12 12.5t6.5 6q1 2 15 -2l14 -12q3 20 18 55q44 39 74 77l-14 16q6 0 -15 22l-47 45l-53 50l10 10q0 4 -4 10 q-12 0 -22 -5q-25 31 -29 33q-11 9 -36 12l-35 -14q-3 3 -6 7q-9 11 -9 14z" />
<glyph unicode="Y" horiz-adv-x="709" d="M5 -135q0 43 18 62q2 3 10 3t11 5q-4 5 -4 11q0 9 21 23q49 32 113 30q9 -2 21.5 -12t13.5 -18q15 33 41 29q35 -11 51 -17q35 -16 44 -31q-8 -12 1 -23q18 11 25 6q22 -15 54 -50q31 2 81 0q36 -1 86 13q38 11 38 39q0 4 -1.5 11t-1.5 10q0 6 10 7q4 0 -2 10q-7 3 -24 6 q-50 47 -65 58q-34 26 -78 44q-13 12 -13 74q-13 1 -39 -7l-32 -10q-24 -12 -72 -41l-11 3q-2 -20 -17 -36l-30 -32q-22 -9 -30 -3q-4 1 -8 6q0 3 9.5 9t11.5 8q-1 9 -16.5 20t-13.5 21q0 1 5 4q-1 3 -6 9q-24 -10 -25 -9q-27 16 -31 18q-16 9 -32 10q-9 7 -5 13 q2 7 10.5 10t11.5 8l-1 232q4 -1 27 14q1 6 -4 8l-9 5q-10 -7 -13 5v102q-9 3 -25 0q-19 -5 -28 -17q2 -7 10 -7q6 11 12 6q1 -5 12 -8q7 -4 4 -12q-4 -11 -22 -23q-30 4 -38 20q-6 9 -6 19q0 15 14 26l75 41q3 0 16.5 -9.5t17.5 -9.5t5 2q-7 16 -11 36q3 3 35 25 q21 14 29 36q2 -3 12 3l7 -20l23 -36q13 -20 39 -28q6 -4 23 -10q6 2 21 -9q0 -17 -13 -18q-22 2 -21 13q-4 10 -8 8q-7 -10 -10 -8q-14 6 -20 6q-8 0 -8 -13v-102q-9 6 -37 16q-4 -4 -4 -27q3 -3 27 -11q1 -5 14 -9v-51v-140v-30l54 -34q68 36 118 42v182q17 14 22 29 q-11 -4 -22 15v62q2 1 37 -3q4 0 4 3q0 -4 -23 22q-5 0 -18 10v28q-2 1 -9 -2.5t-10 -3.5t-7.5 7.5t-4.5 12.5q0 2 1 4q13 7 32 28q11 11 36 29q10 -8 23 -17q1 3 6 6q-23 17 -16 24q7 2 22 19.5t24 17.5q4 0 13 -6l13 -10q24 -38 65 -63l47 -29q12 -4 12 -16q0 -11 -9 -16 q-26 -14 -35 -4q-3 3 -3 19l8 6q-1 1 -20 13q-14 10 -20 10q-4 0 -7 -2v-109q-3 1 -12 3.5t-12 2.5q-1 1 -10 -16l17 -16q7 -5 17 -6v-33l-37 -31q2 -6 15 -5h20q0 -101 -1 -135v-32q0 -58 12 -59q15 -15 15 -22q0 -4 -5 -21l-9 -24q2 -2 12 2.5t12 4.5q2 7 13 24 q13 -13 21 -36q5 -20 11 -40q0 -35 -9 -96q-18 -40 -53 -50q-55 -15 -215 -27q-31 3 -36 24l-7 2q-2 -2 -3 -24q0 -10 -4 -12q-14 -1 -45.5 -15t-36.5 -14q-6 0 -6 8q0 4 1 10l11 9q-1 1 -19 26q-12 17 -12 32q0 18 15 38q-3 -5 -17 -15t-19 -10q-8 14 -22 20l-37 12 q-16 1 -37 5q-31 -6 -62 -11q-45 -17 -45 -80q2 -3 5 -3l9 10q1 5 11 8l4 -1q0 7 22 20q-3 1 27 1q15 0 23 -10q0 -11 -6 -10q-1 6 -6 8q-6 4 -11 0q-9 -6 -20.5 -14.5t-12.5 -19.5q4 -6 4 -16q0 -6 -2 -14q-7 -3 -14 -3q-11 0 -43 16q-19 19 -18 28q8 9 -1 17z" />
<glyph unicode="Z" horiz-adv-x="818" d="M18 126l3 8q4 2 7 2q5 0 14 -5t15 -5q26 0 116 82q11 0 31 8l-8 11q2 5 14 14t13 17q7 6 37 39q23 26 42 27l11 13q-8 5 -8 9q0 3 19 18q-13 18 -43 18q-6 0 -25 -2q-15 -1 -25 0q-13 -8 -11 -8q2 -2 9 -4t7 -7q0 -12 -19 -24h-20q-14 0 -17 3l-13 4q-13 9 -13 13 q0 16 6 28q34 23 77 30q7 2 42 2q10 0 40 -9q34 -9 39 -9q21 25 69 69h6q12 -2 21 10q-5 7 -5 12q0 3 41 45q-11 0 -31 9l-5 -2q-9 0 -19 10q4 3 4 7q0 3 -4.5 10.5t-4.5 12.5l-17 7q-5 -30 -15 -30l-4 1q-17 0 -51 18q-15 9 -15 12v5l-9 14q-1 0 -6 -7.5t-9 -7.5 q-43 19 -109 44q-1 3 -4 9.5t-9 6.5q-11 -13 -56 -13q-19 -3 -47 -19.5t-26 -33.5q-2 -1 -2 -11q0 -8 6 -17.5t14 -8.5q21 31 52 31q7 0 13 -4l11 -3l-21 -7q-10 2 -15 -12t-1 -25q2 -7 2 -11q0 -2 -1 -4q-2 -2 7 -8.5t4 -6.5q-11 0 -38 9.5t-39 19.5q-25 21 -26 43 q-3 49 13 59q15 30 92 52q67 19 109 19q26 0 95 -14q0 -6 6 -18q2 1 9.5 10t11.5 9q3 -1 39 -12q20 -16 80 -23q3 -3 5 -19q2 -13 0 -14q7 -6 8 -6q6 0 17.5 16t12.5 23l15 -1q26 -2 72.5 26t38.5 28q19 -29 56 -63l62 -48h1q9 -5 30 -4q0 -5 6.5 -8.5t6.5 -7.5 q-4 -13 -17 -14q12 1 -25 1q-48 0 -108 -61l-72 -74q-9 -1 -20 -3t-14 -9q10 -12 10 -18q0 -4 -9 -11q-26 -20 -58 -57q42 -38 84 -38q3 2 3 4q0 5 -4 7h-3q-2 4 -2 7q0 5 26 23q56 0 56 -31v-4q-15 -28 -60 -28q-62 0 -131 40q-14 -17 -29 -33q-19 -19 -38 -16q4 -8 4 -15 q0 -20 -29 -20l-10 -8q9 0 9 -11q0 -8 -9.5 -16.5l-18.5 -16.5q4 -1 9 -1q10 0 21 4l65 -4q1 -10 8 -28q8 9 31 22q24 -7 69 -30q-1 2 -11 -26q0 -1 -1 -3q6 -2 20 -11q11 9 18 9q3 0 4 8q103 -68 133 -68q16 0 22 1q3 0 30 13q7 7 20 26q2 4 2 8q0 7 -6 14q-4 -2 -13.5 -6 t-20.5 -3q-19 2 -34 20q-8 13 -8 29q0 26 12 26q1 0 3 -6.5t3 -6.5q-3 -3 -3 -6q0 -7 10 -12.5t18 -5.5q19 0 27 20q-3 6 -3 10q0 6 19 -3q25 -29 25 -59q0 -29 -23 -56q-4 -7 -45 -43q-1 -1 -6 -1q-6 0 -18 6t-17 6q-4 0 -6 -1q-4 -22 -14 -26q-5 -2 -33 -2q-24 0 -59 12 l-58 22q-41 14 -51 21q-23 16 -25 49q-3 -1 -33 -40q-30 1 -53.5 -4t-45.5 -9q-5 -1 -10 5v11q-13 -1 -19 -6q0 -7 -4 -21q-31 -5 -61 -17q-24 -9 -67 -28q-4 8 -9 16q-4 0 -30 40q-8 2 -45 36q-32 30 -46 26q-13 26 -13 24z" />
<glyph unicode="a" horiz-adv-x="313" d="M11 279q27 11 36 27l15 -9q-2 3 -2 7q0 6 3 14q8 6 18 20q7 0 9 -3q-2 -14 32 -31q16 -3 59 14q9 16 24 20q4 -15 32 -63q-7 -13 -7 -16q3 0 5.5 3t3.5 3q7 -2 26 -14.5t32 -12.5q1 -1 1 -7q-3 -3 -9 -3q-4 0 -9 2q-13 2 -17 -10v-81q-13 -1 -31 -11q11 -7 31 -7v-25 q0 -3 17 -24q8 8 18 10q7 -6 6 -10q-10 -9 -31 -23l-41 -49q-11 1 -39 32q-2 5 -2 8t2 4.5t2 6.5q-2 2 -6 2q-7 0 -58 -40q0 -7 -10 -16q-5 7 -18.5 20t-11.5 22l-3 3q-10 -15 -17 -5q-15 9 -46 31q-1 -2 -10 -3q-3 19 -3 18q16 7 17 28q-1 17 -1 35q-4 0 -10 5q-7 12 4 18 q49 -3 68 3q17 1 42 13q7 -6 8 -5q3 9 19.5 15.5t21.5 11t5 9.5q0 4 -12 15t-11 18q-6 6 -24 12q-4 5 -18 1l-12 -3q-13 -10 -21 -17q-12 -11 -8 -23v-7q0 -9 -3 -14q-21 -16 -27 -16q-15 0 -29 11q-8 16 -1 21q12 14 27 -1q1 -6 -2.5 -7t-3.5 -6l9 -3q13 15 12 21 q-13 13 -7 27q-6 -3 -17 -1q-9 7 -27 35zM87 125l13 2q4 -4 4 -13q0 -5 -2 -13q17 -14 58 -32l-3 -4q9 -2 24 12v61q6 0 13 8h-4q-20 19 -14 34q-24 -14 -31 -12q-6 -7 -20 -11.5t-18 -7.5q1 -8 -6 -18q-3 3 -11 3q-6 -6 -3 -9z" />
<glyph unicode="b" horiz-adv-x="341" d="M19 490q4 10 69 74q7 -1 9 -5q2 5 6 19q13 16 38 44q6 4 17 7v-146l-13 -15q7 -1 13 -15v-72q-6 0 -14 -3q3 -1 5.5 -10.5t8.5 -10.5v-67q10 2 72 57q7 0 18 -5q-1 -8 10 -20t8 -23q-1 -9 0 -9q2 0 7 2.5t6 1.5q5 -2 21 -21q12 -15 19 -12l12 -1q3 -6 -3 -12l-5 -6 q-10 -3 -10 -33v-19q0 -10 -11 -10l-2 1q-5 -3 -7 -8l20 -14q0 -54 8 -53q3 0 10 2q2 -3 -3 -25q-26 0 -81 -8q-20 -5 -59 -38q-19 -26 -15 -38q-4 -2 -11 -2t-17 2q-4 7 -20 19q-7 4 -7 19q1 9 1 19l-19 -21q-27 15 -73 45q-1 3 3 8.5t4 8.5t2 3q4 0 9 -5q23 20 24 55v65 h10q1 -3 3 -3q1 -1 13 7q-1 2 -3 16q-21 -3 -23 -2v40q2 3 9 6.5t7 5.5q0 11 -10 10q-6 -1 -6 6v62q9 8 23 27q-3 5 -11 2q-9 -3 -12 0v113q-1 4 -6 4q-4 0 -12 -4q-18 -20 -18 -29q0 -3 5 -10q5 -6 0 -10q-3 0 -12 -2q-16 15 -7 36zM148 166q0 -3 5 -9.5t5 -10.5v-48 l39 -30q12 6 30 23q0 52 1 59q2 16 16 24q-10 -10 -17 3v1q3 17 -7 38q-7 11 7 17q-4 2 -7 -1q-15 -5 -24 7q-15 19 -20 21l-19 -9v-74q-9 -6 -9 -11z" />
<glyph unicode="c" horiz-adv-x="263" d="M12 255q25 0 69 12q4 1 7.5 -5.5t4.5 -6.5q3 0 6 7l-6 9q21 11 61 35l10 -4l-2 7q19 17 24 17q3 0 7 -3q-4 -23 40 -58q6 -2 12.5 7.5t13.5 6.5q-1 -18 -42 -45q-5 -2 -20 -7q-11 -4 -21 2q-2 2 -5 7q-4 5 -9 0q-19 5 -35 25v-72q0 -38 -3 -46q-4 1 -15 -7q12 -2 18 -10 q-1 -2 -1 -3t7.5 -8t7.5 -16q0 -6 -3 -14q7 10 19 8q9 -3 14 -10q4 3 35 22q4 -3 7 -3q4 0 9 5.5t9 5.5t7 -1q6 -6 7 -12q-14 -8 -33 -21q-28 -18 -43 -32q-22 -22 -28 -47q-12 -10 -14 -2q-1 5 -15.5 19.5t-14.5 20.5q6 6 5 10q-5 5 -13 8q-1 -4 -8 -10q-4 3 -19 12 q-31 17 -41 14q-5 9 -4 17q6 7 9 6q8 1 11 21q1 7 10 8l-10 6v27q3 8 18 7q-4 11 -10 8t-10 6q2 55 -19 66q-9 7 -4 11z" />
<glyph unicode="d" horiz-adv-x="375" d="M15 104q25 7 25 30q5 0 13 1q0 -15 9 -5h1l-23 22q0 10 9 26q4 -2 7 -2q1 1 1 9q-1 3 -9 4t-8 5q3 47 -19 55q-2 3 -6 16q4 4 14 1q10 -2 16 0q6 3 15 6q10 3 16 -4q0 -3 4 -4q4 -3 7 1q9 15 63 31q19 6 47 27v41q0 54 -2 25q1 14 12 14.5t17 9.5q-13 -2 -27 8v100 q-4 -2 -19 -17q-11 -11 -11 -22v-7q0 -4 5.5 -8.5t5.5 -7.5q0 -9 -19 -7q-6 3 -13 19q0 22 21 43l35 35q9 6 20 20q3 3 10 0q7 -2 10 -3q7 0 5 10q-11 4 -7 14q19 19 43 54q2 1 7 -6q1 -26 1 -162l-21 -21l11 -7q6 -4 10 -1v-103l-22 -16q22 -4 22 -14v-70h-18q2 -1 7.5 -9 t10.5 -8v-104q11 -16 35 -29q7 3 10 3q4 0 4 -3q-1 10 17 19l7 -4q2 -5 2 -9q0 -6 -14.5 -13.5t-18.5 -13.5q-20 -35 -31 -66q-5 -14 -19 -10q-14 7 -30 30q-32 11 -39 29q-34 -14 -55 -39q-7 1 -14 -10t-10 -11q-11 0 -37 46q-4 2 -7 6q3 12 3 14q-9 -4 -16 -4t-12 4 q-16 24 -44 25q0 2 -5 7t-2 10zM132 173q15 -5 18 -15v-45l20 -21q1 -2 -10 -19q2 0 4 -1q8 3 8 2q-2 9 4 9q2 0 6.5 -2t6.5 -2t8 -5t11 -5q4 0 8 4q-4 31 19 55h-6q-10 3 -13 14q-1 7 0 23l2 20.5t10.5 13.5t10.5 7q2 5 -3 7q-1 1 -7 0q-6 0 -7 1q-9 10 -7 31q3 30 1 34 q-21 -14 -66 -30v-32q0 -35 -18 -44z" />
<glyph unicode="e" horiz-adv-x="305" d="M14 228q3 15 15 17l25 4q18 5 26 5q10 0 19 -6q2 15 39 27l52 28q4 0 10 -3t8 0q-1 6 -7 17q23 11 26 4l1 -24q16 -31 49 -89q10 3 19 -11q3 -6 -7 -8.5t-16 -1.5q-12 4 -14 5q-7 0 -11 -6q-62 6 -107 -45q3 -10 8 -10q3 0 9 3.5t8 3.5q4 0 7 -3q4 -14 -15 -25 q-23 -2 -30 10v-16q6 -3 14 -10l38 -24q4 2 23 16q14 10 24 6q1 -6 1 -20q-18 -2 -35 -17l-32 -30q-22 -28 -23 -25q-4 -7 -23 13l-12 12q-4 3 -2 14q-2 -1 -7 -1q-4 0 -10 1q-19 10 -56 34q-7 16 -6 19q16 2 19 25q1 6 1 46q3 1 17 3q10 2 10 11q-6 -2 -13 3q-11 8 -12 8 q-5 2 -5 15v4q0 17 -14 17q-5 -1 -11 4zM128 165q20 12 61 32l-7.5 5.5t-1.5 5.5q3 5 10 10l-14 -1q-8 4 -15 16q-10 15 -13 18l-20 -10v-76z" />
<glyph unicode="f" horiz-adv-x="310" d="M1 283v20q3 24 34 24h27q1 1 7 -2q7 2 20 9q0 20 11.5 31.5t12.5 16.5q-9 -4 -24 -3v83h-5l5 1q-6 2 -14 6q5 13 14 17q10 0 30.5 11.5t29.5 11.5q2 -3 -1 -3l3 -3q1 7 10 22q9 9 31 29q11 5 25 28.5t27 27.5q2 -3 1 -11q-1 -6 -1 -12l-2 -1q17 -42 35 -58q2 -2 2 -4 q0 -3 -2 -6l-2 -8q12 6 22 -10q11 -6 34 -21q7 -1 21 21q-13 6 -4 23q3 2 6 2q5 0 9 -9q6 -12 7 -13q-8 -37 -52 -68q-4 -2 -26 -10q-28 4 -40 9q-20 8 -31 24l-1 11q-9 -1 -38 25v-64q-3 -16 -16 -23q0 -10 2 -11q1 8 15 5v-70q47 -7 65 -3q-3 7 3 20q8 6 24 4 q0 -2 7.5 -12t7.5 -16q0 -12 -6 -16t-7 -5q-32 0 -95 -2v-139q0 -72 26 -75q9 6 27 16l10 -3q-1 -6 -1 -18q-31 -9 -58 -45l-28 -40q-5 -7 -10 -4q-6 4 -10 7q-14 14 -15 18q-2 6 4 20q5 -1 -23 -8v5q-12 11 -48 28q-1 5 0 12l33 36q1 13 21 13q-1 2 -11 6t-10 11v42 q14 0 36 9q-1 4 -7 9q-4 -1 -15 1q-10 2 -14 -1v96q1 -1 -59 -3q0 -3 6 -5t6 -4q0 -5 -18 -19q-11 3 -23 17z" />
<glyph unicode="g" horiz-adv-x="336" d="M9 -172q-4 69 66 97q1 -1 6 1t6 2t7 -10.5t8 -8.5q0 11 3 22h37q10 -4 16 -17q5 6 15 6q14 0 41 -13q4 -1 16 -11.5t19 -10.5q8 0 14 10q21 31 14 46q-5 27 -33 53q-1 10 6 12q-3 3 -13 -2q-9 -3 -15 2q-33 29 -31 39q-11 -5 -62 -56q-11 0 -9 1q-14 9 -16 21 q-2 3 -14.5 12.5t-12.5 14.5q0 4 5 10q-7 -3 -21 -1q-4 4 -28 21q-2 2 -6 2q-3 0 -7.5 -1.5t-5.5 -0.5q-2 4 -2 8q0 5 2 12q10 2 15 14q0 14 11 15q17 4 18 6q-5 0 -15 1t-13 10v35q3 0 10.5 4.5t10.5 5t3 7.5q-3 4 -9 1q-6 -4 -10 -1q-5 4 -8 27q-2 18 -15 20l-1 16 q64 18 89 29q36 15 80 47q3 0 8.5 7.5t8.5 7.5q4 0 7 -3q2 -19 25 -40l39 -32q3 -8 21.5 -12.5t18.5 -8.5q0 -6 -7 -16q-12 -1 -24 -10v-45q-2 -2 -13 -3.5t-11 -8.5q5 2 12.5 -2t11.5 -4q0 -96 18 -94q16 -27 16 -36q-9 -16 -9 -12q21 -6 21 -12q3 -15 3 -31q0 -58 -25 -71 q-10 -9 -53 -41q-2 3 -13 7q-7 -3 -4 -7l5 -9l2 -1q-11 -14 -34 -38q-3 -6 -11 -1q1 23 -21 38l-38 22q-2 4 2 9l2 1q-4 3 -5 4q-1 2 -14 0q-6 -8 -16 -7q-9 1 -16 2q-13 0 -8 0q9 1 8 1q-5 1 -22 13q3 -3 3 -13q-14 -8 -38 -34q-4 -4 -7 -34q-13 -1 -14 17zM97 173 q15 -7 15 -56q2 -10 27 -31h-2l-8 -18q8 7 15 7q6 0 13.5 -7t9.5 -7l22 17v32q9 0 16 7l7 3.5t6 6.5q-27 -2 -29 10q0 33 -1 73q0 3 -13 18q-9 12 -9 20q0 7 5 13l-11 -2q-13 -4 -9 -4q-4 7 -9 7q-4 0 -14.5 -7t-15.5 -7v-63q-6 -6 -15 -12z" />
<glyph unicode="h" horiz-adv-x="384" d="M15 447q-15 26 0 49q9 16 36 43q7 7 18 17q2 2 9 -5q4 -4 9 -8q1 6 1 11q0 16 2 22q-1 -2 32 31q1 8 11 11q7 5 11 -4v-108q-7 -9 -27 -21q0 -5 7 -10l17 10l3 -3v-137q-9 -7 -21 -6q-3 -14 -2 -16q10 1 26 -3v-31q0 -19 -10 -27q17 3 51 17q3 0 12 -2q-1 10 16.5 22.5 t19.5 18t9 5.5q0 -3 5 -6h2q-4 -7 -4 -11q0 -7 9 -16q14 -11 16 -15q11 -5 9 -13q-4 -22 -4 -15l5 -8q0 19 12 13q4 -7 39 -20q0 -14 -1 -15q-18 0 -19 -17v-30q-1 0 -3 -3t-4 -2l-10 10q-9 -7 2 -16q15 -4 17 -30q2 -30 11 -37q4 -5 8 -5t13 6t13 6q8 0 15 -9 q-17 -27 -49 -90q-4 -2 -10 -2q-20 0 -45 12q-28 12 -37 28q5 4 10 16q-17 0 -19 5q-6 13 -6 58l17 13q-7 0 -18 5v64q7 -5 9 -5q14 0 0 17q-5 7 -10 7q-6 0 -11 -10q-7 6 -31 34q-17 -4 -29 -14v-89q-12 -12 -12 -18q0 -2 6 -3t6 -2q12 -36 31 -39q8 -14 -9 -21 q-27 -11 -72 -56q-8 12 -35 38q-10 8 -5 18q-12 -4 -15 -1q-9 6 -25 21q14 14 31 37q8 21 7 49l13 20q-14 -3 -14 18v44q7 0 17 5q0 20 -2 24q-5 -8 -11 -5l-4 7v104q7 0 15 10q3 10 -7 12.5t-11 4.5l-1 95q-11 -2 -14.5 -5.5t-10.5 -20.5q1 -3 7.5 -11.5t6.5 -12.5 q0 -3 -3 -5t-7 -2q-6 0 -14 3z" />
<glyph unicode="i" horiz-adv-x="184" d="M15 230q12 7 41 35q5 2 8.5 -2.5t7.5 -4.5q2 4 5 11q-9 4 -9 9q0 2 4 5.5t17 18.5l5 3q-3 0 12 -19q25 -30 38 -47q14 -3 7 -15l-22 -12l-1 -50q-3 -18 -17 -21q-4 -2 -3 -5q3 -3 5 -4q3 0 6.5 4t4.5 4q6 0 6 -17l2 -24q2 -16 10 -18q4 0 12 6t12 6q2 0 6 -1q2 -4 6 -15 q-20 -7 -44 -33l-35 -44q-8 10 -27 29q10 20 9 21q-4 1 -12 1q-1 -1 -12 -7q-4 4 -15.5 14l-22.5 19q-3 10 0 12l8 4q11 8 12 14v13q5 3 12 8l7 3q7 4 4 11l-10 -6q-5 0 -13 4v82q-11 -4 -23 -1q-1 1 -1 9zM30 376q9 5 25 20q2 2 4 2q3 0 5 -5l4 2q-3 1 -3 5q0 2 1 7 q6 4 15 21q6 13 18 9l1 -12q1 -5 13 -17t12 -18q0 -5 -4 -9q1 0 5.5 4t6.5 4t7 -4.5t9 -3.5q4 -3 4 -6q0 -2 -2 -3q-15 -4 -31 -24q-20 -24 -28 -29q-6 2 -14.5 15t-15.5 14q3 13 -1 13q-7 -1 -16 -1q-7 4 -15 16z" />
<glyph unicode="j" horiz-adv-x="180" d="M-102 -149q7 26 31.5 46.5t44.5 20.5q36 0 39.5 -1t5.5 -10.5t4 -17.5q4 4 18 23q27 -2 71 -35q29 15 34 55q1 13 -7.5 32.5t-20.5 30.5q1 5 6 13q2 6 -5 26q-5 -4 -11 -11q-5 -13 -12 -9q-10 9 -41 32q4 4 4 13q-5 -5 -11 -5q-1 0 -9 4q-6 1 -12.5 2.5t-3.5 16.5v4 q10 1 11 8q2 11 5 14v47q0 8 8 12l17 8q1 3 -1 5q-12 -1 -18 -1t-7 1v41q-15 2 -16.5 5t-3.5 11q55 30 73 65l31 -30q0 -4 -3 -10q6 0 17 -4q1 -7 14 -14.5t13 -10.5q0 -5 -6 -12h-17q-9 -1 -9 -16v-51q-6 -1 -12 0l-8 3q-4 0 -4 -14q3 0 9 -4l2 5l-2 -7q8 3 15 -5 q0 -11 -2 -23l-2 -12v0q1 -8 18 -25q24 -13 29 -32l-15 -6q9 -2 22 -9q3 -4 5 -14q10 -51 10 -56q0 -23 -10 -38q-8 -22 -24 -30q-17 -12 -46 -35q-6 6 -16 4q1 -2 4 -11q3 -6 0 -10q0 -2 -8 -11q-2 -1 -5 -7.5t-5 -6.5q-13 26 -64 54q-5 3 -30 7q-17 4 -22 16q2 -10 -6 -17 q-19 -1 -22 -2q-12 -3 -16 -13.5t-9 -42.5q-7 -1 -13 19t-6 25zM30 362q0 6 24 28q10 16 34 46q5 -2 10 -13l18 -23q-3 -4 -3 -9q0 -8 9 -17q2 1 4 6.5t6 5.5q9 -4 21 -17q-25 -14 -60 -58q-8 0 -16 11.5t-10 12.5q4 6 4 9q-1 2 -2 3l-5 5l-4.5 -9t-7.5 -3q-1 6 -11.5 12.5 t-10.5 9.5z" />
<glyph unicode="k" horiz-adv-x="349" d="M4 428q-2 18 5 32t32 41q12 8 29 29q2 1 8 1l7 -9q5 4 6 15q-2 4 -2 8q0 5 8.5 15t9.5 14q2 -2 9 -13l-1 -131l-12 -10q6 -1 12 -26v-81q21 1 65 35l16 -14q2 2 2 6t-2 7q-7 9 -5 10q17 13 35 41q4 0 8 -10q-10 -7 -10 -15q0 -4 5.5 -14.5t6.5 -14.5l13 -21l-14 -14 q3 -4 12 -2.5t13 -4.5q16 -26 38 -34q13 -4 13 -10q-6 -10 -17 -8q-18 2 -20 1q-15 -1 -31 -10q-25 -14 -28 -15q1 -4 12 -10.5t11 -12.5q0 -3 -2 -7q3 -2 5 -2q-1 0 14 5q17 -12 45 -17q3 -3 3 -5q0 -3 -6 -6.5t-7 -5.5q0 -32 -13 -37q12 -2 18 -34q1 -6 12 -11q9 7 33 20 q3 -3 12 -16q-6 -3 -21 -14q-39 -44 -44 -71q-2 -4 -8 -4q-9 0 -20.5 5t-13.5 8q2 4 2 9q-1 1 -3 1t-4 -2q-2 -3 -6 3q-21 24 -21 49h2q7 4 17 17q-10 -2 -19 2q-2 0 -6.5 25.5t-8.5 27t-11 6.5l-8 5q-5 4 -22 14l-23 11q-4 0 -10 -5q2 -29 -12 -29q-1 -1 -1 -6q4 0 10 -7 q2 -2 2 -22q0 -14 7 -13q4 -1 14 -7.5t15 -6.5q3 0 5 1q12 -6 6 -13l-67 -73q-11 2 -38 28q-3 2 19 14q0 1 -6.5 3t-6.5 4q-5 -4 -18 -10q-10 6 -41 33q7 8 17 21l14 -5q-2 6 -4 10q-1 4 4 10v92q5 4 14 13q-16 3 -16 23q0 6 2 15q10 0 14 6l-5 16q-5 -3 -13 2v49 q0 29 16 36l2 15q-6 -5 -19 -5q-2 10 -3 37l-1 58q-2 4 -5 4q-4 0 -9 -9q-1 -6 3 -15.5t4 -11.5q0 -8 -10 -14l-6 4q-7 3 -7 7zM121 288q2 -30 3 -89q14 13 90 48q-1 2 -13 19l-30 32l-5 11q-19 -11 -45 -21z" />
<glyph unicode="l" horiz-adv-x="187" d="M10 415q0 14 10 31q1 1 20 28q13 18 29 22q14 -9 10 -9q3 4 3 6q0 4 -2.5 10t-2.5 9q0 2 2 4q6 6 18 31q10 21 22 29l9 -9v-139l-26 -17q6 -8 11 -5q2 1 9 1q0 -8 8 -13v-101l-7 -9t-10 -2q-4 -4 -2 -6l1 -1q5 0 13 1q7 -14 7 -87q-13 -8 -13 -12q0 -3 1 -4q14 -1 14 -40 l29 -37l10 3q6 0 7 -7q-12 -10 -24 -35q-6 2 -17 -4q0 -16 -27 -55l-7 1l-20 20q-11 12 -12 23q5 5 5 8q0 2 -1 3l-2 1q-2 -5 -12 -5q-5 0 -11 1q-22 22 -37 30q3 9 13 21q7 2 10 -6q2 -4 5 -5q2 3 -2.5 13.5t-4.5 13.5q0 5 7 9v94q2 3 16 6t12 10q-2 4 -15.5 7.5 t-12.5 12.5q5 11 13 15q6 0 8 4q0 9 -4 12q-8 -1 -17 4v53q1 7 11.5 7t11.5 5q-18 7 -22 33q-1 9 -1 57q-7 -5 -16 -19q-1 -5 3 -15l2 -11q-4 -3 -8 -3q-14 0 -14 17z" />
<glyph unicode="m" horiz-adv-x="513" d="M12 218q0 2 1 5q16 9 40 34q4 1 7 -2.5t5 -3.5q0 3 4 6q-1 3 -1 6q0 8 11 18l12 12q6 3 26 -21q12 -13 27 -36q7 0 38 21q3 1 11 8t13 7q7 0 13 -5q7 2 7 6q0 3 -3 7l-1 3q12 17 24 15q1 -11 16 -30q20 -22 23 -28q12 4 36 20q19 19 40 27l17 17q9 -5 22 -19.5t18 -17.5 l23 -14q15 -8 24 -8q3 -2 3 -6q0 -2 -2 -5q-18 -1 -22 2l-2 -6l2 -64q-6 -6 -17 -21q1 -3 9.5 -3.5t7.5 -9.5q-2 -22 18 -33l20 -11q10 17 15 17q3 0 7 -7q1 -2 -21 -36q-25 -38 -28 -65q-9 -2 -36 14q-6 4 -6 9q0 2 4.5 12t1.5 15l-6 -8q-7 -9 -12 -9q-3 2 -6 2 q-11 5 -27 23q-6 5 -6 30q3 3 18 12l-19 8v35q2 2 7 0q7 -2 8 -2q4 0 4 6q3 4 -1.5 8.5l-4.5 4.5q-9 -2 -11 -1q-6 4 -8 48q-13 11 -30 32l-30 -19q2 -18 -2 -47q-6 0 -16 -2q0 -3 13 -16l5 3v-66q4 -5 9 -5q3 0 7.5 4t7.5 4t8 -5.5t4 -6.5q-12 -17 -44 -57h-9q-4 -3 -1 -10 q4 -9 4 -10q0 -4 -5 -5q-9 0 -21 13l-17 19l-19 16q-7 5 -17 18q-9 6 -9 12q0 3 3 7q14 10 14 35q9 5 8 5q8 -8 12 -6q2 2 2 11q-7 6 -22 15v63l15 9q-2 2 -5 2t-7 -2q-8 -5 -12 -3q-3 1 -9.5 8.5t-9.5 7.5q-4 0 -7 -3q-10 -5 -26 -18q-3 -16 -3 -37q-1 1 -13 6q-2 -2 -2 -5 q0 -2 0.5 -4t8 -9t6.5 -14q2 -19 2 -39q2 -25 19 -33q4 -1 11 -6q-7 -5 -28 -32q-5 -9 -31 -36q-16 9 -32 27l7 11q-3 -1 -7 -1q-7 0 -15 2q-29 25 -29 34q27 17 27 50q0 7 12 12q16 7 17 9q-2 1 -18 1q-11 -1 -11 10q0 33 2 26q-2 14 -13 16q-5 2 -10 11.5t-10 9.5 q-3 0 -7 -3q0 -5 -6 -5q-4 0 -9 2.5t-5 7.5z" />
<glyph unicode="n" horiz-adv-x="341" d="M8 205q3 10 20.5 23t21.5 18q5 -3 14 4q-1 4 -1 8l15 22q11 4 20 -11q-3 -11 -1 -13q7 -1 13.5 -13t11.5 -12q-1 0 45 23q13 9 29 22v1l20 20q14 -4 27 -29q10 -18 62 -50q1 -5 -3 -8q-13 3 -20 -3v-24q-7 -2 -15 7q-6 -2 -6 -4q1 -2 3 -4q4 -8 18 -9v-53q1 -3 -6.5 -7 t-8.5 -6l2 -5q2 1 11 5q6 3 11 -6l16 -15q10 13 16 13q1 0 13 -6l-42 -42q-8 -15 -30 -51l-30 27l-17 17q-20 15 -20 58l9 3q5 0 7.5 -6.5t7.5 -5.5q6 14 4 23q-7 -4 -12 -4q-4 0 -7 2t-9 8q0 58 -10 69q2 5 9 12q7 0 8 2q-1 7 -5 4q-8 -5 -15 -5q-12 0 -23 17q-2 0 -3 4 q-2 -3 -22 -15q-13 -6 -8 -18q-3 -2 -4 -29q-4 4 -14 3q5 -13 18 -22v-45q1 -14 13 -23q5 3 10.5 7t10.5 2q3 -9 -20 -38q-3 2 -4 -1q-2 -6 -3.5 -7.5t-31.5 -38.5q-2 -1 -5 -1q-1 0 -24 22q-2 6 4 18q-2 5 -7 3q-9 -4 -12 -3q-11 11 -33 26q-1 1 -5 7q-4 5 0 8q1 6 22 6 q7 9 7 46q4 -2 8 -2q8 0 13 9v9q-6 -3 -12 -3q-4 0 -9 1q0 59 -12 61q-4 1 -11.5 -3.5t-9.5 -4.5q-5 0 -9 6z" />
<glyph unicode="o" horiz-adv-x="280" d="M11 218q-3 8 11 11q11 1 21 2t20 4q17 4 35 9q12 3 54 30q4 1 12.5 -6t12.5 -5q0 4 -6 8.5t-6 6.5q0 1 2 4q12 8 33 25q11 2 11 -10q-2 -4 -6 -7q9 -17 45 -49q5 -4 19 -10q7 -4 4 -12q-6 -8 -15.5 -7t-10.5 -4q-1 -3 0 -35q1 -19 -12 -26l-5 -5q8 1 18 -11q0 -22 2 -27 q4 -9 22 -21q-7 -12 -19.5 -10.5t-29.5 -3.5q-8 -3 -11 -3q-7 0 -9 8q0 -9 -5 -11t-15 -10q-21 -19 -32 -17q2 -10 -3 -17q-6 -1 -14 -10.5t-11 -10.5q-9 10 -31 29q-7 8 -3 12l10 10q-3 2 -11 2q-5 0 -11 -1q-17 -2 -25 8q-9 4 -26 15q-5 1 -13 6q1 3 15 10q11 5 7 14 q2 1 13 5q2 1 3 8q-14 -2 -16 4q-1 15 -1 31l21 14q-4 2 -4 9q-1 0 -7.5 -3.5t-9.5 -3.5t-4 7q0 33 -4 38q-6 -1 -15 6zM96 153q-1 0 2 -6l11 -4q9 -5 8 -27q-1 -10 4.5 -14.5t11 -8t5.5 -7.5t-6 -9.5t-6 -6.5q5 1 16 7q1 0 7 3q3 3 7 -1q8 -5 18 -12l6 4v51q2 4 10 3t11 0 q-4 13 -22 21v37q0 3 -12 18l-7 9q-6 8 -13 8q-5 0 -17 -6t-17 -6q1 -8 1 -52q-4 -1 -18 -1z" />
<glyph unicode="p" horiz-adv-x="332" d="M13 11q-2 27 5 43q12 27 36 39q20 10 20 29v49q0 15 0 14q1 0 6.5 2.5t5.5 4.5q0 3 -3 6q-5 -3 -17 -3l-20 21l-8 -7t-13 -7q-2 0 -5 2q-9 9 -1 15q16 7 42 34q3 1 5.5 -3t4.5 -3q0 16 39 47q-1 -9 10 -21q16 -17 17 -19q9 -8 15 -5q11 4 24 11l12 10h1q2 2 12 7l17 -17 l5 6q-1 3 -7 6t-5 7q7 9 26 19q0 -3 6 -7t5 -8q30 -34 31 -35q22 -19 41 -18q4 -12 -6 -15q-6 3 -14 -5v-25q1 -12 -10 -14l-10 2q-2 -3 -2 -7t9 -10q6 2 13 1q-3 -4 0 -23q1 -11 0 -12q-1 -7 -12 -5l-5 -7l3 -3q11 1 14 2q-2 -4 0 -21q4 -13 16 -12l9 -9q-4 -8 -16 -8 q-15 1 -19 -3q-4 0 -7 8t-5 8q-4 0 -12 -17q-43 -16 -51 -51q-5 -5 -9 -5q-2 0 -4 3q-3 7 -4 10q-10 9 -22 18q-9 4 -20 8l-2 3q1 -6 1 -14q0 -12 -3 -29q-14 4 -15 -8q0 -8 3 -12q4 10 9 10q3 0 6 -2q6 -12 1 -44q0 -2 -1 -7q2 1 3 -1q9 2 21 -3q0 -5 -5 -12q-11 1 -22 -10 q-7 -4 -18 -15q-5 5 -14 13q-8 -4 -1 -15l6 -10l-32 -54q-1 -9 -13 -20q-32 -3 -38 9l-3 13l-1 2q1 -1 8 5q1 -1 10 -8q6 -5 11 -5q2 0 6 2q4 8 4 36l-1 87l2 33q14 9 23 26q2 5 -4 14q-7 -13 -19 -14l-4 4v44q-16 0 -42 -23q-4 -11 -15 -31q-1 0 -2 4.5t-2 4.5zM130 158h5 q15 0 15 -19q-1 -22 2 -29q4 0 25 -8q8 -3 3 -6q-2 -2 -3 -4q0 -7 12 -7q2 0 4.5 1.5t3.5 1.5q3 0 5 -3q9 -4 25 -15l-2 47q2 3 6 2q5 -1 6 0v15l-6 -2q-6 13 -7 64l-30 26q8 -5 12 -9h-1q-15 12 -28 24l-27 -12v-54q-4 -2 -20 -2v-11z" />
<glyph unicode="q" horiz-adv-x="286" d="M8 72q-1 4 3 7q6 -2 13.5 6.5t8 9.5t0.5 18q0 13 7 13q2 0 5 -1q8 10 6 20q-6 -2 -19 -3v54q-2 3 -11.5 4.5t-9.5 4.5q0 2 3 6l-2 10q24 0 58 5q23 4 71 41q3 0 8.5 -6t9.5 -5q0 3 -4 9t-4 9q19 10 42 31q17 -18 21 -26q24 -23 24 -33q0 -5 -1 -11q9 4 14 4q3 0 27 -13 q-4 -6 -2 -14q-7 1 -30 -4v-92l-20 4q-6 -17 5 -32q12 6 15 5v-72l-23 -16q10 2 23 -2q1 -21 0 -51q5 -4 11 -14q3 -1 7.5 1.5t6.5 2.5q4 0 7 -4q-7 -12 -52 -61l-52 -67q-15 -8 -30 3q-6 4 -6 18q5 4 8 4t8 -5.5t8 -5.5t6 2q8 6 8 7q0 3 -8 7v95q13 0 15 11q-2 4 -2 13 q-4 -2 -13 0v94q-56 -27 -96 -57l-8 4q2 9 -2.5 17t-4.5 9q0 5 10 12q0 4 -4.5 5t-4.5 3q-5 -5 -10 -5q-4 0 -24 16q-17 7 -16 15zM80 155q-2 -10 2 -12q22 -4 23 -35.5t8 -34.5l8 -8q3 -5 7 -5q5 0 16 7.5t16 7.5v37q0 3 18 -5v11q-1 4 -9 7.5t-9 9.5v35q-2 1 -2 19 q8 7 12 6q1 1 3 14q-3 0 -16 -3q-6 6 -20 17q-26 -4 -32 -26q-1 -5 -1 -43q-3 -6 -7 -6q-2 0 -8 4t-9 3z" />
<glyph unicode="r" horiz-adv-x="307" d="M11 238q6 8 22 16.5t22 17.5q4 2 9.5 -1.5t7.5 -3.5t3 4q-17 8 -2 17q9 3 17.5 19.5t16.5 14.5q28 -49 52 -49q13 0 25 14l18 23q9 16 14 14l8 -6q15 -50 35 -50q4 0 10 2q9 6 12 27q5 3 11 1t6 -8q3 -14 -9 -34.5t-21 -22.5q-9 -8 -32 -10q-4 5 -14 11q2 -4 -5 -13 q-29 1 -38 4q-14 4 -24 20l-3 1v-53q-11 -18 -21 -18q3 10 2 21l17 -55v-38l-17 -17q15 0 15 -11.5t18 -16.5q-14 -11 -54 -63l-32 26q-3 4 -18.5 14t-15.5 19q0 4 2 9q7 2 14.5 5t10.5 10v42q9 1 22 6q2 5 -1 17q-8 -6 -21 -3q0 92 -17 101q-13 1 -24 -6.5t-16 -7.5 q-8 7 -5 11z" />
<glyph unicode="s" horiz-adv-x="276" d="M7 19q0 -3 6 32q15 41 71 52q56 -2 87 -39q0 30 1 34t9 12h11q1 6 2 15q-3 1 -11 -2q-8 -2 -12 1v10v10q-8 4 -23 18l-38 -33q-22 -19 -41 -19q-11 0 -22 5q-4 2 -5 8t-3 8q2 1 14 1q7 -8 17 -7l9 4q-17 19 -55 34q-1 5 3.5 7.5t4.5 21.5q2 3 12.5 3.5t8.5 7.5 q-1 4 -4.5 2.5t-5.5 0.5q-12 1 -12 18.5t-5 20.5q-11 0 -11 9q1 7 12 8q8 1 15.5 2.5t14.5 3.5q8 2 12 -4q5 9 17 13l24 8q21 5 66 32q4 -10 9 -27q17 -26 40 -23q14 4 17 14q-3 7 3 19q6 1 8.5 -3.5t4.5 -9.5q-3 -23 -21 -43t-41 -25q-23 -6 -32 8q-3 -5 -8 -5 q-4 0 -11 4.5t-9 4.5q-11 9 -25 30l-7 5l-2 -2v-35q-3 -4 -7 -3q-6 1 -9 1q-4 -2 -2 -7q7 -1 13.5 -3t4.5 -19q11 -7 32 -28l75 49q2 0 13 1q9 2 14 0q7 -1 10 -9q1 -4 -5 -12q-18 9 -25 5l-1 -1q5 -15 27 -26t27 -22q-2 -3 -9.5 -4t-7.5 -7v-18q-1 -7 -8 -11h-8t-3 -11 q0 -4 7.5 -6t9.5 -4q0 -30 1 -34q2 -8 14 -13q-5 -14 -15 -14q-5 0 -19 8t-22 7q-33 -3 -72 -30q-3 -5 -10 -18q-4 -3 -6 -3q-4 0 -6 8.5t-3 10.5q-3 6 -14 18q11 19 7 23l-2 1q-4 -4 -8 -9.5t-9 -4.5q-13 16 -30 13q-21 -5 -29 -23q-2 -4 -5 -15q-2 -3 -2 -12t-6 -7 q-7 7 -7 19z" />
<glyph unicode="t" horiz-adv-x="308" d="M6 271q-5 12 7 26q10 8 31 7h39l32 1v53l16 10q9 10 7 19q-7 -4 -23 -2q0 72 -8 89q-6 1 -10 -5q-6 -9 -8 -11q-1 -4 2 -11t3 -10q0 -4 -3.5 -6.5t-8.5 -2.5q-18 0 -23 19q-1 9 21 36q35 39 108 113q5 13 10 13q3 0 5 -6v-138q-2 -3 -6 -3q-5 0 -13 7.5t-9 7.5 q-2 -4 -2 -8q0 -8 15.5 -21t14.5 -23v-72q-6 -2 -17 -7h-7q-4 -10 2 -15q4 4 11 1q3 -3 2 -12v-12q2 -5 9 -4q2 -1 4.5 -7t4.5 -6l2 2q0 9 6.5 9.5t11.5 1.5h24q-1 7 0 19q8 16 23 12q17 -4 24 -15q2 -4 -4 -27q-18 -17 -38 -20q-7 -1 -58 -1v-4v-55q-1 -15 -10 -15 q-3 0 -10 2q-4 -1 -12 -4q1 -10 17.5 -13.5t16.5 -12.5q0 -3 -2 -7q0 -45 3 -56q4 -25 23 -27l11 3q6 2 9 -5q-2 -11 -14 -16q-15 -8 -20 -14q-2 0 -11 6t-13 6q-2 -1 -3 -2q4 -6 9 -11q7 -9 5 -13q-9 -2 -18 -18.5t-19 -16.5q-3 0 -7 1q-11 9 -27 34l-5 7q1 3 6.5 4.5 t5.5 2.5q-1 2 -3 4q-7 -6 -15 -6q-9 0 -23 10q-18 13 -23 15q4 7 21 21t19 27q11 0 14 2q-13 7 -14 22q1 13 1 26q3 4 11 1q-1 -1 0 -3q4 8 -2 19q-9 0 -10 3v83h-58q1 -21 -14 -28q-23 -2 -36 27z" />
<glyph unicode="u" horiz-adv-x="371" d="M7 225q2 7 6.5 8.5t7.5 5.5q18 21 26 18q1 -2 5 -2q2 10 9 24q5 3 11.5 13.5t12.5 10.5q5 0 14 -7q2 -3 20 -24q12 -13 15 -26l-1 -55q-4 -2 -18 2q-4 -2 -4 -7q1 -8 0 -9q3 -7 12 0q9 1 10 -13v-41q0 -4 -11 -7.5t-11 -7.5q3 -2 13.5 -1t17 -8t20.5 -24q48 18 47 41 q0 6 7 17q2 -1 7 -1q5 7 0 21q6 0 -6 -1q-6 -1 -8 4v75l-2 6q-3 5 -13.5 6t-11.5 10q27 19 45 25q1 0 12 -7q16 5 16 10q-15 2 -15 9q0 1 1 2l16 14q3 4 14 4q1 -4 23 -23l34 -41q-5 -9 -14.5 -5.5t-15 -1t-5.5 -63.5q-6 3 -21 8q-3 -16 4 -19l18 -8q0 -51 0 -48 q1 -19 11 -19q2 -9 -6 -18q2 -1 4 -1t6.5 4.5t6.5 4.5t5 -3t5 -3q5 0 13 8l10 12q10 6 16 -6l-45 -50q-7 -10 -24 -40q-4 -3 -7 -3q-4 0 -10 7.5t-10 9.5t-17 13q1 2 5 6t4 6q0 3 -8 5q-3 -2 -6 -5t-5 -3q-23 0 -34 33q-9 1 -28.5 -8.5l-36.5 -18.5q-2 0 -5 3.5t-5 3.5 q3 -7 -4 -23q-5 -9 -18 -24l-1 1l-3 -3q-18 31 -27 41q-18 21 -41 27q-7 15 -4 20q20 1 20 26v8q-1 6 -1 8q0 24 20 24q4 9 3 11q-1 3 -8 3q-2 -4 -7 -2q-7 2 -8 2q-1 15 -3 35.5t-19 23.5q-2 -2 -9 -10q-7 1 -16 10z" />
<glyph unicode="v" horiz-adv-x="392" d="M8 280q-6 16 7 30q6 -1 5 -7q-1 -9 0 -11q11 -21 34 -27q15 -2 31 10l26 24q4 9 7 9q1 0 11.5 -6.5t22.5 -7.5q21 -1 37 14q1 -1 13 -1q7 0 9 -6q-17 -16 -21 -39q-1 -9 -1 -57q-1 -1 -3 -1t-10 5q-6 3 -6 -2q0 -3 2.5 -8t8.5 -4q2 -2 8 -10q0 -50 7 -54q1 -2 10 -5 t8 -10l-20 -13q3 -12 13 -4l16 12q3 0 6 -1q13 -12 43 -31q7 3 7 44q0 8 6 8q2 0 6.5 -1t6.5 -1q7 0 8 8q-11 1 -28 10v43q7 -3 19 -3q4 19 -1 27q-13 -11 -19 -7v64q-16 -2 -22 5q5 9 17 14q17 7 21 11q-4 0 19 -5q-3 11 0 15t15 12q13 -16 57 -52q2 -5 0 -16 q-6 0 -12.5 -1t-8.5 -9v-43q-8 -7 -14 -2q-5 -6 5 -12q9 1 10 -10v-71q7 -2 18 -12q-1 -14 -18 -14h-33q-28 -5 -62 -47q-4 3 -10 -1q5 -4 3 -8q-7 -8 -17 -24q-5 -6 -10 -5q-19 16 -60 42l-6 8q-3 4 -2 8q4 2 10 7q0 -4 -4 8q-16 -13 -25 -10l-21 13q-9 5 -22.5 6t-15.5 10 q2 6 11 12t11 11q0 42 2 42l7 -2q5 -1 12 3q-2 2 -2 10q0 5 -3 7q-1 0 -4 -2q-2 -2 -5 0l-8 4v62q-13 -3 -18 0q-1 1 -8 11q-1 -6 -9 -14q-52 4 -67 48z" />
<glyph unicode="w" horiz-adv-x="570" d="M12 298q9 4 13 -6q8 -28 39 -32q7 -2 15.5 2.5t10.5 4.5q4 0 8 -3.5t7 -3.5q4 0 6 2q1 4 -3.5 6.5t-3.5 6.5q8 5 36 31q2 0 12 -9.5t31 -8.5q12 0 21 5q14 8 22 10q3 -1 5 -8t3 -7q-19 -19 -21 -37q-1 0 -1 -53q-2 -3 -10 -2.5t-9 -5.5q7 -2 13.5 -4.5t6.5 -21.5 q0 -22 -1 -24q-3 -5 -20 -5q-9 -9 -1 -15l21 5q16 -16 56 -45v29q0 3 12.5 4.5t14.5 4.5q-22 6 -27 15v23q12 1 26 8v11q-4 2 -11 -1.5t-9 -3.5q-4 0 -6 5v66h-19q-12 1 -15 7q2 9 19 11q22 2 27 5q32 23 46 44q16 2 26 -12q12 -18 22 -21q0 -16 -3 -17q-2 0 -19 4 q1 -56 0 -70q-12 0 -20 -11q-1 -2 9.5 -5t11.5 -3l-1 -69l20 -20q12 -11 18 -11q3 0 6 2q11 3 11 18v5.5v5.5q0 15 15 14l2 8q-14 3 -16 24q1 -4 1 32q7 -1 11 5t3 13q1 2 -1 5q-1 0 -6 -1.5t-7 -0.5v4v43q-2 12 -17 10q-3 4 -1 9q3 5 8 5q13 1 27 13q22 21 24 22 q10 9 20 -1q10 -19 45 -38q16 1 26 19v28q9 1 18 -12q5 -6 3 -29q-6 -25 -32 -38q-15 -5 -34 4l-3 4v-77q-2 -1 -12.5 -0.5t-11.5 -6.5q2 -2 16 -3q8 0 8 -17v-34q-1 -7 5 -14l11 -13q-3 -9 -20 -9l-26 -1q-4 0 -8.5 10t-6.5 10q-4 0 -8 -23q-2 0 -15 -5q-33 -9 -65 -66h-11 q-22 23 -67 66q-34 -28 -55 -65q-3 -1 -18 1q2 11 -11.5 22t-13.5 16q0 6 9 12q2 4 0 10q-19 -12 -25 -9q-5 3 -30 22l-18 8q-12 5 -12 11q0 3 8 12t6 17q0 39 2.5 42.5t22.5 7.5q0 11 -1 12q6 1 -24 3v36q-13 -3 -26 -3q-35 0 -59 18q-26 25 -25 62z" />
<glyph unicode="x" horiz-adv-x="472" d="M13 22q-7 33 9 47l15 -5q1 2 -1 20q7 14 36 14q12 0 21 -4l5 -22q0 15 15 15q3 0 7 -1q2 1 15 13q3 3 13 16q2 -1 5.5 -7t9.5 -5q5 13 -1 29l21 28q-1 3 -19 25q1 1 13 7t12 9q-1 2 -2 3l-19 13q-2 -2 -6 -11.5t-9 -8.5q-14 16 -43 41l-4 7q-29 -19 -53 -19q-12 0 -22 5 q-7 9 -2 13q44 -6 71 32q3 4 10 -2.5t10 -6.5q5 0 10 10q-11 0 -17 12q6 5 15 21q5 4 15 4q12 -8 20 -8h8q1 0 9 3t13 3q6 0 10 -4q0 -4 -4 -9t-4 -7q0 -3 4 -6l42 -55q7 13 22 13q-5 14 -4 16q9 14 6 19q-4 1 -8 6.5t-8 6.5q0 5 4 6.5t8 3.5q8 -1 16 -1q33 0 66 26 q6 0 9.5 -8t7.5 -10q-3 -18 8 -29l24 -14q24 2 27 3q20 5 23 21q3 10 -12 26q-6 -1 -10 4q-4 11 7 11q29 -5 34 -26q3 -38 -6 -38q-2 0 -4 1q0 1 -5 -5q0 -2 2.5 -6t0.5 -8q-34 -33 -64 -26q-6 6 -20 16q-1 0 -2 -10.5t-23 -7.5l-22 -27q-2 -3 -23 -29l95 -98q3 -4 14 10 q16 18 21 22q22 8 30 6q5 -3 5 -10t-3 -8q-25 -1 -42.5 -26.5t-20.5 -51.5q-1 0 -14 -9q-21 11 -38 11q-16 0 -33 -11l-16 6q5 8 5 13t-7 11q-16 13 -18 15q19 12 19 15l-4 5q-22 -15 -28 -10q-14 12 -27 29l-36 -46q1 -3 6.5 -8.5t5.5 -8.5q0 -4 -3 -8q-12 5 -26 5 q-28 0 -73 -23h-2q1 19 -22 40q-6 5 -4 24q-12 -13 -14 -13q-4 0 -14 4q-20 0 -20 -18q0 -14 27 -20l3 -12q-38 0 -48 22z" />
<glyph unicode="y" horiz-adv-x="378" d="M6 -178q1 17 3 24t12 21q31 38 78 46q2 0 12.5 -8.5t14.5 -8.5q6 0 5 12q13 8 31 8q23 0 48 -12q-2 -7 2 -21l19 17q28 -7 49 -40q20 5 40 25q2 22 -7 37q-13 24 -14 26q1 2 7 5t5 8q-10 -5 -20 -1q-20 33 -35 45q-20 16 -22 19l-5 8q-1 3 -6 26q-9 0 -41 -24 q-13 -9 -38 -34l-11 2q0 14 -15 26q-4 4 -12 11q0 3 5 5.5t6 3.5q1 7 -1 21q-4 0 -13.5 -9.5t-15.5 -7.5q-10 8 -20.5 15.5t-23.5 7.5q-3 2 -5 15q3 0 14.5 4t14 12.5t2.5 39.5l20 18q-2 5 -2 7q-5 -3 -18 -4q0 33 -4 46q-6 20 -26 29q-22 -4 -26 -3l-6 9l43 35q4 0 9 -7 q6 10 1 14q2 1 18 15q11 8 18 8q6 0 11 -3q45 -56 45 -125l-31 6q1 -11 6 -26q3 5 13 3q14 -4 12 -4v-52q9 -7 16 -14l20 -25q6 3 16.5 9l15.5 9q0 51 2 57q4 13 27 16q0 1 -3 7q-2 4 0 7q-2 2 -14 -1q-10 -1 -12 6v65q1 9 -10 18q-4 -1 -6 4q-3 6 0 7v3q1 0 7 1q14 2 29 14 l28 23l8 11q18 -2 26 -32q1 -1 1 -3t-3.5 -7t-3.5 -7q0 -4 11 -6q15 8 18 4q2 -12 14 -15.5t12 -9.5q0 -2 -1 -6l-12 -7q1 0 -22 11v-68q-3 -4 -7 -2l-7 3q0 -6 8 -19.5t6 -24.5q0 -47 2 -63q4 -22 17 -34q33 -44 33 -79q0 -8 -2 -15q-12 -13 -29 -19q9 -3 26 -8 q8 -6 -4 -33q-20 -51 -89 -54q-37 3 -81 -23q-2 7 -8 21q-2 4 -10.5 11.5t-8.5 12.5q0 6 7 13q0 1 -4.5 5t-6.5 3t-5 -8.5t-11 -5.5q-46 0 -41 1q-5 -1 -8.5 8t-8.5 9q-2 0 -4 -1q-5 -3 -6.5 -11t-3.5 -11q-13 -2 -26 -13.5l-25 -22.5q-2 -1 -13 -1z" />
<glyph unicode="z" horiz-adv-x="440" d="M14 54q5 2 10.5 -3.5t8.5 -6.5q16 -6 30 -6q22 0 47 20q17 15 46 53q4 1 8.5 -4.5t6.5 -5.5t5 8q2 6 -4.5 11.5t-6.5 8.5q1 2 3 4l16 16q-29 9 -47 -5q4 -4 2 -12q-5 -9 -20 -7q-11 3 -7 24q20 23 83 16q9 14 31 41q-22 -5 -43 -5q-10 4 0 14q1 0 1 2q-10 4 -27 -16 q-52 -12 -85 12q-1 -1 -19 -16q-11 -9 -20 -9q-7 0 -14 4q-2 9 8.5 11t11.5 3q40 39 53 92q4 4 8 4t12.5 -6.5t13.5 -7.5q23 -13 44 -12q0 -8 8 -20q10 -6 14 3q0 12 7 15q41 -3 63 4q7 1 8 -5l3 -11q1 -3 6 -11q3 5 8 21q5 4 9.5 8t24.5 5q16 6 33 6q29 0 46 -16q2 -2 7 -8 l-2 -4q-1 -3 1 -5q-5 0 -12 4.5t-11 4.5q-3 0 -7 -2q-12 -6 -54 -59q-11 6 -19 -9q4 -3 8 -10q-4 -11 -20.5 -27.5t-20.5 -28.5q17 -8 28 -6q10 14 11 15q7 8 16 9q3 0 11 -12q-2 -11 -12.5 -16.5t-20.5 -9.5q-4 -2 -9 -2q-8 0 -21 4t-19 4q-7 0 -14 -3l-4 -3q1 -2 6 -7 t3 -9q10 0 35 3q16 2 34 0l5 -28l14 -1q10 20 20 20q5 0 18 -3q1 -2 3 -2q1 0 20 18q12 9 21 9t17 -9q0 -6 -8 -8t-10 -3q-28 -28 -38 -40q-19 -25 -26 -51q-9 4 -29.5 10t-74.5 12q-4 -2 -13 2l4 16q2 9 -3 14q-12 1 -13 -6q-9 -20 -19.5 -23.5t-19.5 -5.5q-74 -19 -93 -19 q-45 0 -69 33q0 1 -4 11q-3 6 -2 10z" />
<glyph unicode="&#xa0;" />
<glyph unicode="&#xaa;" horiz-adv-x="313" d="M11 279q27 11 36 27l15 -9q-2 3 -2 7q0 6 3 14q8 6 18 20q7 0 9 -3q-2 -14 32 -31q16 -3 59 14q9 16 24 20q4 -15 32 -63q-7 -13 -7 -16q3 0 5.5 3t3.5 3q7 -2 26 -14.5t32 -12.5q1 -1 1 -7q-3 -3 -9 -3q-4 0 -9 2q-13 2 -17 -10v-81q-13 -1 -31 -11q11 -7 31 -7v-25 q0 -3 17 -24q8 8 18 10q7 -6 6 -10q-10 -9 -31 -23l-41 -49q-11 1 -39 32q-2 5 -2 8t2 4.5t2 6.5q-2 2 -6 2q-7 0 -58 -40q0 -7 -10 -16q-5 7 -18.5 20t-11.5 22l-3 3q-10 -15 -17 -5q-15 9 -46 31q-1 -2 -10 -3q-3 19 -3 18q16 7 17 28q-1 17 -1 35q-4 0 -10 5q-7 12 4 18 q49 -3 68 3q17 1 42 13q7 -6 8 -5q3 9 19.5 15.5t21.5 11t5 9.5q0 4 -12 15t-11 18q-6 6 -24 12q-4 5 -18 1l-12 -3q-13 -10 -21 -17q-12 -11 -8 -23v-7q0 -9 -3 -14q-21 -16 -27 -16q-15 0 -29 11q-8 16 -1 21q12 14 27 -1q1 -6 -2.5 -7t-3.5 -6l9 -3q13 15 12 21 q-13 13 -7 27q-6 -3 -17 -1q-9 7 -27 35zM87 125l13 2q4 -4 4 -13q0 -5 -2 -13q17 -14 58 -32l-3 -4q9 -2 24 12v61q6 0 13 8h-4q-20 19 -14 34q-24 -14 -31 -12q-6 -7 -20 -11.5t-18 -7.5q1 -8 -6 -18q-3 3 -11 3q-6 -6 -3 -9z" />
<glyph unicode="&#xb2;" horiz-adv-x="559" d="M10 456q4 20 16.5 24.5t22.5 4.5q5 0 9 -2q4 -7 20 -12t20 -9q0 12 4 36q5 0 7 3q1 8 -12 18q2 9 2 16q0 19 -18 20q-2 0 -7 2q0 5 4 12q20 2 60 12q5 -1 16 5.5t15 6.5q9 0 11 -15q2 7 15 19l-2 2q14 11 53 32q34 18 50 34q-1 2 -1 3q0 3 6 6.5t7 7.5q14 10 39 36l18 -6 q2 -1 2 -4q0 -2 -2 -5q-3 -8 -4 -10q-9 -2 -9 -8q0 -3 8 -14.5t49 -58.5l-11 -28h26q16 1 18 -14q17 -24 14 -34q-4 1 -11 -5q3 -4 16.5 -5t17.5 -7q17 -28 7 -72q-2 -8 -14 -29l-38 18q-8 -2 -8 -8q0 -2 2.5 -8.5t2.5 -8.5t10 -15t9 -14l-60 -75q-47 -56 -72 -73v2 q1 3 -1 20t-4 18q-2 0 -10.5 -5.5t-12.5 -4.5l-2 -10q1 -15 0 -17q-1 -12 -2.5 -14.5t-26 -18t-31.5 -18.5q-7 -7 -34 -28l-20 -14q29 3 37 3q0 -6 6 -18q9 -5 26 19q0 6 34 13q30 6 43 6q14 0 30 -1q-2 -12 3 -29q3 2 23 25q18 2 37 0l29 -3q21 -3 35.5 -10l29.5 -14 q14 20 24 27q1 -2 7.5 -7t6.5 -8q-1 -4 -1 -5q-23 -24 -35 -60q-4 -34 -7 -91l-62 16q-26 2 -84 12q2 6 -4 16q-5 1 -10 1q-6 0 -19.5 -8t-20.5 -8q-5 0 -9 2q-11 1 -69 3l-32 -4q-3 6 -12 15q-13 -11 -24 -16q-20 -3 -71 -12q-15 -3 -62 -14q-3 63 38 123q38 56 98 86 l19 -13q4 4 7 19q-2 8 1 19q52 33 98 85l56 66q2 1 5 1t8 -1q8 -1 8 6q-14 8 -10 21q14 18 10 49q3 1 10 1q2 4 2 18q-10 -6 -27 -4q-2 5 -38 53l13 14q-3 6 -13 6q-7 0 -18 -3q-16 21 -54 50q-7 -39 -7 -103q0 -106 1 -99q4 -4 21 -3.5t18 -10.5q-12 -8 -27 -8 q-16 0 -47 15q-4 1 -7 17q-1 6 -10 5q-4 -9 -9 -10q-18 5 -49 27.5t-47 28.5q-5 2 -14 9q-6 -3 -5 -3l-4 3q-1 -1 -1 -8q6 -7 6 -8q1 -1 -5 -10q-4 -2 -9 -2q-17 0 -31 26z" />
<glyph unicode="&#xb3;" horiz-adv-x="546" d="M19 103q4 47 55 72q41 20 93 20q82 0 120 -63q-6 -7 -29 -23q5 -3 14 -3q4 0 12 1t12 1q7 12 7 13h3q17 -25 27 -43q5 -6 10 -28q60 -7 78 63q22 0 25 6t10 28l-32 -5q-4 0 -6 14q-3 20 -7 26.5l-19 29.5l32 4q2 8 4 17q-4 5 -14 5q-5 0 -15 -3q-22 -6 -35 6q-3 5 -12 10 q-12 7 -12 11q11 14 16 12q-13 19 -31 19h-2q-2 -6 -8 -16q-15 15 -46 30.5t-48 18.5t-42 5l-48 5q4 5 24 28l34 38q13 13 25 13q11 0 33 -11q0 1 -12 14t-11 14q10 11 48 50q52 52 61 65q-13 -3 -36 -1q1 12 -11 12q-5 0 -8 -5l-7 -9l1 -1q-6 -3 -58 -6q-25 1 -59 2 q0 -5 2 -16.5t2 -16.5q0 -22 -8 -35q-7 -3 -22 -8q-16 6 -16 14l2 13q10 12 12 12q6 0 12 -10q6 -2 6 15q0 10 -8 30t-8 28q0 4 7 10l8 8q-11 -4 -15 -4q-9 0 -16 31q-17 26 -39 80q4 6 10 6q4 0 44.5 -15.5t59.5 -15.5q3 -24 11 -24q3 1 7 13q4 9 11 9q6 0 41 -5 q5 -11 21 -30q4 3 9 16t12 14q28 3 71 10v-3q0 -7 10 -7l11 1q4 9 25 22q20 3 64 24l9 -1q5 -6 5 -9q0 -4 -2 -6q-16 -16 -40 -49.5t-38 -50.5q-11 -10 -122 -138q21 -7 42 -15q32 -13 62 -36l28 -24q-3 -1 -8 -9.5t-4 -8.5q-5 -4 -18 -24l52 20q30 -27 58 -68q6 -8 10 -22 q4 -17 7 -23q-9 -7 -20 -17q-4 -5 -3 -6q4 -2 4 -3.5t5.5 -4.5t5.5 -4l18 -3v-7q0 -86 -61 -147t-147 -61q-31 0 -49 2q-4 8 -14 23q-19 -19 -26 -19h-4q-11 1 -32 14l2 20q-4 28 -23 57q0 5 6.5 10t6.5 9q0 19 -9 21q-10 -9 -8 -18l-8 -6q-15 16 -35 26l-10 15l-11 -7 q-8 11 -27 10q-21 -2 -37 -22.5t-27 -19.5z" />
<glyph unicode="&#xb9;" horiz-adv-x="364" d="M18 10q0 20 7 23q36 0 47 -13l4 3q-7 4 -4 13h37v54q0 33 10 50q4 6 11 4h13q-1 7 -16.5 18.5t-17.5 18.5v171q2 23 35 41q1 3 7 8t6 8t-1 4q-7 1 -20 -12t-19 -13q-4 0 -8 3q5 21 5 48q0 16 -2.5 49t-2.5 49q-1 1 -9 -3q-2 1 -6 1q-8 0 -21 -5q-5 -9 -13 -8q-8 22 -7 32 q15 0 89 30q-3 0 0 -4q11 13 34.5 30.5t32.5 27.5q8 -5 22 -3q-4 8 -4 15q0 14 18 31q22 21 25 26q7 2 13 -6l6 -8q-12 -11 -30 -37q-1 -25 0 -72q-9 -4 -15 -16q-7 -15 -10 -18q3 -15 5 -23q8 1 14 1q5 0 7 -1q-3 -18 -3 -43q0 -19 2.5 -57t2.5 -57q0 -18 -2 -37 q0 -2 -3 -9.5t-1 -11.5q-3 -1 -5 -1q-3 0 -8 2t-7 2q-4 0 -8 -7l4 -2l2 1q23 -32 23 -47q0 -6 -1 -12q-6 -3 -16 -11q12 -5 15 -18q2 -9 1 -23q-2 -22 -5 -106q-6 5 -14 0l-13 -8q12 -3 22 -6q13 -7 10 -40q9 -5 25 -4q18 2 25 0q3 -1 13 3q7 3 8 -3q5 3 10 3t10 -3 q5 -12 2 -22l-4 -16q-18 -1 -119 -3l-206 -1q-2 12 -2 20zM222 615l4 5l5 -2z" />
<glyph unicode="&#xba;" horiz-adv-x="280" d="M11 218q-3 8 11 11q11 1 21 2t20 4q17 4 35 9q12 3 54 30q4 1 12.5 -6t12.5 -5q0 4 -6 8.5t-6 6.5q0 1 2 4q12 8 33 25q11 2 11 -10q-2 -4 -6 -7q9 -17 45 -49q5 -4 19 -10q7 -4 4 -12q-6 -8 -15.5 -7t-10.5 -4q-1 -3 0 -35q1 -19 -12 -26l-5 -5q8 1 18 -11q0 -22 2 -27 q4 -9 22 -21q-7 -12 -19.5 -10.5t-29.5 -3.5q-8 -3 -11 -3q-7 0 -9 8q0 -9 -5 -11t-15 -10q-21 -19 -32 -17q2 -10 -3 -17q-6 -1 -14 -10.5t-11 -10.5q-9 10 -31 29q-7 8 -3 12l10 10q-3 2 -11 2q-5 0 -11 -1q-17 -2 -25 8q-9 4 -26 15q-5 1 -13 6q1 3 15 10q11 5 7 14 q2 1 13 5q2 1 3 8q-14 -2 -16 4q-1 15 -1 31l21 14q-4 2 -4 9q-1 0 -7.5 -3.5t-9.5 -3.5t-4 7q0 33 -4 38q-6 -1 -15 6zM96 153q-1 0 2 -6l11 -4q9 -5 8 -27q-1 -10 4.5 -14.5t11 -8t5.5 -7.5t-6 -9.5t-6 -6.5q5 1 16 7q1 0 7 3q3 3 7 -1q8 -5 18 -12l6 4v51q2 4 10 3t11 0 q-4 13 -22 21v37q0 3 -12 18l-7 9q-6 8 -13 8q-5 0 -17 -6t-17 -6q1 -8 1 -52q-4 -1 -18 -1z" />
<glyph unicode="&#x152;" horiz-adv-x="1469" d="M769 -4q0 13 3 36l24 56q40 60 82 84q0 23 4.5 25.5t11.5 4.5l3 2q16 10 17 8q5 0 -2 3.5t-13 2.5q-18 -2 -21 5q0 23 1 37v31l22 4q21 4 21 7q-21 5 -43 18v73q9 9 30 23q2 16 -2 20q-4 0 -11.5 -6t-9.5 -6q-5 0 -8 6v137q-3 2 -5 2q-4 0 -30 -15q-1 -4 6.5 -12t7.5 -12 q0 -3 -1 -5q-25 -19 -29 -17q-2 4 -10.5 6t-10.5 6q-7 26 10 42q7 11 29.5 21.5t29.5 18.5q6 -1 14.5 6t12.5 7t9 -4q4 12 12 10q32 18 94 69q2 2 9 12t10 10q7 0 28 -32q19 -7 37 -12q11 0 27 -5q2 -2 7 -38q7 11 20 26q8 2 24.5 -20t17.5 -31q4 2 8 33.5t12 31.5 q78 8 123 25l21 -81q23 -68 51 -68q8 0 18 7q2 1 6 10t11 9q8 0 8 -9q-1 -12 -2 -13l-21 -28q-8 -1 -17 -1q-31 0 -53 21q-6 -6 -31 -8q5 4 -6 16q-8 -5 -18 -19q-5 -2 -45 -5q-5 6 4 16h-16q-3 0 -12.5 -10t-52.5 -10q-37 0 -67 10q-2 13 -6 32q-10 5 -35 -19q-8 -2 -17 -2 q-17 0 -32 9l-16 9q-5 0 -5 -100q-1 -2 -20 -20q-15 -14 -14 -21q12 5 20 5q7 0 11 -4q43 -12 77 -12q41 0 99 21q7 4 49 23q9 7 25 18q-1 -5 4.5 -11.5t5.5 -8.5q0 -1 -29 -35q-19 -17 -56 -53q-34 -31 -37 -65q17 -10 16 -18q-9 -11 -20 -9q-20 16 -9 54q0 9 -4 15.5 t-4 8.5q-5 2 -29 16q-15 10 -35 11q24 -1 -45 -1l1 -90q-11 -20 -29 -44q7 -3 23 -6q7 -2 6 -6v-30t0 -15q2 1 30 1q77 0 95 -4q24 -2 68 -15q2 -2 3 -29q0 -17 7 -15l19 19q8 18 31 15q20 -3 40 -5q28 -5 43 -13q6 2 35 11q-3 0 34 13q3 3 8 14q1 10 12 14q12 -3 26 -14 q6 -38 -34 -47q-35 -8 -67 -32q-14 -10 -25 -10q-7 0 -13 1l-28 -4q-3 -1 -1 -11q2 -6 14 -11t12 -6q-7 -8 -34 -51q-18 8 -71.5 16t-78.5 22q-2 2 -4 23t-6 21q-12 -13 -35 -32q-45 5 -133 17q10 16 10 24q0 5 -13 7q-16 2 -19 8q-5 -18 -22 -35q-70 7 -100 -60 q-1 3 -4 -15q-1 -9 3 -15q0 -3 9 -12l7 -2q-3 7 -3 19q10 13 25 13q10 0 24 -7q4 -12 3 -14h-8l-4 5q-10 1 -20 -19q-4 -11 -6 -38q-5 -4 -10 -4q-8 0 -31 16q-21 21 -24 26q-8 12 -8 32zM25 366q-1 50 35 133q7 16 35 61q11 18 28 18q7 0 41 -12q0 6 -2.5 19t-2.5 19 q0 19 93 59q18 5 99 18q43 -6 52 -8q42 -7 43 -18q13 -3 15 -9q0 -7 -5 -7l-10 1q-19 9 -41 9q-27 0 -53 -12v-2q-5 4 -16 0q-14 -5 -18 -5q-40 -22 -61 -42q-4 -1 -15.5 13t-15.5 12q3 -14 3 -24q0 -11 -6 -24.5t-6 -17.5q-26 -28 -31 -35q-11 -15 -18 -42q-1 -6 -21 -14 q-23 -9 -25 -12l29 -27q-3 -32 -3 -63q0 -96 35 -159q0 -5 -3.5 -12t-3.5 -10q21 -2 30 -14q1 -2 17 -31q16 -11 21 -23q55 -58 129 -58q88 0 179 71q39 39 53 67q24 49 24 127q0 21 -1 43q-12 46 -48 111q37 9 37 23q0 7 -9 19t-9 14q0 1 2 2q-15 -14 -39 -32 q-52 43 -94 63q-28 -14 -80 -53q0 -59 -1 -187q22 6 46 6q13 0 21 -11q-3 -6 -16 -13q-17 0 -43 -11t-40 -12l-24 39q-10 -8 -10 -26q0 -5 3 -22q1 -11 0 -12q-16 -21 -53 -58q-5 -1 -15 -1q-5 2 -5 7t5 12q13 12 15 48v111q-1 5 6 16.5t7 15.5q-1 3 -2 4q-4 -1 -6 -1 q-7 0 -6.5 12t-0.5 34q-1 26 -1 34q-8 1 -17 1q-13 1 -16 8q-1 6 4 17l64 1q10 1 27 11l65 22q35 17 76 52l68 63q12 6 24 21q4 -2 23 -15q2 -2 2 -5t-7 -8t-8 -9q6 -4 34 -27q12 -10 26 -25q27 -29 43 -63q-5 -2 -9 -17t-2 -21q4 -5 8 -5q3 0 11 9t10 9q1 -1 1 -2 q39 -60 39 -149q3 -11 0 -13q-6 -106 -49 -169l-11 14q-11 14 -19 14q-3 0 -6 -4q2 -9 8 -28q9 -30 6 -30q-5 -11 -31 -44q-52 -38 -95 -60q-20 -13 -38 -20l-41 -16l-25 -5q-12 -1 -32 1q-23 -1 -37 -1t-19 1q-36 1 -114 16l-69 31q-21 14 -50 44q-34 34 -37 52l-19 32 q-1 1 -1 3q0 1 23.5 15.5t18.5 28.5q-1 6 -22 6h-27q-8 1 -8 5q-6 4 -10 35q-6 50 2 71q7 1 15 12t11 12.5t3 8.5q-5 2 -13.5 -2.5t-10.5 -4.5q-7 0 -12 6z" />
<glyph unicode="&#x153;" horiz-adv-x="585" d="M294 228q3 15 15 17l25 4q18 5 26 5q10 0 19 -6q2 15 39 27l52 28q4 0 10 -3t8 0q-1 6 -7 17q23 11 26 4l1 -24q16 -31 49 -89q10 3 19 -11q3 -6 -7 -8.5t-16 -1.5q-12 4 -14 5q-7 0 -11 -6q-62 6 -107 -45q3 -10 8 -10q3 0 9 3.5t8 3.5q4 0 7 -3q4 -14 -15 -25 q-23 -2 -30 10v-16q6 -3 14 -10l38 -24q4 2 23 16q14 10 24 6q1 -6 1 -20q-18 -2 -35 -17l-32 -30q-22 -28 -23 -25q-4 -7 -23 13l-12 12q-4 3 -2 14q-2 -1 -7 -1q-4 0 -10 1q-19 10 -56 34q-7 16 -6 19q16 2 19 25q1 6 1 46q3 1 17 3q10 2 10 11q-6 -2 -13 3q-11 8 -12 8 q-5 2 -5 15v4q0 17 -14 17q-5 -1 -11 4zM408 165q20 12 61 32l-7.5 5.5t-1.5 5.5q3 5 10 10l-14 -1q-8 4 -15 16q-10 15 -13 18l-20 -10v-76zM11 218q-3 8 11 11q11 1 21 2t20 4q17 4 35 9q12 3 54 30q4 1 12.5 -6t12.5 -5q0 4 -6 8.5t-6 6.5q0 1 2 4q12 8 33 25 q11 2 11 -10q-2 -4 -6 -7q9 -17 45 -49q5 -4 19 -10q7 -4 4 -12q-6 -8 -15.5 -7t-10.5 -4q-1 -3 0 -35q1 -19 -12 -26l-5 -5q8 1 18 -11q0 -22 2 -27q4 -9 22 -21q-7 -12 -19.5 -10.5t-29.5 -3.5q-8 -3 -11 -3q-7 0 -9 8q0 -9 -5 -11t-15 -10q-21 -19 -32 -17q2 -10 -3 -17 q-6 -1 -14 -10.5t-11 -10.5q-9 10 -31 29q-7 8 -3 12l10 10q-3 2 -11 2q-5 0 -11 -1q-17 -2 -25 8q-9 4 -26 15q-5 1 -13 6q1 3 15 10q11 5 7 14q2 1 13 5q2 1 3 8q-14 -2 -16 4q-1 15 -1 31l21 14q-4 2 -4 9q-1 0 -7.5 -3.5t-9.5 -3.5t-4 7q0 33 -4 38q-6 -1 -15 6zM96 153 q-1 0 2 -6l11 -4q9 -5 8 -27q-1 -10 4.5 -14.5t11 -8t5.5 -7.5t-6 -9.5t-6 -6.5q5 1 16 7q1 0 7 3q3 3 7 -1q8 -5 18 -12l6 4v51q2 4 10 3t11 0q-4 13 -22 21v37q0 3 -12 18l-7 9q-6 8 -13 8q-5 0 -17 -6t-17 -6q1 -8 1 -52q-4 -1 -18 -1z" />
<glyph unicode="&#x2000;" horiz-adv-x="400" />
<glyph unicode="&#x2001;" horiz-adv-x="800" />
<glyph unicode="&#x2002;" horiz-adv-x="400" />
<glyph unicode="&#x2003;" horiz-adv-x="800" />
<glyph unicode="&#x2004;" horiz-adv-x="266" />
<glyph unicode="&#x2005;" horiz-adv-x="200" />
<glyph unicode="&#x2006;" horiz-adv-x="133" />
<glyph unicode="&#x2007;" horiz-adv-x="133" />
<glyph unicode="&#x2008;" horiz-adv-x="100" />
<glyph unicode="&#x2009;" horiz-adv-x="160" />
<glyph unicode="&#x200a;" horiz-adv-x="44" />
<glyph unicode="&#x2013;" d="M100 250v100h300v-100h-300z" />
<glyph unicode="&#x2014;" horiz-adv-x="1000" d="M100 250v100h800v-100h-800z" />
<glyph unicode="&#x2019;" horiz-adv-x="161" d="M21 699l40 18l44 20l11 -12l-5 -13q4 3 8 3q6 0 29 -28q-4 -7 -7 -7q-2 0 -6 2t-5 2l-19 -40l-20 -14q7 -1 17 -5l-22 -67q-12 0 -38 88q6 7 19 17l-7 10q-6 2 -8 0q-3 -3 -7 -4q-4 22 -16 18z" />
<glyph unicode="&#x201c;" horiz-adv-x="332" d="M20 708q7 3 50 17q26 -19 23 -19q2 0 6 25l23 8q17 -13 43 -44l-11 -11l-10 6l-9 -25q-9 -2 -9 -13q0 -4 6 -12q-11 -24 -25 -64q-8 -25 -12 -25q-6 0 -25 58l22 15q-17 9 -29 13q-3 12 -8 25l-7 26l-19 3q-4 8 -9 17zM185 711q28 6 56 15l36 15l43 -54q-1 -1 -3 -6 t-5 -4l-8 4l-24 -44l-21 -4l11 -19q-21 -68 -29 -68q-6 0 -17 34l11 27l-17 -8l-6 44q17 -4 17 15q0 15 -13 15q-4 0 -10 -3q-1 5 -4 22l-14 -3z" />
<glyph unicode="&#x201d;" horiz-adv-x="332" d="M20 708q7 3 50 17q26 -19 23 -19q2 0 6 25l23 8q17 -13 43 -44l-11 -11l-10 6l-9 -25q-9 -2 -9 -13q0 -4 6 -12q-11 -24 -25 -64q-8 -25 -12 -25q-6 0 -25 58l22 15q-17 9 -29 13q-3 12 -8 25l-7 26l-19 3q-4 8 -9 17zM185 711q28 6 56 15l36 15l43 -54q-1 -1 -3 -6 t-5 -4l-8 4l-24 -44l-21 -4l11 -19q-21 -68 -29 -68q-6 0 -17 34l11 27l-17 -8l-6 44q17 -4 17 15q0 15 -13 15q-4 0 -10 -3q-1 5 -4 22l-14 -3z" />
<glyph unicode="&#x2026;" horiz-adv-x="636" d="M453 38l36 36q14 12 39 37q4 7 13 4l2 -5q1 -2 13 -14.5t10 -12.5q-17 -2 -17 -7q0 -13 35 -8q4 -6 27 -23q3 -2 3 -9l-24 -22q-5 -5 -10 -2l-7 5q-1 0 0 -14q-1 -1 -35 -32q-4 4 -21 17q-11 8 -11 14t8 13l-3.5 7t-4.5 7l-18 -21q-1 2 -22 17zM241 38l36 36q14 12 39 37 q4 7 13 4l2 -5q1 -2 13 -14.5t10 -12.5q-17 -2 -17 -7q0 -13 35 -8q4 -6 27 -23q3 -2 3 -9l-24 -22q-5 -5 -10 -2l-7 5q-1 0 0 -14q-1 -1 -35 -32q-4 4 -21 17q-11 8 -11 14t8 13l-3.5 7t-4.5 7l-18 -21q-1 2 -22 17zM29 38l36 36q14 12 39 37q4 7 13 4l2 -5q1 -2 13 -14.5 t10 -12.5q-17 -2 -17 -7q0 -13 35 -8q4 -6 27 -23q3 -2 3 -9l-24 -22q-5 -5 -10 -2l-7 5q-1 0 0 -14q-1 -1 -35 -32q-4 4 -21 17q-11 8 -11 14t8 13l-3.5 7t-4.5 7l-18 -21q-1 2 -22 17z" />
<glyph unicode="&#x202f;" horiz-adv-x="160" />
<glyph unicode="&#x205f;" horiz-adv-x="200" />
<glyph unicode="&#x2122;" horiz-adv-x="1796" d="M937 24q0 43 24 83q3 1 9.5 -2t8.5 -3q3 0 5 5q-8 11 1 19q29 26 74 34l1 45q11 3 24 16q-3 -1 -7 -1q-14 0 -17 22q0 13 1.5 38.5t1.5 38.5q21 9 17 20v5l-17 3v94q16 4 16 12q0 2 -2 3q-14 5 -14 11q0 92 -3 110h-9q-19 -14 -53 -44q4 1 10 1q5 0 13 -1q8 -4 12 -26 q-2 -6 -13 -6.5t-13 -4.5q-22 3 -31 19q-1 7 -1 13q0 21 57 59q70 47 145 121q10 0 15 -5q-1 -6 -9 -16q12 -13 42 -35.5t42 -37.5q-1 -3 -1 -8t1 -12q9 14 22 14q18 -14 48 -45l-2 -1q5 -10 33 -13l62 -53q15 16 45 43q2 12 18 29q22 22 25 27q18 30 33 30q3 0 7 -1 q-2 8 4 26q4 9 23 25t22 28q8 7 16 5t8 -15q-4 -3 -11 -9q19 -22 55 -60l-2 -10q5 1 8 1q11 0 24 -15q15 -18 21 -21q0 -2 13 -14q10 -10 9 -21q-3 -3 -8 -3q-6 0 -14 3v-110q-1 -3 -8.5 -6.5t-7.5 -7.5q0 -1 1 -3q11 -8 14 -25q1 -10 0 -31q-2 -14 -2 -31l-12 -8 q14 -24 14 -59q-1 -27 -1.5 -46.5t-0.5 -15.5q-5 0 -10 -14q14 2 16 -2v-7q0 -8 8 -14q2 -11 20 -17q0 13 16 17q9 0 12 -6q-4 -11 -16 -27q-15 -18 -19 -26q-8 -6 -27 -17q2 1 6 1q3 0 8 -1v-8q-22 -28 -62 -84h-11q0 9 3 10q-13 6 -32 26l-29 29t-3 6q0 7 7 18 q-4 1 -8 15.5t-18 15.5q-2 15 -2 86q8 4 17 14q1 5 -3 8q-5 -1 -14 8v91q13 11 40 25q1 1 -2 8q-7 -5 -17 -5q-9 0 -21 4q0 79 -3 110q1 1 1 16q0 12 10 15q-2 5 -8 2q-7 -2 -9 -1q-22 32 -47 38q-41 -10 -62 -66q-2 -18 -2 -88q0 -3 -7.5 -5.5t-7.5 -5.5q0 -1 10.5 -17.5 t6.5 -25.5q16 2 20 3q13 4 17 14q-5 4 -13 16q0 16 23 33l13 -5q-2 10 8 13q9 2 17 0q14 -6 14 -18q0 -5 -2 -11q-23 -40 -97 -74q-1 -23 0 -33q2 -11 2 -32q-6 -3 -13 -7t-6 -10q15 -6 17 -20q0 -27 7 -80q7 2 15.5 5.5t6.5 11.5q7 6 19 6q6 -7 6 -12q0 -3 -2 -6 q-9 -2 -19 -16.5t-18 -16.5q0 -8 -10 -14.5t-10 -10.5q0 -2 3 -7q-5 -7 -28 -35l-26 -2q0 -1 6 -7.5t6 -10.5q0 -3 -6 -7q-20 -4 -31 17q-15 29 -20 32l4 11q-2 2 -4 2q-3 0 -6 -2q-7 -3 -11 0q-24 23 -28 28q-16 18 -18 34q7 6 10 5q15 8 16 37.5t13 36.5q-2 2 -15 6 q2 16 -3 43q-17 -5 -41 -28q6 -3 16 -12q1 -9 -19 -31q-8 -5 -18 -5q-7 0 -14 2q-9 6 -9 19q0 10 7 26q33 38 43 38q3 0 7 -1q0 -3 5 -3q1 12 22.5 22.5t23.5 25.5l-2 1q-6 -6 -13 -6q-4 0 -8 3q0 24 -1 90q-8 4 -19.5 16.5t-18.5 16.5q-2 4 -15 15q-8 7 -5 17q3 3 9 6 q-3 5 -5 5t-10.5 -6t-12.5 -4l-25 22v-81q-5 -5 -12 -5q-10 1 -12 1q18 -10 22 -33q2 -9 2 -42q-2 0 -9 2.5t-11 2.5q-13 0 -16 -23l36 -18v-93q-27 0 -27 -5q0 -2 14 -10t14 -10q0 -20 -1 -22q12 -14 29 -21q4 9 15 21q8 -1 19 -11q2 -6 -5 -12l-9 2q-2 -19 -19.5 -55 t-22.5 -51.5t-10 -15.5q-3 0 -6 2q-12 18 -44 50l6 11q5 8 2 12q-2 -1 -6.5 -8.5t-7.5 -7.5t-6 3l-3 2q-4 -2 -7 -2q-6 0 -16.5 6.5t-19.5 11.5q-11 0 -32.5 7.5t-34.5 6.5l-19 12q2 -1 1 -7q3 -7 -14 -17t-18 -13q-27 -33 -22 -74l7 -9q3 1 6 9.5t9 6.5q29 3 53 -13 q7 -8 6 -22q-12 -3 -12 -2q-3 8 -16 18q-9 -3 -21 -14q1 -6 -2 -17t-3 -15q-2 1 -24 4q-14 2 -18 13q-13 30 -14 32q0 7 4 13q-6 12 -6 31zM16 536q0 20 13 45l10 16q4 15 28 29q11 7 75 28q49 16 115 18l27 -37q13 25 26 36q27 -6 88 -15q14 -18 25 -41q3 0 5 14t5 17 q13 2 35 -2q17 -3 37 -6q90 -15 179 -3q3 -10 12 -23q21 0 19 12q-3 16 0 17q26 6 32 9q20 7 21 21q6 10 19 10q16 0 14 -17q-5 1 -13 -9q-5 -36 16 -61q-22 -7 -22 -18q0 -5 11 -5q7 0 17 2q18 -5 47 -37q57 -46 56 -61q17 -19 -11 -31q-22 -8 -42 -7q-11 14 -10 18 q-1 8 4.5 14.5t12.5 3.5q17 -2 19 -18q3 3 2 6q-1 6 0 7q-6 13 -24 26l-34 23q-21 0 -71 -14q-45 -13 -74 -9q0 11 -11 11q-9 -8 -13 -17q-22 -7 -48 -7t-56 7l-5 -3v-88q-14 -6 -28 -20l14 -11l-5 -6q-6 -6 -4 -9q10 4 16.5 -5.5t6.5 -20.5v-81q-1 -3 -18.5 -13t-13.5 -20 q2 -4 32 -4v-39q0 -56 -1 -28q1 -21 11 -20q9 15 16 15q2 0 11.5 -6.5l12.5 -8.5q-20 -19 -40 -58.5l-39 -78.5q-36 30 -73 48q-1 1 -51 17q-33 11 -43 27l-4 3l-5 -12.5t-11 -12.5q-6 -3 -24.5 -4.5t-29.5 -10.5q-28 -21 -28 -38q0 -22 -1 -20q-2 -5 9 -20q2 -1 5 -1t7 1 q-1 4 6 24q16 17 28 16q6 -4 18.5 -6.5t9.5 -11.5l-18 -6q-16 -5 -18 -22q-2 9 -2 -32q-1 -5 -11 -4t-13 1q-13 3 -44 28q-16 22 -16 49q0 15 6 31q21 65 99 105q41 21 84 22v118q15 0 33 7q-23 4 -33 47l26 2q3 8 -11.5 16t-14.5 16v51q3 16 25 17l3 32q-3 1 -11.5 -3 t-11.5 -4q-5 0 -5 7v66q-5 -1 -12 3.5l-13 8.5l-2 12q-2 2 -9 -2.5t-8 -4.5q-50 19 -152 46q-2 6 -12 14q-14 -12 -56 -14t-59 -17q-17 -9 -28 -37q0 -19 16 -36l14 13q1 -1 5 -1q0 14 15 22q3 1 28 8q23 0 36 -15q0 -10 -3 -10q-19 15 -35 7l-16 -12q4 -3 4 -7q0 -3 -2 -5 q-3 -10 -3 -14v-25q-62 9 -82 42q-13 14 -13 34z" />
<glyph unicode="&#xe000;" horiz-adv-x="330" d="M0 330h330v-330h-330v330z" />
<glyph unicode="&#xfb01;" horiz-adv-x="494" d="M325 230q12 7 41 35q5 2 8.5 -2.5t7.5 -4.5q2 4 5 11q-9 4 -9 9q0 2 4 5.5t17 18.5l5 3q-3 0 12 -19q25 -30 38 -47q14 -3 7 -15l-22 -12l-1 -50q-3 -18 -17 -21q-4 -2 -3 -5q3 -3 5 -4q3 0 6.5 4t4.5 4q6 0 6 -17l2 -24q2 -16 10 -18q4 0 12 6t12 6q2 0 6 -1q2 -4 6 -15 q-20 -7 -44 -33l-35 -44q-8 10 -27 29q10 20 9 21q-4 1 -12 1q-1 -1 -12 -7q-4 4 -15.5 14l-22.5 19q-3 10 0 12l8 4q11 8 12 14v13q5 3 12 8l7 3q7 4 4 11l-10 -6q-5 0 -13 4v82q-11 -4 -23 -1q-1 1 -1 9zM340 376q9 5 25 20q2 2 4 2q3 0 5 -5l4 2q-3 1 -3 5q0 2 1 7 q6 4 15 21q6 13 18 9l1 -12q1 -5 13 -17t12 -18q0 -5 -4 -9q1 0 5.5 4t6.5 4t7 -4.5t9 -3.5q4 -3 4 -6q0 -2 -2 -3q-15 -4 -31 -24q-20 -24 -28 -29q-6 2 -14.5 15t-15.5 14q3 13 -1 13q-7 -1 -16 -1q-7 4 -15 16zM1 283v20q3 24 34 24h27q1 1 7 -2q7 2 20 9q0 20 11.5 31.5 t12.5 16.5q-9 -4 -24 -3v83h-5l5 1q-6 2 -14 6q5 13 14 17q10 0 30.5 11.5t29.5 11.5q2 -3 -1 -3l3 -3q1 7 10 22q9 9 31 29q11 5 25 28.5t27 27.5q2 -3 1 -11q-1 -6 -1 -12l-2 -1q17 -42 35 -58q2 -2 2 -4q0 -3 -2 -6l-2 -8q12 6 22 -10q11 -6 34 -21q7 -1 21 21 q-13 6 -4 23q3 2 6 2q5 0 9 -9q6 -12 7 -13q-8 -37 -52 -68q-4 -2 -26 -10q-28 4 -40 9q-20 8 -31 24l-1 11q-9 -1 -38 25v-64q-3 -16 -16 -23q0 -10 2 -11q1 8 15 5v-70q47 -7 65 -3q-3 7 3 20q8 6 24 4q0 -2 7.5 -12t7.5 -16q0 -12 -6 -16t-7 -5q-32 0 -95 -2v-139 q0 -72 26 -75q9 6 27 16l10 -3q-1 -6 -1 -18q-31 -9 -58 -45l-28 -40q-5 -7 -10 -4q-6 4 -10 7q-14 14 -15 18q-2 6 4 20q5 -1 -23 -8v5q-12 11 -48 28q-1 5 0 12l33 36q1 13 21 13q-1 2 -11 6t-10 11v42q14 0 36 9q-1 4 -7 9q-4 -1 -15 1q-10 2 -14 -1v96q1 -1 -59 -3 q0 -3 6 -5t6 -4q0 -5 -18 -19q-11 3 -23 17z" />
<glyph unicode="&#xfb02;" horiz-adv-x="497" d="M320 415q0 14 10 31q1 1 20 28q13 18 29 22q14 -9 10 -9q3 4 3 6q0 4 -2.5 10t-2.5 9q0 2 2 4q6 6 18 31q10 21 22 29l9 -9v-139l-26 -17q6 -8 11 -5q2 1 9 1q0 -8 8 -13v-101l-7 -9t-10 -2q-4 -4 -2 -6l1 -1q5 0 13 1q7 -14 7 -87q-13 -8 -13 -12q0 -3 1 -4 q14 -1 14 -40l29 -37l10 3q6 0 7 -7q-12 -10 -24 -35q-6 2 -17 -4q0 -16 -27 -55l-7 1l-20 20q-11 12 -12 23q5 5 5 8q0 2 -1 3l-2 1q-2 -5 -12 -5q-5 0 -11 1q-22 22 -37 30q3 9 13 21q7 2 10 -6q2 -4 5 -5q2 3 -2.5 13.5t-4.5 13.5q0 5 7 9v94q2 3 16 6t12 10 q-2 4 -15.5 7.5t-12.5 12.5q5 11 13 15q6 0 8 4q0 9 -4 12q-8 -1 -17 4v53q1 7 11.5 7t11.5 5q-18 7 -22 33q-1 9 -1 57q-7 -5 -16 -19q-1 -5 3 -15l2 -11q-4 -3 -8 -3q-14 0 -14 17zM1 283v20q3 24 34 24h27q1 1 7 -2q7 2 20 9q0 20 11.5 31.5t12.5 16.5q-9 -4 -24 -3v83 h-5l5 1q-6 2 -14 6q5 13 14 17q10 0 30.5 11.5t29.5 11.5q2 -3 -1 -3l3 -3q1 7 10 22q9 9 31 29q11 5 25 28.5t27 27.5q2 -3 1 -11q-1 -6 -1 -12l-2 -1q17 -42 35 -58q2 -2 2 -4q0 -3 -2 -6l-2 -8q12 6 22 -10q11 -6 34 -21q7 -1 21 21q-13 6 -4 23q3 2 6 2q5 0 9 -9 q6 -12 7 -13q-8 -37 -52 -68q-4 -2 -26 -10q-28 4 -40 9q-20 8 -31 24l-1 11q-9 -1 -38 25v-64q-3 -16 -16 -23q0 -10 2 -11q1 8 15 5v-70q47 -7 65 -3q-3 7 3 20q8 6 24 4q0 -2 7.5 -12t7.5 -16q0 -12 -6 -16t-7 -5q-32 0 -95 -2v-139q0 -72 26 -75q9 6 27 16l10 -3 q-1 -6 -1 -18q-31 -9 -58 -45l-28 -40q-5 -7 -10 -4q-6 4 -10 7q-14 14 -15 18q-2 6 4 20q5 -1 -23 -8v5q-12 11 -48 28q-1 5 0 12l33 36q1 13 21 13q-1 2 -11 6t-10 11v42q14 0 36 9q-1 4 -7 9q-4 -1 -15 1q-10 2 -14 -1v96q1 -1 -59 -3q0 -3 6 -5t6 -4q0 -5 -18 -19 q-11 3 -23 17z" />
<glyph unicode="&#xfb03;" horiz-adv-x="804" d="M635 230q12 7 41 35q5 2 8.5 -2.5t7.5 -4.5q2 4 5 11q-9 4 -9 9q0 2 4 5.5t17 18.5l5 3q-3 0 12 -19q25 -30 38 -47q14 -3 7 -15l-22 -12l-1 -50q-3 -18 -17 -21q-4 -2 -3 -5q3 -3 5 -4q3 0 6.5 4t4.5 4q6 0 6 -17l2 -24q2 -16 10 -18q4 0 12 6t12 6q2 0 6 -1q2 -4 6 -15 q-20 -7 -44 -33l-35 -44q-8 10 -27 29q10 20 9 21q-4 1 -12 1q-1 -1 -12 -7q-4 4 -15.5 14l-22.5 19q-3 10 0 12l8 4q11 8 12 14v13q5 3 12 8l7 3q7 4 4 11l-10 -6q-5 0 -13 4v82q-11 -4 -23 -1q-1 1 -1 9zM650 376q9 5 25 20q2 2 4 2q3 0 5 -5l4 2q-3 1 -3 5q0 2 1 7 q6 4 15 21q6 13 18 9l1 -12q1 -5 13 -17t12 -18q0 -5 -4 -9q1 0 5.5 4t6.5 4t7 -4.5t9 -3.5q4 -3 4 -6q0 -2 -2 -3q-15 -4 -31 -24q-20 -24 -28 -29q-6 2 -14.5 15t-15.5 14q3 13 -1 13q-7 -1 -16 -1q-7 4 -15 16zM311 283v20q3 24 34 24h27q1 1 7 -2q7 2 20 9 q0 20 11.5 31.5t12.5 16.5q-9 -4 -24 -3v83h-5l5 1q-6 2 -14 6q5 13 14 17q10 0 30.5 11.5t29.5 11.5q2 -3 -1 -3l3 -3q1 7 10 22q9 9 31 29q11 5 25 28.5t27 27.5q2 -3 1 -11q-1 -6 -1 -12l-2 -1q17 -42 35 -58q2 -2 2 -4q0 -3 -2 -6l-2 -8q12 6 22 -10q11 -6 34 -21 q7 -1 21 21q-13 6 -4 23q3 2 6 2q5 0 9 -9q6 -12 7 -13q-8 -37 -52 -68q-4 -2 -26 -10q-28 4 -40 9q-20 8 -31 24l-1 11q-9 -1 -38 25v-64q-3 -16 -16 -23q0 -10 2 -11q1 8 15 5v-70q47 -7 65 -3q-3 7 3 20q8 6 24 4q0 -2 7.5 -12t7.5 -16q0 -12 -6 -16t-7 -5q-32 0 -95 -2 v-139q0 -72 26 -75q9 6 27 16l10 -3q-1 -6 -1 -18q-31 -9 -58 -45l-28 -40q-5 -7 -10 -4q-6 4 -10 7q-14 14 -15 18q-2 6 4 20q5 -1 -23 -8v5q-12 11 -48 28q-1 5 0 12l33 36q1 13 21 13q-1 2 -11 6t-10 11v42q14 0 36 9q-1 4 -7 9q-4 -1 -15 1q-10 2 -14 -1v96q1 -1 -59 -3 q0 -3 6 -5t6 -4q0 -5 -18 -19q-11 3 -23 17zM1 283v20q3 24 34 24h27q1 1 7 -2q7 2 20 9q0 20 11.5 31.5t12.5 16.5q-9 -4 -24 -3v83h-5l5 1q-6 2 -14 6q5 13 14 17q10 0 30.5 11.5t29.5 11.5q2 -3 -1 -3l3 -3q1 7 10 22q9 9 31 29q11 5 25 28.5t27 27.5q2 -3 1 -11 q-1 -6 -1 -12l-2 -1q17 -42 35 -58q2 -2 2 -4q0 -3 -2 -6l-2 -8q12 6 22 -10q11 -6 34 -21q7 -1 21 21q-13 6 -4 23q3 2 6 2q5 0 9 -9q6 -12 7 -13q-8 -37 -52 -68q-4 -2 -26 -10q-28 4 -40 9q-20 8 -31 24l-1 11q-9 -1 -38 25v-64q-3 -16 -16 -23q0 -10 2 -11q1 8 15 5v-70 q47 -7 65 -3q-3 7 3 20q8 6 24 4q0 -2 7.5 -12t7.5 -16q0 -12 -6 -16t-7 -5q-32 0 -95 -2v-139q0 -72 26 -75q9 6 27 16l10 -3q-1 -6 -1 -18q-31 -9 -58 -45l-28 -40q-5 -7 -10 -4q-6 4 -10 7q-14 14 -15 18q-2 6 4 20q5 -1 -23 -8v5q-12 11 -48 28q-1 5 0 12l33 36 q1 13 21 13q-1 2 -11 6t-10 11v42q14 0 36 9q-1 4 -7 9q-4 -1 -15 1q-10 2 -14 -1v96q1 -1 -59 -3q0 -3 6 -5t6 -4q0 -5 -18 -19q-11 3 -23 17z" />
<glyph unicode="&#xfb04;" horiz-adv-x="807" d="M630 415q0 14 10 31q1 1 20 28q13 18 29 22q14 -9 10 -9q3 4 3 6q0 4 -2.5 10t-2.5 9q0 2 2 4q6 6 18 31q10 21 22 29l9 -9v-139l-26 -17q6 -8 11 -5q2 1 9 1q0 -8 8 -13v-101l-7 -9t-10 -2q-4 -4 -2 -6l1 -1q5 0 13 1q7 -14 7 -87q-13 -8 -13 -12q0 -3 1 -4 q14 -1 14 -40l29 -37l10 3q6 0 7 -7q-12 -10 -24 -35q-6 2 -17 -4q0 -16 -27 -55l-7 1l-20 20q-11 12 -12 23q5 5 5 8q0 2 -1 3l-2 1q-2 -5 -12 -5q-5 0 -11 1q-22 22 -37 30q3 9 13 21q7 2 10 -6q2 -4 5 -5q2 3 -2.5 13.5t-4.5 13.5q0 5 7 9v94q2 3 16 6t12 10 q-2 4 -15.5 7.5t-12.5 12.5q5 11 13 15q6 0 8 4q0 9 -4 12q-8 -1 -17 4v53q1 7 11.5 7t11.5 5q-18 7 -22 33q-1 9 -1 57q-7 -5 -16 -19q-1 -5 3 -15l2 -11q-4 -3 -8 -3q-14 0 -14 17zM311 283v20q3 24 34 24h27q1 1 7 -2q7 2 20 9q0 20 11.5 31.5t12.5 16.5q-9 -4 -24 -3v83 h-5l5 1q-6 2 -14 6q5 13 14 17q10 0 30.5 11.5t29.5 11.5q2 -3 -1 -3l3 -3q1 7 10 22q9 9 31 29q11 5 25 28.5t27 27.5q2 -3 1 -11q-1 -6 -1 -12l-2 -1q17 -42 35 -58q2 -2 2 -4q0 -3 -2 -6l-2 -8q12 6 22 -10q11 -6 34 -21q7 -1 21 21q-13 6 -4 23q3 2 6 2q5 0 9 -9 q6 -12 7 -13q-8 -37 -52 -68q-4 -2 -26 -10q-28 4 -40 9q-20 8 -31 24l-1 11q-9 -1 -38 25v-64q-3 -16 -16 -23q0 -10 2 -11q1 8 15 5v-70q47 -7 65 -3q-3 7 3 20q8 6 24 4q0 -2 7.5 -12t7.5 -16q0 -12 -6 -16t-7 -5q-32 0 -95 -2v-139q0 -72 26 -75q9 6 27 16l10 -3 q-1 -6 -1 -18q-31 -9 -58 -45l-28 -40q-5 -7 -10 -4q-6 4 -10 7q-14 14 -15 18q-2 6 4 20q5 -1 -23 -8v5q-12 11 -48 28q-1 5 0 12l33 36q1 13 21 13q-1 2 -11 6t-10 11v42q14 0 36 9q-1 4 -7 9q-4 -1 -15 1q-10 2 -14 -1v96q1 -1 -59 -3q0 -3 6 -5t6 -4q0 -5 -18 -19 q-11 3 -23 17zM1 283v20q3 24 34 24h27q1 1 7 -2q7 2 20 9q0 20 11.5 31.5t12.5 16.5q-9 -4 -24 -3v83h-5l5 1q-6 2 -14 6q5 13 14 17q10 0 30.5 11.5t29.5 11.5q2 -3 -1 -3l3 -3q1 7 10 22q9 9 31 29q11 5 25 28.5t27 27.5q2 -3 1 -11q-1 -6 -1 -12l-2 -1q17 -42 35 -58 q2 -2 2 -4q0 -3 -2 -6l-2 -8q12 6 22 -10q11 -6 34 -21q7 -1 21 21q-13 6 -4 23q3 2 6 2q5 0 9 -9q6 -12 7 -13q-8 -37 -52 -68q-4 -2 -26 -10q-28 4 -40 9q-20 8 -31 24l-1 11q-9 -1 -38 25v-64q-3 -16 -16 -23q0 -10 2 -11q1 8 15 5v-70q47 -7 65 -3q-3 7 3 20q8 6 24 4 q0 -2 7.5 -12t7.5 -16q0 -12 -6 -16t-7 -5q-32 0 -95 -2v-139q0 -72 26 -75q9 6 27 16l10 -3q-1 -6 -1 -18q-31 -9 -58 -45l-28 -40q-5 -7 -10 -4q-6 4 -10 7q-14 14 -15 18q-2 6 4 20q5 -1 -23 -8v5q-12 11 -48 28q-1 5 0 12l33 36q1 13 21 13q-1 2 -11 6t-10 11v42 q14 0 36 9q-1 4 -7 9q-4 -1 -15 1q-10 2 -14 -1v96q1 -1 -59 -3q0 -3 6 -5t6 -4q0 -5 -18 -19q-11 3 -23 17z" />
</font>
</defs>
</svg>
